<?xml version="1.0" encoding="utf-8"?>
<!--
 Semantic Body Illustrations - v1.0.0 - 2014-08-22
 http://sbb.cellfinder.org
-->
<!DOCTYPE svg PUBLIC "-//W3C//DTD SVG 1.1//EN" "http://www.w3.org/Graphics/SVG/1.1/DTD/svg11.dtd">
<svg version="1.1" id="renal_lobe" xmlns="http://www.w3.org/2000/svg" xmlns:xlink="http://www.w3.org/1999/xlink" x="0px" y="0px"
	 width="310.904px" height="350.92px" viewBox="0 0 310.904 350.92" enable-background="new 0 0 310.904 350.92" xml:space="preserve"
	 prefix="uberon: http://purl.obolibrary.org/obo/UBERON_ ro: http://www.obofoundry.org/ro/ro.owl# go: http://purl.org/obo/owl/GO#GO_ ma: http://purl.org/obo/owl/MA#MA_ cl: http://purl.org/obo/owl/CL# celda: http://ontology.cellfinder.org/CELDA.owl#CELDA_ ncbitaxon: http://purl.obolibrary.org/obo/NCBITaxon_ biotop: http://purl.org/biotop/biotop.owl#"
	 about="uberon:0009913"
	 typeof="ncbitaxon:10090">
<title>Human Adult Renal Lobe</title>
<desc>Copyright (C) Lekschas et al. Licensed under Creative Commons BY-SA 4.0</desc>
<desc>Homepage: http://sbb.cellfinder.org</desc>
<desc>Repository: https://github.com/flekschas/sbi</desc>
<path property="ro:has_part" resource="uberon:0005215" id="medullary_interstitium" fill="#DDDCDC" d="M281.354,32.979C155.748-19.045,12.633,36.734,12.633,36.734l103.253,305.478
	l65.298,0.176L296.1,39.413C291.251,37.087,286.332,34.948,281.354,32.979z"/>
<path property="ro:has_part" resource="uberon:0005215" id="cortical_interstitium" fill="#E8E9EA" d="M23.57,123.883c33.657,7.439,64.684-28.199,101.333-25.594
	c24.343,1.73,50.178,4.422,74.076,4.578s39.978,11.018,59.354,18.11c20.237,7.408,40.57,34.688,40.57,34.688l12-109.03
	c0,0-37.937-16.965-90-28.2c-26.258-5.666-59.087-7.234-92.664-4.437C94.852,16.781,69.117,23.816,41.57,30.12
	C5.749,38.317-12.763,52.675-12.763,52.675l25.396,88.99L23.57,123.883z"/>
<g property="ro:has_part" resource="uberon:0001013" id="adipose_tissue">
	<path fill="#D1D3D4" stroke="#939598" stroke-width="0.4252" d="M206.461,258.635c6.274-0.124,4.897,13.177,3.138,14.937
		c1.964,4.704-6.479,21.341-9.557,22.354c6.15,9.551-5.714,25.568-8.3,26.599c4.602,9.146,2.456,19.222-4.067,21.812
		c-6.522,2.587-12.361,3.206-15.087-0.484c-7.948,2.766-20.573,2.982-23.687,0.347c-6.775,3.129-14.579,3.673-16.573,0.559
		c-6.106,2.258-15.949,2.377-18.109-0.945c-6.67,1.888-11.602-12.306-7.75-17.744c-5.825-7.428-5.588-16.735-1.86-18.129
		c-3.56-5.343-4.134-13.873-0.786-15.917c-7.927-4.67-9.842-9.142-9.808-15.362c-5.096-4.533-10.771-18.205-4.322-21.145
		s19.63,8.181,20.052,10.771c7.818-1.643,13.933,16.446,11.741,19.345c3.757,3.962,3.556,15.763-0.086,18.141
		c4.094,4.41,8.792,20.966,3.699,23.985c5.059,0.887,8.664,3.541,8.965,5.548c4.083-3.172,13.761,1.13,14.416,3.672
		c2.071-3.48,11.537-6.567,15.318-4.802c0.044-5.006,6.029-14.793,9.966-16.35c-0.159-4.232,4.662-18.402,9.42-19.524
		c-1.464-6.393,3.552-19.631,8.796-21.343C189.625,268.386,192.386,258.913,206.461,258.635z"/>
	<path fill="none" stroke="#939598" stroke-width="0.4252" d="M191.98,274.958c1.276,3.753,14.302,1.382,17.619-1.387"/>
	<path fill="none" stroke="#939598" stroke-width="0.4252" d="M183.184,296.301c0.915,2.61,10.077,4.462,16.858-0.375"/>
	<path fill="none" stroke="#939598" stroke-width="0.4252" d="M173.764,315.826c5.226-1.22,8.947,3.724,8.246,8.502
		c-0.704,4.776-7.166,13.445-10.348,13.382c-3.183-0.062-7.042-2.783-7.864-5.534"/>
	<path fill="none" stroke="#939598" stroke-width="0.4252" d="M191.743,322.525c-2.48-2.523-7.279-2.978-9.76-0.751"/>
	<path fill="none" stroke="#939598" stroke-width="0.4252" d="M172.588,343.853c-1.173-2.679-0.926-6.144-0.926-6.144"/>
	<path fill="none" stroke="#939598" stroke-width="0.4252" d="M148.48,336.977c0,0,2.996,4.975,0.422,7.223"/>
	<path fill="none" stroke="#939598" stroke-width="0.4252" d="M134.064,333.305c-2.991,2.579-3.1,10.243-1.735,11.453"/>
	<path fill="none" stroke="#939598" stroke-width="0.4252" d="M125.099,327.757c-4.599,0.724-11.849,12.604-10.88,16.056"/>
	<path fill="none" stroke="#939598" stroke-width="0.4252" d="M106.47,326.069c3.467,5.484,16.002,2.241,18.629,1.688"/>
	<path fill="none" stroke="#939598" stroke-width="0.4252" d="M104.609,307.94c1.982,1.897,12.41,0.5,16.791-4.168"/>
	<path fill="none" stroke="#939598" stroke-width="0.4252" d="M103.823,292.023c2.855,0.252,6.522-0.274,7.031-5.378
		c0.513-5.103-2.678-13.326-7.144-14.58c-4.468-1.255-8.815,1.242-9.695,4.596"/>
	<path fill="none" stroke="#939598" stroke-width="0.4252" d="M109.745,266.287c-3.034,0.639-5.573,4.082-4.814,6.307"/>
	<path fill="none" stroke="#939598" stroke-width="0.4252" d="M111.064,287.211c1.067,3.187,6.98,2.919,10.421-1.58"/>
</g>
<g property="ro:has_part" resource="ma:0001654" id="renal_pyramids">
	<path display="none" fill="#A7A9AC" stroke="#FFFFFF" stroke-width="1.4173" d="M161.452,118.725
		c23.148,2.282,41.544,8.423,54.618,13.32c13.074,4.898,18.42,12.105,19.573,21.237c1.152,9.132-19.548,34.941-31.984,66.167
		c-9.103,22.855-18.688,48.12-26.253,63.328c-2.771,5.57-5.271,9.792-7.377,12.054c-7.859,8.442-30.144,16.167-41.789-4.021
		c-7.91-13.712-13.206-17.739-24.187-46.087c-10.98-28.347-26.686-68.874-30.022-82.407c-3.338-13.533,0.393-27.384,17.704-32.536
		C109.043,124.629,137.452,116.36,161.452,118.725z"/>
	<path fill="#A7A9AC" stroke="#FFFFFF" stroke-width="1.4173" d="M161.452,118.725c23.148,2.282,41.544,8.423,54.618,13.32
		c13.074,4.898,18.42,12.105,19.573,21.237c1.152,9.132-19.548,34.941-31.984,66.167c-9.103,22.855-18.688,48.12-26.253,63.328
		c-2.771,5.57-5.271,9.792-7.377,12.054c-7.859,8.442-30.699,16.478-41.789-4.021c-8.426-15.574-15.669-25.313-24.187-46.087
		c-11.533-28.126-26.686-68.874-30.022-82.407c-3.338-13.533,0.393-27.384,17.704-32.536
		C109.043,124.629,137.452,116.36,161.452,118.725z"/>
	<path fill="none" stroke="#6D6E71" stroke-width="0.8504" d="M163.679,120.978c-2.415,28.979-1.327,46.096-5.396,80.673
		c-4.073,34.575-4.632,83.16-2.467,100.639"/>
	<path fill="none" stroke="#D1D3D4" stroke-width="0.5669" d="M164.976,120.951c-2.415,28.979-1.327,46.096-5.398,80.673
		c-4.07,34.576-4.63,83.16-2.467,100.637"/>
	<path fill="none" stroke="#6D6E71" stroke-width="0.8504" d="M152.317,118.365c0,0-4.453,38.725-4.967,77.153
		c-0.517,38.427,5.905,86.387,5.21,107.974"/>
	<path fill="none" stroke="#6D6E71" stroke-width="0.8504" d="M232.288,145.389c0,0-22.435,39.547-32.199,70.978
		c-9.768,31.429-26.013,70.474-31.808,78.993"/>
	<path fill="none" stroke="#6D6E71" stroke-width="0.8504" d="M222.711,135.68c0,0-16.577,40.075-24.684,63.493
		c-8.107,23.417-27.434,85.338-31.318,97.241"/>
	<path fill="none" stroke="#6D6E71" stroke-width="0.8504" d="M203.024,127.583c0,0-3.737,36.102-11.499,67.923
		s-24.478,88.585-26.457,102.285"/>
	<path fill="none" stroke="#6D6E71" stroke-width="0.8504" d="M188.682,123.423c-4.019,26.646-6.442,68.339-13.222,95.82
		c-6.782,27.482-13.463,80.475-13.463,80.475"/>
	<path fill="none" stroke="#6D6E71" stroke-width="0.8504" d="M138.95,119.243c-1.603,30.92-0.59,64.369,1.372,95.123
		c1.962,30.754,9.845,89.154,9.845,89.154"/>
	<path fill="none" stroke="#6D6E71" stroke-width="0.8504" d="M122.129,121.832c6.708,39.209,9.521,66.146,11.987,91.483
		c2.466,25.339,11.62,79.376,14.268,90.293"/>
	<path fill="none" stroke="#6D6E71" stroke-width="0.8504" d="M110.775,124.907c5.779,38.126,15.833,80.589,19.66,103.798
		c3.825,23.209,11.007,60.855,15.27,75.179"/>
	<path fill="none" stroke="#6D6E71" stroke-width="0.8504" d="M99.617,127.534c5.384,29.269,14.37,57.987,22.896,94.46
		c8.525,36.473,17.43,74.618,19.6,81.241"/>
	<path fill="none" stroke="#6D6E71" stroke-width="0.8504" d="M87.434,131.509c14.645,40.606,26.133,94.865,35.572,122.771
		c9.441,27.904,15.584,47.769,15.584,47.769"/>
	<path fill="none" stroke="#6D6E71" stroke-width="0.8504" d="M77.788,138.945c14.288,33.951,23.229,69.902,30.266,88.98
		c10.213,27.686,10.333,27.573,27.772,72.54"/>
	<path fill="none" stroke="#6D6E71" stroke-width="0.8504" d="M73.46,146.172c8.396,25.369,31.749,84.513,36.834,100.048
		c5.087,15.538,18.824,45.581,18.824,45.581"/>
	<path fill="none" stroke="#D1D3D4" stroke-width="0.5669" d="M153.613,118.338c0,0-4.451,38.725-4.968,77.152
		c-0.515,38.428,6.012,85.842,5.183,107.744"/>
	<path fill="none" stroke="#D1D3D4" stroke-width="0.5669" d="M233.584,145.363c0,0-22.434,39.547-32.199,70.977
		c-9.767,31.43-26.015,70.477-31.808,78.995"/>
	<path fill="none" stroke="#D1D3D4" stroke-width="0.5669" d="M224.008,135.653c0,0-16.577,40.076-24.684,63.494
		c-8.108,23.417-27.434,85.338-31.318,97.241"/>
	<path fill="none" stroke="#D1D3D4" stroke-width="0.5669" d="M204.321,127.555c0,0-3.75,35.956-11.512,67.776
		c-7.761,31.821-24.467,88.729-26.446,102.434"/>
	<path fill="none" stroke="#D1D3D4" stroke-width="0.5669" d="M189.978,123.396c-4.018,26.646-6.441,68.339-13.223,95.821
		c-6.779,27.482-13.462,80.473-13.462,80.473"/>
	<path fill="none" stroke="#D1D3D4" stroke-width="0.5669" d="M140.247,119.216c-1.603,30.92-0.59,64.369,1.37,95.123
		c1.964,30.754,9.846,89.152,9.846,89.152"/>
	<path fill="none" stroke="#D1D3D4" stroke-width="0.5669" d="M123.426,121.805c6.705,39.208,9.521,66.146,11.986,91.483
		c2.466,25.339,11.621,79.377,14.27,90.292"/>
	<path fill="none" stroke="#D1D3D4" stroke-width="0.5669" d="M112.072,124.88c5.78,38.126,15.834,80.59,19.66,103.799
		c3.825,23.209,11.007,60.853,15.27,75.178"/>
	<path fill="none" stroke="#D1D3D4" stroke-width="0.5669" d="M100.915,127.507c5.385,29.269,14.37,57.987,22.896,94.46
		c8.526,36.474,17.43,74.618,19.6,81.239"/>
	<path fill="none" stroke="#D1D3D4" stroke-width="0.5669" d="M88.73,131.483c14.645,40.606,26.131,94.865,35.573,122.77
		c9.441,27.905,15.582,47.769,15.582,47.769"/>
	<path fill="none" stroke="#D1D3D4" stroke-width="0.5669" d="M79.084,138.919c14.289,33.951,23.229,69.902,30.266,88.979
		c7.037,19.076,27.771,72.542,27.771,72.542"/>
	<path fill="none" stroke="#D1D3D4" stroke-width="0.5669" d="M74.756,146.146c8.397,25.369,31.75,84.513,36.836,100.05
		c5.085,15.536,20.878,50.646,20.878,50.646"/>
	<path fill="none" stroke="#FFFFFF" stroke-width="1.4173" d="M161.452,118.725c23.148,2.282,41.544,8.423,54.618,13.32
		c13.074,4.898,18.42,12.105,19.573,21.237c1.152,9.132-19.548,34.941-31.984,66.167c-9.103,22.855-18.688,48.12-26.253,63.328
		c-2.771,5.57-5.271,9.792-7.377,12.054c-7.859,8.442-30.699,16.478-41.789-4.021c-8.426-15.574-15.669-25.313-24.187-46.087
		c-11.533-28.126-26.686-68.874-30.022-82.407c-3.338-13.533,0.393-27.384,17.704-32.536
		C109.043,124.629,137.452,116.36,161.452,118.725z"/>
</g>
<g property="ro:has_part" resource="uberon:0001227" id="minor_calyx">
	<path fill="#A7A9AC" stroke="#FFFFFF" stroke-width="1.4173" d="M167.871,363.78c0,0-1.555-3.388-0.01-18.627
		c1.762-17.368,7.303-40.96,9.912-50.875c1.146-4.357,1.944-8.242,2.498-9.711c0.778-2.066-2.166-2.823-3.023-1.388
		c-3.335,5.583-8.921,19.414-27.377,20.583c-16.184,1.026-22.267-13.786-24.023-17.25c-1.589-3.132-5.886-2.021-4.187,1.982
		c2.802,6.603,3.046,19.044,5.034,34.478c1.783,13.833,1.281,41.506,1.281,41.506"/>
	<path fill="#808080" d="M180.03,282.987c-0.699-0.743-2.207-0.769-2.782,0.192c-3.335,5.583-8.921,19.414-27.377,20.583
		c-16.184,1.026-22.267-13.786-24.023-17.25c-1.589-3.132-5.886-2.021-4.187,1.982c2.802,6.603,3.046,19.044,5.034,34.478
		c1.783,13.833,1.281,41.506,1.281,41.506l7.349-0.13c2.425-32.159-3.551-50.321-0.286-51.164c3.474-0.897,9.27,2.962,21.971-1.634
		C169.568,307.01,174.293,299.14,180.03,282.987z"/>
	<path fill="none" stroke="#FFFFFF" stroke-width="1.4173" d="M167.871,363.78c0,0-1.555-3.388-0.01-18.627
		c1.762-17.368,7.303-40.96,9.912-50.875c1.146-4.357,1.944-8.242,2.498-9.711c0.778-2.066-2.166-2.823-3.023-1.388
		c-3.335,5.583-8.921,19.414-27.377,20.583c-16.184,1.026-22.267-13.786-24.023-17.25c-1.589-3.132-5.886-2.021-4.187,1.982
		c2.802,6.603,3.046,19.044,5.034,34.478c1.783,13.833,1.281,41.506,1.281,41.506"/>
</g>
<path property="ro:has_part" resource="uberon:0001228" id="renal_papilla" fill="none" stroke="#FFFFFF" stroke-width="1.4173" d="M177.248,283.179
	c-3.335,5.583-8.921,19.414-27.377,20.583c-16.184,1.026-22.267-13.786-24.023-17.25"/>
<g property="ro:has_part" resource="uberon:0001285" id="nephron">
	<path fill="#FFFFFF" stroke="#000000" stroke-width="0.4252" d="M164.234,59.948c0.054-9.438,2.347-17.704,2.347-17.704
		c0.526-2.645,3.239-14.252,5.941-13.675c4.253,0.908,1.075,13.245,0.979,13.885c-0.43,2.898,0.535,5.178,1.385,7.19
		c0.786,1.862,1.892,5.689,1.685,7.883h0.002c-0.478,2.695-0.844,6.217-0.925,10.747c-0.097,5.299-0.038,11.529-0.432,17.391
		c-0.973,14.6-1.723,36.838-4.475,77.768c0,0-1.546,27.623-3.82,46.467c-0.598,4.949-1.271,10.527-2.03,17.043
		c-3.746,32.137-9.745,75-9.709,75.935s6.174-0.395,5.911-1.685c-0.889-4.364,3.432-41.733,7.178-73.856
		c0.758-6.511,1.431-12.085,2.029-17.03c2.355-19.532,3.11-27.313,4.369-48.34c2.645-39.743,3.228-61.706,4.186-76.032
		c0.394-5.923,0.501-11.961,0.6-17.29c0.069-4.053,0.14-7.979,0.342-10.984c0.062-0.653,0.121-1.346,0.177-2.045
		c0.152-1.372,0.351-2.411,0.626-2.979c1.561-3.256,3.302-5.034,3.317-5.049c0.42-0.474-1.224-2.461-1.811-1.811
		c-0.059,0.058-1.028,1.043-2.21,2.875c-0.077-0.37-0.172-0.71-0.291-0.999c-0.702-1.658-1.255-2.969-1.035-4.445
		c0.09-0.606,0.212-1.311,0.348-2.084c1.047-6.066,2.481-14.373-2.448-17.041c-2.014-1.09-4.534-1.079-6.925,0.025
		c-0.027,0.014-0.054,0.026-0.081,0.039c-1.266,0.599-2.446,1.425-3.329,2.485c-1.298,1.559-3.302,6.431-5.203,17.941
		c-0.865,4.8-1.634,10.193-1.816,15.189"/>
	<path fill="#FFFFFF" stroke="#000000" stroke-width="0.4252" d="M159.114,59.762c-0.236,6.542-0.336,16.023-0.427,24.389
		c-0.047,4.462,1.224,8.933,1.201,9.836c-0.314,13.134-0.351,28.093,3.288,28.57c0.527,0.069,1.045-0.011,1.528-0.234
		c0.23-0.107,0.454-0.246,0.668-0.418c2.845-2.304,3.786-10.834,4.67-21.803l0.002,0c0.287-1.917,1.844-2.557,2.042-6.399
		c0.244-4.619,0.783-29.274,0.813-35.382c0.036-6.813-2.271-12.521-6.319-16.077c-2.303-1.928-2.312-1.672-4.644-2.887
		s-3.142-1.966-2.853-2.964c0.862-2.977,4.694-3.273,6.757-7.795c0.515-1.127-0.084-3.022-0.408-3.515
		c-1.036-1.583-2.728-2.378-4.518-2.128c-2.404,0.341-4.555,2.461-5.481,5.415c-0.095,0.301-0.69,0.82-1.671,0.983
		c-0.612,0.102,0.73-1.646,0.435-3.717c-0.343-2.394-2.183-6.854-7.363-4.523c-4.531,2.038-2.739,8.302-0.105,9.635
		c1.649,0.837,2.315,0.682,2.946,1.272c0.013,0.01,1.561,2.851,4.67,2.426c-0.355,0.76-0.524,1.597-0.484,2.477
		c0.079,1.698,1.063,4.933,6.783,7.509c0.097,0.043,0.189,0.096,0.286,0.143c0,0,2.943,1.661,4.486,4.175s2.381,5.796,2.36,9.547
		c-0.029,6.021-0.498,24.759-1.167,35.647c-0.117,1.863,0.987,4.315,0.854,6.306c-1.123,16.867-1.873,19.711-3.892,19.791
		c-1.979,0.079-1.27-23.033-1.131-25.799c0.143-2.768,1.319-5.556,1.368-10.033c0.09-8.335,0.188-17.781,0.424-24.257"/>
	<path fill="#FFFFFF" stroke="#000000" stroke-width="0.4252" d="M182.105,45.776c0.587-0.65,2.23,1.337,1.811,1.811
		C183.495,48.061,181.672,46.253,182.105,45.776z"/>
	<path fill="none" stroke="#000000" stroke-width="0.4252" d="M154.345,34.444c1.015-3.213,6.846-5.036,5.975-7.343"/>
	<path fill="#A7A9AC" stroke="#000000" stroke-width="0.4252" d="M160.421,301.161c0.074,0.271-0.922,0.793-2.021,1.103
		c-1.095,0.31-2.454,0.523-2.532,0.249c-0.077-0.274,1.156-0.935,2.255-1.245C159.22,300.959,160.342,300.885,160.421,301.161z"/>
	<path fill="#FFFFFF" stroke="#000000" stroke-width="0.4252" d="M174.12,147.461c0,0,2.025-1.299,3.505-3.835
		c1.365,0.747,2.081,1.231,2.081,1.231s-4.597,6.105-5.312,9.209"/>
	<path fill="#BCBEC0" stroke="#000000" stroke-width="0.4252" d="M177.625,143.626c0.376-0.664,2.386,0.818,2.081,1.231
		C179.401,145.271,177.332,144.146,177.625,143.626z"/>
	<path fill="#FFFFFF" stroke="#000000" stroke-width="0.4252" d="M166.513,233.983c0,0,2.178-1.023,3.977-3.344
		c1.255,0.918,1.901,1.492,1.901,1.492s-5.355,5.453-6.469,8.436"/>
	<path fill="#BCBEC0" stroke="#000000" stroke-width="0.4252" d="M170.49,230.639c0.459-0.609,2.259,1.123,1.901,1.492
		C172.035,232.501,170.131,231.116,170.49,230.639z"/>
	<path fill="#FFFFFF" stroke="#000000" stroke-width="0.4252" d="M169.814,181.539c0,0-2.379-0.37-4.757-2.091
		c-0.945,1.234-1.406,1.967-1.406,1.967s4.224,2.575,6.133,5.125"/>
	<path fill="#BCBEC0" stroke="#000000" stroke-width="0.4252" d="M165.057,179.448c-0.612-0.456-1.852,1.712-1.406,1.967
		C164.098,181.67,165.536,179.805,165.057,179.448z"/>
</g>
<g property="ro:has_part" resource="uberon:0004719" id="arcuate_vein">
	<path fill="#808285" stroke="#000000" stroke-width="0.4252" d="M190.004,119.946c-5.746,0.237-9.554,3.789-9.591,3.824l0,0
		l-1.961-2.046c0.182-0.177,4.568-4.327,11.437-4.611"/>
	<path fill="#58595B" stroke="#000000" stroke-width="0.4252" d="M178.453,121.724c0.686-0.584,2.605,1.44,1.961,2.046
		C179.77,124.375,177.665,122.394,178.453,121.724z"/>
	<path fill="#808285" stroke="#000000" stroke-width="0.4252" d="M131.457,117.46c5.68-0.911,10.116,1.81,10.16,1.838l0,0
		l1.515-2.395c-0.214-0.138-5.34-3.331-12.125-2.241"/>
	<path fill="#58595B" stroke="#000000" stroke-width="0.4252" d="M143.131,116.903c-0.788-0.436-2.267,1.93-1.515,2.395
		C142.369,119.763,144.037,117.401,143.131,116.903z"/>
	<path fill="#808285" stroke="#000000" stroke-width="0.4252" d="M101.188,124.162c5.679-0.911,10.116,1.81,10.16,1.838l0,0
		l1.514-2.396c-0.213-0.138-5.34-3.331-12.125-2.241"/>
	<path fill="#58595B" stroke="#000000" stroke-width="0.4252" d="M112.862,123.604c-0.787-0.436-2.266,1.93-1.514,2.396
		C112.1,126.465,113.768,124.103,112.862,123.604z"/>
	<path fill="#808285" stroke="#000000" stroke-width="0.4252" d="M78.131,134.312c5.245-2.36,10.239-0.889,10.288-0.874l0,0
		l0.838-2.708c-0.243-0.077-6.023-1.825-12.29,0.996"/>
	<path fill="#58595B" stroke="#000000" stroke-width="0.4252" d="M89.257,130.73c-0.874-0.214-1.686,2.455-0.838,2.708
		C89.267,133.692,90.261,130.976,89.257,130.73z"/>
	<path fill="#808285" stroke="#000000" stroke-width="0.4252" d="M224.055,131.645c-5.634-1.16-10.185,1.367-10.23,1.392l0,0
		l-1.409-2.46c0.22-0.127,5.481-3.093,12.212-1.708"/>
	<path fill="#58595B" stroke="#000000" stroke-width="0.4252" d="M212.416,130.576c0.808-0.399,2.182,2.028,1.409,2.46
		C213.053,133.469,211.491,131.035,212.416,130.576z"/>
	<path fill="#808285" stroke="#000000" stroke-width="0.4252" d="M68.904,138.916c6.333-10.5,17.259-17.502,52.649-25.176
		c33.922-7.384,53.739-2.312,76.689,3.528l3.443,0.875c22.809,5.766,37.015,13.868,43.217,24.692l-3.421,6.001
		c-4.104-10.986-17.575-19.229-41.186-25.197l-3.453-0.876c-21.987-5.595-41.014-10.436-72.921-3.731
		c-0.389,0.082-0.775,0.164-1.167,0.249c-36.644,7.946-44.791,15.365-48.935,22.469"/>
</g>
<g property="ro:has_part" resource="uberon:0001552" id="arcuate_artery">
	<path fill="#A7A9AC" stroke="#000000" stroke-width="0.4252" d="M68.132,133.314c5.687-6.357,16.476-13.526,36.936-17.98
		c34.654-7.533,64.662-8.11,89.23-1.685c2.346,0.614,4.601,1.192,6.763,1.749c21.231,5.456,32.927,8.46,37.285,19.347l5.264-2.107
		c-5.428-13.555-18.867-17.009-41.138-22.73c-2.154-0.554-4.401-1.131-6.74-1.742c-25.439-6.653-56.338-6.111-91.87,1.63
		c-22.566,4.914-34.493,13.081-40.785,20.579"/>
</g>
<g property="ro:has_part" resource="uberon:0009887" id="interlobar_vein">
	<path fill="#808285" stroke="#000000" stroke-width="0.4252" d="M246.792,146.852c5.1,13.658-4.048,30.78-13.021,45.756
		c-5.866,9.788-12.149,29.18-18.226,47.931c-3.513,10.843-7.146,22.056-10.737,31.563c-10.858,28.746-17.746,50.562-20.809,77.002
		l0,0l-5.631-0.654c3.456-29.835,11.973-54.087,21.138-78.352c3.543-9.379,7.153-20.526,10.647-31.306
		c6.455-19.932,12.558-38.757,18.753-49.098c8.294-13.845,16.791-29.562,12.574-40.86l3.797-5.127L246.792,146.852z"/>
	<path fill="#808285" stroke="#000000" stroke-width="0.4252" d="M73.876,141.623c-4.827,8.311-1.4,21.461,5.229,38.648
		c6.381,16.542,14.234,41.708,21.162,63.912c1.111,3.565,2.193,7.033,3.233,10.349c7.828,24.96,19.673,76.082,19.999,95.555
		l-5.669,0.093c-0.317-18.996-12.011-69.305-19.739-93.952c-1.042-3.318-2.124-6.788-3.236-10.355
		c-6.901-22.12-14.724-47.192-21.038-63.56c-7.424-19.244-10.823-33.24-4.842-43.537"/>
	<path fill="#58595B" stroke="#000000" stroke-width="0.4252" d="M117.83,350.179c0.051,1.09,5.694,0.91,5.669-0.093
		C123.472,349.082,117.792,349.37,117.83,350.179z"/>
	<path fill="#58595B" stroke="#000000" stroke-width="0.4252" d="M178.37,348.45c-0.163,1.156,5.418,2.049,5.608,0.65
		C184.166,347.704,178.479,347.665,178.37,348.45z"/>
	<path fill="#808285" stroke="#000000" stroke-width="0.4252" d="M244.916,155.046c6.757-8.636,22.277-13.7,24.34-14.343l1.69,5.413
		c-5.864,1.833-21.482,8.244-23.323,15.787l0,0"/>
	<path fill="#808285" stroke="#000000" stroke-width="0.4252" d="M67.123,161.209c-0.234-2.579-1.678-4.975-4.292-7.122
		c-5.986-4.917-17.066-7.478-23.656-6.784l-0.594-5.638c7.869-0.829,20.436,1.953,27.849,8.041c2.038,1.675,3.596,3.506,4.665,5.478
		"/>
	<path fill="#58595B" stroke="#000000" stroke-width="0.4252" d="M269.255,140.703c1.101-0.378,2.8,5.048,1.69,5.413
		C269.833,146.479,268.154,141.082,269.255,140.703z"/>
	<path fill="#58595B" stroke="#000000" stroke-width="0.4252" d="M38.581,141.666c1.077-0.088,1.802,5.496,0.594,5.638
		C37.966,147.445,37.503,141.754,38.581,141.666z"/>
</g>
<g property="ro:has_part" resource="uberon:0009885" id="interlobar_artery">
	<path fill="#A7A9AC" stroke="#000000" stroke-width="0.4252" d="M243.404,132.083c4.625,11.375-4.289,30.668-12.917,49.098
		c-2.859,6.109-5.561,11.878-7.532,16.899c-2.917,7.424-5.537,12.916-8.314,18.729c-4.463,9.349-9.52,19.945-16.947,41.397
		c-11.901,34.373-19.8,77.646-21.088,89.899l0,0l-5.64-0.593c1.501-14.283,9.556-57.044,21.369-91.163
		c7.532-21.753,12.664-32.5,17.19-41.984c2.731-5.72,5.31-11.123,8.152-18.358c2.038-5.189,4.776-11.038,7.674-17.23
		c7.354-15.711,16.553-35.29,12.803-44.54"/>
	<path fill="#A7A9AC" stroke="#000000" stroke-width="0.4252" d="M68.132,133.314c-4.583,5.125-5.852,9.723-6.199,11.948
		c-1.082,6.932,10.303,42.209,21.312,76.325c3.429,10.625,6.976,21.614,10.387,32.45c15.203,48.291,22.145,93.168,22.214,93.613
		l-5.604,0.858c-0.068-0.445-6.951-44.911-22.018-92.768c-3.405-10.818-6.949-21.796-10.375-32.414
		c-14.142-43.819-22.746-71.073-21.52-78.937c0.502-3.221,2.062-8.434,6.747-14.018"/>
	<path fill="#A7A9AC" stroke="#000000" stroke-width="0.4252" d="M239.331,146.363c5.482-8.847,14.455-11.765,23.49-13.517
		l1.071,5.567c-10.66,2.051-18.003,5.271-21.728,14.98l0,0"/>
	<path fill="#A7A9AC" stroke="#000000" stroke-width="0.4252" d="M57.031,152.818c0.077-9.716-9.706-18.752-21.807-20.146
		l0.649-5.632c11.08,1.276,20.362,7.69,24.505,16.029"/>
	<path fill="#808285" stroke="#000000" stroke-width="0.4252" d="M262.821,132.846c0.758-0.175,1.822,5.419,1.071,5.567
		C263.141,138.562,261.926,133.052,262.821,132.846z"/>
	<path fill="#808285" stroke="#000000" stroke-width="0.4252" d="M35.873,127.04c0.995,0.132,0.404,5.733-0.649,5.632
		C34.171,132.571,34.737,126.89,35.873,127.04z"/>
	<path fill="#808285" stroke="#000000" stroke-width="0.4252" d="M110.243,348.509c0.106,0.766,5.727-0.074,5.604-0.858
		C115.724,346.87,110.136,347.741,110.243,348.509z"/>
	<path fill="#808285" stroke="#000000" stroke-width="0.4252" d="M170.965,347.513c-0.114,1.377,5.518,1.682,5.64,0.593
		C176.725,347.018,171.102,345.887,170.965,347.513z"/>
</g>
<g property="ro:has_part" resource="uberon:0005168" id="interlobular_vein">
	<path fill="#808285" d="M82.75,85.039c-2.052-6.302-4.092-14.107-6.062-21.654c-4.464-17.086-6.523-24.162-8.95-25.336
		c-0.483-0.233-1.003-0.265-1.491-0.117l0.672,3.198c1.753,2.786,4.655,13.893,7.026,22.971c1.981,7.587,4.033,15.433,6.11,21.815
		c5.458,16.758,4.433,33.308-2.813,45.407l2.432,1.457C87.339,119.977,88.461,102.577,82.75,85.039z"/>
	<path fill="none" stroke="#000000" stroke-width="0.4252" d="M66.918,41.13c1.753,2.786,4.655,13.893,7.026,22.971
		c1.981,7.587,4.033,15.433,6.11,21.815c5.458,16.758,4.433,33.308-2.813,45.407"/>
	<path fill="none" stroke="#000000" stroke-width="0.4252" d="M79.673,132.78c7.666-12.803,8.788-30.203,3.077-47.741
		c-2.052-6.302-4.092-14.107-6.062-21.654c-4.464-17.086-6.523-24.162-8.95-25.336c-0.483-0.233-1.003-0.265-1.491-0.117"/>
	<path fill="#808285" d="M109.561,69.263c-1.083-4.029-2.147-8.185-3.176-12.203c-5.624-21.95-6.927-25.537-9.294-25.591
		c-0.141-0.004-0.28,0.009-0.415,0.038l2.325,9c1.442,4.782,3.148,11.436,4.639,17.257c1.033,4.025,2.099,8.188,3.183,12.233
		c4.682,17.447,6.846,40.194,0.539,48.911l2.296,1.662C117.528,109.692,113.299,83.201,109.561,69.263z"/>
	<path fill="none" stroke="#000000" stroke-width="0.4252" d="M99,40.506c1.442,4.782,3.148,11.436,4.639,17.257
		c1.033,4.025,2.099,8.188,3.183,12.233c4.682,17.447,6.846,40.194,0.539,48.911"/>
	<path fill="none" stroke="#000000" stroke-width="0.4252" d="M109.657,120.57c7.872-10.878,3.643-37.369-0.096-51.307
		c-1.083-4.029-2.147-8.185-3.176-12.203c-5.624-21.95-6.927-25.537-9.294-25.591c-0.141-0.004-0.28,0.009-0.415,0.038"/>
	<path fill="#808285" d="M211.146,28.845c-0.206-0.101-0.415-0.164-0.625-0.204l-0.57,3.198c0.968,3.925-2.069,21.249-3.933,31.858
		c-0.915,5.226-1.78,10.163-2.331,14l-0.411,2.887c-1.882,13.36-4.847,33.458-13.739,36.379l0.885,2.693
		c10.567-3.47,13.564-23.801,15.66-38.677l0.409-2.877c0.546-3.794,1.409-8.711,2.32-13.917
		C213.232,38.983,214.188,30.343,211.146,28.845z"/>
	<path fill="none" stroke="#000000" stroke-width="0.4252" d="M209.951,31.839c0.968,3.925-2.069,21.249-3.933,31.858
		c-0.915,5.226-1.78,10.163-2.331,14l-1.036,6.359c-1.881,13.36-4.222,29.986-13.114,32.907"/>
	<path fill="none" stroke="#000000" stroke-width="0.4252" d="M190.421,119.656c10.567-3.47,12.94-20.33,15.036-35.205l1.033-6.349
		c0.546-3.794,1.409-8.711,2.32-13.917c4.421-25.202,5.377-33.842,2.335-35.341c-0.206-0.101-0.415-0.164-0.625-0.204"/>
	<path fill="#808285" d="M139.703,23.515c-2.098,1.244-2.213,7.873-0.656,37.326c0.287,5.426,0.557,10.55,0.721,14.862
		c0.111,2.965,0.145,5.964,0.176,8.862c0.152,14.486,0.301,28.169,11.008,30.795l0.675-2.753
		c-8.571-2.102-8.701-14.137-8.848-28.072c-0.031-2.917-0.064-5.935-0.177-8.939c-0.167-4.333-0.438-9.467-0.724-14.904
		c-0.604-11.422-1.479-27.959-0.836-33.387l-0.405-4.066C140.316,23.255,140.001,23.339,139.703,23.515z"/>
	<path fill="none" stroke="#000000" stroke-width="0.4252" d="M140.636,23.238c-0.32,0.018-0.635,0.101-0.934,0.277
		c-2.098,1.244-2.213,7.873-0.656,37.326c0.287,5.426,0.557,10.55,0.721,14.862c0.111,2.965,0.145,5.964,0.176,8.862
		c0.152,14.486,0.301,28.169,11.008,30.795"/>
	<path fill="none" stroke="#000000" stroke-width="0.4252" d="M151.625,112.607c-8.571-2.102-8.701-14.137-8.848-28.072
		c-0.031-2.917-0.064-5.935-0.177-8.939c-0.167-4.333-0.438-9.467-0.724-14.904c-0.604-11.422-1.479-27.959-0.836-33.387"/>
	<path fill="#808285" d="M256.725,41.033c-2.393-0.637-3.763,1.807-14.253,31.277c-2.377,6.678-4.836,13.583-6.848,18.8
		c-6.499,16.843-7.855,39.593,1.121,48.513l1.995-2.01c-8.044-7.996-6.508-29.834-0.472-45.484
		c2.026-5.25,4.489-12.173,6.874-18.869c3.409-9.58,7.837-22.02,10.318-27.249L256.725,41.033L256.725,41.033z"/>
	<path fill="none" stroke="#000000" stroke-width="0.4252" d="M238.741,137.612c-8.044-7.996-6.508-29.834-0.472-45.484
		c2.026-5.25,4.489-12.173,6.874-18.869c3.409-9.58,7.837-22.02,10.318-27.249"/>
	<path fill="none" stroke="#000000" stroke-width="0.4252" d="M256.725,41.033L256.725,41.033
		c-2.393-0.637-3.763,1.807-14.253,31.277c-2.377,6.678-4.836,13.583-6.848,18.8c-6.499,16.843-7.855,39.593,1.121,48.513"/>
</g>
<g property="ro:has_part" resource="uberon:0004723" id="interlobular_artery">
	<path fill="#A7A9AC" d="M66.018,38.003c-1.666,0.733-5.134,2.258,3.598,29.913c9.587,30.366,11.007,48.886,4.222,55.049
		l1.906,2.098c11.57-10.506,0.285-46.253-3.424-58c-5.993-18.982-5.793-24.438-5.401-25.933l-0.672-3.198
		C66.17,37.956,66.092,37.971,66.018,38.003z"/>
	<path fill="none" stroke="#000000" stroke-width="0.4252" d="M66.246,37.932c-0.076,0.023-0.153,0.039-0.228,0.071
		c-1.666,0.733-5.134,2.258,3.598,29.913c9.587,30.366,11.007,48.886,4.222,55.049"/>
	<path fill="none" stroke="#000000" stroke-width="0.4252" d="M75.743,125.063c11.57-10.506,0.285-46.253-3.424-58
		c-5.993-18.982-5.793-24.438-5.401-25.933"/>
	<path fill="#A7A9AC" d="M95.644,32.157c-1.295,1.65-0.277,6.358,4.166,22.882c0.755,2.81,1.515,5.633,2.2,8.292
		c4.311,16.708,8.614,44.505,1.813,47.97l1.286,2.525c11.042-5.625,0.846-46.556-0.354-51.205c-0.688-2.667-1.45-5.5-2.208-8.318
		c-1.178-4.383-2.596-9.656-3.549-13.801c0,0.001,0.002,0.003,0.002,0.004l-2.325-9C96.273,31.593,95.907,31.818,95.644,32.157z"/>
	<path fill="none" stroke="#000000" stroke-width="0.4252" d="M96.675,31.506c-0.402,0.086-0.768,0.312-1.032,0.65
		c-1.295,1.65-0.277,6.358,4.166,22.882c0.755,2.81,1.515,5.633,2.2,8.292c4.311,16.708,8.614,44.505,1.813,47.97"/>
	<path fill="none" stroke="#000000" stroke-width="0.4252" d="M105.108,113.827c11.042-5.625,0.846-46.556-0.354-51.205
		c-0.688-2.667-1.45-5.5-2.208-8.318c-1.178-4.383-2.596-9.656-3.549-13.801c0,0.001,0.002,0.003,0.002,0.004"/>
	<path fill="#A7A9AC" d="M208.974,28.881c-2.813,1.532-4.017,9.535-6.095,27.427c-0.274,2.343-0.542,4.676-0.821,6.928
		c-2.976,24.185-8.055,43.093-11.815,43.977l0.648,2.759c7.905-1.858,12.7-35.978,13.98-46.391c0.277-2.255,0.55-4.597,0.822-6.945
		c1.028-8.85,2.544-21.903,4.257-24.798v0.001l0.57-3.198C209.996,28.539,209.462,28.614,208.974,28.881z"/>
	<path fill="none" stroke="#000000" stroke-width="0.4252" d="M210.521,28.641c-0.525-0.102-1.059-0.026-1.547,0.241
		c-2.813,1.532-4.017,9.535-6.095,27.427c-0.274,2.343-0.542,4.676-0.821,6.928c-2.976,24.185-8.055,43.093-11.815,43.977"/>
	<path fill="none" stroke="#000000" stroke-width="0.4252" d="M190.891,109.972c7.905-1.858,12.7-35.978,13.98-46.391
		c0.277-2.255,0.55-4.597,0.822-6.945c1.028-8.85,2.544-21.903,4.257-24.798v0.001"/>
	<path fill="#A7A9AC" d="M141.792,23.519c-0.368-0.216-0.765-0.302-1.155-0.281l0.405,4.066l0,0
		c1.397,3.802,3.091,14.518,2.729,27.475c-0.137,4.864-1.073,47.658,7.6,52.291l1.335-2.5c-4.618-2.467-6.728-27.213-6.1-49.711
		C146.922,43.395,145.393,25.64,141.792,23.519z"/>
	<path fill="none" stroke="#000000" stroke-width="0.4252" d="M152.706,104.57c-4.618-2.467-6.728-27.213-6.1-49.711
		c0.316-11.463-1.213-29.219-4.814-31.339c-0.368-0.216-0.765-0.302-1.155-0.281"/>
	<path fill="none" stroke="#000000" stroke-width="0.4252" d="M141.042,27.304L141.042,27.304
		c1.397,3.802,3.091,14.518,2.729,27.475c-0.137,4.864-1.073,47.658,7.6,52.291"/>
	<path fill="#A7A9AC" d="M257.976,42.112c-0.272-0.552-0.715-0.935-1.251-1.079l-1.264,4.978c0,0,0,0,0-0.001
		c-0.605,5.839-4.034,19.71-9.735,33.458c-6.302,15.2-13.03,41.367-8.713,48.917l2.461-1.406c-3.092-5.409,1.221-27.97,8.872-46.426
		C254.22,66.38,259.821,45.858,257.976,42.112z"/>
	<path fill="none" stroke="#000000" stroke-width="0.4252" d="M255.461,46.011c0,0,0,0,0-0.001
		c-0.605,5.839-4.034,19.71-9.735,33.458c-6.302,15.2-13.03,41.367-8.713,48.917"/>
	<path fill="none" stroke="#000000" stroke-width="0.4252" d="M239.474,126.979c-3.092-5.409,1.221-27.97,8.872-46.426
		c5.874-14.173,11.475-34.695,9.63-38.441c-0.272-0.552-0.715-0.935-1.251-1.079"/>
</g>
<g property="ro:has_part" resource="uberon:0004212" id="glomerular_capillaries">
	<path fill="#A7A9AC" stroke="#000000" stroke-width="0.4252" d="M255.796,51.725c0,0-2.285-2.846-5.311-3.345
		c-3.024-0.498-3.924,3.793-3.783,5.125c0.145,1.33,1.316,3.252,3.242,2.475c1.927-0.779,2.691-4.583,1.287-5.917
		c1.733,0.647,3.782,2.634,3.782,2.634"/>
	<path fill="#A7A9AC" stroke="#000000" stroke-width="0.4252" d="M251.959,64.805c0,0-2.286-2.847-5.312-3.347
		c-3.024-0.497-3.923,3.794-3.783,5.125c0.145,1.33,1.316,3.252,3.242,2.474c1.927-0.777,2.691-4.581,1.286-5.916
		c1.734,0.646,3.783,2.633,3.783,2.633"/>
	<path fill="#A7A9AC" stroke="#000000" stroke-width="0.4252" d="M247.518,77.625c0,0-2.285-2.846-5.312-3.345
		c-3.025-0.498-3.924,3.794-3.782,5.125c0.142,1.331,1.314,3.253,3.241,2.475s2.69-4.582,1.285-5.916
		c1.736,0.646,3.784,2.634,3.784,2.634"/>
	<path fill="#A7A9AC" stroke="#000000" stroke-width="0.4252" d="M242.575,90.773c0,0-2.286-2.846-5.313-3.344
		c-3.022-0.499-3.924,3.794-3.782,5.125c0.144,1.33,1.316,3.253,3.242,2.475c1.927-0.778,2.69-4.582,1.286-5.916
		c1.732,0.647,3.782,2.633,3.782,2.633"/>
	<path fill="#A7A9AC" stroke="#000000" stroke-width="0.4252" d="M238.954,103.744c0,0-2.449-2.711-5.497-3.034
		c-3.049-0.325-3.7,4.012-3.48,5.332c0.217,1.32,1.499,3.172,3.378,2.284c1.876-0.886,2.422-4.727,0.942-5.979
		c1.769,0.546,3.93,2.412,3.93,2.412"/>
	<path fill="#A7A9AC" stroke="#000000" stroke-width="0.4252" d="M250.207,71.352c0,0,3.574-0.744,6.228,0.795
		c2.652,1.539,0.617,5.423-0.338,6.36c-0.956,0.936-3.082,1.675-4.076-0.149c-0.991-1.826,0.835-5.248,2.769-5.385
		c-1.751-0.604-4.594-0.373-4.594-0.373"/>
	<path fill="#A7A9AC" stroke="#000000" stroke-width="0.4252" d="M254.059,58.88c0,0,3.574-0.744,6.227,0.795
		c2.651,1.538,0.618,5.424-0.336,6.361c-0.956,0.937-3.083,1.674-4.076-0.15c-0.992-1.826,0.836-5.248,2.769-5.385
		c-1.751-0.603-4.596-0.372-4.596-0.372"/>
	<path fill="#A7A9AC" stroke="#000000" stroke-width="0.4252" d="M256.675,45.491c0,0,3.125-1.889,6.139-1.318
		c3.012,0.57,2.383,4.911,1.793,6.111c-0.591,1.201-2.353,2.604-3.894,1.213c-1.541-1.393-0.954-5.228,0.823-5.998
		c-1.854,0.011-4.46,1.175-4.46,1.175"/>
	<path fill="#A7A9AC" stroke="#000000" stroke-width="0.4252" d="M244.89,85.127c0,0,3.578-0.744,6.228,0.795
		c2.654,1.537,0.62,5.422-0.336,6.359c-0.956,0.938-3.084,1.676-4.074-0.149c-0.993-1.826,0.834-5.248,2.769-5.385
		c-1.751-0.603-4.596-0.372-4.596-0.372"/>
	<path fill="#A7A9AC" stroke="#000000" stroke-width="0.4252" d="M240.306,97.854c0,0,3.576-0.743,6.229,0.796
		c2.651,1.537,0.616,5.422-0.339,6.36c-0.955,0.937-3.083,1.675-4.075-0.15c-0.991-1.825,0.835-5.248,2.769-5.385
		c-1.748-0.604-4.594-0.372-4.594-0.372"/>
	<path fill="#A7A9AC" stroke="#000000" stroke-width="0.4252" d="M237.696,109.637c0,0,3.61-0.538,6.171,1.151
		c2.559,1.688,0.306,5.449-0.702,6.329c-1.006,0.881-3.174,1.497-4.061-0.383c-0.886-1.879,1.136-5.19,3.074-5.216
		c-1.712-0.703-4.565-0.635-4.565-0.635"/>
	<path fill="#A7A9AC" stroke="#000000" stroke-width="0.4252" d="M143.277,30.825c0,0-3.019-2.054-6.058-1.645
		c-3.038,0.408-2.644,4.775-2.119,6.006c0.525,1.23,2.21,2.726,3.823,1.419c1.616-1.308,1.233-5.17-0.5-6.034
		c1.847,0.11,4.388,1.411,4.388,1.411"/>
	<path fill="#A7A9AC" stroke="#000000" stroke-width="0.4252" d="M144.749,45.885c0,0-3.018-2.054-6.059-1.645
		c-3.038,0.409-2.643,4.776-2.118,6.007c0.525,1.23,2.209,2.725,3.822,1.417c1.614-1.307,1.234-5.168-0.5-6.034
		c1.848,0.112,4.39,1.413,4.39,1.413"/>
	<path fill="#A7A9AC" stroke="#000000" stroke-width="0.4252" d="M144.736,60.299c0,0-3.018-2.053-6.058-1.645
		c-3.038,0.409-2.644,4.775-2.12,6.007c0.525,1.23,2.209,2.726,3.823,1.418c1.615-1.307,1.235-5.168-0.5-6.034
		c1.847,0.111,4.389,1.412,4.389,1.412"/>
	<path fill="#A7A9AC" stroke="#000000" stroke-width="0.4252" d="M144.758,73.873c0,0-3.02-2.054-6.06-1.645
		c-3.037,0.409-2.643,4.776-2.119,6.007c0.527,1.23,2.211,2.726,3.823,1.418c1.616-1.306,1.235-5.169-0.498-6.033
		c1.847,0.11,4.388,1.412,4.388,1.412"/>
	<path fill="#A7A9AC" stroke="#000000" stroke-width="0.4252" d="M145.909,86.551c0,0-3.019-2.052-6.059-1.644
		c-3.038,0.408-2.642,4.776-2.116,6.006c0.522,1.231,2.207,2.727,3.821,1.42c1.616-1.309,1.234-5.169-0.5-6.035
		c1.848,0.112,4.388,1.413,4.388,1.413"/>
	<path fill="#A7A9AC" stroke="#000000" stroke-width="0.4252" d="M148.24,98.914c0,0-3.018-2.054-6.058-1.646
		c-3.038,0.408-2.642,4.775-2.119,6.006c0.525,1.231,2.211,2.727,3.826,1.42c1.613-1.308,1.232-5.169-0.503-6.035
		c1.849,0.111,4.389,1.412,4.389,1.412"/>
	<path fill="#A7A9AC" stroke="#000000" stroke-width="0.4252" d="M142.387,25.49c0,0,2.178-2.93,5.184-3.541
		c3.002-0.611,4.062,3.644,3.971,4.979c-0.092,1.334-1.191,3.298-3.146,2.594c-1.954-0.705-2.86-4.477-1.507-5.864
		c-1.71,0.712-3.681,2.773-3.681,2.773"/>
	<path fill="#A7A9AC" stroke="#000000" stroke-width="0.4252" d="M144.22,39.724c0,0,2.801-2.345,5.866-2.241
		c3.061,0.102,3.104,4.486,2.708,5.764c-0.4,1.277-1.927,2.932-3.662,1.794c-1.739-1.14-1.744-5.02-0.107-6.054
		c-1.824,0.295-4.224,1.845-4.224,1.845"/>
	<path fill="#A7A9AC" stroke="#000000" stroke-width="0.4252" d="M144.791,54.919c0,0,2.799-2.344,5.863-2.241
		s3.106,4.487,2.708,5.765c-0.399,1.277-1.925,2.932-3.661,1.793c-1.736-1.139-1.746-5.02-0.106-6.054
		c-1.825,0.295-4.225,1.844-4.225,1.844"/>
	<path fill="#A7A9AC" stroke="#000000" stroke-width="0.4252" d="M145.195,68.154c0,0,2.797-2.345,5.864-2.242
		c3.064,0.102,3.106,4.486,2.709,5.764c-0.398,1.277-1.927,2.932-3.662,1.794c-1.738-1.139-1.744-5.02-0.106-6.054
		c-1.826,0.295-4.225,1.844-4.225,1.844"/>
	<path fill="#A7A9AC" stroke="#000000" stroke-width="0.4252" d="M146.273,81.517c0,0,2.8-2.346,5.867-2.243
		c3.062,0.102,3.106,4.487,2.707,5.765c-0.397,1.276-1.925,2.932-3.66,1.793c-1.739-1.139-1.746-5.021-0.106-6.054
		c-1.827,0.295-4.226,1.844-4.226,1.844"/>
	<path fill="#A7A9AC" stroke="#000000" stroke-width="0.4252" d="M147.48,93.426c0,0,2.799-2.344,5.862-2.241
		c3.066,0.102,3.108,4.487,2.708,5.765c-0.396,1.277-1.923,2.931-3.659,1.793c-1.736-1.14-1.745-5.021-0.105-6.054
		c-1.828,0.294-4.226,1.844-4.226,1.844"/>
	<path fill="#A7A9AC" stroke="#000000" stroke-width="0.4252" d="M207.351,34.297c0,0-2.567-2.598-5.626-2.784
		c-3.061-0.187-3.516,4.174-3.24,5.484c0.276,1.307,1.641,3.1,3.476,2.13c1.838-0.971,2.211-4.833,0.677-6.016
		c1.79,0.465,4.032,2.233,4.032,2.233"/>
	<path fill="#A7A9AC" stroke="#000000" stroke-width="0.4252" d="M205.141,47.422c0,0-2.568-2.597-5.628-2.784
		c-3.061-0.187-3.516,4.174-3.238,5.484c0.274,1.308,1.639,3.1,3.476,2.132c1.836-0.973,2.208-4.834,0.676-6.018
		c1.792,0.465,4.03,2.233,4.03,2.233"/>
	<path fill="#A7A9AC" stroke="#000000" stroke-width="0.4252" d="M203.826,59.729c0,0-2.565-2.598-5.625-2.784
		c-3.061-0.188-3.516,4.173-3.239,5.482c0.275,1.309,1.641,3.102,3.476,2.131c1.838-0.971,2.211-4.833,0.677-6.016
		c1.792,0.466,4.031,2.233,4.031,2.233"/>
	<path fill="#A7A9AC" stroke="#000000" stroke-width="0.4252" d="M201.312,73.463c0,0-2.568-2.598-5.628-2.785
		c-3.061-0.187-3.516,4.174-3.24,5.483c0.278,1.31,1.641,3.103,3.478,2.131c1.836-0.97,2.211-4.832,0.674-6.016
		c1.792,0.466,4.031,2.234,4.031,2.234"/>
	<path fill="#A7A9AC" stroke="#000000" stroke-width="0.4252" d="M199.926,84.041c0,0-2.565-2.597-5.626-2.783
		c-3.062-0.187-3.517,4.174-3.239,5.484c0.276,1.308,1.64,3.1,3.473,2.13c1.84-0.97,2.211-4.832,0.679-6.016
		c1.789,0.466,4.03,2.234,4.03,2.234"/>
	<path fill="#A7A9AC" stroke="#000000" stroke-width="0.4252" d="M196.365,97.667c0,0-2.333-2.81-5.366-3.261
		c-3.032-0.451-3.864,3.855-3.7,5.184c0.16,1.327,1.363,3.231,3.277,2.424c1.914-0.809,2.62-4.623,1.194-5.937
		c1.745,0.62,3.825,2.575,3.825,2.575"/>
	<path fill="#A7A9AC" stroke="#000000" stroke-width="0.4252" d="M206.888,39.473c0,0,3.319-1.527,6.249-0.623
		c2.929,0.904,1.819,5.146,1.098,6.273c-0.722,1.127-2.627,2.324-4.004,0.77c-1.377-1.557-0.365-5.303,1.49-5.869
		c-1.843-0.195-4.562,0.668-4.562,0.668"/>
	<path fill="#A7A9AC" stroke="#000000" stroke-width="0.4252" d="M204.77,53.518c0,0,3.318-1.526,6.248-0.622
		c2.928,0.904,1.818,5.146,1.098,6.274c-0.722,1.126-2.629,2.324-4.005,0.769c-1.377-1.556-0.364-5.302,1.489-5.87
		c-1.841-0.194-4.561,0.669-4.561,0.669"/>
	<path fill="#A7A9AC" stroke="#000000" stroke-width="0.4252" d="M203.547,66.5c0,0,3.317-1.526,6.247-0.621
		c2.929,0.903,1.818,5.146,1.098,6.273c-0.72,1.127-2.629,2.325-4.004,0.771c-1.377-1.558-0.365-5.302,1.487-5.87
		c-1.84-0.196-4.56,0.669-4.56,0.669"/>
	<path fill="#A7A9AC" stroke="#000000" stroke-width="0.4252" d="M201.543,78.467c0,0,3.317-1.526,6.249-0.622
		c2.928,0.903,1.816,5.146,1.098,6.273c-0.722,1.127-2.63,2.324-4.005,0.769c-1.377-1.556-0.363-5.301,1.487-5.87
		c-1.839-0.194-4.559,0.67-4.559,0.67"/>
	<path fill="#A7A9AC" stroke="#000000" stroke-width="0.4252" d="M199.067,90.419c0,0,3.317-1.527,6.245-0.622
		c2.931,0.903,1.821,5.145,1.099,6.273c-0.72,1.126-2.625,2.323-4.001,0.769c-1.377-1.557-0.368-5.301,1.487-5.869
		c-1.84-0.196-4.562,0.669-4.562,0.669"/>
	<path fill="#A7A9AC" stroke="#000000" stroke-width="0.4252" d="M195.345,101.996c0,0,3.173-1.809,6.169-1.161
		c2.998,0.646,2.259,4.969,1.638,6.154c-0.621,1.187-2.417,2.543-3.923,1.113s-0.82-5.25,0.973-5.976
		c-1.848-0.034-4.483,1.062-4.483,1.062"/>
	<path fill="#A7A9AC" stroke="#000000" stroke-width="0.4252" d="M95.853,35.578c0,0-3.035-2.032-6.072-1.604
		c-3.036,0.429-2.61,4.793-2.077,6.021c0.532,1.227,2.227,2.711,3.833,1.393c1.604-1.318,1.199-5.177-0.542-6.03
		c1.847,0.099,4.397,1.382,4.397,1.382"/>
	<path fill="#A7A9AC" stroke="#000000" stroke-width="0.4252" d="M99.149,48.486c0,0-3.035-2.033-6.07-1.604
		c-3.036,0.429-2.61,4.793-2.078,6.02c0.532,1.227,2.228,2.712,3.832,1.393c1.605-1.317,1.2-5.177-0.54-6.029
		c1.848,0.097,4.396,1.382,4.396,1.382"/>
	<path fill="#A7A9AC" stroke="#000000" stroke-width="0.4252" d="M102.414,62.032c0,0-3.034-2.032-6.07-1.604
		c-3.035,0.43-2.61,4.793-2.078,6.021c0.532,1.226,2.227,2.71,3.832,1.393c1.605-1.318,1.199-5.177-0.54-6.03
		c1.847,0.099,4.396,1.383,4.396,1.383"/>
	<path fill="#A7A9AC" stroke="#000000" stroke-width="0.4252" d="M105.133,74.784c0,0-3.035-2.032-6.071-1.603
		c-3.036,0.429-2.61,4.793-2.078,6.021c0.533,1.227,2.227,2.711,3.833,1.393c1.604-1.318,1.198-5.177-0.541-6.03
		c1.847,0.098,4.396,1.383,4.396,1.383"/>
	<path fill="#A7A9AC" stroke="#000000" stroke-width="0.4252" d="M107.173,86.627c0,0-3.034-2.031-6.071-1.603
		c-3.034,0.428-2.61,4.793-2.078,6.021c0.532,1.227,2.228,2.71,3.833,1.393c1.605-1.318,1.199-5.177-0.542-6.031
		c1.849,0.099,4.397,1.382,4.397,1.382"/>
	<path fill="#A7A9AC" stroke="#000000" stroke-width="0.4252" d="M108.114,98.38c0,0-3.035-2.033-6.071-1.604
		c-3.037,0.428-2.61,4.793-2.078,6.021c0.532,1.227,2.226,2.711,3.832,1.393c1.605-1.317,1.199-5.177-0.54-6.03
		c1.848,0.098,4.396,1.382,4.396,1.382"/>
	<path fill="#A7A9AC" stroke="#000000" stroke-width="0.4252" d="M97.618,40.253c0,0,1.959-3.082,4.911-3.911
		c2.951-0.83,4.319,3.336,4.325,4.674c0.006,1.338-0.948,3.378-2.946,2.818c-2-0.561-3.183-4.257-1.933-5.738
		c-1.652,0.834-3.469,3.037-3.469,3.037"/>
	<path fill="#A7A9AC" stroke="#000000" stroke-width="0.4252" d="M101.245,54.34c0,0,1.958-3.082,4.912-3.912
		c2.951-0.83,4.317,3.336,4.324,4.675c0.007,1.337-0.947,3.378-2.945,2.817c-2.001-0.561-3.184-4.256-1.935-5.737
		c-1.651,0.833-3.468,3.036-3.468,3.036"/>
	<path fill="#A7A9AC" stroke="#000000" stroke-width="0.4252" d="M104.623,66.596c0,0,1.958-3.082,4.911-3.911
		c2.95-0.83,4.317,3.336,4.324,4.675c0.005,1.338-0.947,3.378-2.947,2.816c-2-0.56-3.181-4.255-1.933-5.736
		c-1.653,0.833-3.468,3.035-3.468,3.035"/>
	<path fill="#A7A9AC" stroke="#000000" stroke-width="0.4252" d="M107.046,80.508c0,0,1.958-3.082,4.911-3.912
		c2.952-0.83,4.317,3.336,4.324,4.676c0.008,1.336-0.947,3.377-2.945,2.816c-2-0.56-3.183-4.255-1.935-5.736
		c-1.651,0.833-3.468,3.035-3.468,3.035"/>
	<path fill="#A7A9AC" stroke="#000000" stroke-width="0.4252" d="M108.667,92.475c0,0,1.958-3.082,4.911-3.911
		c2.951-0.83,4.317,3.336,4.324,4.676c0.005,1.337-0.946,3.378-2.947,2.817c-2-0.561-3.181-4.256-1.932-5.738
		c-1.651,0.834-3.468,3.036-3.468,3.036"/>
	<path fill="#A7A9AC" stroke="#000000" stroke-width="0.4252" d="M108.099,103.679c0,0,1.958-3.082,4.912-3.911
		c2.951-0.83,4.318,3.336,4.324,4.675c0.005,1.338-0.947,3.377-2.946,2.817c-2.001-0.56-3.182-4.256-1.934-5.737
		c-1.651,0.833-3.468,3.035-3.468,3.035"/>
	<path fill="#A7A9AC" stroke="#000000" stroke-width="0.4252" d="M68.791,62.67c0,0-3.209-1.745-6.193-1.039
		c-2.982,0.707-2.157,5.013-1.515,6.187c0.644,1.173,2.467,2.494,3.944,1.035c1.478-1.46,0.717-5.266-1.093-5.956
		c1.848-0.072,4.505,0.972,4.505,0.972"/>
	<path fill="#A7A9AC" stroke="#000000" stroke-width="0.4252" d="M65.754,48.302c0,0-3.035-2.032-6.071-1.604
		c-3.036,0.428-2.61,4.793-2.078,6.02s2.227,2.711,3.832,1.393c1.604-1.318,1.2-5.177-0.54-6.03
		c1.847,0.098,4.396,1.382,4.396,1.382"/>
	<path fill="#A7A9AC" stroke="#000000" stroke-width="0.4252" d="M73.975,77.885c0,0-3.215-1.733-6.195-1.016
		c-2.981,0.716-2.141,5.021-1.492,6.191c0.646,1.17,2.475,2.485,3.947,1.02c1.471-1.464,0.699-5.267-1.115-5.95
		c1.848-0.079,4.51,0.956,4.51,0.956"/>
	<path fill="#A7A9AC" stroke="#000000" stroke-width="0.4252" d="M76.369,89.285c0,0-3.212-1.733-6.193-1.015
		c-2.981,0.715-2.142,5.02-1.493,6.19c0.646,1.171,2.475,2.486,3.946,1.021c1.473-1.465,0.7-5.268-1.113-5.952
		c1.849-0.078,4.509,0.957,4.509,0.957"/>
	<path fill="#A7A9AC" stroke="#000000" stroke-width="0.4252" d="M77.993,100.761c0,0-3.214-1.732-6.195-1.015
		c-2.981,0.717-2.14,5.02-1.493,6.191c0.648,1.171,2.475,2.486,3.947,1.021c1.472-1.466,0.699-5.268-1.114-5.952
		c1.849-0.077,4.509,0.957,4.509,0.957"/>
	<path fill="#A7A9AC" stroke="#000000" stroke-width="0.4252" d="M67.893,56.916c0,0,2.235-2.889,5.252-3.444
		c3.015-0.554,3.992,3.722,3.877,5.054c-0.117,1.332-1.254,3.276-3.195,2.534c-1.94-0.741-2.775-4.531-1.396-5.89
		c-1.72,0.678-3.733,2.704-3.733,2.704"/>
	<path fill="#A7A9AC" stroke="#000000" stroke-width="0.4252" d="M65.001,41.944c0,0,1.958-3.082,4.911-3.911
		c2.951-0.83,4.317,3.336,4.325,4.674c0.007,1.337-0.947,3.378-2.947,2.818s-3.181-4.256-1.933-5.738
		c-1.65,0.833-3.467,3.035-3.467,3.035"/>
	<path fill="#A7A9AC" stroke="#000000" stroke-width="0.4252" d="M71.571,69.054c0,0,2.245-2.881,5.262-3.423
		c3.018-0.545,3.981,3.733,3.859,5.066c-0.122,1.332-1.265,3.272-3.202,2.522c-1.938-0.749-2.762-4.541-1.375-5.896
		c-1.724,0.672-3.744,2.692-3.744,2.692"/>
	<path fill="#A7A9AC" stroke="#000000" stroke-width="0.4252" d="M75.638,83.703c0,0,2.244-2.88,5.263-3.422
		c3.016-0.545,3.979,3.733,3.857,5.066c-0.12,1.332-1.265,3.271-3.202,2.522c-1.938-0.749-2.76-4.541-1.376-5.896
		c-1.724,0.672-3.743,2.69-3.743,2.69"/>
	<path fill="#A7A9AC" stroke="#000000" stroke-width="0.4252" d="M78.146,96.481c0,0,2.245-2.88,5.262-3.423
		c3.018-0.544,3.98,3.734,3.859,5.066c-0.12,1.332-1.265,3.272-3.202,2.523c-1.938-0.749-2.759-4.541-1.376-5.897
		c-1.722,0.672-3.742,2.69-3.742,2.69"/>
</g>
<path property="ro:has_part" resource="uberon:0002015" id="renal_capsule" fill="#A7A9AC" d="M12.633,36.734l1.327,4.047l0.233-0.092c0.37-0.146,39.782-14.838,91.174-22.321
	c47.293-6.885,127.751-4.241,188.538,24.924l0.523,0.25c0.438-1.355,0.875-2.714,1.315-4.084
	C166.958-23.418,12.633,36.734,12.633,36.734z"/>
<path fill="#FFFFFF" d="M271.307,15.999l-4.094,11.611c4.731,1.651,9.449,3.426,14.141,5.369c4.978,1.969,9.897,4.108,14.746,6.434
	L181.185,342.387l-65.298-0.176L12.633,36.734c0,0,9.305-3.623,25.228-8.159L29.57,0l-52.333,2.999l13.333,365l315,8l11.333-357.666
	L271.307,15.999z"/>
</svg>
