<?xml version="1.0" encoding="utf-8"?>
<!--
 Semantic Body Illustrations - v1.0.0 - 2014-08-22
 http://sbb.cellfinder.org
-->
<!DOCTYPE svg PUBLIC "-//W3C//DTD SVG 1.1//EN" "http://www.w3.org/Graphics/SVG/1.1/DTD/svg11.dtd">
<svg version="1.1" id="hepatic_lobule" xmlns="http://www.w3.org/2000/svg" xmlns:xlink="http://www.w3.org/1999/xlink" x="0px"
	 y="0px" width="88.667px" height="93.333px" viewBox="0 0 88.667 93.333" enable-background="new 0 0 88.667 93.333" xml:space="preserve"
	 prefix="uberon: http://purl.obolibrary.org/obo/UBERON_ ro: http://www.obofoundry.org/ro/ro.owl# go: http://purl.org/obo/owl/GO#GO_ ma: http://purl.org/obo/owl/MA#MA_ cl: http://purl.org/obo/owl/CL# celda: http://ontology.cellfinder.org/CELDA.owl#CELDA_ ncbitaxon: http://purl.obolibrary.org/obo/NCBITaxon_ biotop: http://purl.org/biotop/biotop.owl#"
	 about="uberon:0004647"
	 typeof="ncbitaxon:10090">
<title>Human Adult Hepatic Lobule</title>
<desc>Copyright (C) Lekschas et al. Licensed under Creative Commons BY-SA 4.0</desc>
<desc>Homepage: http://sbb.cellfinder.org</desc>
<desc>Repository: https://github.com/flekschas/sbi</desc>
<g property="ro:has_part" resource="uberon:182" id="hepatocyte">
	<path fill="#D1D3D4" d="M44.02,8.675c-1.167,1.025-4.135,2.748-10.024,5.768c-0.758,0.389-1.711,1.109-2.485,1.505
		c-8.787,4.481-19.277,9.291-19.853,10.143c-0.122,0.333,0.084,6.727-0.12,14.172c-0.081,2.894-0.567,10.471-0.48,12.8
		c0.223,6.1-0.486,9.941,0.06,11.113c3.61,3.783,5.593,4.179,12.612,8.668c1.39,0.89,5.164,3.052,6.535,3.871
		c2.142,1.283,4.715,2.906,5.809,3.592c0.485,0.305,1.02,0.742,1.459,0.963c2.176,1.089,3.873,2.986,4.926,2.566
		c1.767-0.707,4.158-1.799,7.309-3.299c1.532-0.729,4.547-2.019,4.547-2.019s5.013-2.69,7.015-3.748
		c6.486-3.407,11.396-6.187,13.948-8.438c2.115-1.867,2.377-3.473,2.694-3.92c1.211-1.715-1.072-12.513-0.975-13.896
		c0.412-3.41,0.14-21.024,0.297-21.21C77.583,26.887,44.02,8.675,44.02,8.675z"/>
	<path fill="none" stroke="#939598" stroke-width="0.2834" d="M61.488,29.741l0.039,1.546l2.126-0.758l-2.126,0.758l-0.102,2.548
		l2.195-1.367l-2.195,1.367c0,0-0.215,2.973-0.143,3.168c0.068,0.195,0.016-1.27,0.016-1.27l-2.668,0.676l-0.549,3.079l0.33-1.914
		l-2.134,0.312l2.099-0.27l0.318-2.033l-1.982-0.334l1.982,0.334l0.2-1.374l2.521-0.647l-2.521,0.647l0.101-0.731l-2.043-0.093
		l2.031,0.158l0.154-1.102l2.338-0.725l-2.338,0.725l0.273-1.497"/>
	<path fill="none" stroke="#939598" stroke-width="0.2834" d="M58.49,27.773l2.109,1.814l-1.021-0.866l1.812-1.512l-1.703-1.682
		l2.961,2.894l-1.586-1.555l1.312-1.763l-1.73-1.214l3.682,2.477l-1.5-1.01l1.297-2.015l-2.199-1.503l1.166,0.788l1.373-1.703
		l-1.373,1.703l1.664,1.13l2.125-1.066l-2.125,1.066c0,0,1.381,0.993,1.635,1.124"/>
	<path fill="none" stroke="#939598" stroke-width="0.2834" d="M64.405,29.69l2.397-0.955l0.669,2.696c0,0-1.199-5.054-1.347-5.674
		c-0.146-0.62,0.646,2.708,0.646,2.708l3.188-1.245l-1.527-1.799l3.89,4.378l-1.966-2.203l3.049-1.072"/>
	<path fill="none" stroke="#939598" stroke-width="0.2834" d="M58.018,16.425c0,0,1.76,0.98,1.951,1.159
		c0.188,0.177,0.157,0.518,0.157,0.518s0.224-0.214,0.465-0.129c0.24,0.086,1.9,1.098,1.9,1.098s-1.641-0.973-1.9-1.098
		c-0.264-0.125-0.465,0.129-0.465,0.129l-0.832,1.346l-1.576-0.866l3.494,2.026l-1.688-1.001l-1.245,2.087l-1.351-0.81l2.918,1.822
		l-1.812-1.129l-1.183,2.498l1.61,0.989l-3.354-2.063l0.463-0.948l-0.463,0.948l-2.659-1.057l1.104-2.668l1.953,0.871l-2.434-1.162
		l0.946-2.371l2.132,1.133l-2.744-1.438l0.734-1.879l-0.734,1.879l-3.373-1.805l0.824-1.842l-0.824,1.842l-2.888-1.501l1.021-1.948
		l-1.021,1.948l-2.174-1.109l2.964,1.512l-1.064,2.577L45.41,15.36l4.049,1.898l1.109-2.496l-1.109,2.496l3.615,1.727l-2.824-1.322
		l-1.201,2.918l-3.649-1.37l1.64,0.617l0.756-3.369l-0.756,3.369l1.604,0.656l-0.938,3.077l2.396,0.896l-4.979-1.802l2.58,0.907
		l-0.607,2.434l2.354,0.423l-2.354-0.423l-0.197,0.586l-2.131-0.543l2.131,0.543l-0.752,2.531c0,0,0.432,0.496,1.482,0.988
		c0,0-0.604-0.061-1.467-0.729c-0.865-0.668-1.601-0.677-1.601-0.677c1.342,0.176,1.582,0.418,1.582,0.418l0.752-2.531l0.808-3.021
		l0.937-3.077l3.095,1.263L51.25,23.1l0.487-1.353l0.716,0.196L55.112,23l-0.809,3.113l-3.195-0.604l3.195,0.604L54.091,26.8
		l2.673,1.531L54.091,26.8l-0.754,2.459l-3.039-1.223l3.039,1.223l-0.275,0.9l2.876,0.83l-2.876-0.83c0,0-0.861,1.06-1.59,1.261
		c0.02,0.043,0.352,0.924,0.494,0.868c0.531-0.199,1.887,0.34,2.185,0.447c0.373,0.131,1.472,0.832,1.472,0.832
		s-1.354-0.846-1.455-0.771c-0.103,0.074-0.523,2.033-0.523,2.033l-1.637-0.478l1.637,0.478l-0.117,0.634l1.678,0.883l-1.678-0.883
		l-0.505,1.878L52.5,38.237l-1.75-1.377l1.75,1.377l2.24,1.104l-2.24-1.104c0,0-0.969,1.88-1.07,1.92
		c-0.104,0.038-1.736-1.385-1.736-1.385s1.668,1.386,1.645,1.506c-0.021,0.122-0.391,0.428-0.391,0.428l1.137,1.657l-1.137-1.657
		l-1.398,1.155l0.611,1.768l-0.611-1.768l-0.924-1.756L48.009,40.1l-1.229,1.884c0,0,0.001,0.402,0.083,0.578
		c0.114,0.24,1.711,2.02,1.711,2.02s-1.604-1.829-1.711-2.02c-0.104-0.192-0.083-0.578-0.083-0.578s-0.276,0.149-0.415,0.155
		c-0.141,0.005-1.94-1.075-1.94-1.075s1.73,1.083,1.94,1.075c0.209-0.009,0.415-0.155,0.415-0.155l1.229-1.884l-0.299-0.675
		l-3.469-0.846l1.854,0.43l0.404-3.106l-2.145-1.341l2.145,1.341l0.533,0.26L49,37.386l-1.967-1.222l1.453-2.452l-1.32-1.342
		l1.32,1.342l1.775-1.736l-1.775,1.736l1.605,1.598"/>
	<path fill="none" stroke="#939598" stroke-width="0.2834" d="M43.824,9.554c0,0-0.435-0.141-0.602-0.145
		c-0.167-0.003-1.037,0.495-1.161,0.658c-0.122,0.164-0.168,0.214-0.171,0.427l-0.492,0.271c0,0-0.398-0.209-0.602-0.099
		c-0.198,0.109-1.141,0.693-1.314,0.766c-0.348,0.144-0.061,0.627-0.061,0.627s-0.439-0.283-0.723-0.153
		c-0.19,0.09-1.763,0.989-1.763,0.989s1.463-0.799,1.763-0.989c0.3-0.188,0.723,0.153,0.723,0.153L40,12.811l-1.631,1.792L40,12.811
		l1.047,1.09l0.516,0.548l1.32,1.199L42.02,17.76l0.863-2.112l1.352,1.211"/>
	<path fill="none" stroke="#939598" stroke-width="0.2834" d="M33.747,39.62l-1.58-0.155l-1.61,0.665l1.61-0.665l-0.497-2.032
		l-1.284-0.007l-1.481,0.333l1.481-0.333l0.245-3.152l-0.245,3.152l1.284,0.007l0.74-0.215l1.663,0.181l-1.663-0.181l0.265-2.376
		l1.781,0.308l-1.781-0.308l0.612-2.617l-0.612,2.617l-2.044-0.567l-0.505-0.01l-1.801-0.036l1.801,0.036l0.802-2.835l-2.125-0.454
		l2.125,0.454l0.929-2.337l-0.929,2.337L32.616,32l0.671,0.224l1.652,0.547l-1.652-0.547L32.616,32l1.143-2.429l1.811,0.315
		l-1.811-0.315l0.265-2.639l-0.265,2.639l-1.902-0.48l-0.47-0.384l-1.771-0.196l1.771,0.196l0.793-2.239l-0.595-0.174l-1.486-0.115
		l1.486,0.115l0.379-3.65l-0.379,3.65l0.595,0.174l1.844,0.463l1.761,0.7l-1.761-0.7l-0.535-0.158l0.276-2.835l1.193-0.463
		l-1.193,0.463c0,0-0.31-0.612-0.667-0.917c-0.356-0.304-1.134-0.378-1.134-0.378l-1.504-0.579l1.504,0.579
		c0,0,0.515-1.276,0.492-2.096c-0.021-0.822-0.387-2.141-0.387-2.141l-1.786,0.811l1.786-0.811l-0.445-1.941
		c0,0-0.16-0.555-0.408-0.444c-0.247,0.112-1.488,0.84-1.488,0.84s1.205-0.66,1.488-0.84c0.282-0.177,0.408,0.444,0.408,0.444
		s-0.15-0.626,0.13-0.807c0.281-0.18,0.862-0.421,1.062-0.533c0.2-0.111,0.427,0.217,0.427,0.217s-0.172-0.356,0.155-0.583
		c2.084-1.402,2.428-1.162,2.428-1.162s-0.6-0.055-2.428,1.162c-0.282,0.176-0.155,0.583-0.155,0.583l0.363,1.227l3.554-1.185
		l-3.554,1.185l0.346,1.329l-1.79,0.718l1.79-0.718l0.247,0.625l0.559,1.976l-2.301,0.048l2.301-0.048l0.58,2.105l0.934,0.533
		l1.726-2.489l-3.387-0.852l3.167,0.665L37.2,18.76l-0.479-1.14l-2.522,0.904l2.522-0.904l-0.942-1.765l0.942,1.765l0.479,1.14
		l1.989-1.706L37.2,18.76l0.796,1.889l1.221-1.071l1.525-1.115l-1.525,1.115l1.843,1.418l1.243-0.898l-1.243,0.898l-1.787,1.593
		L37.4,21.642l1.875,0.993l-0.006,1.119l-2.494,0.913l2.494-0.913l0.08,1.406l1.672-0.369l-1.672,0.369l-0.246,1.679l-2.032-0.243
		l2.005,0.494l0.046,1.042l1.698-0.191l-1.698,0.191l-0.306,1.307l-1.793-0.063l1.793,0.063l-0.308,1.522l1.903,0.573l-1.903-0.573
		l-0.616,1.262L36.5,32.416l1.391-0.191l-0.177,1.802l2.451,0.441l-2.451-0.441l-0.484,1.762l-1.646,0.596l1.657-0.53l0.407,0.658
		l2.791,0.108l-2.769,0.018l0.175,1.71l-2.454,0.417l2.454-0.417l0.264,1.567l-1.07,0.562l-1.663,0.908l1.663-0.908l1.676,1.932
		c0,0,0.187,0.514,0.049,0.566l-0.313,0.338c0,0,0.194-0.25,0.313-0.338c0.119-0.088-0.049-0.566-0.049-0.566
		s0.326,0.252,0.51,0.151c0.183-0.102,0.794-0.722,0.856-0.731c0.285-0.134,0.299-0.542,0.299-0.542s0.214,0.263,0.527,0.184
		c0.315-0.079,2.563-0.785,2.563-0.785s-2.342,0.714-2.563,0.785c-0.22,0.072-0.527-0.184-0.527-0.184l-1.193-2.009l-1.077,0.637
		l1.077-0.637l1.471-0.565l2.309-0.337l-2.354,0.383l-0.276-3.195l2.466,0.125l-2.466-0.125l-0.137-2.16l2.614-0.215l-2.595-0.056
		l0.636-2.958l2.161-0.042l-2.106,0.011l0.018-3.049l2.462-0.277l-2.462,0.277l0.198-2.981l2.534,0.205l-2.534-0.205
		c0,0,0.366-1.199,0.348-1.711c-0.019-0.511-0.436-1.446-0.436-1.446"/>
	<path fill="none" stroke="#939598" stroke-width="0.2834" d="M13.287,26.14c-0.325,0.253-0.243,0.771-0.243,0.771l2.389,1.033
		c-0.47-0.758-0.297-2.527-0.297-2.527l2.39,2.025l1.532-1.301l-1.873-1.861l1.873,1.861l0.463-0.326l1.272-0.801l-1.272,0.801
		l1.534,2.154l1.551-1.649l-1.551,1.649l-0.557,0.774l-1.264,1.111l1.264-1.111l2.271,2.706l-0.82,1.801l0.82-1.801l1.77,1.292
		l-0.028,0.96l-0.204,2.036l0.204-2.036l2.464,0.576l-2.464-0.576l0.028-0.96l0.63-1.941l2.187,0.657L25.167,30.8l0.428-1.301
		l0.717-1.558l-0.717,1.558L25.167,30.8l-1.837-1.536l-2.276-1.295l2.276,1.295l1.191-2.076l1.275-2.051l-1.472-0.953l1.472,0.953
		l1.132,0.378l1.611,1.991l-1.611-1.991l0.813-1.727l1.352,0.511l-1.352-0.511l-0.607-0.625l0.051-2.349l0.474-0.261l1.477-0.427
		l-1.477,0.427L26.876,18.3l0.783,2.253l-0.474,0.261l-1.622,0.555l-1.237-1.746l1.237,1.746l-0.905,0.425l0.527,1.443l-0.527-1.443
		l-1.486,0.67l-1.244-1.362l1.244,1.362l-0.597,0.301l0.334,1.218l-0.369-1.211l-2.137,0.813"/>
	<path fill="none" stroke="#939598" stroke-width="0.2834" d="M15.975,29.844l-0.366,1.11l-3.339-0.986l3.339,0.986l-0.169,0.558
		l2.606,1.743l-2.606-1.743l-0.411,1.247l-2.552-0.717l2.552,0.717l-0.264,1.167l-0.528,1.333l0.575-1.334l2.565,1.087l-0.743,1.55
		l0.743-1.55l0.387-0.945l0.282-0.811l0.684-1.285l-0.684,1.285l-0.282,0.811l2.035,1.117l0.845-1.362l-0.845,1.362l-0.015,0.627
		l-1.17,1.589l1.17-1.589l2.045,1.826l1.146-1.293l-1.146,1.293l-0.821,0.974l1.107,0.983l1.617-0.386l1.33-0.868l-1.33,0.868
		l2.443,2.559l0.836-0.339l1.007-0.977l-1.007,0.977l2.541,2.387l-2.584-2.338l-0.793,0.29L25.147,42.4l1.643,2.616L25.147,42.4
		l-0.805,0.226l-2.353-2.394l2.4,2.393l-1.54,0.698l1.553,2.451l-1.553-2.451l-0.913,0.285l-1.768,0.895l1.768-0.895l-2.229-2.034
		l1.674-1.153l-1.674,1.153l-0.712,0.176c0,0-1.246,1.245-1.429,1.424c-0.183,0.179,1.429-1.424,1.429-1.424l-1.234-0.606
		l1.309-1.952l-1.309,1.952l-1.418-0.555l-0.411,1.983l0.385-1.945l-0.366-0.274l0.625-2.335l-0.625,2.335l-1.729-0.691l-0.38,2.344
		l0.38-2.344l0.127-0.593l-1.874,0.003l1.874-0.003l0.576-1.857"/>
	<path fill="none" stroke="#939598" stroke-width="0.2834" d="M26.98,49.517l0.449-1.905l0.196-1.509l-0.196,1.509l2.867,0.424
		l0.001-1.209l-0.206-1.81l0.206,1.81l3.077-0.021l-3.077,0.021l-0.001,1.209l0.216,1.094l0.204,2.191l-0.204-2.191l3.034-0.336
		l1.171,2.599l-1.171-2.599l2.421-0.752l-2.421,0.752l-0.172-1.987l-0.059-0.583l-0.977-2.156l0.977,2.156l2.148-0.416l0.206-1.958
		l-0.206,1.958l-0.022,1.047l0.55,1.15l1.034,1.742l-1.034-1.742l-0.453-1.134l2.402-0.4c0,0,0.538-0.019,0.472-0.351
		c-0.066-0.334-0.39-1.452-0.39-1.452s0.351,1.206,0.39,1.452c0.039,0.244-0.472,0.351-0.472,0.351s0.39-0.004,0.57,0.396
		c0.183,0.392,0.266,0.798,0.44,1.237c0.174,0.438-0.061,0.627-0.061,0.627"/>
	<path fill="none" stroke="#939598" stroke-width="0.2834" d="M11.673,42.428c0,0-0.362,0.032-0.399,0.267
		c-0.037,0.234-0.04,0.878-0.038,1.232c0.001,0.354,0.541,0.465,0.541,0.465l2.364,0.417l-2.383-0.361c0,0-0.531-0.061-0.541,0.179
		c-0.013,0.244-0.078,1.207-0.107,1.672c-0.032,0.468,0.4,0.631,0.4,0.631l2.455,0.421L11.51,46.93c0,0-0.375,0.061-0.421,0.352
		c-0.044,0.289,0.004,1.807-0.001,2.235c-0.003,0.427,0.606,0.455,0.606,0.455l2.014-0.011l-2.014,0.011
		c0,0-0.612,0.144-0.637,0.487c-0.025,0.345-0.045,0.955-0.051,1.383c-0.002,0.428,0.354,0.732,0.354,0.732l2.023,0.223l0.247-2.367
		l2.438,0.16l-2.438-0.16l0.077-0.471l0.12-1.774l2.697,0.069l-2.697-0.069l0.138-0.835l0.363-1.758l-0.188-0.785l0.04-1.447
		l-0.04,1.447l0.188,0.785l2.629,1.023l0.505-2.031l-0.505,2.031l0,0l2.71,1.178l-2.71-1.178l-0.433,1.639l-0.186,1.051
		l-0.271,1.285l-0.495,2.173l0.495-2.173l0.283-1.223l2.661,0.52l-0.166,0.966l2.593,0.483l-2.593-0.483l-0.599,1.896l0.599-1.896
		l0.166-0.966l0.497-1.649l0.205-0.493l0.638-1.656l-0.638,1.656l-0.205,0.493l2.51,1.119l1.143-0.862l-1.143,0.862l-0.089,0.878
		l-0.491,1.102l-0.321,1.41l0.321-1.41l0.491-1.102l2.765,1.67l0.335-0.302l1.141-1.056l-1.141,1.056l-0.335,0.302l-1.057,1.625
		l-0.235,0.223l0.301,0.375l2.535,1.207l0.576-0.766l0.342-0.738l-2.127-2.229l2.127,2.229l0.691-0.635l1.028-1.156l-1.028,1.156
		l2.567,1.612l-2.567-1.612l-0.691,0.635L26.85,54.5l2.093,1.871l-2.129-1.805l-0.576,0.768l-0.686,0.875l2.096,1.748l-2.096-1.748
		l-0.869,0.973l1.206,2.334l-1.206-2.334l-0.949,0.307L22.9,57.613l-0.316,2.5l0.316-2.5l-0.429-1.569l0.541-1.528l-0.541,1.528
		l-2.893-0.342l0.552-1.727l-0.552,1.727l-0.11,0.582l-0.025,1.557l3.445-0.295l-3.445,0.295l-0.202,0.59l0.354,1.99l-0.354-1.99
		l-2.387-0.023l-0.047,0.52l-0.141,2.218l0.141-2.218l-2.62-0.014l2.62,0.014l0.047-0.52l0.063-1.793l0.167-0.777l2.384,0.451
		l-2.384-0.451l0.125-1.687l-0.125,1.687l-0.167,0.777L14.47,55.79l-0.086-1.684l0.041,1.688l-0.088,0.711l-2.431-0.758l2.431,0.758
		l-0.168,1.729l-2.325-0.129l2.325,0.129l0.018,0.683l-0.273,1.453l-2.227,0.055l2.227-0.055l1.177,1.28"/>
	<path fill="none" stroke="#939598" stroke-width="0.2834" d="M76.261,48.807c0,0,0.697-0.032,0.765-0.623
		c0.065-0.592,0.065-1.329,0.081-1.692c0.016-0.366-0.505-0.712-0.505-0.712l-3.297-1.012l3.297,1.012c0,0,0.544,0,0.577-0.374
		c0.033-0.374-0.028-1.547-0.006-1.883c0.027-0.335-0.404-0.488-0.404-0.488l-3.068-0.473l3.068,0.473c0,0,0.4-0.062,0.427-0.35
		c0.021-0.29-0.012-0.968,0.009-1.402c0.021-0.437-0.351-0.59-0.351-0.59l-2.918-0.046l2.918,0.046c0,0,0.403-0.011,0.446-0.603
		c0.041-0.591,0.021-0.94,0.06-1.456c0.034-0.516-0.391-0.713-0.391-0.713l-2.841,0.341l-0.192,2.385l-0.155,0.692l-3.744-0.659
		l3.744,0.659l-0.08,1.223l-0.185,1.558l-0.211,0.648l-0.154,2.84l0.154-2.84l0.211-0.648l-3.782-1.388l-0.398,2.07l0.398-2.07
		l0.133-0.998l0.17-1.054l0.305-2.376l-0.305,2.376l-0.201,0.976l-3.938-1.906l-1.023,1.297l1.023-1.297l0.898-1.133l0.147-0.555
		l-0.457-0.225l-3.344-1.165l3.344,1.165l1.298-0.758l-0.894-1.641l-0.83-1.594l0.83,1.594l2.924-1.245l-0.083-2.405l0.08,2.141
		l0.005,0.522l0.13,2.418l-0.13-2.418l3.418,0.075l0.101,2.676l-0.119-3.191l0.021-0.28l3.285-0.616l-3.273,0.546l-0.311-3.176
		c0,0,2.312-1.856,3.021-1.771c0.713,0.087,1.1,1.704,1.1,1.704"/>
	<path fill="none" stroke="#939598" stroke-width="0.2834" d="M63.391,72.913c0,0-0.027,0.729-0.57,1.047
		c-0.536,0.317-1.032,0.551-1.437,0.742c-0.402,0.192-0.807-0.438-0.807-0.438l-1.004-2.135l1.004,2.135c0,0,0.24,0.766-0.096,0.974
		c-0.341,0.21-1.93,1.031-2.359,1.242c-0.432,0.212-0.776-0.353-0.776-0.353l-0.815-2.646l0.815,2.646c0,0,0.272,0.617-0.11,0.822
		c-0.384,0.2-1.807,1.027-2.173,1.229c-0.364,0.201-0.603-0.332-0.603-0.332l-0.383-3.352l0.34,3.371c0,0,0.164,0.58-0.272,0.795
		c-0.435,0.211-1.551,0.709-2.54,1.129c-0.988,0.416-1.195-0.582-1.195-0.582l0.791-3.642l2.877-1.071l0.11-4.785l-0.11,4.785
		l2.453-1.015l0.678-0.321l-0.938-3.427l0.938,3.427l2.365-1.029l0.397-0.312l2.294-0.832l-2.294,0.832l-0.646-2.689l1.938-0.754
		l-1.938,0.754l-0.406-1.84l0.406,1.84l-2.496,0.56l-0.224-2.847l0.224,2.847l-0.562,0.049l-1.521-0.046l-0.56,0.021L52.6,69.89
		l1.586-0.181l0.56-0.021l0.256-2.963l1.232,0.009l0.855-2.696l-0.855,2.696l0.373,0.104l2.312,0.447l0.604-2.229l-0.604,2.229
		l-2.312-0.447l-1.605-0.114l-0.84-0.229l0.514-3.32l-0.514,3.32l-1.733-0.052l-0.651-0.448l0.52-3.396l-0.565,3.396L51.16,65.95
		l-1.429-0.738l0.808-2.959l-0.808,2.959L49.285,65l-1.677-0.77l-0.354-0.256l0.742-2.378l-0.742,2.378l-1.599-0.624l-0.812-0.479
		l1.018-2.313l-1.018,2.313l-1.694-0.5l1.694,0.5l0.812,0.479l-0.904,2.515l-2.179-0.115l2.183,0.041l0.577,0.66l1.303,0.166
		l0.977-2.386l-0.977,2.386l0.683,0.291l1.897,0.693L49.285,65l-0.07,2.604l0.334,0.173l1.769,0.673l-1.769-0.673L49,70.379
		l0.549-2.604l-0.334-0.173l-1.897-0.693l-0.401,2.949l0.401-2.949l-0.683-0.291l-1.303-0.166l-0.617,2.996l-1.729-0.121
		l1.729,0.121l1.119,0.219l-0.246,3.248l0.246-3.248l1.078,0.191l1.137,0.26L49,70.379l2.17,0.406L49,70.379l-0.951-0.262
		l-0.116,2.817l1,0.354l1.789-0.242l-1.789,0.242l-1-0.354l-2.345-0.021l-1.212,0.209l1.212-0.209L47.818,73l-1.027,2.414
		l-2.806-0.438l2.806,0.438l1.855,0.051l1.721-0.106l-1.721,0.106l-0.318,2.242l1.373,1.029l-1.373-1.029l-1.199-0.412l-0.287,1.557
		l0.287-1.557l-1.146-0.537l0.754-1.314l-0.754,1.314l-2.771,0.447l0.493,1.771l1.987-0.187l-0.122,1.516l0.723,1.104l-0.723-1.104
		l0.122-1.516l1.147,0.062l1.464,1.192"/>
	<path fill="none" stroke="#939598" stroke-width="0.2834" d="M29.111,75.305c0,0-0.156,0.535,0.147,0.749
		c0.307,0.213,1.151,0.794,1.575,0.991c0.428,0.195,1.128-0.152,1.128-0.152l1.447-0.936l-2.212-1.484l2.212,1.484l1.36-0.944
		l-1.36,0.944l-1.447,0.936c0,0-0.512,0.552-0.17,0.793c0.343,0.238,1.842,1.289,2.264,1.346c0.424,0.057,0.744-0.273,0.744-0.273
		l1.774-1.359l-1.731,1.354c0,0-0.158,0.272,0.008,0.623c0.165,0.352,3.128,2.244,3.476,2.313c0.345,0.071,0.657-0.312,0.657-0.312
		l0.543,2.291c0,0,0.78-1.922,0.851-1.271c0.066,0.65,1.271,1.582,1.522,1.609c0.249,0.031,1.436-0.584,1.436-0.584l-0.062-3.953
		l-2.041,0.047l-0.515-4.479l2.065,0.863l-2.065-0.863l-1.835-1.254l-0.17,3.229l1.876,0.538l-1.84-0.561l-0.97,1.028l0.97-1.028
		l0.134-3.209l-1.436-1.386l0.04-0.45l-2.577-1.975l1.73-2.373l1.342,2.26l3.511-2.312l0.834,2.182l-1.352,2.807L38.108,71"/>
	<path fill="none" stroke="#939598" stroke-width="0.2834" d="M22.28,71.109c0,0,0.553-0.554,1.022-0.737
		c0.468-0.187,1.003-0.121,1.003-0.121l-0.034-1.689l0.034,1.689l2.471,0.681l-1.827,1.995l1.827-1.995l1.076,0.338l-0.992-2.981
		l0.992,2.981l1.36,3.142l-1.36-3.142l1.989-1.374l1.709,2.341l-1.709-2.341l0.913-1.066l-1.78-1.627l1.78,1.627l1.467-0.842
		l1.272,1.938l-1.272-1.938l1.472-2.902l2.167,2.195l-2.167-2.195l-3.211,0.51l3.211-0.51l-1.326-1.84l-1.636-1.174l1.636,1.174
		l1.494-2.029l-1.494,2.029l1.326,1.84l2.505-1.479l0.731,2.378l-0.731-2.378l-1.847-2.337l1.847,2.337l1.709-2.22l-1.65-1.52
		l1.65,1.52l0.656,0.355l1.312,2.202l-1.312-2.202l1.357-1.49l2.42,0.385l-2.42-0.385l-0.244-0.897l-2.249-0.729l2.249,0.729
		l1.569-2.604l1.641,0.846l-1.641-0.846l-1.885-1.037l1.885,1.037l1.641,0.846l0.252-3.057l-2.539-0.929l2.539,0.929
		c0,0,0.198-2.565-0.069-2.918c-0.262-0.354-0.571-0.723-1.232-0.502c-0.663,0.221-1.461,0.586-1.461,0.586l-3.161,1.516
		l-0.646-1.571l0.646,1.571l-0.304,0.878l1.686,0.931l-1.686-0.931L34.94,56.03l-1.538-2.291l1.538,2.291l-0.373,0.491l1.875,1.537
		l-1.875-1.537l-2.548,2.567l-2.16-2.062l2.16,2.062l0.336,0.42l1.405,1.334l-1.405-1.334l-2.214,1.748l-2.118-2.047l2.118,2.047
		l0.59,0.812l-1.809,2.166l0.762,1.725l-0.762-1.725l-0.916-1.279l-1.559-2.459l1.559,2.459l-2.25,1.16l0.479,1.197l0.355,2.083
		l-0.355-2.083l-0.479-1.197l-0.313-0.898l-0.88-2.262l0.88,2.262l-3.159,0.021l-0.368-2.041l0.368,2.041l0.104,1.297l0.057,1.146
		l3.791-0.364l-3.791,0.364l0.359,2.546l-0.359-2.546l-0.057-1.146l-3.066,0.32l-0.436,2.521l0.436-2.521l-0.416-1.479l-2.149,1.281
		l-1.463-1.764c0,0-1.937-0.197-3.213,0.811c-1.277,1.006,1.55,3.092,1.55,3.092"/>
	<path fill="none" stroke="#939598" stroke-width="0.2834" d="M67.408,44.694l-2.119,1.159l-1.816-2.282l1.816,2.282l-0.496,0.223
		l1.183,2.021l-1.183-2.021l-1.631,0.504l-0.604,0.528l1.229,1.587l-1.293-1.621L60.36,48.17l2.134-1.096l0.646-0.424l-2.39-1.332
		L60.27,45.44l-1.858-1.88l1.858,1.88l-1.644,1.255l1.644-1.255l0.524-0.168l1.504-1.203l1.175-0.499l1.35-1.096l-1.35,1.096
		l-1.233,0.482l-1.57-1.703l2.104-1.151l-2.104,1.151l-0.78,0.309l-1.269-1.753l1.269,1.753l-1.478,0.901l-0.47,0.231l-1.407-2.007
		l1.407,2.007l-1.752,1.005l-1.515-2.424l1.515,2.424l-0.513,1.016l-0.957-0.186l-1.949-2.046l1.949,2.046l-0.992,1.918l-2.23-0.608
		l-1.303-1.901l1.303,1.901l-1.297,2.276l1.297-2.276l2.23,0.608l1.938,1.672l-1.938-1.672l-0.791,1.549l-0.918,1.143l0.918-1.143
		l1.896,1.17l-1.354,1.262l1.354-1.262l0.588-0.535l0.242-0.512l1.226-2.188l-1.226,2.188l-0.242,0.512l1.625,0.584l0.427-0.305
		l1.532-1.41l-1.532,1.41l1.069,1.693l-1.07-1.689l-0.426,0.305l-0.678,1.061c0,0,0.68,1.084,0.862,1.234s-0.862-1.234-0.862-1.234
		l-1.744,1.238"/>
	<path fill="none" stroke="#939598" stroke-width="0.2834" d="M71.314,60.924l-1.236-2.85l3.527-0.256l-3.527,0.256l-0.771-1.146
		l-1.334-2.764l1.334,2.764l-3.498-0.403v1.888v-1.888l-0.295-2.688l-2.647-0.547c0,0-1.093,2.569-1.24,2.816
		c-0.146,0.247,1.24-2.816,1.24-2.816l-2.13-1.936l2.13,1.936l2.647,0.547l1.877,0.041l-1.692-1.924l-1.922-2.013l1.922,2.013
		l3.61-1.404l1.39,1.234l2.959,0.271l-1.08-3.15l1.08,3.15l2.996,0.463l-2.996-0.463l0.654,2.171l0.68,2.088l1.735-0.667
		l-1.735,0.667l-1.158,1.271"/>
	<path fill="none" stroke="#939598" stroke-width="0.2834" d="M44.668,54.732l1.854-0.907l2.144,3.529l-2.1-3.539l1.414-0.889
		L46.264,50.7l1.716,2.227l1.182-0.399l1.803-1.26l-1.803,1.26l1.842,2.161l0.695-0.475l1.241-1.549l-1.187,1.541l2.06,2.225
		l-2.06-2.225l-0.75,0.48l-1.728,1.788l-0.61,0.88l-1.961,2.012l1.961-2.012l0.592-0.786l3.584,2.101l-1.379,2.319l1.379-2.319
		l3.826,1.373l-3.826-1.373l0.938-2.162l1.151-2.223l-1.117,2.146l3.356,1.227c0,0,0.433-1.859,0.434-2.109S57.224,57.7,57.224,57.7
		l3.009,1.202L57.224,57.7l-0.521,2.387l3.694,1.078l-3.694-1.078l-0.312,2.271"/>
	<path fill="none" stroke="#939598" stroke-width="0.2834" d="M63.917,58.667c0.092-0.248-0.655,2.02-0.655,2.02l-1.558,1.445
		l1.558-1.445l1.517,2.379l1.909-2.852l-1.909,2.852L63.791,64.6l-1.812,0.589l1.812-0.589l1.604,3.016l-0.636,1.014l-1.797,1.056
		l1.764-0.983l2.979,1.055l-2.94-1.123l0.634-1.014l1.48-1.594l-2.098-2.961l2.098,2.961l1.846-1.271l-2.85-3.166l2.85,3.166
		l1.604-0.28l0.896-1.228l-0.896,1.228l1.562,3.709l-1.562-3.709l-1.604,0.28l0.479,3.137l1.344,1.281l-1.315-1.32l-1.522,1.9
		l-0.863,2.158"/>
	<ellipse fill="#AAAAAB" cx="14.854" cy="64.383" rx="0.438" ry="0.34"/>
	<ellipse fill="#AAAAAB" cx="20.614" cy="66.042" rx="0.49" ry="0.417"/>
	<ellipse fill="#AAAAAB" cx="23.666" cy="62.276" rx="0.417" ry="0.357"/>
	<ellipse fill="#AAAAAB" cx="28.03" cy="65.537" rx="0.552" ry="0.507"/>
	<ellipse fill="#AAAAAB" cx="29" cy="62.188" rx="0.667" ry="0.54"/>
	<ellipse fill="#AAAAAB" cx="31.289" cy="64.125" rx="0.753" ry="0.599"/>
	<ellipse fill="#AAAAAB" cx="31.832" cy="61.714" rx="0.543" ry="0.474"/>
	<circle fill="#AAAAAB" cx="32.083" cy="57.46" r="0.458"/>
	<ellipse fill="#AAAAAB" cx="33.062" cy="55.834" rx="0.688" ry="0.375"/>
	<ellipse fill="#AAAAAB" cx="33.979" cy="58.667" rx="0.521" ry="0.542"/>
	<ellipse fill="#AAAAAB" cx="36.664" cy="56.126" rx="0.461" ry="0.667"/>
	<ellipse fill="#AAAAAB" cx="38.208" cy="53.772" rx="0.5" ry="0.396"/>
	<ellipse fill="#AAAAAB" cx="37.533" cy="63.586" rx="0.408" ry="0.627"/>
	<ellipse fill="#AAAAAB" cx="36.207" cy="61.87" rx="0.457" ry="0.407"/>
	<ellipse fill="#AAAAAB" cx="41.247" cy="59.439" rx="0.664" ry="0.479"/>
	<ellipse fill="#AAAAAB" cx="39.187" cy="58.064" rx="0.479" ry="0.604"/>
	<ellipse fill="#AAAAAB" cx="41.79" cy="55.667" rx="0.543" ry="0.458"/>
	<ellipse fill="#AAAAAB" cx="40.479" cy="62.048" rx="0.521" ry="0.585"/>
	<ellipse fill="#AAAAAB" cx="35.312" cy="65.293" rx="0.438" ry="0.5"/>
	<ellipse fill="#AAAAAB" cx="31.08" cy="67.231" rx="0.544" ry="0.562"/>
	<ellipse fill="#AAAAAB" cx="28.55" cy="69.343" rx="0.521" ry="0.659"/>
	<ellipse fill="#AAAAAB" cx="29.639" cy="72.001" rx="0.568" ry="0.583"/>
	<ellipse fill="#AAAAAB" cx="26.989" cy="72.876" rx="0.489" ry="0.542"/>
	<ellipse fill="#AAAAAB" cx="24.343" cy="71.606" rx="0.594" ry="0.396"/>
	<ellipse fill="#AAAAAB" cx="25.593" cy="69.502" rx="0.656" ry="0.5"/>
	<ellipse fill="#AAAAAB" cx="26.271" cy="62.415" rx="0.479" ry="0.545"/>
	<ellipse fill="#AAAAAB" cx="20.729" cy="63.501" rx="0.604" ry="0.542"/>
	<ellipse fill="#AAAAAB" cx="17.895" cy="59.825" rx="0.438" ry="0.385"/>
	<ellipse fill="#AAAAAB" cx="15.038" cy="60.411" rx="0.545" ry="0.586"/>
	<ellipse fill="#AAAAAB" cx="12.528" cy="61.797" rx="0.471" ry="0.557"/>
	<ellipse fill="#AAAAAB" cx="20.812" cy="58.792" rx="0.521" ry="0.417"/>
	<ellipse fill="#AAAAAB" cx="24.271" cy="59.054" rx="0.521" ry="0.385"/>
	<ellipse fill="#AAAAAB" cx="21.281" cy="55.21" rx="0.469" ry="0.458"/>
	<ellipse fill="#AAAAAB" cx="20.364" cy="56.994" rx="0.448" ry="0.467"/>
	<ellipse fill="#AAAAAB" cx="17.895" cy="57.293" rx="0.438" ry="0.5"/>
	<ellipse fill="#AAAAAB" cx="16.041" cy="55.606" rx="0.458" ry="0.521"/>
	<ellipse fill="#AAAAAB" cx="12.951" cy="56.994" rx="0.423" ry="0.467"/>
	<ellipse fill="#AAAAAB" cx="13.208" cy="59.309" rx="0.458" ry="0.516"/>
	<ellipse fill="#AAAAAB" cx="13.035" cy="54.772" rx="0.507" ry="0.438"/>
	<circle fill="#AAAAAB" cx="24.817" cy="53.689" r="0.474"/>
	<ellipse fill="#AAAAAB" cx="26.271" cy="54.137" rx="0.479" ry="0.365"/>
	<ellipse fill="#AAAAAB" cx="26.989" cy="52.52" rx="0.489" ry="0.482"/>
	<ellipse fill="#AAAAAB" cx="30.194" cy="53.673" rx="0.555" ry="0.464"/>
	<ellipse fill="#AAAAAB" cx="27.114" cy="55.994" rx="0.364" ry="0.534"/>
	<ellipse fill="#AAAAAB" cx="26.046" cy="57.679" rx="0.453" ry="0.385"/>
	<ellipse fill="#AAAAAB" cx="22.979" cy="49.918" rx="0.521" ry="0.5"/>
	<ellipse fill="#AAAAAB" cx="23.187" cy="52.121" rx="0.479" ry="0.493"/>
	<ellipse fill="#AAAAAB" cx="20.188" cy="49.918" rx="0.522" ry="0.5"/>
	<ellipse fill="#AAAAAB" cx="21.552" cy="48.482" rx="0.448" ry="0.397"/>
	<ellipse fill="#AAAAAB" cx="18.167" cy="46.208" rx="0.5" ry="0.433"/>
	<ellipse fill="#AAAAAB" cx="17.646" cy="48.647" rx="0.521" ry="0.562"/>
	<ellipse fill="#AAAAAB" cx="17.303" cy="51.185" rx="0.592" ry="0.522"/>
	<ellipse fill="#AAAAAB" cx="14.854" cy="51.653" rx="0.438" ry="0.468"/>
	<ellipse fill="#AAAAAB" cx="12.249" cy="50.845" rx="0.501" ry="0.427"/>
	<circle fill="#AAAAAB" cx="12.951" cy="48.22" r="0.423"/>
	<ellipse fill="#AAAAAB" cx="11.674" cy="49.147" rx="0.383" ry="0.5"/>
	<ellipse fill="#AAAAAB" cx="15.364" cy="47.129" rx="0.51" ry="0.488"/>
	<ellipse fill="#AAAAAB" cx="13.097" cy="45.667" rx="0.569" ry="0.541"/>
	<ellipse fill="#AAAAAB" cx="15.125" cy="44.949" rx="0.458" ry="0.469"/>
	<ellipse fill="#AAAAAB" cx="26.386" cy="47.66" rx="0.594" ry="0.425"/>
	<ellipse fill="#AAAAAB" cx="29.333" cy="47.018" rx="0.583" ry="0.6"/>
	<ellipse fill="#AAAAAB" cx="31.396" cy="45.918" rx="0.646" ry="0.5"/>
	<ellipse fill="#AAAAAB" cx="33.979" cy="45.117" rx="0.521" ry="0.472"/>
	<ellipse fill="#AAAAAB" cx="37.016" cy="47.806" rx="0.517" ry="0.676"/>
	<ellipse fill="#AAAAAB" cx="34.125" cy="47.551" rx="0.375" ry="0.534"/>
	<ellipse fill="#AAAAAB" cx="35.111" cy="49.918" rx="0.612" ry="0.5"/>
	<ellipse fill="#AAAAAB" cx="32.552" cy="50.041" rx="0.51" ry="0.622"/>
	<ellipse fill="#AAAAAB" cx="31.561" cy="50.67" rx="0.48" ry="0.515"/>
	<ellipse fill="#AAAAAB" cx="31.816" cy="47.858" rx="0.735" ry="0.624"/>
	<ellipse fill="#AAAAAB" cx="29.776" cy="42.741" rx="0.64" ry="0.573"/>
	<ellipse fill="#AAAAAB" cx="27.315" cy="42.834" rx="0.566" ry="0.667"/>
	<ellipse fill="#AAAAAB" cx="24.604" cy="44.073" rx="0.688" ry="0.571"/>
	<ellipse fill="#AAAAAB" cx="22.129" cy="44.6" rx="0.578" ry="0.527"/>
	<ellipse fill="#AAAAAB" cx="21.845" cy="42.043" rx="0.612" ry="0.583"/>
	<ellipse fill="#AAAAAB" cx="23.661" cy="40.433" rx="0.682" ry="0.473"/>
	<ellipse fill="#AAAAAB" cx="26.577" cy="40.699" rx="0.412" ry="0.49"/>
	<ellipse fill="#AAAAAB" cx="17.188" cy="39.863" rx="0.478" ry="0.57"/>
	<ellipse fill="#AAAAAB" cx="17.188" cy="41.944" rx="0.478" ry="0.484"/>
	<ellipse fill="#AAAAAB" cx="15.229" cy="41.22" rx="0.645" ry="0.448"/>
	<ellipse fill="#AAAAAB" cx="15.5" cy="39.063" rx="0.375" ry="0.521"/>
	<ellipse fill="#AAAAAB" cx="13.309" cy="37.584" rx="0.357" ry="0.542"/>
	<circle fill="#AAAAAB" cx="13.325" cy="40.094" r="0.507"/>
	<ellipse fill="#AAAAAB" cx="13.863" cy="33.792" rx="0.554" ry="0.583"/>
	<ellipse fill="#AAAAAB" cx="13.449" cy="31.209" rx="0.414" ry="0.542"/>
	<ellipse fill="#AAAAAB" cx="14.151" cy="29.485" rx="0.703" ry="0.359"/>
	<ellipse fill="#AAAAAB" cx="16.645" cy="31.209" rx="0.479" ry="0.542"/>
	<ellipse fill="#AAAAAB" cx="15.645" cy="35.042" rx="0.521" ry="0.458"/>
	<ellipse fill="#AAAAAB" cx="18.426" cy="35.459" rx="0.531" ry="0.583"/>
	<ellipse fill="#AAAAAB" cx="19.333" cy="34.105" rx="0.625" ry="0.479"/>
	<ellipse fill="#AAAAAB" cx="20.71" cy="35.542" rx="0.522" ry="0.5"/>
	<ellipse fill="#AAAAAB" cx="23.104" cy="38.322" rx="0.646" ry="0.513"/>
	<ellipse fill="#AAAAAB" cx="14.123" cy="26.515" rx="0.462" ry="0.504"/>
	<ellipse fill="#AAAAAB" cx="17.604" cy="25.748" rx="0.479" ry="0.581"/>
	<ellipse fill="#AAAAAB" cx="19.333" cy="27.912" rx="0.625" ry="0.536"/>
	<ellipse fill="#AAAAAB" cx="21.057" cy="26.237" rx="0.4" ry="0.49"/>
	<ellipse fill="#AAAAAB" cx="22.749" cy="27.872" rx="0.583" ry="0.495"/>
	<ellipse fill="#AAAAAB" cx="22.412" cy="29.73" rx="0.567" ry="0.604"/>
	<ellipse fill="#AAAAAB" cx="23.838" cy="31.042" rx="0.505" ry="0.542"/>
	<ellipse fill="#AAAAAB" cx="23.552" cy="33.553" rx="0.573" ry="0.552"/>
	<ellipse fill="#AAAAAB" cx="21.251" cy="31.042" rx="0.594" ry="0.708"/>
	<ellipse fill="#AAAAAB" cx="25.603" cy="35.161" rx="0.562" ry="0.576"/>
	<ellipse fill="#AAAAAB" cx="26.09" cy="32.647" rx="0.487" ry="0.563"/>
	<ellipse fill="#AAAAAB" cx="26.291" cy="30.056" rx="0.458" ry="0.611"/>
	<ellipse fill="#AAAAAB" cx="24.395" cy="25.426" rx="0.646" ry="0.585"/>
	<ellipse fill="#AAAAAB" cx="26.54" cy="26.231" rx="0.449" ry="0.482"/>
	<ellipse fill="#AAAAAB" cx="27.912" cy="25.294" rx="0.413" ry="0.454"/>
	<ellipse fill="#AAAAAB" cx="28.041" cy="21.876" rx="0.542" ry="0.5"/>
	<ellipse fill="#AAAAAB" cx="26.071" cy="19.959" rx="0.468" ry="0.583"/>
	<ellipse fill="#AAAAAB" cx="28.145" cy="18.98" rx="0.438" ry="0.396"/>
	<ellipse fill="#AAAAAB" cx="23.838" cy="21.001" rx="0.505" ry="0.625"/>
	<ellipse fill="#AAAAAB" cx="25.791" cy="22.084" rx="0.5" ry="0.458"/>
	<ellipse fill="#AAAAAB" cx="21.378" cy="22.35" rx="0.467" ry="0.474"/>
	<ellipse fill="#AAAAAB" cx="21.935" cy="23.584" rx="0.478" ry="0.292"/>
	<ellipse fill="#AAAAAB" cx="30.624" cy="38.551" rx="0.458" ry="0.741"/>
	<ellipse fill="#AAAAAB" cx="32.749" cy="38.322" rx="0.542" ry="0.513"/>
	<ellipse fill="#AAAAAB" cx="32.853" cy="40.366" rx="0.438" ry="0.406"/>
	<ellipse fill="#AAAAAB" cx="31.562" cy="35.782" rx="0.479" ry="0.594"/>
	<ellipse fill="#AAAAAB" cx="29.651" cy="32.384" rx="0.515" ry="0.617"/>
	<ellipse fill="#AAAAAB" cx="31.905" cy="32.968" rx="0.51" ry="0.585"/>
	<ellipse fill="#AAAAAB" cx="33.874" cy="33.792" rx="0.417" ry="0.583"/>
	<ellipse fill="#AAAAAB" cx="34.291" cy="30.959" rx="0.417" ry="0.625"/>
	<ellipse fill="#AAAAAB" cx="32.379" cy="30.549" rx="0.474" ry="0.493"/>
	<ellipse fill="#AAAAAB" cx="30.749" cy="29.591" rx="0.333" ry="0.465"/>
	<ellipse fill="#AAAAAB" cx="29.77" cy="30.402" rx="0.396" ry="0.557"/>
	<ellipse fill="#AAAAAB" cx="30.624" cy="27.502" rx="0.458" ry="0.483"/>
	<ellipse fill="#AAAAAB" cx="32.833" cy="27.792" rx="0.625" ry="0.656"/>
	<circle fill="#AAAAAB" cx="34.854" cy="28.391" r="0.354"/>
	<ellipse fill="#AAAAAB" cx="34.489" cy="25.536" rx="0.365" ry="0.695"/>
	<ellipse fill="#AAAAAB" cx="32.749" cy="24.522" rx="0.542" ry="0.646"/>
	<ellipse fill="#AAAAAB" cx="31.494" cy="19.855" rx="0.411" ry="0.688"/>
	<ellipse fill="#AAAAAB" cx="33.785" cy="21.876" rx="0.704" ry="0.5"/>
	<ellipse fill="#AAAAAB" cx="33.267" cy="19.511" rx="0.519" ry="0.344"/>
	<ellipse fill="#AAAAAB" cx="32.437" cy="16.667" rx="0.396" ry="0.625"/>
	<ellipse fill="#AAAAAB" cx="34.951" cy="15.33" rx="0.827" ry="0.525"/>
	<ellipse fill="#AAAAAB" cx="35.289" cy="17.122" rx="0.435" ry="0.638"/>
	<ellipse fill="#AAAAAB" cx="37.269" cy="16.853" rx="0.562" ry="0.606"/>
	<ellipse fill="#AAAAAB" cx="35.81" cy="18.906" rx="0.521" ry="0.605"/>
	<ellipse fill="#AAAAAB" cx="35.81" cy="21.084" rx="0.521" ry="0.542"/>
	<ellipse fill="#AAAAAB" cx="38.915" cy="18.37" rx="0.5" ry="0.61"/>
	<ellipse fill="#AAAAAB" cx="39.249" cy="21.084" rx="0.5" ry="0.542"/>
	<ellipse fill="#AAAAAB" cx="37.571" cy="23.063" rx="0.635" ry="0.521"/>
	<ellipse fill="#AAAAAB" cx="40.455" cy="23.126" rx="0.46" ry="0.75"/>
	<ellipse fill="#AAAAAB" cx="42.506" cy="22.345" rx="0.492" ry="0.719"/>
	<ellipse fill="#AAAAAB" cx="38.29" cy="25.267" rx="0.458" ry="0.745"/>
	<ellipse fill="#AAAAAB" cx="40.167" cy="26.231" rx="0.418" ry="0.482"/>
	<ellipse fill="#AAAAAB" cx="41.887" cy="27.975" rx="0.555" ry="0.473"/>
	<ellipse fill="#AAAAAB" cx="42.297" cy="29.018" rx="0.41" ry="0.569"/>
	<ellipse fill="#AAAAAB" cx="39.708" cy="29.764" rx="0.459" ry="0.638"/>
	<ellipse fill="#AAAAAB" cx="37.993" cy="28.248" rx="0.422" ry="0.5"/>
	<ellipse fill="#AAAAAB" cx="37.438" cy="30.716" rx="0.502" ry="0.66"/>
	<ellipse fill="#AAAAAB" cx="36.728" cy="34.417" rx="0.396" ry="0.625"/>
	<circle fill="#AAAAAB" cx="41.511" cy="31.972" r="0.597"/>
	<ellipse fill="#AAAAAB" cx="41.511" cy="34.573" rx="0.597" ry="0.614"/>
	<ellipse fill="#AAAAAB" cx="38.915" cy="35.329" rx="0.5" ry="0.453"/>
	<ellipse fill="#AAAAAB" cx="36.728" cy="37.093" rx="0.396" ry="0.717"/>
	<ellipse fill="#AAAAAB" cx="38.811" cy="37.818" rx="0.604" ry="0.725"/>
	<ellipse fill="#AAAAAB" cx="41.401" cy="36.98" rx="0.486" ry="0.604"/>
	<ellipse fill="#AAAAAB" cx="41.849" cy="39.714" rx="0.448" ry="0.651"/>
	<ellipse fill="#AAAAAB" cx="40.666" cy="40.046" rx="0.499" ry="0.557"/>
	<ellipse fill="#AAAAAB" cx="38.454" cy="40.777" rx="0.461" ry="0.683"/>
	<ellipse fill="#AAAAAB" cx="36.558" cy="41.824" rx="0.565" ry="0.604"/>
	<ellipse fill="#AAAAAB" cx="36.464" cy="39.522" rx="0.472" ry="0.688"/>
	<ellipse fill="#AAAAAB" cx="46.143" cy="40.452" rx="0.729" ry="0.737"/>
	<ellipse fill="#AAAAAB" cx="45.187" cy="37.093" rx="0.518" ry="0.717"/>
	<ellipse fill="#AAAAAB" cx="47.397" cy="37.708" rx="0.524" ry="0.614"/>
	<ellipse fill="#AAAAAB" cx="46.612" cy="34.573" rx="0.511" ry="0.614"/>
	<ellipse fill="#AAAAAB" cx="48.626" cy="35.438" rx="0.504" ry="0.562"/>
	<ellipse fill="#AAAAAB" cx="49.854" cy="33.463" rx="0.517" ry="0.495"/>
	<ellipse fill="#AAAAAB" cx="45.384" cy="30.202" rx="0.718" ry="0.757"/>
	<ellipse fill="#AAAAAB" cx="47.966" cy="27.633" rx="0.57" ry="0.614"/>
	<ellipse fill="#AAAAAB" cx="45.744" cy="27.633" rx="0.358" ry="0.614"/>
	<ellipse fill="#AAAAAB" cx="46.308" cy="24.522" rx="0.564" ry="0.646"/>
	<ellipse fill="#AAAAAB" cx="49.393" cy="22.1" rx="0.604" ry="0.724"/>
	<ellipse fill="#AAAAAB" cx="46.75" cy="21.417" rx="0.647" ry="0.667"/>
	<ellipse fill="#AAAAAB" cx="50.976" cy="19.606" rx="0.604" ry="0.77"/>
	<ellipse fill="#AAAAAB" cx="48.729" cy="18.333" rx="0.608" ry="0.574"/>
	<ellipse fill="#AAAAAB" cx="46.612" cy="17.587" rx="0.511" ry="0.714"/>
	<ellipse fill="#AAAAAB" cx="48.548" cy="15.423" rx="0.582" ry="0.619"/>
	<ellipse fill="#AAAAAB" cx="54.56" cy="18.37" rx="0.521" ry="0.61"/>
	<ellipse fill="#AAAAAB" cx="53.962" cy="21.313" rx="0.597" ry="0.563"/>
	<ellipse fill="#AAAAAB" cx="52.976" cy="23.824" rx="0.604" ry="0.698"/>
	<ellipse fill="#AAAAAB" cx="52.703" cy="27.266" rx="0.666" ry="0.552"/>
	<ellipse fill="#AAAAAB" cx="54.832" cy="28.739" rx="0.5" ry="0.706"/>
	<ellipse fill="#AAAAAB" cx="56.869" cy="25.699" rx="0.586" ry="0.532"/>
	<ellipse fill="#AAAAAB" cx="55.373" cy="26.22" rx="0.541" ry="0.799"/>
	<ellipse fill="#AAAAAB" cx="52.142" cy="14.685" rx="0.562" ry="0.645"/>
	<ellipse fill="#AAAAAB" cx="48.729" cy="12.736" rx="0.608" ry="0.597"/>
	<ellipse fill="#AAAAAB" cx="46.414" cy="14.009" rx="0.459" ry="0.676"/>
	<ellipse fill="#AAAAAB" cx="43.183" cy="17.499" rx="0.477" ry="0.625"/>
	<ellipse fill="#AAAAAB" cx="41.591" cy="15.953" rx="0.677" ry="0.53"/>
	<ellipse fill="#AAAAAB" cx="39.708" cy="14.277" rx="0.459" ry="0.527"/>
	<ellipse fill="#AAAAAB" cx="37.993" cy="13.242" rx="0.422" ry="0.507"/>
	<ellipse fill="#AAAAAB" cx="40.559" cy="11.976" rx="0.564" ry="0.476"/>
	<ellipse fill="#AAAAAB" cx="58.393" cy="23.35" rx="0.604" ry="0.526"/>
	<ellipse fill="#AAAAAB" cx="58.289" cy="20.178" rx="0.5" ry="0.572"/>
	<ellipse fill="#AAAAAB" cx="59.776" cy="20.98" rx="0.529" ry="0.438"/>
	<ellipse fill="#AAAAAB" cx="58.994" cy="18.106" rx="0.502" ry="0.519"/>
	<ellipse fill="#AAAAAB" cx="64.642" cy="22.225" rx="0.479" ry="0.599"/>
	<circle fill="#AAAAAB" cx="62.589" cy="23.68" r="0.553"/>
	<ellipse fill="#AAAAAB" cx="60.998" cy="25.371" rx="0.5" ry="0.453"/>
	<ellipse fill="#AAAAAB" cx="62.83" cy="26.841" rx="0.625" ry="0.424"/>
	<ellipse fill="#AAAAAB" cx="59.651" cy="27.209" rx="0.654" ry="0.368"/>
	<ellipse fill="#AAAAAB" cx="60.998" cy="28.592" rx="0.5" ry="0.617"/>
	<ellipse fill="#AAAAAB" cx="69.41" cy="28.624" rx="0.504" ry="0.59"/>
	<ellipse fill="#AAAAAB" cx="68.435" cy="29.764" rx="0.646" ry="0.638"/>
	<ellipse fill="#AAAAAB" cx="73.246" cy="28.107" rx="0.709" ry="0.604"/>
	<ellipse fill="#AAAAAB" cx="70.812" cy="26.515" rx="0.561" ry="0.504"/>
	<ellipse fill="#AAAAAB" cx="65.642" cy="27.756" rx="0.479" ry="0.491"/>
	<ellipse fill="#AAAAAB" cx="65.892" cy="30.427" rx="0.563" ry="0.716"/>
	<ellipse fill="#AAAAAB" cx="53.653" cy="31.465" rx="0.677" ry="0.507"/>
	<ellipse fill="#AAAAAB" cx="54.434" cy="34.573" rx="0.396" ry="0.614"/>
	<ellipse fill="#AAAAAB" cx="52.246" cy="36.155" rx="0.459" ry="0.825"/>
	<ellipse fill="#AAAAAB" cx="54.007" cy="37.201" rx="0.427" ry="0.617"/>
	<ellipse fill="#AAAAAB" cx="53.189" cy="40.133" rx="0.818" ry="0.644"/>
	<ellipse fill="#AAAAAB" cx="49.751" cy="40.476" rx="0.619" ry="0.43"/>
	<ellipse fill="#AAAAAB" cx="50.594" cy="42.147" rx="0.401" ry="0.687"/>
	<ellipse fill="#AAAAAB" cx="48.103" cy="42.147" rx="0.523" ry="0.687"/>
	<ellipse fill="#AAAAAB" cx="62.673" cy="32.017" rx="0.47" ry="0.552"/>
	<ellipse fill="#AAAAAB" cx="62.192" cy="34.573" rx="0.488" ry="0.614"/>
	<ellipse fill="#AAAAAB" cx="59.225" cy="37.292" rx="0.426" ry="0.708"/>
	<ellipse fill="#AAAAAB" cx="57.507" cy="36.678" rx="0.515" ry="0.523"/>
	<ellipse fill="#AAAAAB" cx="57.951" cy="34.417" rx="0.442" ry="0.458"/>
	<ellipse fill="#AAAAAB" cx="60.482" cy="31.303" rx="0.516" ry="0.344"/>
	<ellipse fill="#AAAAAB" cx="60.386" cy="33.016" rx="0.609" ry="0.447"/>
	<ellipse fill="#AAAAAB" cx="75.382" cy="31" rx="0.678" ry="0.766"/>
	<ellipse fill="#AAAAAB" cx="74.205" cy="32.391" rx="0.5" ry="0.625"/>
	<ellipse fill="#AAAAAB" cx="71.535" cy="33.115" rx="0.721" ry="0.546"/>
	<ellipse fill="#AAAAAB" cx="74.792" cy="35.385" rx="0.588" ry="0.77"/>
	<ellipse fill="#AAAAAB" cx="71.445" cy="35.907" rx="0.633" ry="0.469"/>
	<ellipse fill="#AAAAAB" cx="68.205" cy="33.581" rx="0.416" ry="0.612"/>
	<ellipse fill="#AAAAAB" cx="68.806" cy="35.907" rx="0.604" ry="0.469"/>
	<ellipse fill="#AAAAAB" cx="65.267" cy="35.932" rx="0.625" ry="0.745"/>
	<ellipse fill="#AAAAAB" cx="63.774" cy="38.514" rx="0.631" ry="0.696"/>
	<ellipse fill="#AAAAAB" cx="68.265" cy="39.546" rx="0.64" ry="0.586"/>
	<ellipse fill="#AAAAAB" cx="67.919" cy="42.147" rx="0.515" ry="0.687"/>
	<ellipse fill="#AAAAAB" cx="71.03" cy="42.168" rx="0.503" ry="0.458"/>
	<ellipse fill="#AAAAAB" cx="72.742" cy="42.272" rx="0.664" ry="0.562"/>
	<ellipse fill="#AAAAAB" cx="71.644" cy="44.836" rx="0.613" ry="0.752"/>
	<ellipse fill="#AAAAAB" cx="75.296" cy="44.231" rx="0.594" ry="0.605"/>
	<ellipse fill="#AAAAAB" cx="75.425" cy="41.678" rx="0.635" ry="0.49"/>
	<ellipse fill="#AAAAAB" cx="76.078" cy="39.503" rx="0.649" ry="0.543"/>
	<ellipse fill="#AAAAAB" cx="74.792" cy="50.414" rx="0.504" ry="0.589"/>
	<ellipse fill="#AAAAAB" cx="75.408" cy="53.522" rx="0.613" ry="0.521"/>
	<ellipse fill="#AAAAAB" cx="75.55" cy="54.987" rx="0.471" ry="0.444"/>
	<ellipse fill="#AAAAAB" cx="75.341" cy="57.48" rx="0.549" ry="0.562"/>
	<ellipse fill="#AAAAAB" cx="73.287" cy="53.814" rx="0.543" ry="0.521"/>
	<ellipse fill="#AAAAAB" cx="71.522" cy="50.414" rx="0.733" ry="0.589"/>
	<ellipse fill="#AAAAAB" cx="67.375" cy="46.722" rx="0.893" ry="0.512"/>
	<ellipse fill="#AAAAAB" cx="65.267" cy="44.231" rx="0.625" ry="0.605"/>
	<ellipse fill="#AAAAAB" cx="62.643" cy="45.158" rx="0.5" ry="0.677"/>
	<ellipse fill="#AAAAAB" cx="62.423" cy="42.637" rx="0.72" ry="0.49"/>
	<ellipse fill="#AAAAAB" cx="60.194" cy="43.804" rx="0.543" ry="0.677"/>
	<ellipse fill="#AAAAAB" cx="58.042" cy="45.208" rx="0.756" ry="0.626"/>
	<ellipse fill="#AAAAAB" cx="64.017" cy="47.276" rx="0.625" ry="0.517"/>
	<ellipse fill="#AAAAAB" cx="58.1" cy="42.147" rx="0.396" ry="0.687"/>
	<ellipse fill="#AAAAAB" cx="56.412" cy="43.605" rx="0.584" ry="0.479"/>
	<ellipse fill="#AAAAAB" cx="54.248" cy="43.825" rx="0.666" ry="0.406"/>
	<ellipse fill="#AAAAAB" cx="52.037" cy="45.446" rx="0.668" ry="0.61"/>
	<ellipse fill="#AAAAAB" cx="53.225" cy="46.044" rx="0.521" ry="0.597"/>
	<circle fill="#AAAAAB" cx="51.953" cy="48.58" r="0.581"/>
	<ellipse fill="#AAAAAB" cx="55.475" cy="47.785" rx="0.354" ry="0.508"/>
	<ellipse fill="#AAAAAB" cx="57.341" cy="48.825" rx="0.681" ry="0.532"/>
	<ellipse fill="#AAAAAB" cx="59.074" cy="50.262" rx="0.577" ry="0.438"/>
	<ellipse fill="#AAAAAB" cx="55.878" cy="52.397" rx="0.4" ry="0.438"/>
	<ellipse fill="#AAAAAB" cx="55.289" cy="50.918" rx="0.375" ry="0.506"/>
	<ellipse fill="#AAAAAB" cx="53.363" cy="50.312" rx="0.383" ry="0.39"/>
	<ellipse fill="#AAAAAB" cx="63.798" cy="51.834" rx="0.844" ry="0.563"/>
	<ellipse fill="#AAAAAB" cx="66.251" cy="50.767" rx="0.545" ry="0.505"/>
	<ellipse fill="#AAAAAB" cx="68.56" cy="52.417" rx="0.688" ry="0.583"/>
	<ellipse fill="#AAAAAB" cx="64.153" cy="55.757" rx="0.763" ry="0.77"/>
	<ellipse fill="#AAAAAB" cx="67.054" cy="55.335" rx="0.57" ry="0.421"/>
	<ellipse fill="#AAAAAB" cx="69.154" cy="58.22" rx="0.594" ry="0.74"/>
	<ellipse fill="#AAAAAB" cx="67.333" cy="58.073" rx="0.539" ry="0.593"/>
	<ellipse fill="#AAAAAB" cx="72.585" cy="59.76" rx="0.699" ry="0.8"/>
	<ellipse fill="#AAAAAB" cx="70.949" cy="56.667" rx="0.694" ry="0.586"/>
	<ellipse fill="#AAAAAB" cx="72.578" cy="65.66" rx="0.69" ry="0.617"/>
	<ellipse fill="#AAAAAB" cx="68.597" cy="62.878" rx="0.557" ry="0.831"/>
	<ellipse fill="#AAAAAB" cx="69.951" cy="66.331" rx="0.576" ry="0.631"/>
	<ellipse fill="#AAAAAB" cx="67.417" cy="67.456" rx="0.623" ry="0.828"/>
	<ellipse fill="#AAAAAB" cx="65.186" cy="70.751" rx="0.729" ry="0.708"/>
	<ellipse fill="#AAAAAB" cx="63.451" cy="66.768" rx="0.702" ry="0.78"/>
	<ellipse fill="#AAAAAB" cx="62.871" cy="63.032" rx="0.58" ry="0.678"/>
	<ellipse fill="#AAAAAB" cx="65.144" cy="65.548" rx="0.479" ry="0.505"/>
	<ellipse fill="#AAAAAB" cx="66.91" cy="63.991" rx="0.426" ry="0.633"/>
	<ellipse fill="#AAAAAB" cx="64.416" cy="60.381" rx="0.5" ry="0.621"/>
	<ellipse fill="#AAAAAB" cx="58.019" cy="61.486" rx="0.688" ry="0.562"/>
	<ellipse fill="#AAAAAB" cx="55.207" cy="60.591" rx="0.541" ry="0.411"/>
	<ellipse fill="#AAAAAB" cx="49.957" cy="58.83" rx="0.666" ry="0.609"/>
	<ellipse fill="#AAAAAB" cx="51.849" cy="55.869" rx="0.684" ry="0.659"/>
	<ellipse fill="#AAAAAB" cx="55.019" cy="58.398" rx="0.729" ry="0.562"/>
	<ellipse fill="#AAAAAB" cx="58.457" cy="59.295" rx="0.625" ry="0.465"/>
	<ellipse fill="#AAAAAB" cx="55.744" cy="55.938" rx="0.537" ry="0.729"/>
	<ellipse fill="#AAAAAB" cx="51.235" cy="52.825" rx="0.613" ry="0.697"/>
	<ellipse fill="#AAAAAB" cx="48.216" cy="51.249" rx="0.721" ry="0.586"/>
	<ellipse fill="#AAAAAB" cx="45.969" cy="52.501" rx="0.68" ry="0.792"/>
	<ellipse fill="#AAAAAB" cx="46.184" cy="56.46" rx="0.688" ry="0.792"/>
	<ellipse fill="#AAAAAB" cx="49.246" cy="55.001" rx="0.709" ry="0.667"/>
	<ellipse fill="#AAAAAB" cx="61.474" cy="72.876" rx="0.48" ry="0.667"/>
	<ellipse fill="#AAAAAB" cx="59.226" cy="74.419" rx="0.52" ry="0.583"/>
	<ellipse fill="#AAAAAB" cx="55.207" cy="75.438" rx="0.541" ry="0.602"/>
	<ellipse fill="#AAAAAB" cx="56.496" cy="76.335" rx="0.5" ry="0.558"/>
	<ellipse fill="#AAAAAB" cx="55.289" cy="71.598" rx="0.459" ry="0.613"/>
	<ellipse fill="#AAAAAB" cx="52.973" cy="72.726" rx="0.44" ry="0.817"/>
	<ellipse fill="#AAAAAB" cx="58.529" cy="70.99" rx="0.697" ry="0.608"/>
	<ellipse fill="#AAAAAB" cx="60.599" cy="69.95" rx="0.395" ry="0.432"/>
	<ellipse fill="#AAAAAB" cx="60.13" cy="67.108" rx="0.384" ry="0.439"/>
	<ellipse fill="#AAAAAB" cx="57.894" cy="65.782" rx="0.563" ry="0.495"/>
	<ellipse fill="#AAAAAB" cx="57.507" cy="68.129" rx="0.512" ry="0.582"/>
	<ellipse fill="#AAAAAB" cx="53.664" cy="68.178" rx="0.457" ry="0.723"/>
	<ellipse fill="#AAAAAB" cx="53.33" cy="64.939" rx="0.582" ry="0.608"/>
	<ellipse fill="#AAAAAB" cx="55.684" cy="64.939" rx="0.479" ry="0.608"/>
	<ellipse fill="#AAAAAB" cx="51.08" cy="63.917" rx="0.459" ry="0.56"/>
	<ellipse fill="#AAAAAB" cx="48.726" cy="63.219" rx="0.563" ry="0.491"/>
	<ellipse fill="#AAAAAB" cx="46.436" cy="62.292" rx="0.603" ry="0.587"/>
	<ellipse fill="#AAAAAB" cx="43.771" cy="64.491" rx="0.562" ry="0.552"/>
	<ellipse fill="#AAAAAB" cx="46.292" cy="64.532" rx="0.459" ry="0.407"/>
	<ellipse fill="#AAAAAB" cx="46.1" cy="65.548" rx="0.479" ry="0.505"/>
	<ellipse fill="#AAAAAB" cx="48.339" cy="66.087" rx="0.387" ry="0.54"/>
	<ellipse fill="#AAAAAB" cx="50.143" cy="66.598" rx="0.479" ry="0.51"/>
	<ellipse fill="#AAAAAB" cx="50.143" cy="69.332" rx="0.479" ry="0.62"/>
	<ellipse fill="#AAAAAB" cx="48.089" cy="68.51" rx="0.637" ry="0.391"/>
	<ellipse fill="#AAAAAB" cx="43.948" cy="67.196" rx="0.559" ry="0.598"/>
	<ellipse fill="#AAAAAB" cx="44.894" cy="70.47" rx="0.561" ry="0.521"/>
	<ellipse fill="#AAAAAB" cx="46.873" cy="71.398" rx="0.58" ry="0.646"/>
	<ellipse fill="#AAAAAB" cx="49.435" cy="71.971" rx="0.708" ry="0.573"/>
	<ellipse fill="#AAAAAB" cx="49.001" cy="74.336" rx="0.66" ry="0.5"/>
	<ellipse fill="#AAAAAB" cx="46.1" cy="74.106" rx="0.479" ry="0.562"/>
	<ellipse fill="#AAAAAB" cx="44.894" cy="75.886" rx="0.561" ry="0.449"/>
	<ellipse fill="#AAAAAB" cx="49.479" cy="76.773" rx="0.478" ry="0.438"/>
	<ellipse fill="#AAAAAB" cx="48.339" cy="78.669" rx="0.387" ry="0.417"/>
	<ellipse fill="#AAAAAB" cx="45.474" cy="77.922" rx="0.58" ry="0.496"/>
	<ellipse fill="#AAAAAB" cx="44.856" cy="79.836" rx="0.349" ry="0.5"/>
	<ellipse fill="#AAAAAB" cx="36.664" cy="79.251" rx="0.461" ry="0.583"/>
	<ellipse fill="#AAAAAB" cx="34.799" cy="76.467" rx="0.513" ry="0.426"/>
	<ellipse fill="#AAAAAB" cx="34.128" cy="77.408" rx="0.671" ry="0.515"/>
	<ellipse fill="#AAAAAB" cx="31.184" cy="75.886" rx="0.648" ry="0.449"/>
	<ellipse fill="#AAAAAB" cx="35.62" cy="72.539" rx="0.583" ry="0.63"/>
	<ellipse fill="#AAAAAB" cx="37.706" cy="75.438" rx="0.581" ry="0.602"/>
	<ellipse fill="#AAAAAB" cx="39.579" cy="78.587" rx="0.542" ry="0.665"/>
	<circle fill="#AAAAAB" cx="39.187" cy="72.69" r="0.479"/>
	<ellipse fill="#AAAAAB" cx="38.208" cy="68.129" rx="0.5" ry="0.582"/>
	<ellipse fill="#AAAAAB" cx="39.579" cy="67.062" rx="0.542" ry="0.731"/>
	<ellipse fill="#AAAAAB" cx="36.666" cy="69.849" rx="0.459" ry="0.533"/>
	<ellipse fill="#AAAAAB" cx="40.125" cy="70.252" rx="0.458" ry="0.733"/>
	<ellipse fill="#AAAAAB" cx="42.054" cy="73.281" rx="0.517" ry="0.555"/>
	<ellipse fill="#AAAAAB" cx="42.054" cy="81.71" rx="0.517" ry="0.667"/>
	<ellipse fill="#AAAAAB" cx="23.334" cy="64.085" rx="0.521" ry="0.499"/>
	<ellipse fill="#AAAAAB" cx="24.75" cy="64.765" rx="0.48" ry="0.381"/>
</g>
<g property="ro:has_part" resource="uberon:0003909" id="hepatic_sinusoid">
	<path fill="#808285" stroke="#000000" stroke-width="0.2834" d="M48.498,46.494c0.121-0.057,0.601-0.777,0.719-0.839
		c0.867-0.448,1.662-0.979,2.431-1.498c0.917-0.615,1.786-1.198,2.769-1.643c0.104-0.05,0.209-0.095,0.354-0.157
		c0.271-0.116,0.538-0.227,0.802-0.338c1.218-0.505,2.396-0.996,3.513-1.645c0.104-0.063,0.631-0.16,0.789-0.139
		c2.926,0.396,5.057,2.368,7.307,4.449c0.844,0.786,1.703,1.577,2.621,2.297c0.279,0.219,0.156,0.594-0.19,0.587
		c-0.211-0.004-0.422-0.004-0.631,0c-1.276,0.035-3.899,0.731-5.246,1.116l0.224,1.35c1.449-0.51,3.6-1.164,5.056-1.205
		c0.552-0.015,1.103,0.012,1.688,0.043c1.043,0.059,2.119,0.106,3.184-0.103c0.646,0.006,1.498,0.237,2.08,0.78
		c0.347,0.322,0.562,0.738,0.654,1.229c0.066,4.514-0.091,10.542-0.266,13.553c-0.113,0.086-0.229,0.185-0.335,0.293
		c-0.438-0.125-0.896-0.414-1.315-0.68c-0.117-0.078-0.236-0.152-0.352-0.222C72.9,62.848,71.466,61.911,70.08,61
		c-2.744-1.793-5.58-3.649-8.603-5.119c-0.537-0.262-1.081-0.502-1.617-0.729c-0.004-0.004-0.011-0.006-0.016-0.009
		c-0.226-0.098-0.449-0.189-0.673-0.284c-0.512-0.215-1.014-0.429-1.504-0.649c-0.106-0.047-0.104-0.305,0.002-0.377
		c0.082-0.059,0.162-0.11,0.23-0.162c0.309-0.207,0.598-0.396,0.812-0.59c0.979-0.883,2.17-1.854,3.545-2.394l0.353-0.138
		c0.437-0.17,0.884-0.344,1.341-0.514l-0.224-1.353c-0.134,0.04-0.25,0.071-0.351,0.104c-0.229,0.067-0.365,0.109-0.385,0.114
		c-1.111,0.271-2.363-0.675-3.685-1.676c-1.354-1.028-2.761-2.088-4.304-2.027c-0.348,0.014-0.623,0.303-0.607,0.652
		c0.014,0.219,0.13,0.41,0.309,0.514c0.1,0.064,0.221,0.097,0.351,0.093c1.095-0.043,2.313,0.878,3.493,1.774
		c0.812,0.617,1.643,1.239,2.5,1.618c-1.232,0.621-2.287,1.49-3.18,2.292c-0.146,0.131-0.398,0.303-0.668,0.479
		c-0.225,0.151-0.449,0.31-0.662,0.463c-0.148,0.115-0.735,0.174-0.895,0.082c-0.537-0.33-1.059-0.691-1.547-1.125
		c-1.145-1.002-2.396-2.039-4.057-2.729c-0.373-0.153-0.758-0.294-1.127-0.427c-0.174-0.061-0.357-0.297-0.457-0.506
		c-0.097-0.211-0.189-0.41-0.189-0.41l-2.771-0.713l1.311,3.16c0.303-0.213,0.55-0.543,0.801-0.569
		c0.251-0.03,0.594,0.118,0.889,0.226c0.369,0.135,0.726,0.26,1.062,0.401c1.484,0.616,2.646,1.581,3.712,2.519
		c0.837,0.732,1.746,1.303,2.681,1.789c0.006,0.002,0.016,0.01,0.027,0.014c0.008,0.006,0.016,0.009,0.023,0.01
		c0.885,0.455,1.785,0.838,2.682,1.215c0.197,0.085,0.4,0.169,0.604,0.255c0.959,0.716,1.032,3.146,1.067,4.312l1.271,0.271
		c0,0-0.074-2.312-0.276-3.251c-0.034-0.146,0.159-0.298,0.299-0.229c2.685,1.373,5.256,3.051,7.746,4.682
		c1.396,0.915,2.841,1.857,4.296,2.744c0.105,0.066,0.216,0.136,0.33,0.205c0.375,0.236,0.801,0.509,1.261,0.693
		c-0.087,0.193-0.157,0.389-0.209,0.577c-1.557,0.606-3.169,1.86-4.856,3.183c-1.858,1.449-3.768,2.934-5.77,3.752
		c-0.189-0.723-0.515-1.418-0.837-2.092c-0.178-0.367-0.34-0.713-0.481-1.058c-0.517-1.251-0.785-2.616-0.947-3.823
		c-0.016-0.16-0.041-0.353-0.066-0.513c-0.025-0.213-0.049-0.421-0.066-0.618c-0.045-0.416-0.09-0.832-0.135-1.244
		c-0.113-0.988-0.228-2.007-0.281-3.009l-1.271-0.269c0.045,1.152,0.173,2.304,0.298,3.416c0.012,0.096,0.021,0.195,0.031,0.295
		c-0.414-0.307-0.859-0.563-1.328-0.762l-0.307-0.131c-1.854-0.787-3.956-1.678-6.012-2.015c-0.244-0.042-0.481-0.079-0.717-0.116
		c-1.809-0.283-3.369-0.531-4.994-1.431l-0.221-0.116c-0.71-0.391-1.227-0.667-1.646-1.309c-0.271-0.41-0.512-1.014-0.727-1.543
		c-0.126-0.312-0.312-1.188-0.291-1.353c0.156-1.194,0.027-2.312-0.102-3.396C44.312,51.875,44.29,51.5,44.29,51.5l0.543-0.795
		l-1.71-2.188l-0.968,2.52c0.272,0.102,0.547,0.187,0.829,0.244c0.032,0.338,0.071,0.672,0.108,1
		c0.124,1.045,0.244,2.035,0.104,3.078c-0.21,1.577-0.459,3.271-0.869,4.945c-0.082,0.333-0.168,0.666-0.257,1.002
		c-0.123,0.492-0.25,0.986-0.367,1.488c-0.03,0.142-0.316,0.447-0.433,0.477c-1.712,0.396-3.78,1.958-4.761,3.124
		c-0.644,0.767-1.326,1.524-1.991,2.257c-0.836,0.926-1.698,1.885-2.5,2.872c-0.439,0.542-0.825,1.132-1.193,1.728
		c-0.786,0.848-2.699,1.469-4.081,0.922c-1.351-0.87-2.751-1.947-4.197-3.062c-3.313-2.561-6.737-5.205-10.537-6.205
		c-0.025-0.005-0.043-0.007-0.068-0.01c-0.026-0.09-0.055-0.182-0.087-0.271l-0.766,0.972l0.484,1.215
		c0.214-0.146,0.352-0.353,0.426-0.595c3.436,1,6.661,3.482,9.773,5.892c1.272,0.979,2.508,1.933,3.722,2.748
		c0.044,0.078,0.11,0.146,0.193,0.194c0.007,0.008,0.02,0.015,0.03,0.021c2.051,1.246,5.314,0.28,6.369-1.396
		c0.038-0.057,0.06-0.115,0.076-0.182c0.266-0.412,0.541-0.812,0.833-1.179c0.78-0.961,1.633-1.905,2.455-2.813
		c0.669-0.744,1.366-1.51,2.023-2.293c0.818-0.977,2.345-2.08,3.554-2.547c0.119-0.047,0.316,0.088,0.306,0.192
		c-0.054,0.448-0.087,0.899-0.085,1.356c0.009,2.035,0.538,4.166,1.586,6.328c0.402,0.838,0.284,1.129,0.006,1.838
		c-0.102,0.254-0.22,0.547-0.324,0.898c-0.272,0.936-0.137,1.975-0.013,2.889c0.021,0.18,0.046,0.354,0.063,0.522
		c0.058,0.499,0.164,0.979,0.268,1.446c0.071,0.32,0.138,0.633,0.188,0.941c0.059,0.344,0.001,0.592-0.08,0.938
		c-0.041,0.188-0.095,0.407-0.124,0.657c-0.027,0.188-0.032,0.384-0.031,0.576l-0.086,1.053l1.678,0.275l0.982-0.771
		c0.989-0.899,3.781-2.758,4.538-3.229c1.657-1.283,1.97-3.464,1.833-4.502c-0.139-1.039,0.074-2.102,0.359-3.416
		c0.428-1.971,0.91-4.195,0.186-6.611c-0.102-0.334-0.451-0.52-0.785-0.42c-0.334,0.101-0.525,0.451-0.423,0.783
		c0.634,2.104,0.187,4.164-0.204,5.979c-0.326,1.504-0.636,2.923-0.314,4.2c0.025,0.104-0.537,2.222-1.196,2.854
		c-2.54,1.523-4.226,2.771-5.296,3.875c-0.001-0.002-0.004-0.002-0.007-0.004c-0.005-0.174-0.002-0.338,0.016-0.482
		c0.027-0.188,0.066-0.361,0.105-0.533c0.09-0.396,0.194-0.84,0.097-1.43c-0.057-0.344-0.132-0.686-0.208-1.012
		c-0.096-0.449-0.191-0.884-0.239-1.312c-0.021-0.176-0.042-0.358-0.07-0.547c-0.11-0.832-0.226-1.689-0.026-2.367
		c0.092-0.297,0.189-0.551,0.286-0.793c0.311-0.777,0.604-1.514-0.043-2.854c-0.962-1.987-1.45-3.935-1.459-5.782
		c-0.005-1.518,0.396-3.076,0.783-4.578c0.09-0.347,0.179-0.686,0.26-1.022c0.145-0.604,0.272-1.212,0.383-1.812
		c0.026-0.136,0.218-0.125,0.294,0.012c0.058,0.105,0.118,0.209,0.181,0.306c0.422,0.647,0.917,1.038,1.449,1.356
		c0.211,0.129,0.431,0.248,0.646,0.367l0.211,0.114c1.82,1.005,3.562,1.276,5.408,1.567c0.231,0.039,0.47,0.074,0.707,0.115
		c1.907,0.312,3.937,1.172,5.727,1.929l0.307,0.135c0.776,0.325,1.52,0.888,2.038,1.517c0.173,1.338,0.466,2.887,1.06,4.33
		c0.152,0.375,0.33,0.756,0.508,1.121c0.326,0.674,0.631,1.316,0.789,1.943c0.193,0.615,0.807,1.064,1.674,0.757
		c2.186-0.899,4.211-2.476,6.057-3.914c1.473-1.149,2.868-2.239,4.141-2.836c0,0,1.483-0.678,1.893-1.192
		c0.405-0.517,0.607-2.435,0.607-2.435c0.152-2.931,0.334-7.997,0.3-12.211c-0.002-0.291-0.005-0.22-0.002-0.291
		c0.032-1.157-0.349-2.146-1.107-2.854c-0.956-0.896-2.36-1.199-3.335-1.104c-0.104,0.012-0.312,0.09-0.328,0.081
		c-1.902-0.868-3.537-2.38-5.121-3.843c-2.004-1.862-4.064-3.765-6.765-4.521c-0.14-0.039-0.131-0.351,0.004-0.483
		c0.183-0.165,0.354-0.339,0.533-0.523c0.296-0.321,0.591-0.635,0.88-0.955c1.655-1.795,3.217-3.493,5.352-4.742
		c0.922-0.542,2.09-0.871,3.215-1.189c0.408-0.115,0.812-0.229,1.199-0.349c1.293-0.409,2.217-0.87,3.291-1.641
		c0.104-0.076,0.371-0.19,0.586-0.282c0.06-0.025,0.104-0.044,0.158-0.07l0.867-0.649L77,27.606l-1.164,0.309
		c-0.301,0.127-0.607,0.258-0.83,0.416c-0.967,0.697-1.764,1.093-2.935,1.463c-0.376,0.118-0.769,0.229-1.161,0.339
		c-1.203,0.339-2.447,0.689-3.512,1.315c-2.296,1.345-3.919,3.108-5.639,4.975c-0.289,0.313-0.578,0.628-0.875,0.943
		c-1.317,1.409-2.879,2.229-4.549,2.953c-0.205,0.094-0.496-0.137-0.441-0.346c0.211-0.809,0.322-1.646,0.43-2.475
		c0.081-0.626,0.159-1.218,0.278-1.774c0.188-0.884,0.284-1.774,0.376-2.632c0.15-1.371,0.29-2.667,0.779-3.917
		c0.888-2.268,4.009-7.261,4.558-7.986c0.543-0.727,0.683-0.992,1.049-1.027c0.363-0.038,3.165,2.433,4.989,3.544
		c2.945,1.791,5.982,3.297,7.533,4.018l0.945-0.064l-0.66-1.194c-2.631-1.245-8.852-4.418-12.152-7.399
		c0.001-0.002,0.001-0.004,0-0.001c-0.833-0.562-1.741-0.017-2.188,0.557c-0.093,0.107-4.357,6.82-5.248,9.096
		c-0.554,1.405-0.705,2.847-0.854,4.241c-0.089,0.822-0.185,1.682-0.358,2.502c-0.129,0.606-0.214,1.25-0.3,1.872
		c-0.153,1.215-0.319,2.458-0.821,3.493c-0.082,0.174-0.584,0.639-0.734,0.713c-0.926,0.461-1.758,1.02-2.569,1.565
		c-0.771,0.518-2.086,1.36-2.327,1.378c-0.238,0.016-1.424-0.167-2.59,0.311l0.704,1.255L48.498,46.494z"/>
	<polygon fill="#808285" points="61.444,60.624 61.471,61.002 60.514,60.812 60.525,60.181 	"/>
	<polygon fill="#808285" points="63.929,48.792 63.605,48.879 63.783,49.922 64.095,49.805 	"/>
	<path fill="#808285" stroke="#000000" stroke-width="0.2834" d="M11.243,63.526c-0.006-0.01-0.014-0.021-0.022-0.029
		c0.492-1.992,0.623-5.799,0.691-9.836c1.916,0.522,3.88,0.443,5.784,0.371c1.916-0.074,3.728-0.146,5.183,0.438
		c0.326,0.136,0.691-0.021,0.824-0.342c0.129-0.326-0.024-0.692-0.35-0.82c-1.707-0.689-3.647-0.612-5.708-0.533
		c-1.912,0.078-3.885,0.15-5.715-0.415c-0.681-0.185-1.265,0.177-1.272,0.938c-0.002-0.002-0.002-0.002-0.002-0.002
		c-0.056,3.75-0.161,7.328-0.548,9.369c-0.145-0.033-0.294-0.039-0.438,0.002"/>
	<path fill="#808285" stroke="#000000" stroke-width="0.2834" d="M44.406,41.189c-0.013-0.485-0.047-0.971-0.087-1.442
		c-0.019-0.27-0.041-0.535-0.06-0.798c-0.083-1.356-0.143-2.599-0.151-3.795c-0.003-0.107,0.369-1.042,0.493-1.143
		c0.346-0.291,0.794-0.539,1.264-0.79c0.749-0.4,1.413-0.904,2.026-1.527c0.856-0.392,1.751-0.273,2.392,0.322
		c0.562,0.522,0.756,1.253,0.508,1.913c-0.709,1.877-2.947,5.254-2.972,5.287c-0.188,0.292-0.112,0.681,0.177,0.872
		c0.008,0.004,0.021,0.007,0.022,0.013c0.288,0.175,0.664,0.093,0.853-0.188c0.094-0.142,2.336-3.527,3.098-5.539
		c0.432-1.129,0.104-2.418-0.824-3.282c-0.58-0.532-1.296-0.83-2.046-0.876c0.011-0.017,0.021-0.031,0.034-0.047
		c0.984-1.457,1.494-3.099,1.988-4.687c0.162-0.532,0.336-1.078,0.521-1.602c0.11-0.329-0.06-0.689-0.388-0.804
		c-0.328-0.114-0.688,0.059-0.806,0.385c-0.188,0.545-0.362,1.104-0.532,1.646c-0.484,1.57-0.947,3.052-1.828,4.356
		c-0.828,1.223-1.725,2.063-2.815,2.648c-0.246,0.129-0.484,0.263-0.716,0.405c-0.136,0.079-0.367-0.21-0.345-0.442
		c0.003-0.069,0.01-0.14,0.017-0.21c0.131-1.446,0.261-2.897,0.398-4.355c0.152-1.683,0.311-3.393,0.459-5.103
		c-0.004-0.009-0.002-0.013,0-0.021c0.131-1.485,0.252-2.97,0.365-4.431c0.096-1.289-0.062-2.598-0.222-3.87
		c-0.205-1.684-0.4-3.284-0.032-4.79c0.104-0.018,0.207-0.042,0.307-0.065c2.502,1.943,5.748,3.646,8.899,5.292
		c0.632,0.329,1.253,0.653,1.862,0.978c0.508,1.079-0.653,4.806-1.012,5.5c-0.395,0.76,0.604,1.695,1.207,0.782
		c0.604-0.91,1.604-4.179,1.561-5.328c-0.064-0.927-0.998-1.974-1.579-2.284c-0.479-0.253-0.965-0.508-1.455-0.764
		c-2.938-1.535-5.957-3.119-8.321-4.873c0,0-1.588-0.83-1.885-0.718c-0.296,0.112-0.875,1.49-0.875,1.49
		c-0.329,1.632-0.127,3.309,0.075,4.937c0.154,1.265,0.301,2.456,0.212,3.618c-0.043,0.593-0.091,1.187-0.138,1.781
		c-0.013,0.18-0.299,0.182-0.436,0.016c-0.641-0.796-1.376-1.521-2.065-2.195c-0.197-0.194-0.392-0.384-0.581-0.575
		c-0.434-0.433-0.957-0.842-1.512-1.275c-1.056-0.827-2.149-1.683-2.52-2.667c-0.122-0.325-0.485-0.49-0.813-0.363
		c-0.325,0.121-0.488,0.484-0.363,0.809c0.496,1.312,1.782,2.32,2.921,3.211c0.521,0.408,1.017,0.795,1.395,1.177
		c0.194,0.191,0.393,0.384,0.592,0.58c1.128,1.109,2.287,2.252,2.926,3.565c0.08,0.168,0.189,0.853,0.176,1.019
		c-0.133,1.494-0.272,2.986-0.404,4.454c-0.14,1.457-0.272,2.913-0.4,4.36c-0.086,0.991-0.123,1.97-0.126,2.967
		c0,0.003,0,0.009,0.002,0.013c-0.001,1.353,0.063,2.755,0.158,4.294c0.02,0.268,0.038,0.543,0.062,0.818
		c0.031,0.376,0.061,0.766,0.077,1.144"/>
	<path fill="#808285" stroke="#000000" stroke-width="0.2834" d="M11.857,64.627c2.88-1.77,6.193-2.646,8.558-3.072
		c0.665-0.122,1.358-0.156,2.093-0.193c0.914-0.047,1.861-0.095,2.77-0.324c1.243-0.312,2.419-1.158,3.593-2.588
		c1.844-2.242,3.975-4.127,6.066-5.676c0.02-0.012,0.037-0.029,0.058-0.044c1.749-1.289,3.408-2.304,4.928-3.131
		c0.318,0.333,0.706,0.663,1.089,0.919c-1.959,4.059-3.343,6.629-7.188,9.953c-0.264,0.225-0.292,0.625-0.062,0.887
		c0.043,0.051,0.094,0.092,0.146,0.127c0.229,0.139,0.529,0.118,0.739-0.064c4.015-3.467,5.557-6.33,7.511-10.383l1.233-1.77
		l-3.285-2.654l-1.213,2.112c-1.493,0.825-2.884,1.7-4.59,2.952c-1.209,0.429-2.646-0.084-2.806-0.117
		c-1.311-0.268-2.556-0.885-3.596-1.453c-1.173-0.641-2.28-1.416-3.354-2.229c-0.313-0.238-0.089-0.812,0.323-0.901
		c1.236-0.278,2.436-0.788,3.445-1.228l0.369-0.159c0.356-0.151,0.719-0.315,1.085-0.481c0.856-0.387,1.741-0.789,2.57-1.047
		c0.964-0.3,2.61-0.446,3.769-0.125c0.445,0.166,0.887,0.335,1.321,0.503c0.235,0.092,0.354,0.133,0.594,0.223l1.254,0.924
		l0.742-1.832l-1.398-0.353l-1.548-0.483c0,0-1.01-0.276-1.219-0.436c-0.959-0.965-0.691-4.532,0.092-7.974
		c0.889-3.919,1.899-8.359,0.128-11.559c-0.169-0.306-0.555-0.414-0.857-0.246c-0.307,0.17-0.411,0.552-0.246,0.856
		c1.54,2.776,0.586,6.972-0.251,10.671c-0.667,2.922-1.301,5.717-0.671,7.665c-0.853-0.302-1.729-0.66-2.613-1.075
		c-0.012-0.01-0.024-0.016-0.036-0.022c-3.185-1.757-3.7-6.367-2.559-9.81c1.655-4.992,2.055-9.433,1.188-13.194
		c-0.015-0.066-0.022-0.128-0.032-0.193c-0.03-0.216-0.072-0.516-0.284-0.824c-0.091-0.135-0.224-0.222-0.372-0.257
		c-0.056-0.02-0.115-0.036-0.174-0.036c-2.303-0.105-5.706,2.14-9.308,4.515c-2.568,1.695-5.209,3.434-7.014,3.951
		c-0.044-0.056-0.686,0.36-0.79,0.6c-0.076,0.181,0.157,0.806,0.157,0.806l0.865-0.166c2.023-0.545,4.682-2.295,7.474-4.137
		c2.934-1.938,6.237-4.114,8.193-4.3c0.004,0.01,0.005,0.019,0.005,0.03c0.016,0.098,0.03,0.192,0.053,0.292
		c0.812,3.535,0.423,7.747-1.157,12.518c-0.794,2.391-0.883,5.19-0.02,7.511c0.113,0.305-0.236,0.502-0.439,0.356
		c-1.318-0.943-2.472-2.198-3.589-3.418c-0.329-0.36-0.662-0.72-0.992-1.071c-1.78-1.872-3.771-3.969-5.998-5.296
		c-0.979-0.582-1.898-1.033-2.889-1.422c-0.175-0.07-0.724-0.357-0.796-0.394l-1.081,0.067l-0.023,0.661l0.537,0.397
		c0.068,0.032,0.666,0.347,0.905,0.44c0.923,0.362,1.783,0.787,2.704,1.333c2.081,1.234,4.005,3.269,5.711,5.065
		c0.344,0.361,0.669,0.718,0.994,1.072c1.352,1.471,2.746,2.991,4.485,4.051c0.008,0.003,0.017,0.007,0.021,0.014
		c1.552,0.938,3.076,1.731,4.558,2.372c0.291,0.127,0.427,0.468,0.23,0.529c-0.904,0.282-1.822,0.696-2.713,1.101
		c-0.358,0.165-0.714,0.325-1.061,0.474l-0.371,0.157c-1.938,0.84-4.351,1.881-6.223,0.983c-1.815-1.35-3.584-2.28-5.642-2.979
		c-0.604-0.202-1.233-0.355-1.839-0.505c-0.247-0.061-1.617-0.378-1.726-0.529c-0.104-0.149,0.102-3.739,0.097-5.656
		c0.042,0.026,0.079,0.05,0.124,0.077c1.071,0.652,2.584,1.331,4.161,2.042c1.797,0.806,3.651,1.639,4.484,2.296
		c0.269,0.215,0.667,0.17,0.885-0.1c0.213-0.275,0.166-0.67-0.104-0.886c-0.957-0.758-2.8-1.583-4.749-2.458
		c0,0-4.605-2.076-4.763-2.583c-0.159-0.508-0.298-6.059-0.298-6.059l-0.173-0.939c-0.128-0.383-0.874,0.21-0.998,0.457
		c-0.169,0.34-0.092,0.974-0.057,0.987c0.144,2.419,0.397,7.933,0.072,12.29c0,0.011,0,0.023-0.003,0.039
		c-0.002,0.003-0.002,0.012-0.003,0.016c-0.002,0.06-0.007,0.121-0.012,0.18c-0.008,0.843,0.808,1.401,1.131,1.593
		c0.132,0.038,1.379,0.394,1.632,0.453c0.581,0.147,1.182,0.291,1.738,0.479c2.152,0.726,3.97,1.734,5.896,3.253l0.57,0.452
		c1.657,1.315,3.364,2.676,5.273,3.713c1.127,0.617,2.477,1.285,3.951,1.584c0.07,0.017,0.178,0.056,0.295,0.092
		c0.231,0.089,0.522,0.189,0.895,0.248c-1.58,1.312-3.135,2.813-4.538,4.521c-0.994,1.216-1.95,1.923-2.923,2.165
		c-0.794,0.198-1.636,0.242-2.531,0.289c-0.738,0.037-1.507,0.075-2.25,0.209c-2.46,0.443-5.907,1.359-8.948,3.21
		c-0.006-0.01-0.014-0.021-0.022-0.026c0.492-1.992,0.623-5.799,0.691-9.836c1.916,0.521,3.88,0.44,5.784,0.371
		c1.916-0.076,3.728-0.146,5.183,0.438c0.326,0.133,0.691-0.025,0.824-0.344c0.129-0.326-0.024-0.693-0.35-0.821
		c-1.707-0.69-3.647-0.612-5.708-0.533c-1.912,0.078-3.885,0.153-5.715-0.415c-0.681-0.182-1.265,0.174-1.272,0.936
		c-0.002,0-0.002,0-0.002,0c-0.056,3.748-0.161,7.328-0.548,9.367c0,0,0.082,1.117,0.523,1.711
		C11.073,64.965,11.857,64.627,11.857,64.627z"/>
	<path fill="#808285" stroke="#000000" stroke-width="0.2834" d="M77.375,28.673c-0.131-0.067-0.473,0.849-0.473,0.849
		s-0.393,4.507-0.312,7.534c-0.937,0.378-2.523,0.213-4.065,0.057c-2.021-0.205-4.112-0.42-5.685,0.34
		c-0.313,0.156-0.442,0.529-0.293,0.845c0.057,0.112,0.141,0.2,0.24,0.262c0.176,0.107,0.399,0.127,0.604,0.027
		c1.243-0.607,3.155-0.409,5.007-0.219c1.562,0.161,3.061,0.312,4.23,0c0.705-0.131,1.229-1.068,1.218-1.632l0,0
		c-0.062-2.513-0.066-4.953,0.185-6.452l-0.062-1.372L77.375,28.673z"/>
</g>
<g property="ro:has_part" resource="uberon:0001193" id="hepatic_artery">
	<path fill="#E6E7E8" d="M41.688,9.613c-0.035,0.033-0.072,0.06-0.109,0.085c0.464,1.172,1.203,2.057,1.871,2.848
		c0.202,0.24,0.398,0.477,0.584,0.713c0.038,0.321,0.074,0.641,0.113,0.96c0.022,0.192,0.047,0.386,0.073,0.576
		c-0.275-0.614-0.752-1.185-1.284-1.816c-0.066-0.079-0.138-0.163-0.208-0.244c-0.142,0.564-0.56,1.021-0.949,1.445
		c-0.644,0.698-1.307,1.42-1.065,2.678c0.003,0.003,0.001,0.011,0,0.016c-0.224-0.211-0.464-0.419-0.719-0.626
		c0.036-1.155,0.72-1.901,1.29-2.522c0.7-0.763,1.051-1.199,0.67-1.976c-0.414-0.573-0.798-1.226-1.079-1.998L41.688,9.613z"/>
	<path fill="#E6E7E8" d="M14.427,23.567c1.398-0.541,4.517-1.456,6.22,0.202c0,0,0,0,0.002,0.002c0.866,0.81,2.13,0.341,3.467-0.153
		c1.169-0.438,2.381-0.89,3.322-0.349c0.004,0.001,0.005,0.002,0.008,0.005c0.154,0.092,0.791,0.59,0.703,0.748
		c-0.091,0.162-0.883-0.079-1.045-0.17c-0.668-0.382-1.684-0.007-2.754,0.394c-0.867,0.322-1.806,0.671-2.674,0.63
		c1.034,0.926,2.195,1.351,3.329,1.759c1.35,0.49,2.479,1.276,3.171,2.591c-0.098,0.35-0.04,0.321-0.151,0.676
		c-0.431-1.678-1.686-2.07-3.252-2.636c-1.434-0.519-3.064-1.109-4.384-2.786c-0.061-0.077-0.13-0.151-0.198-0.218
		c0-0.002,0-0.002-0.004,0c0,0,0,0-0.001-0.003c-1.445-1.415-4.356-0.512-5.596-0.03c-0.002,0.002-0.003,0.007-0.006,0.01
		c2.226,1.521,3.279,3.302,4.389,5.176c0.619,1.05,1.262,2.133,2.148,3.255c-0.725-0.734-1.481-1.467-2.268-2.143
		c-0.157-0.258-0.31-0.514-0.46-0.771c-1.109-1.874-2.085-3.516-4.162-4.943L14.427,23.567z"/>
	<path fill="#E6E7E8" d="M77.193,61.795c-1.216-0.709-2.509-3.119-3.764-5.461c-1.658-3.09-3.498-6.522-5.805-7.533
		c-0.526,0.089-1.055,0.211-1.578,0.357c0.035,0.014,0.076,0.021,0.121,0.021c2.054-0.093,3.834,2.399,5.43,5.209
		c-1.219-0.515-2.952-0.654-4.651-0.79c-1.608-0.131-3.129-0.256-3.791-0.686c-0.151-0.104-0.903-0.332-1.001-0.175
		c-0.104,0.154,0.477,0.636,0.637,0.735c0.019,0.01,0.029,0.021,0.051,0.031c0.816,0.5,2.316,0.617,4.053,0.761
		c2.271,0.183,4.843,0.392,5.494,1.546c0.001,0.002,0.001,0.002,0.003,0c0.149,0.279,0.3,0.562,0.446,0.837
		c1.113,2.074,2.125,3.962,3.187,5.056c-2.251-0.414-6.169-1.227-8.642-2.25c0.787,0.5,1.568,1.008,2.33,1.506
		c2.779,0.805,5.936,1.373,7.279,1.596L77.193,61.795z"/>
	<path fill="#E6E7E8" d="M74.311,25.762c-0.81,0.167-1.916,0.02-3.146-0.148c-2.494-0.335-5.318-0.716-6.401,1.369
		c-0.402,0.9-0.406,2.261-0.41,3.703c-0.004,1.188-0.009,2.404-0.222,3.507c-0.336,0.321-0.661,0.655-0.986,0.994
		c0.525-1.268,0.529-2.909,0.536-4.504c0.003-0.82,0.008-1.614,0.083-2.337c-1.025,1.034-2.363,1.624-3.585,2.158
		c-1.409,0.62-2.656,1.166-3.334,2.229c0.045-0.4,0.091-0.797,0.147-1.186c0.805-0.729,1.873-1.198,2.916-1.657
		c1.65-0.722,3.354-1.472,4.252-3.207c1.295-2.512,4.512-2.081,7.094-1.734c0.928,0.125,1.82,0.245,2.49,0.212L74.311,25.762z"/>
	<path fill="#E6E7E8" d="M34.07,70.799c-0.488,1.263,0.495,2.826,1.793,4.595c0.115-0.792,0.495-1.63,0.867-2.452
		c0.396-0.872,0.805-1.771,0.884-2.574c0.018-0.187,0.288-1.072,0.473-1.052c0.184,0.019,0.214,0.931,0.196,1.117
		c-0.092,0.914-0.522,1.87-0.941,2.786c-0.531,1.173-1.036,2.285-0.767,3.135c1.476,1.977,3.058,4.175,3.047,6.375
		c0.025,0.014,0.047,0.02,0.072,0.035c0.437-0.633,1.047-1.754,1.038-3.053c-0.003-0.442-0.064-1.041-0.13-1.729
		c-0.256-2.537-0.631-6.331,1.309-8.364c0.068,0.254,0.145,0.506,0.229,0.764c-1.434,1.89-1.099,5.25-0.874,7.533
		c0.074,0.705,0.133,1.317,0.139,1.791c0.007,1.539-0.718,2.823-1.206,3.521c0.108,0.165,0.18,0.352,0.182,0.541
		c0.004,1.324-1.763,0.579-1.703-0.573c0.018-0.278,0.128-0.442,0.281-0.521c-0.009-1.793-1.238-3.633-2.562-5.434
		c-0.035-0.008-0.471-0.633-0.492-0.662c-1.281-1.713-2.51-3.359-2.629-4.852C33.536,71.415,33.801,71.104,34.07,70.799z"/>
	<path fill="#E6E7E8" d="M12.823,66.976c0.752-0.75,2.32-2.138,4.218-2.789c1.112-0.383,1.655-1.005,2.284-1.729
		c0.299-0.346,0.957-0.994,0.957-0.994c0.302-0.131,0.994-0.189,1.457-0.223c-0.882,0.479-1.403,1.076-1.906,1.657
		c-0.637,0.731-1.292,1.487-2.575,1.927c-1.266,0.434-2.396,1.243-3.196,1.928c1.229-0.14,2.79,0.186,4.503,0.535
		c3.699,0.762,7.896,1.623,10.903-1.338c0.133-0.129,0.918-0.701,1.05-0.568c0.129,0.135-0.444,0.918-0.581,1.052
		c-3.258,3.211-7.831,2.271-11.507,1.521c-1.977-0.408-3.735-0.771-4.866-0.412c0.073,0.211,0.011,0.467-0.26,0.73
		c-0.898,0.855-2.288-0.664-1.281-1.208C12.259,66.929,12.554,66.915,12.823,66.976z"/>
	<path fill="none" stroke="#000000" stroke-width="0.2834" d="M21.838,61.375c-0.938,0.371-1.503,0.938-2.006,1.521
		c-0.637,0.729-1.292,1.487-2.575,1.927c-1.266,0.434-2.396,1.243-3.196,1.928c1.229-0.14,2.79,0.186,4.503,0.537
		c3.699,0.76,7.896,1.623,10.903-1.338c0.133-0.131,0.918-0.701,1.05-0.57c0.129,0.135-0.444,0.92-0.581,1.052
		c-3.258,3.211-7.831,2.271-11.507,1.519c-1.977-0.406-3.735-0.771-4.866-0.412c0.073,0.213,0.011,0.467-0.26,0.732
		c-0.898,0.857-2.288-0.664-1.281-1.208c0.237-0.131,0.532-0.146,0.801-0.084c0.752-0.75,2.32-2.14,4.218-2.789
		c1.112-0.383,1.655-1.005,2.284-1.729c0.299-0.346,0.914-0.847,0.865-0.996"/>
	<path fill="none" stroke="#000000" stroke-width="0.2834" d="M44.22,14.795c-0.275-0.614-0.752-1.185-1.284-1.816
		c-0.066-0.079-0.138-0.163-0.208-0.244c-0.142,0.564-0.56,1.021-0.949,1.445c-0.644,0.698-1.307,1.42-1.065,2.678
		c0.003,0.003,0.001,0.011,0,0.016"/>
	<path fill="none" stroke="#000000" stroke-width="0.2834" d="M41.579,9.698c0.464,1.172,1.203,2.057,1.871,2.848
		c0.202,0.24,0.398,0.477,0.584,0.713"/>
	<path fill="none" stroke="#000000" stroke-width="0.2834" d="M39.995,16.248c0.036-1.155,0.72-1.901,1.29-2.522
		c0.7-0.763,1.051-1.199,0.67-1.976c-0.414-0.573-0.798-1.226-1.079-1.998"/>
	<path fill="none" stroke="#000000" stroke-width="0.2834" d="M14.427,23.567c1.398-0.541,4.517-1.456,6.22,0.202
		c0,0,0,0,0.002,0.002c0.866,0.81,2.13,0.341,3.467-0.153c1.169-0.438,2.381-0.89,3.322-0.349c0.004,0.001,0.005,0.002,0.008,0.005
		c0.154,0.092,0.791,0.59,0.703,0.748c-0.091,0.162-0.883-0.079-1.045-0.17c-0.668-0.382-1.684-0.007-2.754,0.394
		c-0.867,0.322-1.806,0.671-2.674,0.63c1.034,0.926,2.195,1.351,3.329,1.759c1.35,0.49,2.497,1.003,3.188,2.318"/>
	<path fill="none" stroke="#000000" stroke-width="0.2834" d="M18.252,29.834c-1.11-1.875-1.943-3.593-4.021-5.021"/>
	<path fill="none" stroke="#000000" stroke-width="0.2834" d="M27.881,30.029c-0.433-1.678-1.542-2.196-3.108-2.763
		c-1.434-0.519-3.064-1.109-4.384-2.786c-0.061-0.077-0.13-0.151-0.198-0.218c0-0.002,0-0.002-0.004,0c0,0,0,0-0.001-0.003
		c-1.445-1.415-4.356-0.512-5.596-0.03c-0.002,0.002-0.003,0.007-0.006,0.01c2.226,1.521,3.279,3.302,4.389,5.176
		c0.619,1.05,1.335,2.033,2.221,3.154"/>
	<path fill="none" stroke="#000000" stroke-width="0.2834" d="M76.992,62.556c-1.347-0.222-4.5-0.791-7.279-1.595"/>
	<path fill="none" stroke="#000000" stroke-width="0.2834" d="M67.625,48.801c2.309,1.01,4.146,4.443,5.807,7.533
		c1.255,2.342,2.548,4.752,3.764,5.461"/>
	<path fill="none" stroke="#000000" stroke-width="0.2834" d="M67.382,59.456c2.47,1.024,6.388,1.836,8.639,2.25
		c-1.061-1.092-2.07-2.979-3.184-5.055c-0.149-0.275-0.299-0.557-0.449-0.837c-0.002,0.001-0.002,0.001-0.004,0
		c-0.65-1.155-3.225-1.364-5.493-1.546c-1.733-0.143-3.233-0.26-4.052-0.76c-0.021-0.01-0.033-0.022-0.051-0.032
		c-0.158-0.101-0.738-0.581-0.638-0.735c0.101-0.158,0.851,0.072,1.001,0.174c0.662,0.43,2.184,0.553,3.791,0.687
		c1.699,0.135,3.436,0.274,4.651,0.79c-1.597-2.811-3.376-5.303-5.433-5.209c-0.043-0.001-0.084-0.01-0.119-0.021"/>
	<path fill="none" stroke="#000000" stroke-width="0.2834" d="M74.311,25.762c-0.81,0.167-1.916,0.02-3.146-0.148
		c-2.494-0.335-5.318-0.716-6.401,1.369c-0.402,0.9-0.406,2.261-0.41,3.703c-0.004,1.188-0.009,2.404-0.222,3.507"/>
	<path fill="none" stroke="#000000" stroke-width="0.2834" d="M56.996,31.546c0.805-0.729,1.871-1.198,2.916-1.657
		c1.651-0.722,3.355-1.472,4.252-3.207c1.295-2.512,4.512-2.081,7.092-1.734c0.931,0.125,1.82,0.245,2.492,0.212"/>
	<path fill="none" stroke="#000000" stroke-width="0.2834" d="M63.146,35.187c0.525-1.268,0.529-2.909,0.536-4.504
		c0.003-0.82,0.008-1.614,0.083-2.337c-1.025,1.034-2.363,1.624-3.585,2.158c-1.409,0.62-2.656,1.166-3.334,2.229"/>
	<path fill="none" stroke="#000000" stroke-width="0.2834" d="M42.14,70.381c-1.434,1.889-1.099,5.25-0.874,7.535
		c0.074,0.705,0.133,1.314,0.139,1.791c0.007,1.537-0.718,2.82-1.206,3.519c0.108,0.165,0.18,0.349,0.182,0.541
		c0.004,1.325-1.763,0.579-1.703-0.573c0.018-0.281,0.128-0.443,0.281-0.52c-0.009-1.793-1.238-3.633-2.562-5.436
		c-0.035-0.008-0.471-0.633-0.492-0.66c-1.281-1.713-2.51-3.359-2.629-4.854"/>
	<path fill="none" stroke="#000000" stroke-width="0.2834" d="M34.07,70.799c-0.488,1.263,0.495,2.826,1.793,4.595
		c0.115-0.792,0.495-1.63,0.867-2.452c0.396-0.872,0.805-1.771,0.884-2.574c0.018-0.187,0.288-1.072,0.473-1.052
		c0.184,0.019,0.214,0.931,0.196,1.117c-0.092,0.914-0.522,1.87-0.941,2.786c-0.531,1.173-1.036,2.285-0.767,3.135
		c1.476,1.977,3.058,4.175,3.047,6.375c0.025,0.014,0.047,0.02,0.072,0.035c0.437-0.633,1.047-1.754,1.038-3.053
		c-0.003-0.442-0.064-1.041-0.13-1.729c-0.256-2.537-0.631-6.331,1.309-8.364"/>
</g>
<g property="ro:has_part" resource="uberon:0001283" id="bile_canaliculus">
	<path fill="#545454" stroke="#000000" stroke-width="0.15" d="M47.005,83.54c0,0,1.406-2.014,1.203-2.686s-1.396-1.543-1.457-2.006
		s0.035-1.209-0.09-1.422s-0.545-0.494-0.562-0.775s0.249-0.953,0.546-1.484s0.985-2.139,1.134-2.076s-0.492,1.641-0.681,1.998
		c-0.188,0.359-0.617,1.143-0.521,1.422c0.098,0.281,0.5,0.523,0.549,0.785c0.049,0.264-0.098,1.261,0.037,1.48
		c0.285,0.477,1.435,1.234,1.496,1.891c0.1,1.049-1.238,3.17-1.238,3.17"/>
	<path fill="#545454" stroke="#000000" stroke-width="0.15" d="M9.659,61.584c0,0,0.921-0.977,2.188-1.168
		c0.819-0.125,1.778-0.485,2.007-0.779c0.562-0.723,0.469-0.969,2.188-1.069c0.719-0.042,2.305-0.526,2.859-0.649
		c1.004-0.221,3.898-0.598,3.987-0.373c0.089,0.228-2.876,0.677-3.702,0.832c-0.809,0.152-2.19,0.566-3.145,0.679
		c-1.359,0.153-1.438,0.255-2,1.083c-0.238,0.35-1.09,0.5-1.922,0.641c-1.315,0.223-2.317,1.141-2.317,1.141"/>
	<path fill="#545454" stroke="#000000" stroke-width="0.15" d="M10.654,29.198c0,0,1.554,0.476,2.101,0.636s2.511,0.775,2.854,1.12
		c0.218,0.219,0.756,1.009,1.225,1.275c0.469,0.266,1.15,0.77,1.25,1.25c0.094,0.453,0.534,0.949,0.874,1.172
		c0.255,0.167,1.012,0.486,0.925,0.579c-0.087,0.093-1.736-0.501-2.127-1.438c-0.211-0.507-0.611-0.782-1.11-1.047
		c-0.499-0.265-1-1.095-1.265-1.344c-0.221-0.208-1.176-0.677-2.049-0.901s-2.697-0.848-2.697-0.848"/>
	<path fill="#545454" stroke="#000000" stroke-width="0.15" d="M47.707,8.511c0,0,0.453,1.952-0.037,2.967
		c-0.392,0.809-0.478,1.566-0.396,1.954c0.172,0.841-0.547,2.172-0.268,2.816c0.18,0.408,0.414,1.302,0.268,1.876
		s-0.445,1.621-0.3,1.676c0.146,0.055,0.651-1.291,0.735-1.743c0.125-0.672-0.02-1.571-0.154-2.188
		c-0.156-0.703,0.395-1.85,0.279-2.626c-0.07-0.502,0.234-1.197,0.484-1.843c0.411-1.062-0.197-3.233-0.197-3.233"/>
	<path fill="#545454" stroke="#000000" stroke-width="0.15" d="M78.509,31.431c0,0-1.258,1.329-2.17,1.47s-2.523,0.203-3.094,0.5
		c-0.57,0.297-0.455,0.537-0.707,0.792c-0.252,0.255-1.348,0.317-1.986,0.146c-0.641-0.171-0.816-0.469-1.33-0.219
		s-1.246,0.797-1.146,0.891c0.1,0.094,1.194-0.703,1.491-0.641s0.672,0.312,1.156,0.391c0.483,0.079,1.469,0.188,2.125-0.266
		c0.655-0.454,0.495-0.686,0.897-0.834c0.957-0.354,1.305-0.08,2.592-0.322c1.211-0.227,2.51-1.692,2.51-1.692"/>
	<path fill="#545454" stroke="#000000" stroke-width="0.15" d="M74.335,68.643L74.28,68.78c0,0-2.009-0.613-2.393-1.426
		c-0.386-0.812-0.972-2.527-1.536-2.818s-1.303-0.025-1.832-0.479c-0.531-0.454-2.486-2.555-2.646-2.471
		c-0.16,0.082,1.309,1.799,1.752,2.188c0.441,0.391,0.834,0.799,1.162,0.906c0.326,0.107,1.107,0,1.375,0.219
		c0.266,0.221,0.529,1.299,1.154,2.453s2.926,1.875,2.926,1.875l0.094,0.125"/>
</g>
<g property="ro:has_part" resource="uberon:0001279" id="portal_triad">
	<g property="ro:has_part" resource="uberon:0001193" id="hepatic_artery">
		<path fill="#E6E7E8" d="M14.427,23.567c-0.239-0.34-0.652-0.505-0.909-0.187c-0.858,1.076-0.114,2.11,0.714,1.433
			c0.356-0.349,0.444-0.625,0.444-0.625S14.266,23.295,14.427,23.567z"/>
		<path fill="none" stroke="#000000" stroke-width="0.2834" d="M14.611,23.498l-0.184,0.069c-0.239-0.34-0.652-0.505-0.909-0.187
			c-0.858,1.076-0.114,2.11,0.714,1.433l0.195,0.138"/>
		<path fill="#E6E7E8" d="M40.875,9.751c-0.672-0.271-1.139-1.342-0.205-1.653c1.03-0.344,1.916,0.686,1.018,1.515
			c-0.035,0.033-0.072,0.06-0.109,0.085"/>
		<path fill="none" stroke="#000000" stroke-width="0.2834" d="M40.938,9.916l-0.062-0.164c-0.672-0.271-1.139-1.342-0.205-1.653
			c1.03-0.344,1.916,0.686,1.018,1.515c-0.035,0.033-0.072,0.06-0.109,0.085l0.056,0.135"/>
		<path fill="#E6E7E8" d="M74.311,25.762c0.536,0.298,1.278,0.362,1.624-0.008c0.661-0.718-1.482-2.098-2.068-1.258
			c-0.166,0.231-0.186,0.459-0.119,0.663C73.748,25.16,73.832,25.574,74.311,25.762z"/>
		<path fill="none" stroke="#000000" stroke-width="0.2834" d="M74.078,25.8l0.233-0.038c0.536,0.298,1.278,0.362,1.624-0.008
			c0.661-0.718-1.482-2.098-2.068-1.258c-0.166,0.231-0.186,0.459-0.119,0.663l-0.211,0.005"/>
		<path fill="#E6E7E8" d="M77.193,61.795c0.131-0.178,0.316-0.303,0.562-0.33c0.949-0.092,1.843,1.371,0.392,1.828
			c-0.746,0.234-1.116-0.221-1.155-0.737C76.992,62.556,77.044,61.952,77.193,61.795z"/>
		<path fill="none" stroke="#000000" stroke-width="0.2834" d="M77.033,61.692l0.16,0.104c0.131-0.178,0.316-0.303,0.562-0.33
			c0.949-0.092,1.843,1.371,0.392,1.828c-0.746,0.236-1.116-0.221-1.155-0.735l-0.164-0.026"/>
	</g>
	<g property="ro:has_part" resource="uberon:0001639" id="hepatic_portal_vein">
		<path fill="#808285" d="M12.919,25.079c-0.278-0.38-1.512-0.314-2.115,0.268c-0.593,0.574-1.412,1.737-0.709,2.774
			c0.829,1.222,2.578-0.074,2.906-1.234C13.24,26.046,13.309,25.609,12.919,25.079z"/>
		<path fill="none" stroke="#000000" stroke-width="0.2834" d="M13.661,26.011l-0.487,0.146c-0.032,0.211-0.093,0.447-0.172,0.73
			c0,0,0.405,0.225,0.456,0.25"/>
		<path fill="none" stroke="#000000" stroke-width="0.2834" d="M12.818,28.216l-0.464-0.231c-0.084,0.085-0.084,0.116-0.179,0.192
			l0.063,0.571"/>
		<path fill="none" stroke="#000000" stroke-width="0.2834" d="M11.133,28.585c-0.392,0.001-0.786-0.094-1.038-0.465
			c-0.703-1.037,0.116-2.2,0.709-2.774c0.551-0.534,1.631-0.632,2.025-0.353l0.25-0.109"/>
		<path fill="#808285" d="M10.109,62.661c-0.145-0.033-0.294-0.039-0.438,0.002c-1.679,0.461,0.488,5.129,1.904,4.15
			c0.214-0.146,0.352-0.352,0.426-0.594c0,0,0.192-0.885-0.145-1.59c0,0-0.344-0.885-0.636-1.131
			C10.928,63.254,10.202,62.678,10.109,62.661z"/>
		<path fill="none" stroke="#000000" stroke-width="0.2834" d="M10.27,62.674c-0.145-0.034-0.455-0.053-0.599-0.012
			c-1.679,0.461,0.488,5.129,1.904,4.148c0.214-0.146,0.37-0.46,0.444-0.704"/>
		<path fill="#808285" d="M42.791,83.25c-0.705,0.016-1.733,0.418-1.851,1.162c-0.287,1.838,4.976,2.098,4.871,0.039
			c-0.013-0.242,0.194-0.24-0.446-0.643C44.722,83.409,43.496,83.238,42.791,83.25z"/>
		<path fill="none" stroke="#000000" stroke-width="0.2834" d="M42.886,83.25c-0.926,0.063-1.829,0.418-1.946,1.162
			c-0.287,1.838,4.976,2.098,4.871,0.039c-0.013-0.242-0.298-0.522-0.562-0.705"/>
		<path fill="#808285" d="M77.625,63.988c0.237,0.06,0.477,0.188,0.703,0.416c1.155,1.159-1.342,4.501-2.885,3.546
			c-0.136-0.088-0.081,0.106-0.316-0.334c-0.231-0.441-0.379-1.259,0.285-2.15C76.246,64.405,76.869,63.749,77.625,63.988z"/>
		<path fill="none" stroke="#000000" stroke-width="0.2834" d="M75.026,67.661l0.099-0.045c0.08,0.133,0.185,0.246,0.317,0.334
			c1.543,0.957,4.04-2.387,2.886-3.546c-0.229-0.228-0.467-0.356-0.703-0.415l0.008-0.133"/>
		<path fill="none" stroke="#000000" stroke-width="0.2834" d="M75.125,65.631l0.153,0.068c-0.087,0.191-0.159,0.387-0.209,0.575
			l-0.139,0.058"/>
		<path fill="none" stroke="#000000" stroke-width="0.2834" d="M76.344,64.331c-0.114,0.088-0.229,0.186-0.335,0.293"/>
		<path fill="#808285" d="M76.009,28.025c-0.028-0.168-0.061-0.424-0.069-0.584c-0.03-0.428-0.243-0.899,0.529-1.398
			c0.772-0.498,1.596-0.12,2.229,0.84c0.631,0.962,0.555,2.046,0.391,2.539c-0.189,0.567-1.062,0.861-1.062,0.861
			s-1.148-0.619-1.418-1.003C76.339,28.895,76.035,28.166,76.009,28.025z"/>
		<path fill="none" stroke="#000000" stroke-width="0.2834" d="M75.953,27.577c0.014,0.147,0.032,0.325,0.061,0.448"/>
		<path fill="none" stroke="#000000" stroke-width="0.2834" d="M77.942,30.235c0,0,0.958-0.245,1.147-0.812
			c0.164-0.492,0.24-1.576-0.391-2.539c-0.637-0.96-1.457-1.338-2.229-0.84c-0.257,0.166-0.403,0.327-0.487,0.486"/>
		<path fill="#808285" stroke="#000000" stroke-width="0.2834" d="M76.339,28.895c0.146,0.246,0.451,0.575,0.705,0.628"/>
		<path fill="#808285" d="M43.906,9.304c-0.868-0.124-1.603-0.509-1.637-1.128c-0.089-1.611,4.248-2.183,4.555-0.44
			c0.053,0.313,0.038,0.458-0.158,0.797C46.239,9.199,44.746,9.379,43.906,9.304z"/>
		<path fill="none" stroke="#000000" stroke-width="0.2834" d="M44.01,9.31c-0.867-0.122-1.707-0.515-1.741-1.133
			c-0.089-1.611,4.248-2.183,4.555-0.44c0.053,0.313-0.059,0.612-0.254,0.919"/>
	</g>
	<g property="ro:has_part" resource="uberon:0001282" id="hepatic_bile_duct">
		<path fill="#545554" d="M46.177,83.786c-0.242,0.209-0.151,0.752,0.494,0.879c0.646,0.129,0.861-0.312,0.752-0.828
			C47.317,83.327,46.417,83.579,46.177,83.786z"/>
		<path fill="none" stroke="#000000" stroke-width="0.2" d="M47.007,83.54c-0.305-0.02-0.688,0.121-0.83,0.246
			c-0.242,0.209-0.151,0.752,0.494,0.879c0.646,0.129,0.861-0.312,0.752-0.828"/>
		<path fill="#545554" d="M74.921,68.338c-0.379-0.207-0.584,0.188-0.698,0.646c-0.115,0.459,0.542,0.664,0.921,0.449
			C75.525,69.222,75.18,68.482,74.921,68.338z"/>
		<path fill="none" stroke="#000000" stroke-width="0.2" d="M74.239,69.227c0.12,0.281,0.603,0.378,0.905,0.206
			c0.381-0.211,0.036-0.951-0.223-1.095c-0.321-0.176-0.52,0.08-0.642,0.439"/>
		<path fill="#545554" d="M78.578,30.72c-0.344,0.41-0.154,0.698,0.143,0.892c0.289,0.194,0.697-0.466,0.555-0.798
			C79.126,30.485,78.578,30.72,78.578,30.72z"/>
		<path fill="none" stroke="#000000" stroke-width="0.2" d="M78.832,31.647c0.271,0,0.568-0.542,0.441-0.833
			c-0.146-0.329-0.695-0.094-0.695-0.094c-0.25,0.299-0.218,0.534-0.064,0.714"/>
		<path fill="#545554" d="M47.234,8.349c0.213,0.286,0.213,0.286,0.667,0.073c0.451-0.214,0.242-1.101-0.104-1.015
			C47.451,7.496,47.021,8.065,47.234,8.349z"/>
		<path fill="none" stroke="#000000" stroke-width="0.2" d="M48.121,8.168c0.121-0.336-0.062-0.826-0.324-0.761
			c-0.346,0.089-0.773,0.658-0.562,0.942c0.16,0.214,0.2,0.268,0.402,0.191"/>
		<path fill="#545554" d="M10.602,29.034c-0.205-0.275-1.059-0.138-0.979,0.257c0.078,0.397,0.674,0.923,0.905,0.614
			C10.76,29.595,10.602,29.034,10.602,29.034z"/>
		<path fill="none" stroke="#000000" stroke-width="0.2" d="M10.634,29.195c-0.015-0.097-0.032-0.161-0.032-0.161
			c-0.205-0.275-1.059-0.138-0.979,0.257c0.078,0.397,0.674,0.923,0.905,0.614c0.055-0.073,0.088-0.16,0.106-0.25"/>
		<path fill="#545554" d="M9.688,62.249c-0.408,0.23-0.636,0.145-0.808-0.227s0.471-0.766,0.779-0.438
			C9.966,61.913,9.688,62.249,9.688,62.249z"/>
		<path fill="none" stroke="#000000" stroke-width="0.2" d="M9.803,61.917c0.002,0.189-0.115,0.332-0.115,0.332
			c-0.408,0.229-0.636,0.144-0.808-0.228s0.471-0.767,0.779-0.438"/>
	</g>
</g>
<g property="ro:has_part" resource="uberon:0006841" id="hepatic_central_vein">
	<path fill="#818285" d="M43.714,40.438c-0.16,0.547-2.543,1.055-2.543,1.055l-0.64-0.126l-0.192,0.346l-1.059,0.79l-0.405,0.006
		l-0.034,0.282c0,0-0.369,0.756-0.775,1.069c0.141,0.391,0.263,1.372,0.263,1.372l0.106,0.678l-0.199,0.466l0.331,0.429l0.521,1.384
		c0,0,0.166,0.687,0.02,1.03c0.475,0.094,0.967,0.425,0.967,0.425l1.055,0.847c0,0,0.406,0.275,0.406,0.588
		c0.312-0.231,0.986,0.004,0.986,0.004s0.967,0.324,1.17,0.568c0.391-0.214,2-0.592,2-0.592l0.724-0.325c0,0,1.729-1.483,2.104-1.39
		c-0.047-0.359,0.668-2.312,0.668-2.312s-0.09-1.72,0.065-2.188c-0.394,0.078-2.198-2.114-2.198-2.114l-0.269-0.653l-0.543-0.035
		l-1.643-1.002C44.603,41.041,43.917,40.861,43.714,40.438z"/>
	<path fill="none" stroke="#000000" stroke-width="0.2834" d="M43.122,40.706c0.015,0.189-0.283,0.306-0.283,0.306
		c-0.531,0.158-1.477,0.469-1.723,0.539c-0.27,0.076-0.639-0.126-0.639-0.126s-0.11,0.321-0.301,0.45
		c-0.373,0.252-0.679,0.538-0.843,0.626c-0.167,0.093-0.512,0.066-0.512,0.066s0.039,0.285-0.058,0.41c0,0-0.029,0.059-0.097,0.167
		c-0.065,0.107-0.115,0.278-0.392,0.161"/>
	<path fill="none" stroke="#000000" stroke-width="0.2834" d="M48.928,44.352c-0.294,0.179-0.384,0.175-0.56-0.032
		c-0.557-0.65-1.277-1.436-1.438-1.604c-0.166-0.169-0.199-0.58-0.199-0.58s-0.313,0.077-0.542-0.035
		c-0.291-0.146-1.739-1.051-1.776-1.072c0,0-0.043-0.06-0.042-0.257"/>
	<path fill="none" stroke="#000000" stroke-width="0.2834" d="M48.858,48.879c-0.465-0.104-0.289-0.422-0.289-0.422
		c0.253-0.537,0.528-1.176,0.562-1.369c0.041-0.201,0.045-0.712-0.004-1.195c0,0-0.084-0.164,0.211-0.307"/>
	<path fill="none" stroke="#000000" stroke-width="0.2834" d="M47.921,49.872c-0.205-0.084-0.389-0.031-0.389-0.031
		c-0.244,0.22-0.523,0.451-0.755,0.641c-0.182,0.146-0.388,0.463-0.388,0.463S46.08,50.956,45.975,51
		c-0.099,0.041-0.192,0.068-0.341,0.117c-0.197,0.062-0.711,0.166-1.162,0.234c0,0-0.228,0.029-0.185,0.271"/>
	<path fill="none" stroke="#000000" stroke-width="0.2834" d="M42.045,51.27c0.073-0.291,0.223-0.211,0.223-0.211
		c0.174,0.072,0.255,0.089,0.551,0.163c0,0,0.165-0.058,0.185,0.272"/>
	<path fill="none" stroke="#000000" stroke-width="0.2834" d="M40.91,50.663c0.119-0.209-0.08-0.261-0.08-0.261
		c-0.249-0.185-0.541-0.462-0.812-0.7c0,0-0.034-0.137-0.331,0.027"/>
	<path fill="none" stroke="#000000" stroke-width="0.2834" d="M37.941,44.644c0.25,0.037,0.318,0.521,0.318,0.521
		s0.075,0.637,0.12,0.803c0.042,0.166-0.198,0.465-0.198,0.465s0.297,0.192,0.388,0.403c0.194,0.448,0.351,1.116,0.464,1.411
		c0,0,0.111,0.393-0.207,0.526"/>
</g>
</svg>
