<?xml version="1.0" encoding="utf-8"?>
<!--
 Semantic Body Illustrations - v1.0.0 - 2014-08-22
 http://sbb.cellfinder.org
-->
<!DOCTYPE svg PUBLIC "-//W3C//DTD SVG 1.1//EN" "http://www.w3.org/Graphics/SVG/1.1/DTD/svg11.dtd">
<svg id="collecting_duct" version="1.1" xmlns="http://www.w3.org/2000/svg" xmlns:xlink="http://www.w3.org/1999/xlink" x="0px" y="0px"
	 width="198.193px" height="225.902px" viewBox="0 0 198.193 225.902" enable-background="new 0 0 198.193 225.902" xml:space="preserve"
	 prefix="uberon: http://purl.obolibrary.org/obo/UBERON_ ro: http://www.obofoundry.org/ro/ro.owl# go: http://purl.org/obo/owl/GO#GO_ ma: http://purl.org/obo/owl/MA#MA_ cl: http://purl.org/obo/owl/CL# celda: http://ontology.cellfinder.org/CELDA.owl#CELDA_ ncbitaxon: http://purl.obolibrary.org/obo/NCBITaxon_ biotop: http://purl.org/biotop/biotop.owl#"
	 about="ma:0000371"
	 typeof="ncbitaxon:10090">
<title>Human Adult Collecting Duct</title>
<desc>Copyright (C) Lekschas et al. Licensed under Creative Commons BY-SA 4.0</desc>
<desc>Homepage: http://sbb.cellfinder.org</desc>
<desc>Repository: https://github.com/flekschas/sbi</desc>
<path property="ro:has_part" resource="celda:000001450" id="lumen" fill="#FFFFFF" d="M125.776,173.405c-3.094,2.292-10.315,3.438-11.709,5.727c-0.001,0.001-0.002,0.003-0.003,0.005
	c-0.293-0.464-0.606-0.847-0.952-1.09c-2.321-1.633-5.416-0.602-8.339-0.43c-2.923,0.172-8.252-0.602-11.089-0.945
	c-1.577-0.191-2.94,1.054-4.034,2.743c0.147-0.676,0.24-1.237,0.251-1.625c0.086-2.923-3.524-2.837-9.972-6.361
	s-11.777-10.488-15.129-10.746c-0.719-0.055-1.355,0.198-1.933,0.643c0,0,0-0.002,0-0.002c-0.099-3.256-1.047-2.933-1.963-3.621
	c-0.916-0.688-2.179-2.521-3.325-2.862c-0.264-0.079-0.59-0.006-0.955,0.169c0,0,0,0,0-0.001c1.91-3.497-2.254-8.538-4.203-11.632
	c-1.949-3.095-2.063-8.367-4.126-10.201c2.493-2.493,0.602-8.682-0.086-15.215c-0.688-6.533,2.407-11.777,1.032-13.754
	c-0.295-0.425-0.704-0.717-1.197-0.919c2.843-1.263,2.916-3.551,3.518-6.646c0.602-3.095,2.321-8.167,3.868-10.229
	c1.244-1.658,1.651-3.094,0.559-4.397c1.848-0.615,1.762-2.651,2.622-4.113c0.86-1.461,1.29-1.719,1.375-3.353
	c0.021-0.394-0.299-0.931-0.82-1.55c3.206-1.293,8.11-5.67,11.25-8.709c3.553-3.438,9.514-5.845,11.003-8.023
	c0.326-0.476,0.535-1.144,0.64-1.885c2.953,0.52,6.121-0.625,9.218-2.355c3.898-2.178,12.493-2.866,15.817-2.979
	c2.029-0.07,3.33-1.083,4.271-2.772c0.136,0.369,0.25,0.716,0.314,1.016c0.802,3.746,7.563,4.621,11.689,5.653
	c3.719,0.93,7.708,4.359,8.964,3.771c2.596,2.205,4.528,5.363,5.821,6.605c0.358,0.344,0.804,0.446,1.282,0.385
	c0.665,2.804,3.692,6.834,5.824,9.068c2.407,2.521,2.979,6.189,4.242,9.9c0.455,1.34,1.256,1.924,2.156,2.056
	c-0.107,1.423,0.111,2.877,0.593,3.944c0.918,2.032,0.458,5.647,0.688,8.627c0.069,0.9,0.276,1.241,0.599,1.33
	c-0.956,3.013-1.808,6.149-1.113,9.789c0.744,3.897,1.661,8.855,1.432,12.794s-1.489,6.327,0.344,8.285
	c0.344,3.219,1.017,4.136-0.008,5.855c-1.023,1.719-1.727,2.865,0,4.241c0.08,0.063,0.176,0.122,0.271,0.18
	c-2.602,1.44-1.868,2.914-3.244,5.551c-1.375,2.637-5.043,6.533-7.106,9.254c-0.748,0.986-0.6,2.345,0.059,3.661
	c-2.694,0.079-6.477,4.85-6.82,6.913c-0.098,0.587-0.163,1.465-0.102,2.42C133.625,166.765,128.687,171.25,125.776,173.405z"/>
<path property="ro:has_part" resource="go:0009925" id="basolateral_membrane" fill="#FFFFFF" d="M154.194,135.353c1.024-1.719,0.352-2.637,0.008-5.855
	c-1.833-1.958-0.573-4.346-0.344-8.285s-0.688-8.897-1.432-12.794c-0.694-3.639,0.157-6.776,1.113-9.789
	c-0.322-0.089-0.529-0.43-0.599-1.33c-0.23-2.979,0.229-6.595-0.688-8.627c-0.481-1.067-0.7-2.521-0.593-3.944
	c-0.9-0.132-1.701-0.716-2.156-2.056c-1.263-3.71-1.835-7.378-4.242-9.9c-2.132-2.234-5.159-6.265-5.824-9.068
	c-0.479,0.062-0.924-0.041-1.282-0.385c-1.293-1.242-3.226-4.4-5.821-6.605c-1.256,0.588-5.245-2.841-8.964-3.771
	c-4.126-1.032-10.888-1.907-11.689-5.653c-0.064-0.3-0.179-0.647-0.314-1.016c-0.941,1.689-2.242,2.703-4.271,2.772
	c-3.324,0.114-11.919,0.802-15.817,2.979c-3.097,1.73-6.265,2.875-9.218,2.355c-0.104,0.741-0.313,1.409-0.64,1.885
	c-1.489,2.178-7.45,4.585-11.003,8.023c-3.14,3.039-8.044,7.416-11.25,8.709c0.521,0.619,0.841,1.156,0.82,1.55
	c-0.086,1.633-0.516,1.891-1.375,3.353c-0.859,1.461-0.773,3.498-2.622,4.113c1.092,1.303,0.685,2.739-0.559,4.397
	c-1.547,2.063-3.267,7.135-3.868,10.229c-0.602,3.095-0.674,5.383-3.518,6.646c0.493,0.203,0.901,0.495,1.197,0.919
	c1.375,1.977-1.72,7.221-1.032,13.754c0.688,6.533,2.579,12.722,0.086,15.215c2.063,1.833,2.177,7.106,4.126,10.201
	c1.949,3.095,6.113,8.135,4.203,11.632c0,0,0,0.001,0,0.001c0.365-0.175,0.691-0.248,0.955-0.169
	c1.146,0.341,2.409,2.175,3.325,2.862c0.916,0.688,1.864,0.364,1.963,3.621c0,0,0,0.002,0,0.002
	c0.578-0.444,1.214-0.697,1.933-0.642c3.353,0.258,8.682,7.221,15.129,10.746s10.058,3.438,9.972,6.361
	c-0.011,0.388-0.104,0.949-0.251,1.625c1.093-1.688,2.457-2.934,4.034-2.743c2.837,0.344,8.166,1.118,11.089,0.945
	c2.923-0.172,6.018-1.203,8.339,0.43c0.346,0.243,0.659,0.626,0.952,1.09c0.001-0.002,0.002-0.004,0.003-0.005
	c1.394-2.289,8.615-3.435,11.709-5.727c2.91-2.155,7.849-6.641,11.476-5.833c-0.062-0.955,0.004-1.833,0.102-2.42
	c0.344-2.063,4.126-6.834,6.82-6.913c-0.658-1.316-0.807-2.675-0.059-3.661c2.063-2.721,5.731-6.618,7.106-9.254
	c1.376-2.637,0.643-4.111,3.244-5.551c-0.096-0.059-0.191-0.117-0.271-0.18C152.468,138.218,153.171,137.072,154.194,135.353z
	 M150.413,144.922c-1.351,2.59-4.954,6.418-6.981,9.092c-0.735,0.969-0.589,2.304,0.058,3.597c-2.647,0.077-6.363,4.765-6.701,6.792
	c-0.096,0.577-0.16,1.439-0.1,2.377c-3.563-0.794-8.415,3.613-11.274,5.73c-3.04,2.251-10.135,3.378-11.504,5.626
	c-0.001,0.001-0.002,0.003-0.003,0.005c-0.288-0.456-0.596-0.833-0.936-1.071c-2.28-1.604-5.321-0.591-8.192-0.423
	c-2.872,0.169-8.107-0.591-10.895-0.929c-1.55-0.188-2.889,1.036-3.963,2.695c0.145-0.665,0.236-1.216,0.247-1.597
	c0.084-2.872-3.463-2.787-9.797-6.25c-6.334-3.463-11.571-10.304-14.864-10.558c-0.707-0.054-1.332,0.195-1.899,0.631v-0.002
	c-0.098-3.199-1.029-2.881-1.929-3.557c-0.9-0.675-2.14-2.477-3.266-2.812c-0.259-0.077-0.58-0.006-0.938,0.166l0-0.001
	c1.876-3.436-2.214-8.388-4.129-11.428c-1.915-3.041-2.027-8.221-4.054-10.022c2.449-2.45,0.591-8.53-0.084-14.949
	c-0.676-6.419,2.365-11.57,1.014-13.513c-0.29-0.417-0.692-0.705-1.176-0.903c2.793-1.241,2.864-3.489,3.456-6.529
	c0.591-3.041,2.28-8.023,3.8-10.05c1.222-1.629,1.622-3.04,0.549-4.32c1.815-0.604,1.731-2.605,2.576-4.041
	c0.845-1.436,1.267-1.689,1.351-3.294c0.021-0.387-0.294-0.915-0.806-1.522c3.15-1.271,7.968-5.571,11.053-8.557
	c3.49-3.378,9.347-5.743,10.81-7.883c0.32-0.467,0.526-1.124,0.628-1.852c2.901,0.51,6.014-0.614,9.056-2.314
	c3.83-2.14,12.274-2.816,15.54-2.928c1.994-0.068,3.271-1.064,4.197-2.724c0.133,0.362,0.245,0.703,0.309,0.998
	c0.788,3.681,7.431,4.541,11.484,5.554c3.653,0.913,7.573,4.283,8.807,3.705c2.551,2.167,4.449,5.269,5.72,6.489
	c0.352,0.338,0.789,0.438,1.26,0.378c0.653,2.755,3.627,6.714,5.722,8.91c2.365,2.477,2.928,6.081,4.168,9.726
	c0.447,1.317,1.234,1.891,2.118,2.021c-0.105,1.398,0.109,2.826,0.583,3.875c0.901,1.997,0.45,5.548,0.676,8.476
	c0.068,0.884,0.271,1.219,0.589,1.307c-0.939,2.96-1.776,6.042-1.094,9.617c0.73,3.83,1.632,8.7,1.406,12.57
	c-0.226,3.871-1.463,6.216,0.338,8.14c0.338,3.162,0.999,4.063-0.008,5.753c-1.006,1.689-1.696,2.815,0,4.166
	c0.078,0.062,0.173,0.12,0.267,0.177C151.045,140.883,151.766,142.331,150.413,144.922z"/>
<g property="ro:has_part" resource="go:0016324" id="apical_plasma_membrane">
	<path fill="#FFFFFF" d="M28.288,169.574c0.022-0.137,0.037-0.261,0.053-0.385c-1.112-0.152-3.132-0.74-3.964,0.323
		C25.87,169.117,28.193,170.152,28.288,169.574z"/>
	<path fill="#FFFFFF" d="M180.638,172.954c-0.479-0.875-4.669-2.338-6.32-3.45C174.907,170.455,178.977,171.9,180.638,172.954z"/>
	<path fill="#FFFFFF" d="M175.399,178.617c-0.242-0.389-0.707-0.712-1.087-0.984c0,0.007-0.005,0.011-0.005,0.019
		C174.308,177.895,174.888,178.209,175.399,178.617z"/>
	<path fill="#FFFFFF" d="M179.004,175.944c-0.306-1.002-2.845-0.94-4.308-1.975C175.648,175.266,177.885,175.401,179.004,175.944z"
		/>
	<path fill="#FFFFFF" d="M24.504,157.045c1.441-0.511,2.833-0.229,3.395-0.875C27.016,156.349,25.72,156.28,24.504,157.045z"/>
	<path fill="#FFFFFF" d="M22.982,164.181c1.397-0.659,3.125-1.097,3.966-1.722C25.781,162.985,24.106,163.441,22.982,164.181z"/>
	<path fill="#FFFFFF" d="M184.059,165.902c-0.979-1.399-7.023-1.205-8.938-1.663c-0.005,0.05-0.004,0.103,0.007,0.161
		C175.278,165.201,181.741,164.852,184.059,165.902z"/>
	<path fill="#FFFFFF" d="M22.866,148.425c-1.46,0.492-3.512,1.585-5.367,2.346C19.218,150.167,21.254,149.092,22.866,148.425z"/>
	<path fill="#FFFFFF" d="M19.832,145.12c-1.129,0.333-2.853,1.062-4.422,1.616C16.82,146.299,18.517,145.59,19.832,145.12z"/>
	<path fill="#FFFFFF" d="M20.463,158.973c-0.143,0.16-0.291,0.29-0.442,0.404c0.461-0.117,0.917-0.371,1.331-0.833
		c1.331-1.488,2.576-2.433,3.659-3.02C23.74,156.044,22.174,157.061,20.463,158.973z"/>
	<path fill="#FFFFFF" d="M184.045,157.649c-1.64-1.338-6.396-1.52-8.088-2.045C176.078,156.424,181.525,156.438,184.045,157.649z"/>
	<path fill="#FFFFFF" d="M178.896,159.312c0.619,0.747,3.797,1.423,5.413,2.246C183.42,160.7,180.332,160.019,178.896,159.312z"/>
	<path fill="#FFFFFF" d="M187.03,154.161c-0.479-0.653-1.914-0.374-2.79-0.453C184.407,154.369,185.996,153.958,187.03,154.161z"/>
	<path fill="#FFFFFF" d="M28.977,154.919c0-0.24-1.592-0.68-3.966,0.605c1.915-0.782,3.151-0.423,3.151-0.211
		c0,0.399-0.097,0.667-0.263,0.857C28.55,156.038,28.977,155.769,28.977,154.919z"/>
	<path fill="#FFFFFF" d="M187.164,155.044c-0.084,0.455-2.713-0.215-5.508,0.109c-3.367,0.391-6.228-1.37-6.305,0.016
		c-0.01,0.175,0.217,0.314,0.605,0.435c-0.002-0.013-0.01-0.025-0.009-0.038c0.078-1.399,2.966,0.378,6.366-0.016
		c2.821-0.328,5.476,0.348,5.561-0.111c0.155-0.845-0.254-1.162-0.845-1.278C187.176,154.359,187.239,154.637,187.164,155.044z"/>
	<path fill="#FFFFFF" d="M189.195,139.376c0.116-2.429,0.462-2.96-1.679-5.761c0.481-0.079,0.829-0.201,0.984-0.372
		c2.031-2.232-1.119-11.688-0.443-18.284c0.59-5.758,0.223-12.574-1.959-16.138c0.119-0.081,0.229-0.174,0.319-0.295
		c1.621-2.199-1.389-12.613-1.156-16.737c0.21-3.737,0.696-8.981-3.181-11.323c0.494-0.417,0.915-0.89,1.212-1.449
		c1.969-3.704-5.438-13.655-7.753-21.678c-2.074-7.189-8.044-10.005-11.845-10.014c0.763-3.455-2.268-6.565-5.745-8.697
		c-3.384-2.075-4.403-4.865-8.978-3.522c-0.687-5.568-7.978-8.553-16.018-11.637c-8.448-3.241-17.82-4.514-20.714-1.852
		c-0.239,0.221-0.477,0.487-0.71,0.772c-0.434-1.034-1.145-1.848-2.299-2.277c-4.977-1.852-15.044,0.463-21.178,0.926
		c-6.134,0.463-14.118,5.901-18.167,7.058c-3.566,1.02-2.199,3.476-1.584,6.655c-0.819-0.854-1.629-1.6-2.352-2.142
		c-3.241-2.43-4.628,0-8.562,1.504c-3.934,1.503-8.796,5.439-12.847,8.564c-3.715,2.865-8.779,10.295-9.862,14.097
		c-2.037-0.564-2.654,0.758-5.412,4.303c-3.038,3.906-5.729,8.486-5.777,12.162c0,0.002,0.001,0.004,0.001,0.006
		c-1.053,0.147-1.984,0.483-2.644,1.024c-2.43,1.997-2.951,14.668-5.034,20.136c-1.984,5.208-5.237,11.414-3.424,16.812
		c-0.214,0.083-0.417,0.175-0.595,0.286c-2.369,1.476-2.578,8.679-2.925,16.924c-0.347,8.246,0.386,21.101,2.343,22.219
		c0.221,0.126,0.505,0.249,0.818,0.37c-0.804,1.167-0.654,3.816-0.278,5.964c0.144,0.82,1.788,0.412,3.655-0.248
		c-1.433,0.444-2.566,0.604-2.684-0.067c-0.373-2.128-0.521-4.752,0.275-5.907c-0.31-0.12-0.591-0.241-0.81-0.366
		c-1.938-1.107-2.665-13.84-2.321-22.006s0.551-15.301,2.897-16.763c0.176-0.11,0.377-0.201,0.589-0.283
		c-1.796-5.347,1.426-11.494,3.391-16.652c2.063-5.416,2.579-17.966,4.986-19.943c0.653-0.536,1.575-0.869,2.618-1.015
		c0-0.002-0.001-0.004-0.001-0.006c0.047-3.641,2.713-8.177,5.722-12.045c2.731-3.511,3.342-4.82,5.36-4.262
		c1.073-3.766,6.089-11.124,9.768-13.962c4.012-3.095,8.828-6.993,12.724-8.482c3.896-1.49,5.271-3.896,8.48-1.49
		c0.716,0.537,1.518,1.274,2.329,2.121c-0.609-3.149-1.963-5.582,1.569-6.591c4.011-1.146,11.919-6.532,17.994-6.991
		c6.075-0.459,16.047-2.751,20.976-0.917c1.144,0.425,1.848,1.231,2.277,2.255c0.231-0.283,0.466-0.547,0.703-0.765
		c2.866-2.637,12.148-1.376,20.516,1.833c7.964,3.055,15.185,6.011,15.864,11.526c4.531-1.33,5.541,1.434,8.893,3.488
		c3.444,2.111,6.445,5.191,5.689,8.614c3.765,0.009,9.678,2.797,11.732,9.918c2.293,7.946,9.628,17.802,7.679,21.47
		c-0.294,0.554-0.711,1.022-1.2,1.435c3.84,2.32,3.357,7.514,3.149,11.215c-0.229,4.084,2.751,14.399,1.146,16.577
		c-0.089,0.12-0.198,0.212-0.316,0.292c2.161,3.529,2.524,10.28,1.94,15.983c-0.669,6.533,2.451,15.898,0.439,18.109
		c-0.154,0.169-0.498,0.29-0.976,0.368c2.12,2.774,1.778,3.3,1.663,5.706c-0.114,2.406,0.865,4.58-2.272,6.304
		c0.305,0.724-0.499,1.999-0.348,2.73c0.062,0.296,2.147,0.754,1.875,2.25c-0.5,2.75-4.21,1.83-4.188,2.812
		c0.008,0.326,0.295,0.44,0.701,0.477c-0.009-0.033-0.024-0.061-0.025-0.099c-0.022-0.993,3.724-0.063,4.229-2.84
		c0.274-1.511-1.831-1.973-1.894-2.271c-0.152-0.739,0.659-2.026,0.352-2.757C190.069,144,189.08,141.806,189.195,139.376z"/>
	<path fill="#FFFFFF" d="M16.477,157.544c0-1.009,7.166-3.468,6.75-4.375c-0.317-0.69-5.874,1.494-6.571,1.282
		c-3.804-1.157,9.137-6.318,8.696-6.532c-0.459-0.223-1.371,0.044-2.485,0.506c0.72-0.243,1.299-0.342,1.635-0.179
		c0.445,0.216-12.621,5.427-8.779,6.595c0.704,0.214,6.314-1.992,6.634-1.295c0.42,0.916-6.815,3.399-6.815,4.417
		c0,0.808,2.528,2.893,4.479,1.414C18.289,159.817,16.477,158.225,16.477,157.544z"/>
	<path fill="#FFFFFF" d="M13.977,149.544c0.052-2.019,7.125-3,7.875-4.375c0.435-0.797-0.554-0.573-2.02-0.049
		c0.948-0.279,1.477-0.277,1.136,0.349c-0.757,1.389-7.898,2.379-7.951,4.417c-0.059,2.307,2.039,1.887,4.482,0.885
		C15.495,151.475,13.926,151.533,13.977,149.544z"/>
	<path fill="#FFFFFF" d="M29.102,169.044c1-6.125-5.125,0.625-6.25-0.75c-1.701-2.079-1.14-3.277,0.13-4.113
		c-1.827,0.861-3.078,2.101-1.004,4.636c1.11,1.357,7.043-5.121,6.363,0.372C28.773,169.248,29.069,169.241,29.102,169.044z"/>
	<path fill="#FFFFFF" d="M180.664,173.231c-1.25,2-7.146-1.267-6.875-0.438c0.167,0.512,0.497,0.885,0.907,1.175
		c-0.133-0.182-0.25-0.377-0.325-0.609c-0.273-0.837,5.68,2.461,6.941,0.442c0.141-0.225-0.155-0.518-0.675-0.848
		C180.692,173.054,180.716,173.148,180.664,173.231z"/>
	<path fill="#FFFFFF" d="M28.227,160.919c-0.257-0.733-8.887,3.232-9.375,2.5c-1.5-2.25,2.78-3.607,4.875-5.75
		c0.251-0.257,0.513-0.457,0.777-0.624c-0.556,0.197-1.119,0.508-1.643,1.044c-2.115,2.164-6.437,3.534-4.922,5.806
		c0.493,0.739,9.206-3.265,9.465-2.524c0.153,0.438-0.049,0.785-0.457,1.088C27.861,162.047,28.462,161.591,28.227,160.919z"/>
	<path fill="#FFFFFF" d="M178.602,177.169c-1.238,1.727-4.875-1.147-4.875-0.125c0,0.162,0.262,0.357,0.586,0.589
		c0.057-0.964,3.677,1.875,4.918,0.145c0.728-1.015,0.459-1.501-0.227-1.834C179.094,176.24,178.988,176.63,178.602,177.169z"/>
	<path fill="#FFFFFF" d="M184.539,162.169c-1.076,3.229-10.382-0.286-10,1.75c0.025,0.136,0.24,0.238,0.582,0.32
		c0.153-1.696,9.049,1.561,10.104-1.606c0.131-0.392-0.268-0.745-0.915-1.075C184.51,161.752,184.61,161.954,184.539,162.169z"/>
	<path fill="#FFFFFF" d="M184.602,158.856c-0.094,0.735-6.235-0.953-6.438-0.312c-0.084,0.266,0.226,0.519,0.732,0.768
		c-0.092-0.111-0.145-0.224-0.108-0.339c0.204-0.647,6.405,1.057,6.5,0.315c0.092-0.722-0.42-1.244-1.243-1.64
		C184.445,157.976,184.664,158.37,184.602,158.856z"/>
	<path fill="#FFFFFF" d="M184.164,166.544c-0.15,0.533-2.2,0.204-3.812,1.5c-3.188,2.562-6.442-0.063-6.688,0.625
		c-0.084,0.235,0.188,0.522,0.653,0.835c-0.067-0.109-0.106-0.214-0.072-0.309c0.247-0.695,3.533,1.956,6.752-0.631
		c1.628-1.309,3.697-0.977,3.849-1.514c0.144-0.508-0.184-0.875-0.787-1.148C184.188,166.087,184.233,166.298,184.164,166.544z"/>
	<path fill="#FFFFFF" d="M174.947,180.167c-0.774,0.66-1.947,0.913-3.22,0.835c0.029,3.49-2.555,6.021-5.032,8.417
		c-2.521,2.438-5.501,5.533-8.022,5.188c-0.345,4.929-6.189,9.169-14.558,13.754c-8.366,4.584-16.218,6.705-20.086,5.874
		c-1.031,2.235-14.133,4.041-24.688,3.353c-10.556-0.688-20.355-3.008-21.13-4.384c-0.573-1.019-0.403-2.649,0.104-4.49
		c-0.966,1.363-1.84,2.377-2.424,2.685c-3.095,1.633-12.551-2.923-19.857-6.533c-7.307-3.61-11.863-10.144-12.293-13.41
		c-0.042-0.323-0.024-0.657,0.024-0.998c-2.889-0.109-5.211-1.696-8.42-5.479c-3.209-3.783-7.451-5.426-6.533-8.329
		c-1.609-0.307-3.387-0.891-3.997-2.46c-1.019-2.624-0.976-3.995-0.438-4.68c-1.196,0.315-1.859,1.546-0.417,5.26
		c0.616,1.585,2.41,2.174,4.035,2.484c-0.926,2.932,3.356,4.59,6.596,8.41c3.24,3.819,5.584,5.421,8.501,5.531
		c-0.048,0.344-0.067,0.681-0.024,1.007c0.434,3.298,5.034,9.894,12.412,13.54c7.377,3.645,16.924,8.245,20.049,6.596
		c0.589-0.311,1.472-1.334,2.447-2.711c-0.512,1.858-0.683,3.505-0.104,4.533c0.782,1.389,10.676,3.732,21.333,4.426
		c10.658,0.695,23.885-1.128,24.926-3.385c3.906,0.839,11.833-1.302,20.28-5.931c8.449-4.629,14.35-8.911,14.698-13.887
		c2.546,0.348,5.554-2.777,8.1-5.238c2.501-2.42,5.11-4.975,5.081-8.499c1.284,0.079,2.469-0.177,3.25-0.843
		c1.098-0.936,0.54-1.646-0.141-2.188C175.668,179.049,175.66,179.56,174.947,180.167z"/>
</g>
<g property="ro:has_part" resource="cl:0000066" id="epithelial_cell">
	<path fill="#E6E7E8" stroke="#000000" stroke-width="0.4252" d="M124.029,214.237c-3.182-0.683-7.191-15.502-8.338-21.691
		c-1.147-6.189-3.019-11.125-1.624-13.414c1.394-2.289,8.615-3.435,11.709-5.727c3.095-2.292,8.482-7.222,12.149-5.617
		c1.696,0.742,6.777,2.306,11.239,7.672c5.187,6.238,9.692,16.499,9.508,19.148c-0.345,4.929-6.189,9.169-14.558,13.754
		C135.749,212.948,127.897,215.068,124.029,214.237z"/>
	<path fill="#E6E7E8" stroke="#000000" stroke-width="0.4252" d="M158.673,194.609c-4.418-0.602-3.598-7.058-6.499-8.4
		s-5.88-3.519-5.192-6.156s-0.207-6.93-5.089-7.075c-4.883-0.146-4.884-5.762-4.539-7.825c0.344-2.063,4.126-6.835,6.82-6.913
		c2.692-0.079,17.248,4.735,21.204,9.664c3.954,4.929,6.228,9.336,6.352,12.92c0.123,3.584-2.514,6.158-5.034,8.596
		C164.174,191.858,161.194,194.953,158.673,194.609z"/>
	<path fill="#E6E7E8" stroke="#000000" stroke-width="0.4252" d="M186.199,145.438c3.138-1.725,2.158-3.898,2.272-6.304
		c0.115-2.406,0.457-2.932-1.663-5.707c-2.119-2.775-15.528-6.901-18.509-5.87c-2.98,1.032-14.441-1.28-14.098,1.939
		s1.017,4.136-0.008,5.855c-1.023,1.719-1.727,2.865,0,4.241c1.728,1.375,7.229,1.491,8.604,0.229
		c1.375-1.261,6.419-1.605,6.877,1.604s6.533,3.553,8.252,2.407C179.647,142.688,183.695,146.814,186.199,145.438z"/>
	<path fill="#E6E7E8" stroke="#000000" stroke-width="0.4252" d="M187.784,133.06c2.012-2.211-1.108-11.576-0.439-18.109
		s0.096-14.442-2.999-17.308c-3.095-2.865-16.273-5.386-20.172-3.553c-3.897,1.833-9.399,0.688-10.431,3.897
		c-1.032,3.209-2.06,6.533-1.316,10.43c0.744,3.897,1.661,8.855,1.432,12.794s-1.489,6.327,0.344,8.285
		c1.834,1.958,6.021,2.302,9.142,1.615c3.122-0.688,7.363-2.98,9.655-0.573C175.291,132.946,186.639,134.32,187.784,133.06z"/>
	<path fill="#E6E7E8" stroke="#000000" stroke-width="0.4252" d="M180.105,70.25c5.282,1.849,4.699,7.764,4.47,11.848
		s2.751,14.399,1.146,16.577c-1.604,2.178-8.252-2.522-11.117-1.719s-7.563-4.584-9.054-0.229c-1.491,4.355-5.617,3.667-8.139,2.063
		s-4.24,1.49-4.47-1.49c-0.23-2.979,0.229-6.595-0.688-8.627c-0.917-2.032-0.916-5.471,0.574-7.419
		C154.316,79.305,177.812,69.448,180.105,70.25z"/>
	<path fill="#E6E7E8" stroke="#000000" stroke-width="0.4252" d="M161.995,38.157c3.555-0.688,10.659,1.875,12.952,9.82
		c2.293,7.946,9.628,17.802,7.679,21.47c-1.947,3.668-8.824,3.897-11.805,5.272s-0.572,5.272-1.833,6.074
		c-1.262,0.803-3.897-1.031-5.846-0.229c-1.949,0.803,2.81,4.585,0.201,5.158c-2.608,0.573-5.933-4.584-7.308-2.979
		c-1.376,1.604-5.272,3.639-6.532-0.072c-1.263-3.71-1.835-7.378-4.242-9.9c-2.406-2.522-5.961-7.336-5.961-10.086
		C139.301,59.935,161.995,38.157,161.995,38.157z"/>
	<path fill="#E6E7E8" stroke="#000000" stroke-width="0.4252" d="M147.783,26.237c5.272-1.949,6.189,1.031,9.742,3.208
		c3.554,2.178,6.648,5.387,5.617,8.94c-1.032,3.553-4.47,4.054-5.273,8.904c-0.802,4.85-7.678,2.902-8.137,4.965
		c-0.46,2.063,2.751,3.809,0.688,4.541c-2.063,0.732-6.189,2.222-7.221,3.941s-3.668,3.903-5.044,2.583
		c-1.375-1.321-3.464-4.824-6.316-7.027c-2.854-2.203-2.533-10.57,0-16.072C134.373,34.719,147.783,26.237,147.783,26.237z"/>
	<path fill="#E6E7E8" stroke="#000000" stroke-width="0.4252" d="M111.681,47.29c-0.678-3.155-5.733-10.279-5.273-17.385
		c0.459-7.106,2.979-14.67,5.846-17.307c2.866-2.637,12.148-1.376,20.516,1.833S148.7,20.736,148.7,26.81
		c0,6.075-5.845,9.743-7.336,13.525c-1.489,3.783-8.022,1.948-8.252,4.699c-0.229,2.751,5.503,2.636,4.241,5.845
		c-1.261,3.21-4.012,3.783-4.699,5.502c-0.688,1.719-5.158-2.407-9.284-3.438C119.244,51.911,112.482,51.036,111.681,47.29z"/>
	<path fill="#E6E7E8" stroke="#000000" stroke-width="0.4252" d="M68.927,26.925c-0.344-3.782-2.635-6.762,1.375-7.909
		c4.011-1.146,11.919-6.532,17.994-6.991c6.075-0.459,16.047-2.751,20.976-0.917c4.928,1.834,1.948,10.544,2.062,14.786
		c0.114,4.241-3.095,5.845-2.637,9.284c0.46,3.438,5.158,3.094,4.127,7.106c-1.032,4.012-2.406,6.649-5.73,6.763
		c-3.324,0.114-11.919,0.802-15.817,2.979c-3.897,2.178-7.909,3.438-11.462,1.604S69.5,43.888,68.812,39.418
		C68.124,34.948,68.927,26.925,68.927,26.925z"/>
	<path fill="#E6E7E8" stroke="#000000" stroke-width="0.4252" d="M35.23,48.358c0.344-3.324,5.958-11.805,9.97-14.9
		c4.012-3.095,8.828-6.993,12.724-8.482c3.896-1.49,5.271-3.896,8.48-1.49c3.21,2.407,8.14,8.72,8.024,11.925
		c-0.116,3.205,0.573,5.039-0.688,6.643s1.718,6.647,5.042,6.304s4.127,5.73,2.637,7.908c-1.489,2.178-7.45,4.585-11.003,8.023
		s-9.367,8.596-12.42,9.055c-3.053,0.458-14.398-8.481-16.577-11.69S35.23,48.358,35.23,48.358z"/>
	<path fill="#E6E7E8" stroke="#000000" stroke-width="0.4252" d="M24.351,63.728c0.047-3.641,2.713-8.177,5.722-12.045
		s3.438-5.072,6.018-4.04c2.579,1.031,8.166,9.026,9.8,10.487c1.633,1.461,1.402-0.258,3.709,2.493
		c2.308,2.751,0.331,3.267,2.565,5.76c2.235,2.493,7.909,6.533,7.823,8.167s-0.516,1.891-1.375,3.353
		c-0.859,1.461-0.773,3.498-2.622,4.113c-1.849,0.615-14.141-2.136-19.643-7.465C30.846,69.218,24.332,65.167,24.351,63.728z"/>
	<path fill="#E6E7E8" stroke="#000000" stroke-width="0.4252" d="M13.653,102.142c-2.431-5.526,1.032-12.035,3.095-17.45
		c2.063-5.416,2.579-17.966,4.986-19.943c2.407-1.977,8.424-1.29,11.003,1.977c2.579,3.267,2.407,4.728,5.158,3.954
		c2.75-0.773,5.501-0.688,4.986,2.407c-0.516,3.095,0.602,4.47,4.986,3.438c4.384-1.032,4.728,3.009,7.049,4.556
		c2.321,1.547,2.063,3.267,0.516,5.33s-3.267,7.135-3.868,10.229c-0.602,3.095-0.674,5.383-3.518,6.646
		c-2.843,1.263-11.853,1.435-18.352,1.091C23.195,104.033,14.599,104.292,13.653,102.142z"/>
	<path fill="#E6E7E8" stroke="#000000" stroke-width="0.4252" d="M12.192,140.396c-1.938-1.107-2.665-13.84-2.321-22.006
		s0.551-15.301,2.897-16.763c2.347-1.461,8.106-0.344,12.318,0c4.212,0.344,3.095-2.493,7.221-1.118
		c4.126,1.375,3.267,3.181,7.565,2.837c4.298-0.344,7.995-1.118,9.37,0.86c1.375,1.977-1.72,7.221-1.032,13.754
		c0.688,6.533,2.579,12.722,0.086,15.215c-2.493,2.493-13.238,7.823-19.342,8.768C22.852,142.889,14.599,141.771,12.192,140.396z"/>
	<path fill="#E6E7E8" stroke="#000000" stroke-width="0.4252" d="M43.765,190.46c-2.889-0.109-5.211-1.696-8.42-5.479
		c-3.209-3.783-7.451-5.426-6.533-8.329s3.784-0.406,6.305-4.005c2.521-3.598,0-5.89,1.719-6.807
		c1.719-0.917,5.617,3.584,6.877,1.505c1.26-2.079-1.146-5.647,0-6.671c1.146-1.023,6.763,0.58,8.597-1.597
		c1.833-2.177,4.126-4.579,5.271-4.238c1.146,0.341,2.409,2.175,3.325,2.862c0.916,0.688,1.864,0.364,1.963,3.621
		c0.1,3.256-4.829,14.03-8.84,18.73C50.016,184.752,46.012,190.544,43.765,190.46z"/>
	<path fill="#E6E7E8" stroke="#000000" stroke-width="0.4252" d="M75.891,211.401c2.04-1.077,7.564-10.597,8.51-14.496
		c0.946-3.9,5.416-16.193,5.502-19.115c0.086-2.923-3.524-2.837-9.972-6.361s-11.777-10.488-15.129-10.746s-4.986,5.932-6.705,9.112
		s-4.041,0.086-5.244,3.181c-1.204,3.094-0.344,5.416-2.665,8.167c-2.321,2.75-6.877,7.049-6.447,10.315s4.986,9.8,12.293,13.41
		C63.34,208.478,72.796,213.034,75.891,211.401z"/>
	<path fill="#E6E7E8" stroke="#000000" stroke-width="0.4252" d="M78.211,213.206c-1.87-3.326,4.127-13.152,4.213-15.646
		c0.086-2.493-2.321-6.017-1.204-8.424c1.118-2.407,5.244-2.149,6.361-5.33c1.118-3.181,3.267-7.479,6.104-7.135
		s8.166,1.118,11.089,0.945c2.923-0.172,6.018-1.203,8.339,0.43s3.353,9.05,4.47,11.488c1.118,2.438,3.353,4.478,3.696,6.424
		s-0.859,3.149,0.258,7.017c1.118,3.869,3.524,9.026,2.493,11.261c-1.031,2.235-14.133,4.041-24.688,3.353
		C88.785,216.902,78.985,214.582,78.211,213.206z"/>
	<path fill="#A7A9AC" stroke="#000000" stroke-width="0.4252" d="M92.714,201.135c-4.392-8.561,8.792-17.194,14.706-6.925
		C113.332,204.48,98.859,213.117,92.714,201.135z"/>
	<path fill="#808285" stroke="#000000" stroke-width="0.4252" d="M98.141,198.713c-1.373-2.485,3.096-4.023,3.791-1.354
		C102.629,200.029,99.765,201.653,98.141,198.713z"/>
	<path fill="#A7A9AC" stroke="#000000" stroke-width="0.4252" d="M59.989,193.243c-4.391-8.562,8.792-17.195,14.706-6.925
		C80.607,196.587,66.135,205.225,59.989,193.243z"/>
	<path fill="#808285" stroke="#000000" stroke-width="0.4252" d="M65.417,190.821c-1.374-2.485,3.094-4.023,3.791-1.354
		C69.904,192.136,67.04,193.761,65.417,190.821z"/>
	<path fill="#A7A9AC" stroke="#000000" stroke-width="0.4252" d="M20.101,113.295c-1.155-9.552,14.203-13.087,16.194-1.404
		C38.286,123.572,21.718,126.665,20.101,113.295z"/>
	<path fill="#808285" stroke="#000000" stroke-width="0.4252" d="M26.032,112.903c-0.43-2.807,4.295-2.704,4.024,0.042
		C29.786,115.691,26.537,116.223,26.032,112.903z"/>
	<path fill="#A7A9AC" stroke="#000000" stroke-width="0.4252" d="M51.856,47.913c-4.391-8.561,8.792-17.194,14.706-6.924
		C72.475,51.258,58.002,59.896,51.856,47.913z"/>
	<path fill="#808285" stroke="#000000" stroke-width="0.4252" d="M57.284,45.492c-1.375-2.485,3.094-4.023,3.79-1.354
		C61.771,46.807,58.907,48.432,57.284,45.492z"/>
	<path fill="#A7A9AC" stroke="#000000" stroke-width="0.4252" d="M85.138,26.792c4.15-8.68,19.008-3.422,14.419,7.505
		C94.969,45.223,79.329,38.941,85.138,26.792z"/>
	<path fill="#808285" stroke="#000000" stroke-width="0.4252" d="M90.353,29.643c1.146-2.599,5.075,0.024,3.374,2.195
		C92.024,34.01,88.997,32.716,90.353,29.643z"/>
	<path fill="#A7A9AC" stroke="#000000" stroke-width="0.4252" d="M118.197,33.985c-4.39-8.562,8.792-17.195,14.708-6.925
		C138.817,37.33,124.344,45.967,118.197,33.985z"/>
	<path fill="#808285" stroke="#000000" stroke-width="0.4252" d="M123.626,31.563c-1.375-2.485,3.095-4.023,3.791-1.354
		C128.112,32.878,125.249,34.503,123.626,31.563z"/>
	<path fill="#A7A9AC" stroke="#000000" stroke-width="0.4252" d="M167.865,112.19c3.003-9.142,18.409-5.834,15.264,5.592
		C179.98,129.207,163.663,124.985,167.865,112.19z"/>
	<path fill="#808285" stroke="#000000" stroke-width="0.4252" d="M173.403,114.348c0.802-2.724,5.036-0.627,3.627,1.744
		C175.622,118.464,172.453,117.57,173.403,114.348z"/>
	<path fill="#A7A9AC" stroke="#000000" stroke-width="0.4252" d="M126.687,195.653c-4.393-8.561,8.792-17.194,14.705-6.925
		C147.304,198.999,132.833,207.636,126.687,195.653z"/>
	<path fill="#808285" stroke="#000000" stroke-width="0.4252" d="M132.112,193.232c-1.372-2.485,3.095-4.024,3.791-1.354
		C136.602,194.547,133.737,196.172,132.112,193.232z"/>
	<path fill="#BCBEC0" stroke="#FFFFFF" stroke-width="0.5669" d="M83.262,213.016c-1.291,0.603-1.717-2.717-0.93-4.648
		s2.36-3.719,3.791-3.147c1.43,0.572,1.286,2.074,0.286,3.504C85.408,210.156,84.333,212.516,83.262,213.016z"/>
	<path fill="#BCBEC0" stroke="#FFFFFF" stroke-width="0.5669" d="M92.916,215.019c-1.614-0.808,0.572-6.293,2.861-4.792
		C98.065,211.729,94.203,215.663,92.916,215.019z"/>
	<path fill="#BCBEC0" stroke="#FFFFFF" stroke-width="0.5669" d="M106.289,215.089c-1.18-0.346,0.286-4.477,1.788-3.346
		C109.578,212.873,107.505,215.446,106.289,215.089z"/>
	<path fill="#BCBEC0" stroke="#FFFFFF" stroke-width="0.5669" d="M119.804,211.743c-1.953,1.349-3.86-2.985-3.646-4.789
		c0.214-1.804,0.214-4.592,1.502-4.235c1.287,0.357,0.856,3.232,1.717,4.533C120.233,208.553,121.234,210.755,119.804,211.743z"/>
	<path fill="#BCBEC0" stroke="#FFFFFF" stroke-width="0.5669" d="M109.149,209.583c-1.314-0.606,0.143-1.716,1.145-3.433
		c1.001-1.717,2.192-3.637,3.277-3.463c1.086,0.174,0.847,3.75,0,4.965C112.726,208.868,110.079,210.013,109.149,209.583z"/>
	<path fill="#BCBEC0" stroke="#FFFFFF" stroke-width="0.5669" d="M113.571,198.642c-1.912,0.183-2.441-3.504-2.108-5.506
		c0.333-2.003,0.037-3.933,1.007-4.148s3.415,2.761,3.671,4.827C116.397,195.88,115.062,198.499,113.571,198.642z"/>
	<path fill="#BCBEC0" stroke="#FFFFFF" stroke-width="0.5669" d="M110.579,187.415c-0.844-0.338,2.498-4.576,3.288-3.361
		C114.657,185.27,112.01,187.987,110.579,187.415z"/>
	<path fill="#BCBEC0" stroke="#FFFFFF" stroke-width="0.5669" d="M98.494,186.771c-1.251-0.568,0.285-2.359,1.466-3.29
		s3.11-2.431,4.327-1.215c1.215,1.215-0.786,2.292-1.789,3.398C101.498,186.771,99.281,187.128,98.494,186.771z"/>
	<path fill="#BCBEC0" stroke="#FFFFFF" stroke-width="0.5669" d="M92.845,189.535c-1.229-0.05-1.931-1.902-1.359-3.871
		c0.572-1.968,1.003-4.471,2.289-4.399c1.287,0.071,1.574,2.047,1.431,4.134S93.989,189.583,92.845,189.535z"/>
	<path fill="#BCBEC0" stroke="#FFFFFF" stroke-width="0.5669" d="M88.054,198.649c-1.095,0.573-2.216-3.373-1.43-4.836
		c0.785-1.463,2.27-4.062,3.279-3.335c1.011,0.727,0.991,1.724,0,3.335C88.912,195.424,89.27,198.012,88.054,198.649z"/>
	<path fill="#BCBEC0" stroke="#FFFFFF" stroke-width="0.5669" d="M60.593,203.291c-1.43,0-2.431-3.433-0.858-3.718
		C61.308,199.286,62.023,203.291,60.593,203.291z"/>
	<path fill="#BCBEC0" stroke="#FFFFFF" stroke-width="0.5669" d="M54.729,195.959c-1.276,0.202-1.86-3.346-1.645-5.015
		c0.215-1.67,1.214-4.264,2.431-4.039c1.217,0.224,0.931,2.419,1.002,4.039C56.588,192.563,55.873,195.778,54.729,195.959z"/>
	<path fill="#BCBEC0" stroke="#FFFFFF" stroke-width="0.5669" d="M47.792,195.209c-1.055-0.668-1.143-2.739-0.429-4.266
		c0.715-1.527,2.359-3.656,3.361-2.877s0.572,2.352,0,3.997C50.151,193.708,48.303,195.534,47.792,195.209z"/>
	<path fill="#BCBEC0" stroke="#FFFFFF" stroke-width="0.5669" d="M55.157,183.411c-0.997-0.695,1.216-6.151,2.932-5.364
		C59.806,178.833,56.801,184.555,55.157,183.411z"/>
	<path fill="#BCBEC0" stroke="#FFFFFF" stroke-width="0.5669" d="M65.154,173.398c-1.363,0.177-2.661-5.506,0-5.363
		C67.815,168.178,67.356,173.112,65.154,173.398z"/>
	<path fill="#BCBEC0" stroke="#FFFFFF" stroke-width="0.5669" d="M76.085,179.334c-1.668,0.159-4.337-7.08-1.691-7.08
		S78.349,179.119,76.085,179.334z"/>
	<path fill="#BCBEC0" stroke="#FFFFFF" stroke-width="0.5669" d="M78.899,186.209c-2.242-0.015-1.812-3.159-1.05-4.946
		c0.764-1.786,1.692-4.36,3.052-3.86c1.359,0.5,0.501,3.576,0.286,5.149S80.4,186.219,78.899,186.209z"/>
	<path fill="#BCBEC0" stroke="#FFFFFF" stroke-width="0.5669" d="M41.857,185.664c-1.59-0.72,0.493-4.323,1.854-6.328
		c1.362-2.004,3.365-4.148,4.867-3.541c1.501,0.607,0.071,3.039-1.431,4.97S43.359,186.345,41.857,185.664z"/>
	<path fill="#BCBEC0" stroke="#FFFFFF" stroke-width="0.5669" d="M34.348,182.338c-1.267-0.03-1.646-4.077,0-4.005
		C35.993,178.405,36.08,182.38,34.348,182.338z"/>
	<path fill="#BCBEC0" stroke="#FFFFFF" stroke-width="0.5669" d="M37.709,181.263c-1.073-1.142,2.431-4.516,3.576-3.294
		S38.783,182.405,37.709,181.263z"/>
	<path fill="#BCBEC0" stroke="#FFFFFF" stroke-width="0.5669" d="M40.283,172.634c0.286-2.095,6.153-3.455,6.616-1.309
		c0.463,2.146-6.045,2.904-6.259,1.309"/>
	<path fill="#BCBEC0" stroke="#FFFFFF" stroke-width="0.5669" d="M51.325,169.609c-1.458-0.644,0.544-8.653,3.046-7.366
		C56.874,163.531,52.784,170.253,51.325,169.609z"/>
	<path fill="#BCBEC0" stroke="#FFFFFF" stroke-width="0.5669" d="M20.189,137.558c-1.894-1.515,2.157-7.279,4.654-6.493
		C27.34,131.851,21.692,138.759,20.189,137.558z"/>
	<path fill="#BCBEC0" stroke="#FFFFFF" stroke-width="0.5669" d="M19.7,128.275c1.208-1.229-0.943-2.217-1.943-3.575
		c-1-1.359-1.573-3.647-3.075-2.36c-1.501,1.288-0.929,4.148,0,5.149C15.612,128.49,18.998,128.991,19.7,128.275z"/>
	<path fill="#BCBEC0" stroke="#FFFFFF" stroke-width="0.5669" d="M29.693,125.286c0.379-1.623-1.331-1.054-2.818-1.277
		c-1.487-0.223-3.683-2.312-4.541-0.811c-0.858,1.502,1.342,3.575,3.138,4.076C27.268,127.775,29.473,126.23,29.693,125.286z"/>
	<path fill="#BCBEC0" stroke="#FFFFFF" stroke-width="0.5669" d="M34.098,126.273c-1.233-0.537,0.966-7.08,2.753-6.079
		C38.639,121.196,36.064,127.13,34.098,126.273z"/>
	<path fill="#BCBEC0" stroke="#FFFFFF" stroke-width="0.5669" d="M45.618,129.062c-1.537,1.119-5.119-2.859-5.549-5.041
		s-0.358-6.473,1.715-5.757s0.994,3.198,1.927,4.96C44.646,124.986,47.092,127.989,45.618,129.062z"/>
	<path fill="#BCBEC0" stroke="#FFFFFF" stroke-width="0.5669" d="M20.059,98.313c-1.965,0.457-3.707-8.653-1.181-8.367
		S21.288,98.027,20.059,98.313z"/>
	<path fill="#BCBEC0" stroke="#FFFFFF" stroke-width="0.5669" d="M31.488,98.33c-1.073,1.127-7.383-5.167-6.016-6.453
		C26.839,90.59,32.561,97.203,31.488,98.33z"/>
	<path fill="#BCBEC0" stroke="#FFFFFF" stroke-width="0.5669" d="M39.139,101.959c-0.549,1.1-5.816-0.929-3.909-3.003
		C37.137,96.882,39.496,101.244,39.139,101.959z"/>
	<path fill="#BCBEC0" stroke="#FFFFFF" stroke-width="0.5669" d="M47.005,101.388c-0.062,0.067-0.16,0.106-0.287,0.12
		c-1.366,0.15-6.094-2.562-4.549-4.197"/>
	<path fill="#BCBEC0" stroke="#FFFFFF" stroke-width="0.5669" d="M48.006,95.088c-1.545,0.628-4.29-5.857-2.431-6.215
		s4.362,0.716,3.504,2.289C48.221,92.735,49.078,94.652,48.006,95.088z"/>
	<path fill="#BCBEC0" stroke="#FFFFFF" stroke-width="0.5669" d="M34.682,93.736c0.453-3.861,7.961-3.075,7.89-1.43
		c-0.071,1.645-7.699,3.8-7.89,1.829"/>
	<path fill="#BCBEC0" stroke="#FFFFFF" stroke-width="0.5669" d="M32.631,89.939c0.76-0.862-4.79-3.497-5.755-1.995
		C25.91,89.445,31.629,91.076,32.631,89.939z"/>
	<path fill="#BCBEC0" stroke="#FFFFFF" stroke-width="0.5669" d="M34.348,86.084c-1.613,0.782-6.52-8.009-4.654-9.225
		C31.559,75.644,36.708,84.939,34.348,86.084z"/>
	<path fill="#BCBEC0" stroke="#FFFFFF" stroke-width="0.5669" d="M27.698,84.088c-0.92,1.504-7.007-0.937-6.222-3.153
		s5.791-4.434,5.291-1.931C26.267,81.507,28.7,82.449,27.698,84.088z"/>
	<path fill="#BCBEC0" stroke="#FFFFFF" stroke-width="0.5669" d="M25.278,75.357c-0.928,1.148-4.943-2.861-3.872-4.077
		C22.477,70.065,26.435,73.927,25.278,75.357z"/>
	<path fill="#BCBEC0" stroke="#FFFFFF" stroke-width="0.5669" d="M31.621,75c-0.911,1.143-8.059-6.199-6.778-7.651
		S33.03,73.231,31.621,75z"/>
	<path fill="#BCBEC0" stroke="#FFFFFF" stroke-width="0.5669" d="M42.969,85.083c-0.666,0.873-8.119-4.29-6.404-6.364
		C38.28,76.645,44.225,83.437,42.969,85.083z"/>
	<path fill="#BCBEC0" stroke="#FFFFFF" stroke-width="0.5669" d="M51.582,86.513c-0.858,1.145-8.009-3.576-6.221-5.649
		C47.148,78.79,52.44,85.369,51.582,86.513z"/>
	<path fill="#BCBEC0" stroke="#FFFFFF" stroke-width="0.5669" d="M51.225,73.304c-1.42,0.792-5.077-5.404-3.576-6.145
		C49.15,66.418,52.726,72.467,51.225,73.304z"/>
	<path fill="#BCBEC0" stroke="#FFFFFF" stroke-width="0.5669" d="M43.143,65.847c0.07-1.515-8.295-3.647-7.58,0
		C36.279,69.494,43.07,67.419,43.143,65.847z"/>
	<path fill="#BCBEC0" stroke="#FFFFFF" stroke-width="0.5669" d="M35.993,60.84c-1.327,1.328-5.679-3.084-3.876-4.045
		C33.919,55.835,36.78,60.053,35.993,60.84z"/>
	<path fill="#BCBEC0" stroke="#FFFFFF" stroke-width="0.5669" d="M29.277,60.34c-0.819,0.287-1.925-4.005,0-4.005
		C31.202,56.335,30.5,59.911,29.277,60.34z"/>
	<path fill="#BCBEC0" stroke="#FFFFFF" stroke-width="0.5669" d="M44.434,61.087c-1.334,2.335-5.223-1.534-6.582-3.464
		c-1.359-1.931-2.727-5.292-1.542-6.007s2.686,2.432,4.474,3.791C42.572,56.765,45.151,59.833,44.434,61.087z"/>
	<path fill="#BCBEC0" stroke="#FFFFFF" stroke-width="0.5669" d="M61.665,66.418c-1.35,0.203-3.4-6.693-0.484-6.064
		C64.097,60.983,63.094,66.204,61.665,66.418z"/>
	<path fill="#BCBEC0" stroke="#FFFFFF" stroke-width="0.5669" d="M52.584,58.345c-1.262,1.342-4.374-5.013-3.331-5.584
		C50.295,52.188,53.586,57.279,52.584,58.345z"/>
	<path fill="#BCBEC0" stroke="#FFFFFF" stroke-width="0.5669" d="M43.143,48.469c-2.375,0.221-3.718-6.937-2.001-6.937
		C42.858,41.533,46.217,48.183,43.143,48.469z"/>
	<path fill="#BCBEC0" stroke="#FFFFFF" stroke-width="0.5669" d="M49.599,49.757c-1.109,1.086-3.88-3.576-3.452-5.578
		c0.428-2.002,0.377-5.39,2.227-4.375c1.85,1.014,1.994,3.561,1.563,5.22C49.508,46.682,50.549,48.827,49.599,49.757z"/>
	<path fill="#BCBEC0" stroke="#FFFFFF" stroke-width="0.5669" d="M51.676,35.955c-0.829-0.117,0.068-4.506,1.096-3.791
		C53.799,32.88,53.199,36.17,51.676,35.955z"/>
	<path fill="#BCBEC0" stroke="#FFFFFF" stroke-width="0.5669" d="M58.233,32.086c0.105-2.211,4.501-2.567,4.825-0.565
		C63.381,33.523,58.162,33.581,58.233,32.086z"/>
	<path fill="#BCBEC0" stroke="#FFFFFF" stroke-width="0.5669" d="M68.605,31.665c-1.866,1.859-5.51-5.65-4.365-6.365
		S69.896,30.379,68.605,31.665z"/>
	<path fill="#BCBEC0" stroke="#FFFFFF" stroke-width="0.5669" d="M74.68,55.191c-1,0.931-5.22-5.688-3.361-7.278
		C73.179,46.324,75.681,54.261,74.68,55.191z"/>
	<path fill="#BCBEC0" stroke="#FFFFFF" stroke-width="0.5669" d="M70.247,60.698c-1.429,0.295-2.646-6.648-0.286-6.185
		S72.32,60.27,70.247,60.698z"/>
	<path fill="#BCBEC0" stroke="#FFFFFF" stroke-width="0.5669" d="M87.695,48.827c-1.731-0.275-1.286-2.36-1.788-3.433
		c-0.501-1.072-1.858-3.003-0.929-3.861c0.929-0.858,2.86,1.544,3.289,3.132C88.696,46.252,88.51,48.956,87.695,48.827z"/>
	<path fill="#BCBEC0" stroke="#FFFFFF" stroke-width="0.5669" d="M82.139,40.746c-1.055,0.965-3.382-1.932-3.382-3.934
		s0.143-4.948,1.286-4.727c1.145,0.222,1.431,2.531,1.431,3.879C81.474,37.313,83.232,39.746,82.139,40.746z"/>
	<path fill="#BCBEC0" stroke="#FFFFFF" stroke-width="0.5669" d="M77.541,27.23c-1.64,0.656-3.814-1.931-4.661-3.791
		c-0.846-1.859-0.061-4.29,1.013-4.505s1.432,2.412,2.432,3.53C77.326,23.583,78.972,26.659,77.541,27.23z"/>
	<path fill="#BCBEC0" stroke="#FFFFFF" stroke-width="0.5669" d="M86.575,20.222c-1.453,1.794-6.347-1.787-4.437-3.79
		C84.049,14.429,88.603,17.719,86.575,20.222z"/>
	<path fill="#BCBEC0" stroke="#FFFFFF" stroke-width="0.5669" d="M104.715,24.942c-1.489,1.666-2.573-2.361-3.718-3.218
		c-1.145-0.858-2.454-2.489-1.656-3.461s3.515,0.529,4.874,1.816C105.574,21.366,105.932,23.583,104.715,24.942z"/>
	<path fill="#BCBEC0" stroke="#FFFFFF" stroke-width="0.5669" d="M108.505,23.869c-1.284,0.456-2.646-9.583,0-9.011
		C111.151,15.431,110.722,23.083,108.505,23.869z"/>
	<path fill="#BCBEC0" stroke="#FFFFFF" stroke-width="0.5669" d="M105.859,38.05c-1.931,0.765-4.433-8.893-1.859-9.451
		S107.79,37.286,105.859,38.05z"/>
	<path fill="#BCBEC0" stroke="#FFFFFF" stroke-width="0.5669" d="M107.434,43.893c-1.341,2.456-4.936-1.833-4.221-2.955
		C103.929,39.816,108.29,42.319,107.434,43.893z"/>
	<path fill="#BCBEC0" stroke="#FFFFFF" stroke-width="0.5669" d="M97.421,47.059c-1.518,2.253-7.223-3.26-6.15-4.322
		C92.344,41.676,98.708,45.148,97.421,47.059z"/>
	<path fill="#BCBEC0" stroke="#FFFFFF" stroke-width="0.5669" d="M98.137,16.36c-1.432,0.929-3.862-1.931-3.004-2.86
		c0.858-0.93,4.291,2.011,3.004,3.043"/>
	<path fill="#BCBEC0" stroke="#FFFFFF" stroke-width="0.5669" d="M114.154,20.71c-1.969-0.637,1.609-8.425,3.165-6.352
		C118.874,16.432,115.441,21.126,114.154,20.71z"/>
	<path fill="#BCBEC0" stroke="#FFFFFF" stroke-width="0.5669" d="M119.446,18.922c-0.4-1.583,4.29-2.835,4.434-0.66
		C124.024,20.437,119.732,20.053,119.446,18.922z"/>
	<path fill="#BCBEC0" stroke="#FFFFFF" stroke-width="0.5669" d="M119.804,49.614c-2.096,0.729-3.747-6.854-2.087-7.074
		C119.375,42.32,123.095,48.469,119.804,49.614z"/>
	<path fill="#BCBEC0" stroke="#FFFFFF" stroke-width="0.5669" d="M114.083,43.75c-1.145-0.286-0.162-7.366,1.563-6.65
		C117.373,37.814,115.228,44.036,114.083,43.75z"/>
	<path fill="#BCBEC0" stroke="#FFFFFF" stroke-width="0.5669" d="M129.028,52.188c-0.988,0.211-1.531-5.088-0.284-5.129
		C129.99,47.017,130.03,51.974,129.028,52.188z"/>
	<path fill="#BCBEC0" stroke="#FFFFFF" stroke-width="0.5669" d="M136.896,41.533c-1.288-0.039-0.357-5.433,1.001-5.219
		C139.256,36.527,139.256,41.604,136.896,41.533z"/>
	<path fill="#BCBEC0" stroke="#FFFFFF" stroke-width="0.5669" d="M137.109,32.917c-1.115,0.306-0.857-2.311-1.287-4.356
		c-0.429-2.046-1.786-4.386-0.429-5.433c1.358-1.046,2.841,2.835,3.423,4.899C139.397,30.091,138.54,32.526,137.109,32.917z"/>
	<path fill="#BCBEC0" stroke="#FFFFFF" stroke-width="0.5669" d="M142.759,30.74c-1.582-0.024-2.861-7.846,0-7.787
		C145.619,23.012,144.166,30.761,142.759,30.74z"/>
	<path fill="#BCBEC0" stroke="#FFFFFF" stroke-width="0.5669" d="M145.619,42.534c-1.467-0.807,0.43-3.546,1.502-6.028
		c1.073-2.481,1.073-4.465,2.719-4.546c1.644-0.081,1.001,4.181,0,6.09C148.838,39.959,147.052,43.32,145.619,42.534z"/>
	<path fill="#BCBEC0" stroke="#FFFFFF" stroke-width="0.5669" d="M147.408,47.29c-0.358-1.466,6.579-5.248,7.151-2.392
		C155.132,47.755,147.766,48.756,147.408,47.29z"/>
	<path fill="#BCBEC0" stroke="#FFFFFF" stroke-width="0.5669" d="M141.901,55.623c-2.538-0.084-0.057-6.51,0.83-6.51
		S144.118,55.697,141.901,55.623z"/>
	<path fill="#BCBEC0" stroke="#FFFFFF" stroke-width="0.5669" d="M151.984,39.316c-1.054-1.449,2.36-4.915,3.789-3.351
		C157.206,37.529,152.557,40.103,151.984,39.316z"/>
	<path fill="#BCBEC0" stroke="#FFFFFF" stroke-width="0.5669" d="M159.922,37.515c-0.925,0.657-2.789-2.855-1.716-3.53
		C159.279,33.309,161.853,36.143,159.922,37.515z"/>
	<path fill="#BCBEC0" stroke="#FFFFFF" stroke-width="0.5669" d="M144.404,68.849c-1.882-0.403-0.071-2.875,0.68-4.155
		c0.75-1.279,1.364-3.334,2.881-2.879c1.517,0.456,1.23,3.47,0.301,4.608C147.336,67.562,145.404,69.063,144.404,68.849z"/>
	<path fill="#BCBEC0" stroke="#FFFFFF" stroke-width="0.5669" d="M152.174,64.988c-1.036-0.082-1.454-4.22,0-5.792
		c1.455-1.573,4.101-2.691,4.959-1.596s-2.297,3.019-2.542,4.31C154.345,63.2,153.079,65.059,152.174,64.988z"/>
	<path fill="#BCBEC0" stroke="#FFFFFF" stroke-width="0.5669" d="M149.909,76.43c-1.283,0.691-0.929-2.75-1.644-3.056
		c-0.715-0.306-2.171-1.665-0.87-2.738c1.3-1.072,3.015-0.07,3.838,1.359C152.056,73.426,150.839,75.93,149.909,76.43z"/>
	<path fill="#BCBEC0" stroke="#FFFFFF" stroke-width="0.5669" d="M151.505,82.508c-1.297-1.074,3.984-7.294,5.198-5.221
		C157.92,79.361,152.458,83.295,151.505,82.508z"/>
	<path fill="#BCBEC0" stroke="#FFFFFF" stroke-width="0.5669" d="M159.637,80.462c-0.645-0.992,1.571-4.946,3.146-3.595
		S160.352,81.563,159.637,80.462z"/>
	<path fill="#BCBEC0" stroke="#FFFFFF" stroke-width="0.5669" d="M166.573,75.5c-1.319-0.688-0.787-3.433,0.43-4.934
		c1.214-1.502,3.146-3.733,4.146-2.689c1,1.044-0.571,3.189-1.144,4.62S168.217,76.358,166.573,75.5z"/>
	<path fill="#BCBEC0" stroke="#FFFFFF" stroke-width="0.5669" d="M177.229,71.139c-2.508,0.34-3.362-5.595-1.359-6.445
		C177.871,63.844,179.735,70.799,177.229,71.139z"/>
	<path fill="#BCBEC0" stroke="#FFFFFF" stroke-width="0.5669" d="M154.091,71.643c0.154-1.52,3.385-2.508,5.431-2.222
		c2.045,0.286,3.188,1.573,2.831,3.433c-0.357,1.859-2.904,0.54-4.098,0.521C157.061,73.355,153.98,72.72,154.091,71.643z"/>
	<path fill="#BCBEC0" stroke="#FFFFFF" stroke-width="0.5669" d="M172.007,56.663c-0.48,1.393-6.974-0.4-6.203-2.688
		C166.573,51.687,172.438,55.418,172.007,56.663z"/>
	<path fill="#BCBEC0" stroke="#FFFFFF" stroke-width="0.5669" d="M166.859,49.918c-1.431-1.164,1.043-4.954,2.881-3.381
		c1.837,1.573-2.447,4.361-3.307,3.647"/>
	<path fill="#BCBEC0" stroke="#FFFFFF" stroke-width="0.5669" d="M160.209,52.195c-1.427-0.669,0.143-3.584,1.429-5.586
		c1.287-2.002,1.932-4.131,3.505-3.96c1.572,0.17,0.716,3.135-0.572,5.264S161.139,52.631,160.209,52.195z"/>
	<path fill="#BCBEC0" stroke="#FFFFFF" stroke-width="0.5669" d="M158.635,97.669c-1.656,0.091-2.146-3.818-3.289-4.734
		c-1.144-0.916-2.575-2.485-1.788-4.132c0.787-1.646,3.575-0.213,5.077,2.145C160.137,93.307,159.922,97.598,158.635,97.669z"/>
	<path fill="#BCBEC0" stroke="#FFFFFF" stroke-width="0.5669" d="M163.143,95.667c-1.967-0.672-0.217-6.937,1.786-6.079
		c2.001,0.858,0.264,7.008-1.585,6.364"/>
	<path fill="#BCBEC0" stroke="#FFFFFF" stroke-width="0.5669" d="M169.74,91.305c-1.388-1.149,3.198-4.488,4.628-3.209
		C175.798,89.374,170.691,92.092,169.74,91.305z"/>
	<path fill="#BCBEC0" stroke="#FFFFFF" stroke-width="0.5669" d="M180.303,94.922c-0.776,1.449-5.72-1.62-4.433-3.477
		S181.162,93.319,180.303,94.922z"/>
	<path fill="#BCBEC0" stroke="#FFFFFF" stroke-width="0.5669" d="M183.551,90.161c-1.356,1.074-2.604-0.912-3.892-2.065
		c-1.287-1.153-3.114-2.011-2.344-3.441c0.771-1.431,3.632-1.092,4.99,0.526C183.663,86.799,184.722,89.231,183.551,90.161z"/>
	<path fill="#BCBEC0" stroke="#FFFFFF" stroke-width="0.5669" d="M172.579,83.152c-1.206-0.768,2.168-7.834,4.554-6.563
		C179.516,77.86,174.153,84.154,172.579,83.152z"/>
	<path fill="#BCBEC0" stroke="#FFFFFF" stroke-width="0.5669" d="M163.344,103.033c0.268-2.104,4.113-0.214,6.139-0.429
		s3.393-0.286,3.746,1.359c0.353,1.645-3.103,2.788-4.915,2.431C166.502,106.036,163.189,104.249,163.344,103.033z"/>
	<path fill="#BCBEC0" stroke="#FFFFFF" stroke-width="0.5669" d="M184.056,107.18c-1.279,1.207-3.466-1.94-4.539-2.937
		s1.151-3.676,3.437-2.729C185.237,102.46,184.66,106.609,184.056,107.18z"/>
	<path fill="#BCBEC0" stroke="#FFFFFF" stroke-width="0.5669" d="M180.424,131.995c-1.324-0.715,1.096-1.932,1.811-3.218
		c0.714-1.287,0.506-3.432,2.362-3.36s1.705,3.074,1.603,4.719C186.096,131.78,181.615,132.638,180.424,131.995z"/>
	<path fill="#BCBEC0" stroke="#FFFFFF" stroke-width="0.5669" d="M177.315,129.257c0.919-2.538-5.753-3.912-6.461-2.339
		C170.148,128.49,176.831,130.595,177.315,129.257z"/>
	<path fill="#BCBEC0" stroke="#FFFFFF" stroke-width="0.5669" d="M166.434,128.812c-2.042,1.06-4.046-4.755-2.383-5.542
		C165.715,122.484,168.295,127.845,166.434,128.812z"/>
	<path fill="#BCBEC0" stroke="#FFFFFF" stroke-width="0.5669" d="M156.879,129.683c-1.397-0.429,0.192-1.393,0.402-3.617
		c0.209-2.224-0.435-4.798,1.282-5.299c1.717-0.5,2.695,2.875,2.564,5.299C160.996,128.49,158.198,130.087,156.879,129.683z"/>
	<path fill="#BCBEC0" stroke="#FFFFFF" stroke-width="0.5669" d="M181.447,140.416c-1.107,1.397-4.505-0.837-5.077-1.804
		c-0.572-0.967-2.787-3.112-1.752-4.114c1.037-1.001,3.038,1.835,4.256,2.062C180.088,136.786,182.195,139.473,181.447,140.416z"/>
	<path fill="#BCBEC0" stroke="#FFFFFF" stroke-width="0.5669" d="M165.82,135.427c-0.399-1.605-6.377-1.893-6.138,0.448
		C159.922,138.216,166.282,137.287,165.82,135.427z"/>
	<path fill="#BCBEC0" stroke="#FFFFFF" stroke-width="0.5669" d="M166.84,185.4c-1.12,0.204-1.644-4.015,0.337-4.137
		C169.16,181.142,168.475,185.102,166.84,185.4z"/>
	<path fill="#BCBEC0" stroke="#FFFFFF" stroke-width="0.5669" d="M159.521,188.066c-1.354,2.046-3.674-1.681-4.712-3.142
		c-1.037-1.461-4.319-3.847-2.636-5.319c1.685-1.472,3.344,1.107,5.094,3.17C159.017,184.838,160.457,186.653,159.521,188.066z"/>
	<path fill="#BCBEC0" stroke="#FFFFFF" stroke-width="0.5669" d="M164.002,184.357c-1.117,1.254-5.706-1.029-4.186-2.853
		C161.337,179.681,165.119,183.103,164.002,184.357z"/>
	<path fill="#BCBEC0" stroke="#FFFFFF" stroke-width="0.5669" d="M159.816,176.437c0.757-2.292-4.804-3.633-5.337-1.828
		C153.944,176.414,159.242,178.179,159.816,176.437z"/>
	<path fill="#BCBEC0" stroke="#FFFFFF" stroke-width="0.5669" d="M149.131,172.782c-1.72,0.624-4.986-5.91-2.837-6.511
		C148.442,165.668,150.85,172.159,149.131,172.782z"/>
	<path fill="#BCBEC0" stroke="#FFFFFF" stroke-width="0.5669" d="M145.95,199.557c-1.609,0.319-0.946-2.669-1.118-4.31
		s-0.948-5.079,0.558-5.337s1.868,2.618,2.375,4.618C148.271,196.529,147.153,199.319,145.95,199.557z"/>
	<path fill="#BCBEC0" stroke="#FFFFFF" stroke-width="0.5669" d="M153.775,199.061c-2.324,0.735-4.319-5.884-2.634-7.002
		S156.101,198.326,153.775,199.061z"/>
	<path fill="#BCBEC0" stroke="#FFFFFF" stroke-width="0.5669" d="M140.104,206.954c-1.203-1.141,0.799-5.844,2.678-4.266
		C144.66,204.266,141.308,208.094,140.104,206.954z"/>
	<path fill="#BCBEC0" stroke="#FFFFFF" stroke-width="0.5669" d="M134.774,207.343c0.776-1.537-5.243-3.79-6.104-2.23
		C127.812,206.673,133.915,209.045,134.774,207.343z"/>
	<path fill="#BCBEC0" stroke="#FFFFFF" stroke-width="0.5669" d="M145.585,186.209c-1.283,0.346-3.82-4.624-2.243-5.49
		C144.918,179.853,147.197,185.774,145.585,186.209z"/>
	<path fill="#BCBEC0" stroke="#FFFFFF" stroke-width="0.5669" d="M135.376,177.152c-1.375-0.05-1.395-5.275,0.635-4.898
		C138.041,172.631,136.752,177.202,135.376,177.152z"/>
	<path fill="#BCBEC0" stroke="#FFFFFF" stroke-width="0.5669" d="M124.889,183.334c-1.324-0.364-2.119-8.329,0.918-7.539
		S126.608,183.807,124.889,183.334z"/>
	<path fill="#BCBEC0" stroke="#FFFFFF" stroke-width="0.5669" d="M122.826,189.536c-1.862,0.87-3.353-2.543-3.353-4.136
		c0-1.593-0.945-3.676,0.516-4.139s2.665,2.718,2.837,3.835C122.998,186.213,124.545,188.732,122.826,189.536z"/>
	<path fill="#BCBEC0" stroke="#FFFFFF" stroke-width="0.5669" d="M128.069,210.971c-1.066,1.261-3.009-1.092-3.438-3.039
		c-0.43-1.947-1.805-5.361,0-5.245c1.806,0.117,1.72,2.742,1.978,4.266S129.016,209.854,128.069,210.971z"/>
	<path fill="#A7A9AC" stroke="#000000" stroke-width="0.4252" d="M156.31,65.31c-0.02-2.354,3.43-3.999,6.836-4.234
		c3.408-0.236,6.931,0.067,7.178,2.648c0.245,2.581-3.31,2.261-6.272,2.7C161.089,66.862,156.326,67.104,156.31,65.31z"/>
	<path fill="#BCBEC0" stroke="#FFFFFF" stroke-width="0.5669" d="M14.353,108.046c-2.31-1.732,2.387-5.922,4.215-4.986
		C20.396,103.995,15.758,109.1,14.353,108.046z"/>
	<path fill="#BCBEC0" stroke="#FFFFFF" stroke-width="0.5669" d="M159.511,105.949c2.128,0.289,1.345,2.437,1.115,4.892
		s0.868,4.46-1.115,4.835s-2.821-2.295-2.632-4.863S157.821,105.72,159.511,105.949z"/>
	<path fill="#BCBEC0" stroke="#FFFFFF" stroke-width="0.5669" d="M41.505,106.918c2.401-1.496,4.763,5.569,3.057,6.375
		S39.581,108.116,41.505,106.918z"/>
</g>
<g property="ro:has_part" resource="cl:0000319" id="mucous_cell">
	<path fill="#E6E7E8" stroke="#000000" stroke-width="0.4252" d="M174.947,180.167c-2.419,2.062-8.71,0.19-9.857-3.515
		c-1.146-3.706-2.177-8.175-4.928-7.258c-2.751,0.917-6.533-0.917-5.158-3.325c1.376-2.407-0.916-3.896-4.584-3.552
		c-3.668,0.344-8.368-5.217-6.305-7.938s5.731-6.618,7.106-9.254c1.376-2.637,0.643-4.111,3.244-5.551s16.813-1.654,20.481,0
		s9.32,1.081,11.252,5.666c0.305,0.724-0.499,1.999-0.348,2.73c0.062,0.296,2.147,0.754,1.875,2.25c-0.5,2.75-4.21,1.83-4.188,2.812
		c0.029,1.242,4.062-0.562,3.625,1.812c-0.084,0.455-2.713-0.215-5.508,0.109c-3.367,0.391-6.228-1.37-6.305,0.016
		c-0.062,1.125,9.625,0.75,9.25,3.688c-0.094,0.735-6.235-0.953-6.438-0.312c-0.375,1.188,6.875,2.125,6.375,3.625
		c-1.076,3.229-10.382-0.286-10,1.75c0.188,1,10.312,0.188,9.625,2.625c-0.15,0.533-2.2,0.204-3.812,1.5
		c-3.188,2.562-6.442-0.063-6.688,0.625c-0.415,1.166,7.635,3.547,7,4.562c-1.25,2-7.146-1.267-6.875-0.438
		c0.938,2.875,6.875,1.5,4.812,4.375c-1.238,1.727-4.875-1.147-4.875-0.125C173.727,177.606,176.852,178.544,174.947,180.167z"/>
	<path fill="#E6E7E8" stroke="#000000" stroke-width="0.4252" d="M28.811,176.652c-1.609-0.307-3.387-0.891-3.997-2.46
		c-3.213-8.273,4.119-4.117,4.287-5.148c1-6.125-5.125,0.625-6.25-0.75c-4.387-5.362,6.25-4.875,5.375-7.375
		c-0.257-0.733-8.887,3.232-9.375,2.5c-1.5-2.25,2.78-3.607,4.875-5.75c2.263-2.314,5.25-0.5,5.25-2.75
		c0-0.349-3.375-1.125-7.625,3.625c-1.968,2.2-4.875-0.138-4.875-1c0-1.009,7.166-3.468,6.75-4.375
		c-0.317-0.69-5.874,1.494-6.571,1.282c-3.804-1.157,9.137-6.318,8.696-6.532c-1.899-0.921-11.5,6.5-11.375,1.625
		c0.052-2.019,7.125-3,7.875-4.375c1.221-2.238-8.763,3.567-9.125,1.5c-0.488-2.783-0.598-6.424,1.299-6.503
		c2.751-0.114,12.265,0.688,12.608-1.49s-1.49-4.699,0.688-5.158s3.553,2.293,5.96,1.032c2.407-1.261-1.357-5.273,1.442-5.044
		c2.799,0.23,3.601,4.7,5.664,4.356c2.063-0.344,5.846-2.521,7.909-0.688s2.177,7.106,4.126,10.201
		c1.949,3.095,6.113,8.135,4.203,11.632c-1.91,3.497-8.558,12.323-12.914,15.303C39.356,173.291,30.158,176.909,28.811,176.652z"/>
	<path fill="#BCBEC0" stroke="#FFFFFF" stroke-width="0.5669" d="M28.449,174.004c-0.717-0.797,3.663-5.073,4.581-3.815
		C33.949,171.445,29.45,175.116,28.449,174.004z"/>
	<path fill="#BCBEC0" stroke="#FFFFFF" stroke-width="0.5669" d="M31.229,167.394c-1.001-1.43,2.431-5.005,3.79-3.718
		C36.378,164.962,32.229,168.825,31.229,167.394z"/>
	<path fill="#BCBEC0" stroke="#FFFFFF" stroke-width="0.5669" d="M33.24,161.551c-1.114-0.136-0.777-2.384,0-3.55
		c0.777-1.166,1.148-2.526,2.104-2.235s0.599,1.518,0,2.873C34.746,159.993,34.066,161.651,33.24,161.551z"/>
	<path fill="#BCBEC0" stroke="#FFFFFF" stroke-width="0.5669" d="M30.92,160.241c-0.422,0.358-2.206,0.212-2.689-0.801
		c-0.483-1.013-0.073-2.302,0.89-2.02c0.962,0.282,1.68-1.73,2.288-1.288c0.608,0.442,0.176,1.771-0.152,2.294
		C30.929,158.95,31.678,159.598,30.92,160.241z"/>
	<path fill="#BCBEC0" stroke="#FFFFFF" stroke-width="0.5669" d="M39.139,159.883c-2.051-0.724,0.288-4.001,1.574-5.076
		c1.287-1.074,2.503-3.337,3.504-2.707c1,0.631-0.429,3.707-1.145,5.208C42.357,158.811,40.354,160.312,39.139,159.883z"/>
	<path fill="#BCBEC0" stroke="#FFFFFF" stroke-width="0.5669" d="M38.951,165.124c-0.609-1.187,1.602-2.448,3.581-3.005
		c1.979-0.558,4.332-0.76,4.205,0.738c-0.127,1.498-1.84,1.741-3.143,2.06C42.292,165.234,39.565,166.323,38.951,165.124z"/>
	<path fill="#BCBEC0" stroke="#FFFFFF" stroke-width="0.5669" d="M49.292,156.352c-1.779,0.223-2.53-2.431-2.016-3.933
		c0.515-1.501,2.23-4.434,2.731-4.219s0.443,3.29,1.08,4.648C51.724,154.207,51.009,156.137,49.292,156.352z"/>
	<path fill="#BCBEC0" stroke="#FFFFFF" stroke-width="0.5669" d="M46.555,146.777c0.389-1.304-3.146-1.145-4.434-2.002
		c-1.288-0.858-2.621-1.502-3.563,0c-0.943,1.501,0.202,3.79,2.275,4.505S46.341,147.493,46.555,146.777z"/>
	<path fill="#BCBEC0" stroke="#FFFFFF" stroke-width="0.5669" d="M27.544,144.532c-1.511-0.556,1.265-7.779,3.774-6.85
		c2.509,0.93-2.619,7.549-4.203,6.85"/>
	<path fill="#BCBEC0" stroke="#FFFFFF" stroke-width="0.5669" d="M24.21,145.464c-0.648,0.114-1.244-1.086-1.146-1.937
		c0.099-0.851,1.014-2.029,1.669-1.898c0.654,0.131,0.851,1.375,0.851,2.062C25.584,144.378,24.734,145.371,24.21,145.464z"/>
	<path fill="#BCBEC0" stroke="#FFFFFF" stroke-width="0.5669" d="M24.429,152.052c-0.213-1.502,4.959-3.791,5.698-2.503
		c0.739,1.287-4.853,5.076-5.704,2.86"/>
	<path fill="#BCBEC0" stroke="#FFFFFF" stroke-width="0.5669" d="M32.098,146.313c-1.108-1.704,3.249-4.851,4.182-4.064
		C37.211,143.035,33.206,148.018,32.098,146.313z"/>
	<path fill="#BCBEC0" stroke="#FFFFFF" stroke-width="0.5669" d="M34.946,140.563c-2.05-1.197,1.833-5.843,3.706-5.025
		C40.524,136.355,36.519,141.481,34.946,140.563z"/>
	<path fill="#BCBEC0" stroke="#FFFFFF" stroke-width="0.5669" d="M34.249,168.311c0.279-1.616,4.994-0.468,5.053,1.387
		C39.361,171.552,33.969,169.926,34.249,168.311z"/>
	<path fill="#BCBEC0" stroke="#FFFFFF" stroke-width="0.5669" d="M34.303,153.962c-0.841,0.148-1.613-1.408-1.485-2.51
		c0.127-1.103,1.314-2.63,2.163-2.46s1.104,1.782,1.104,2.673C36.084,152.555,34.982,153.842,34.303,153.962z"/>
	<path fill="#BCBEC0" stroke="#FFFFFF" stroke-width="0.5669" d="M179.614,152.74c-1.877,0.991-3.907-1.119-4.561-2.562
		c-0.655-1.442-3.059-3.087-1.893-4.088c1.166-1.001,4.068,0.787,5.191,2.217S180.967,152.025,179.614,152.74z"/>
	<path fill="#BCBEC0" stroke="#FFFFFF" stroke-width="0.5669" d="M182.729,150.225c-2.081,0.172-2.589-6.794-0.442-6.58
		C184.431,143.861,184.459,150.082,182.729,150.225z"/>
	<path fill="#BCBEC0" stroke="#FFFFFF" stroke-width="0.5669" d="M171.943,159.907c1.649,0.518,0.495,2.496,0.393,3.795
		s0.124,4.164-1.274,4.334c-1.396,0.168-2.327-2.422-2.051-4.289C169.289,161.88,170.295,159.39,171.943,159.907z"/>
	<path fill="#BCBEC0" stroke="#FFFFFF" stroke-width="0.5669" d="M172.999,172.935c1.319-1.282-1.022-4.728-2.693-3.676
		C168.636,170.31,171.851,174.049,172.999,172.935z"/>
	<path fill="#BCBEC0" stroke="#FFFFFF" stroke-width="0.5669" d="M162.724,149.572c-0.419-1.757,1.461-1.369,2.962-2.365
		c1.502-0.996,3.648-1.793,4.649,0c1,1.793-1.419,3.663-2.854,3.979C166.044,151.503,162.979,150.645,162.724,149.572z"/>
	<path fill="#BCBEC0" stroke="#FFFFFF" stroke-width="0.5669" d="M166.472,160.69c0.004,1.952-9.39,0.428-8.998-1.343
		C157.864,157.577,166.464,157.222,166.472,160.69z"/>
	<path fill="#BCBEC0" stroke="#FFFFFF" stroke-width="0.5669" d="M150.599,158.685c-1.695-0.294-2.194-8.784,0.668-8.434
		C154.129,150.602,153.18,159.132,150.599,158.685z"/>
	<path fill="#BCBEC0" stroke="#FFFFFF" stroke-width="0.5669" d="M157.874,153.124c-2.042-0.469-1.649-1.83-1.513-2.884
		c0.138-1.054-0.512-4.115,0.973-4.088c1.485,0.026,2.259,2.563,2.345,4.088C159.766,151.766,159.166,153.421,157.874,153.124z"/>
	<path fill="#BCBEC0" stroke="#FFFFFF" stroke-width="0.5669" d="M164.896,145.061c1.128-1.229-2.761-6.198-4.385-4.358
		C158.89,142.542,163.768,146.291,164.896,145.061z"/>
	<path fill="#BCBEC0" stroke="#FFFFFF" stroke-width="0.5669" d="M178.836,144.433c-1.87,1.838-4.758-2.396-4.24-2.989
		C175.111,140.851,180.497,142.799,178.836,144.433z"/>
	<path fill="#BCBEC0" stroke="#FFFFFF" stroke-width="0.5669" d="M170.719,177.659c-2.181,1.124-6.881-7.644-5.256-8.989
		C167.086,167.325,172.898,176.536,170.719,177.659z"/>
	<path fill="#BCBEC0" stroke="#FFFFFF" stroke-width="0.5669" d="M157.12,168.204c2.032,0.444,3.878-3.903,1.85-4.82
		C156.942,162.467,155.354,167.816,157.12,168.204z"/>
	<path fill="#BCBEC0" stroke="#FFFFFF" stroke-width="0.5669" d="M166.448,165.03c0.718-2.195-3.962-1.987-5.211,0.424
		C159.99,167.861,165.823,166.939,166.448,165.03z"/>
	<path fill="#A7A9AC" stroke="#000000" stroke-width="0.4252" d="M160.856,155.129c-0.518-1.776,3.331-2.421,5.352-2.769
		c2.019-0.347,6.491-1.231,7.257,0.497c0.764,1.729-2.419,4.474-5.048,4.728C165.79,157.839,161.51,157.375,160.856,155.129z"/>
	<path fill="#BCBEC0" stroke="#FFFFFF" stroke-width="0.5669" d="M176.756,161.163c1.297-1.027-1.005-3.786-2.646-2.944
		C172.47,159.061,175.627,162.055,176.756,161.163z"/>
	<path fill="#BCBEC0" stroke="#FFFFFF" stroke-width="0.5669" d="M171.506,144.538c1.297-1.027-1.005-3.786-2.646-2.944
		C167.22,142.436,170.377,145.43,171.506,144.538z"/>
</g>
</svg>
