<?xml version="1.0" encoding="utf-8"?>
<!--
 Semantic Body Illustrations - v1.0.0 - 2014-08-22
 http://sbb.cellfinder.org
-->
<!DOCTYPE svg PUBLIC "-//W3C//DTD SVG 1.1//EN" "http://www.w3.org/Graphics/SVG/1.1/DTD/svg11.dtd">
<svg version="1.1" id="hepatic_acinus" xmlns="http://www.w3.org/2000/svg" xmlns:xlink="http://www.w3.org/1999/xlink"
	 x="0px" y="0px" width="281.688px" height="112.668px" viewBox="0 0 281.688 112.668" enable-background="new 0 0 281.688 112.668" xml:space="preserve"
	 prefix="uberon: http://purl.obolibrary.org/obo/UBERON_ ro: http://www.obofoundry.org/ro/ro.owl# go: http://purl.org/obo/owl/GO#GO_ fma: http://purl.org/obo/owl/FMA#FMA_ cl: http://purl.org/obo/owl/CL# celda: http://ontology.cellfinder.org/CELDA.owl#CELDA_ ncbitaxon: http://purl.obolibrary.org/obo/NCBITaxon_ biotop: http://purl.org/biotop/biotop.owl#"
	 about="fma:14654"
	 typeof="ncbitaxon:9606">
<title>Human Adult Hepatic Acinus</title>
<desc>Copyright (C) Frevert et al. Edited by Lekschas et al. Licensed under Creative Commons BY-SA 4.0</desc>
<desc>Homepage: http://sbb.cellfinder.org</desc>
<desc>Repository: https://github.com/flekschas/sbi</desc>
<g property="ro:has_part" resource="fma:63162" id="disse_space">
	<path fill="#FFFFFF" d="M56.601,53.459c0.251,0.148,0.277,0.704,0.105,1.179c0.071,0.009,0.146,0.018,0.217,0.025
		c-0.022-0.25,0.107-0.54,0.487-0.876c0.961-0.853,3.574-0.652,4.729-0.519c1.804,0.207,3.302,0.926,5.125,1.102
		c2.599,0.25,5.235-0.368,7.833,0.338c4.726,1.284,15.175,2.353,15.416,2.353c0.697-0.002,1.417,0.055,1.687,0.789
		c0.062,0.166,0.091,0.354,0.103,0.543c0.129,0.004,0.256,0.004,0.385,0.008c-0.105-0.268-0.081-0.565,0.165-0.864
		c0.229-0.28,0.514-0.438,0.825-0.53c1.161,0.01,2.318-0.007,3.485-0.115c1.997-0.188,3.999-0.673,5.998-0.77
		c1.78-0.085,3.519,0.074,5.256-0.085c1.471-0.134,3.055-0.231,4.496-0.248c2.269-0.026,4.577-0.489,6.833-0.167l1.333,0.167
		c0.41-0.062,0.964,0.159,1.151,0.585c0.086-0.006,0.172-0.014,0.258-0.021c0.501-0.683,1.891-1.206,2.344-1.398
		c0.809-0.345,1.847-0.458,2.754-0.5c0.853-0.039,1.776-0.188,2.684-0.079c0.903,0.107,1.505,0.336,2.502,0.229
		c1.159-0.125,2.319-0.424,3.458-0.646c1.991-0.388,3.891-0.606,5.934-0.769c2.312-0.184,4.49-0.676,6.816-0.812
		c3.081-0.178,6.075-0.498,9.104-0.671c0.258-0.016,0.484-0.066,0.75-0.083l1.58-0.169c0.769-0.115,1.315,0.415,1.273,1.102
		c-0.006,0.099-0.028,0.188-0.056,0.277c0.11-0.011,0.22-0.021,0.329-0.031c-0.035-0.098-0.058-0.209-0.048-0.349
		c0.045-0.668,0.925-0.896,1.48-1.082c1.584-0.531,3.833-0.386,5.521-0.483c2.869-0.166,5.781-0.16,8.646-0.451
		c1.311-0.133,4.162-0.416,4.633-0.293c0.272,0.07,0.534,0.322,0.604,0.625c0.064-0.007,0.125-0.014,0.188-0.02
		c-0.021-0.376,0.146-0.762,0.384-0.926c0.512-0.151,1.021-0.307,1.543-0.436c4.23-1.059,8.552-1.658,12.916-1.851
		c1.992-0.087,4.5-1.163,6.248-2.083c0.97-0.51,2.49-1.645,3.053-1.706c0.228-0.025,0.499-0.063,0.747-0.038
		c0.056-0.052,0.105-0.105,0.159-0.159c-0.01-0.019-0.021-0.032-0.03-0.053c-0.24-0.543,0.354-1.147,0.71-1.625
		c0.497-0.659,0.734-1.421,1.226-2.099c0.569-0.785,0.91-1.729,1.223-2.62l0.352-1.878c0.131-0.466,0.232-0.892,0.402-1.354
		c0.256-0.697,0.467-1.401,0.777-2.094c0.282-0.638,0.409-1.632,1.088-2.02c0.211-0.12,0.382-0.167,0.52-0.158
		c0.015-0.058,0.027-0.117,0.041-0.175c-0.215-0.233-0.375-0.346-0.339-0.751c0.032-0.368,0.178-0.713,0.219-1.092
		c0.102-0.924,0.223-1.928,0.307-2.839c0,0-0.205-2.146-0.492-2.884c-0.283-0.727-0.558-1.555-1.03-2.185
		c-0.392-0.522-1.078-1.134-0.737-1.778c0.16-0.303,0.138,1.909-0.598,2.471c-0.734,0.562-2.616,0.747-2.616,0.747
		c1.047,0.074,1.902,0.314,2.374,0.802c1.357,1.409-0.63,9.902-1.899,11.237c-0.141,0.147-0.384,0.305-0.688,0.463
		c0.112,0.053,0.215,0.109,0.28,0.18c1.695,1.703-2.353,7.432-4.354,8.6c-2.003,1.168-5.19,2.773-6.134,1.467
		c-0.223-0.309-0.414-0.936-0.574-1.712c-0.055,1.11-0.219,2.026-0.542,2.405c-1.077,1.265-6.426,2.008-8.149-0.162
		c-0.038-0.047-0.083-0.099-0.123-0.147c0.105,0.292,0.15,0.565,0.102,0.804c-0.324,1.539-11.951,3.489-13.771,1.896
		c-0.059-0.052-0.099-0.109-0.146-0.164c-0.444,0.576-0.856,0.98-1.223,1.062c-0.545,0.123-3.858,0.957-5.166-0.025
		c-0.32-0.242-0.693-0.855-1.067-1.662c-0.045,0.752-0.239,1.35-0.632,1.688c-2.113,1.821-16.072,2.967-17.241,1.221
		c-0.26-0.387-0.468-1.16-0.625-2.123c-0.168,1.348-0.549,2.398-1.21,2.762c-2.424,1.327-11.638,2.417-13.404,1.059
		c-1.021-0.785-0.774-2.553-0.134-4.521c-1.375,2.895-0.406,4.761-2.153,5.019c-2.504,0.371-8.382,1.75-10.069,0.125
		c-0.342-0.328-0.64-1.959-0.814-3.979c-0.004,2.071-0.195,3.789-0.623,4.231c-1.403,1.446-13.899,2.256-14.762,1.254
		c-0.221-0.256-0.362-1.229-0.437-2.54c-0.371,1.567-0.993,2.77-1.948,3.104c-3.21,1.124-4.314-3.633-7.836-6.136l-0.035,0.002
		c2.243,1.77,4.298,4.491,3.781,5.832c-0.834,2.167-11.5,2.167-12.167-0.333c-0.406-1.522,0.766-3.719,2.118-5.278l-0.814,0.029
		c-0.244,0.893-1.185,1.996-1.384,3.029c-0.248,1.287-0.437,3.783-1.194,3.83c-0.759,0.049-10.647-0.719-10.79-2.672
		c-0.039-0.525-0.021-1.472,0.039-2.576c-0.345,1.289-0.855,2.264-1.484,2.439c-2.113,0.594-9.967,0.417-10.635-1.309
		c-0.142-0.365-0.231-1.025-0.271-1.834l-0.024,0.002c-0.314,1.205-0.764,2.076-1.34,2.218c-1.895,0.467-6.59,0.963-8.667-0.293
		c0,0,0.546,0.753,0.539,1.232c-0.006,0.479-0.753,0.648-0.753,0.648c0.149,0.05,0.303,0.096,0.463,0.135
		C54.604,52.744,56.163,53.201,56.601,53.459z"/>
	<path fill="#FFFFFF" d="M98.495,70.473c-0.605-0.307-1.357-0.207-1.98-0.369c-0.581-0.149-1.164-0.498-1.77-0.625
		c-1.27-0.266-2.818,0.508-3.812-0.604c-0.174-0.195-0.277-0.361-0.328-0.508l-0.152-0.014c0.111,0.321,0.03,0.612-0.456,0.85H88.58
		c-3.387,0-6.98-0.295-10.167-0.582c-2.125-0.191-4.191-0.182-6.312-0.168c-1.569,0.01-3.316,0.049-4.918-0.102
		c-1.613-0.152-3.053-0.271-4.745-0.187c-0.115,0.006-0.234,0.019-0.351,0.024c0,0,2.601,1.478,2.157,2.795
		c1.155-0.745,8.132-0.856,9.529-0.159c0.625,0.312,1.162,1.803,1.489,3.528c0.002-1.627,0.167-2.989,0.55-3.155
		c0.979-0.421,9.598-0.824,11.127,0.309c0.263,0.195,0.477,0.593,0.645,1.101c0.111-0.48,0.439-0.848,1.248-1.105
		c2.128-0.68,7.604-0.066,8.995,0.453c1.738,0.648-1.033,5.059-1.773,6.014c-0.741,0.955-3.352,1.037-5.808,1.037
		c-1.484,0-2.205-0.385-2.498-1.135c-0.138,0.554-0.333,1.013-0.597,1.289c-1.262,1.324-9.928,1.725-10.907,1.209
		c-0.274-0.146-0.505-0.912-0.675-1.934c-0.066,1.062-0.28,1.891-0.699,2.147c-1.497,0.924-8.165,1.61-9.679,0.692
		c-0.121-0.072,0.179,0.705,0.12,1.141c-0.06,0.436-0.479,0.525-0.479,0.525c0.058,0.05,0.101,0.109,0.161,0.156
		c0.364,0.273,0.814,0.443,1.254,0.553c0.559,0.14,1.007-0.063,1.521,0.197c0.172,0.086,0.3,0.183,0.394,0.281l0.372-0.037
		c0.611-0.736,3.03-0.852,3.488-0.891c1.74-0.154,3.543-0.281,5.288-0.498c2.494-0.312,5.042-0.352,7.521-0.668
		c1.104-0.141,2.186-0.52,3.25-0.729c0.994-0.199,1.991-0.181,3-0.354l2.083-0.252c0.381-0.035,0.738,0.094,0.929,0.338
		c0.227-0.06,0.446-0.119,0.661-0.181c0.204-0.182,0.451-0.325,0.639-0.426c1.266-0.682,2.276-1.494,3.169-2.646
		c0.957-1.238,1.68-2.438,1.685-4.084C100.249,72.516,99.611,71.035,98.495,70.473z"/>
	<path fill="#FFFFFF" d="M217.653,80.582c-0.053-1.066-0.093-2.143-0.414-3.125c-0.201-0.613-0.545-1.176-0.92-1.697
		c-0.317-0.438-0.992-0.885-1.207-1.354c-0.174-0.383-0.023-0.74,0.25-0.965c-0.021-0.021-0.042-0.045-0.062-0.068
		c-0.717,0.463-1.697-0.396-2.205-0.928c-1.396-1.457-2.987-1.971-4.919-2.486c-1.167-0.312-2.855-0.666-4.085-0.605
		c-0.973,0.049-3.113,0.006-3.764-0.881l0,0c-0.113,0.006-0.234,0.014-0.35,0.021c0.002,0.055,0.005,0.107-0.003,0.17
		c-0.03,0.246-0.134,0.383-0.271,0.475c-0.767,0.014-1.528,0.07-2.289,0.209c-2.856,0.521-5.705,0.637-8.566,1.004
		c-3.062,0.394-6.186,0.256-9.268,0.437c-3.008,0.176-6.021,0.711-9.002,1.101c-3.312,0.434-6.615,0.463-9.815,1.146
		c-1.273,0.271-2.672,0.196-3.952,0.317c-1.366,0.131-2.565,0.318-3.897,0.601c-0.921,0.192-7.038,1.754-7.642,0.021
		c0.002,0.207-0.11,0.434-0.413,0.672c-0.592,0.461-2.113,0.137-2.822,0.211c-1.271,0.129-2.512,0.475-3.784,0.604
		c-0.774,0.08-4.071,0.35-4.985,0.482c-1.706,0.246-3.292,0.926-4.998,1.328c-2.204,0.521-4.175,0.797-6.167,2.026
		c-1.733,1.072-3.679,2.359-5.039,3.826c-2.247,2.418-4.729,5.021-7.648,6.504c-0.623,0.315-1.235,0.582-1.84,0.863
		c-0.211,0.008-0.439,0.051-0.602,0.014c-0.251-0.055-0.547-0.231-0.762-0.437c-0.135,0.064-0.275,0.125-0.416,0.188
		c0.105,0.361,0.059,0.781-0.169,1.14c-0.044,0.067-0.112,0.131-0.188,0.19c-1.057,0.438-1.627,0.521-2.833,0.744
		c-0.925,0.17-3.016,0.639-3.958,0.729c-0.94,0.092-5.727,0.615-7.532,0.75c-3.266,0.244-6.462,0.896-9.701,1.062
		c-1.398,0.072-2.793,0.174-4.167,0.314c-1.326,0.133-3.939-0.117-5.243-0.242c-0.564-0.055-2.062,0.133-2.086-0.695l-0.043,0.008
		c-0.172,0.557-0.926,0.961-1.544,1.033c-1.072,0.121-2.133-0.021-3.201,0.252c-1.138,0.293-2,1.049-2.989,1.621
		c-0.398,0.23-0.802,0.432-1.213,0.617c0,0,1.011,0.389,1.261,0.764s-0.266,2.178-0.266,2.178c0.307-0.922,0.854-1.654,1.76-2.027
		c3.405-1.399,9.481-1.84,11.367-0.61c0.473,0.308,0.645,0.89,0.69,1.594l0.417-0.032c0.264-0.722,0.628-1.254,1.116-1.449
		c2.187-0.877,8.749-1.656,9.887-0.697c0.25,0.211,0.473,0.664,0.657,1.266l0.134-0.01c0.155-0.635,0.556-1.203,1.432-1.695
		c3.124-1.754,7.292-1.809,9.305-0.873c0.556,0.258,0.95,0.752,1.244,1.383c0.198-0.959,0.739-1.696,1.808-1.989
		c4.461-1.226,6.75-3.445,9.079-3.511c0.602-0.018,1.238,0.576,1.849,1.423c-0.198-0.974-0.219-1.802,0.042-2.322
		c1.139-2.269,4.226-4.963,6.047-3.229c0.984,0.935,2.363,1.818,3.845,2.504l0.043-0.018c-1.584-0.709-2.914-1.725-3.341-2.744
		c-1.022-2.453,1.178-4.473,3.909-5.893c2.732-1.42,5.214-2.391,6.971-1.525c1.067,0.525,1.39,2.834,1.101,5.189
		c0.496-1.723,0.811-3.406,0.738-4.424c-0.175-2.453,2.551-3.607,5.835-2.619c0.886,0.268,1.163,1.414,1.19,2.887
		c0.294-1.436,0.793-2.527,1.606-2.895c2.906-1.312,6.84-1.146,9.205-0.398c1.106,0.35,1.775,1.174,2.205,2.244
		c0.211-1.404,0.663-2.461,1.365-2.838c2.889-1.547,8.227-2.402,10.938-1.492c0.647,0.217,1.289,1.184,1.86,2.523
		c0.061-1.15,0.259-2.08,0.65-2.564c1.708-2.109,11.687-3.383,13.961-2.209c0.607,0.312,1.203,1.371,1.724,2.791
		c-0.068-1.535,0.045-2.652,0.457-2.844c1.475-0.684,7.684-1.521,8.957,1.104c0.762,1.57,2.802,3.08,4.696,4.189l0.054,0.004
		c-2.235-1.324-4.515-3.535-4.605-4.824c-0.146-2.064,5.615-2.141,7.97-2.293c2.355-0.152,5.917-0.002,7.057,0.986
		c1.545,1.338-2.768,4.973-5.515,6.52l0.188,0.014c0.782-0.653,1.958-0.762,3.228-1.887c2.072-1.834,3.562-4.326,4.838-4.504
		c2.306-0.316,5.952,6.4,5.863,8.703c-0.026,0.711-0.818,1.641-1.99,2.598c0,0,1.746-0.492,2.307-0.18
		c0.56,0.312,0.829,1.98,0.829,1.98c0.035-0.729,0.604-1.496,0.779-2.168C217.948,82.805,217.708,81.65,217.653,80.582z"/>
</g>
<path property="ro:has_part" resource="fma:17543" id="hepatic_sinusoid" fill="#BCBEC0" d="M66.651,84.375c3.066,0.438,11.243-0.264,19.274-1.725
	c8.032-1.461,12.561-1.898,14.75-5.695c2.19-3.797,0.73-6.717-3.797-7.74c-4.526-1.023-7.01-1.021-20.007-1.605
	s-21.826-1.748-23.871,0.884c0,0,0.36-4.897,0.36-7.62s-1.715-7.891-1.715-7.891c1.892,1.227,4.539,1.832,9.015,1.923
	c7.156,0.146,25.265,4.381,38.116,3.36c12.851-1.021,29.937-2.338,48.63-4.091s36.511-3.359,46.587-4.673
	c10.075-1.314,15.479-5.55,17.671-11.391c0,0-0.731,11.433,0.332,18.808c1.064,7.375,4.363,17.517,4.363,17.517
	c-5.567-6.41-8.199-6.826-23.096-5.365c-14.896,1.463-30.375,2.631-42.061,3.943c-11.684,1.313-24.681,1.898-32.713,7.887
	c-8.032,5.985-9.346,10.076-21.76,11.684s-24.532,0.875-29.79,1.314c0,0,0.746-3.221,0.746-4.75
	C67.688,87.615,66.651,84.375,66.651,84.375z"/>
<g property="ro:has_part" resource="fma:15754" id="portal_triad">
	<path property="ro:has_part" resource="fma:9706" id="hepatic_bile_duct" fill="#F2F2F2" d="M60.928,36.493c-1.906-0.348-3.461-0.503-4.938-0.239
		c-4.089,0.73-9.346,1.606-11.099-5.403c-1.753-7.009,4.089-13.435,10.66-13.874c6.572-0.439,7.303,3.067,8.324,6.718
		c0.565,2.022,1.714,4.312,3.271,6.003c0,0-0.247,2.564-1.338,3.72C64.718,34.574,60.928,36.493,60.928,36.493z"/>
	<g property="ro:has_part" resource="fma:86481" id="cholangiocyte">
		<path fill="#C7C8CA" stroke="#000000" stroke-width="0.4252" d="M65.415,28.764c0.603,0.097,2.676-0.598,2.653-1.183
			c-0.021-0.585-0.401-4.762-0.81-4.916c-0.405-0.154-3.643,0.876-3.828,1.36C63.244,24.512,64.584,28.629,65.415,28.764z"/>
		<path fill="#C7C8CA" stroke="#000000" stroke-width="0.4252" d="M63.89,17.601c-0.609-0.024-2.504,2.205-2.411,2.783
			c0.091,0.579,1.683,3.14,2.104,3.244s3.356-0.9,3.483-1.403C67.193,21.72,64.732,17.635,63.89,17.601z"/>
		<path fill="#C7C8CA" stroke="#000000" stroke-width="0.4252" d="M58.627,14.51c-0.547,0.269-1.148,3.133-0.793,3.596
			c0.357,0.465,2.979,1.957,3.397,1.847c0.421-0.111,2.521-2.392,2.392-2.896C63.494,16.554,59.382,14.138,58.627,14.51z"/>
		<path fill="#C7C8CA" stroke="#000000" stroke-width="0.4252" d="M52.526,14.303c-0.353,0.497,0.485,3.301,1.019,3.539
			c0.536,0.238,3.551,0.299,3.867,0.002c0.317-0.297,1.074-3.305,0.721-3.686C57.779,13.778,53.013,13.616,52.526,14.303z"/>
		<path fill="#C7C8CA" stroke="#000000" stroke-width="0.4252" d="M47.066,17.032c-0.073,0.604,1.999,2.67,2.583,2.623
			c0.584-0.045,3.263-1.429,3.399-1.841c0.137-0.413-0.633-3.418-1.125-3.584C51.432,14.065,47.165,16.196,47.066,17.032z"/>
		<path fill="#C7C8CA" stroke="#000000" stroke-width="0.4252" d="M43.567,22.035c0.225,0.565,3.032,1.392,3.522,1.073
			c0.491-0.318,2.186-2.813,2.109-3.24c-0.077-0.427-2.187-2.702-2.698-2.613C45.991,17.344,43.257,21.252,43.567,22.035z"/>
		<path fill="#C7C8CA" stroke="#000000" stroke-width="0.4252" d="M42.879,28.1c0.469,0.39,3.33-0.222,3.609-0.736
			c0.279-0.514,0.58-3.516,0.308-3.854c-0.271-0.339-3.21-1.331-3.616-1.01C42.771,22.821,42.233,27.56,42.879,28.1z"/>
		<path fill="#C7C8CA" stroke="#000000" stroke-width="0.4252" d="M45.168,33.759c0.598,0.12,2.82-1.783,2.82-2.369
			c0-0.585-1.167-3.366-1.567-3.535c-0.399-0.168-3.456,0.361-3.661,0.838C42.556,29.171,44.342,33.592,45.168,33.759z"/>
		<path fill="#C7C8CA" stroke="#000000" stroke-width="0.4252" d="M49.879,37.641c0.582-0.18,1.628-2.913,1.35-3.427
			c-0.278-0.516-2.631-2.401-3.063-2.358c-0.432,0.042-2.867,1.965-2.818,2.482C45.394,34.854,49.074,37.889,49.879,37.641z"/>
		<path fill="#C7C8CA" stroke="#000000" stroke-width="0.4252" d="M55.871,38.806c0.425-0.435,0.042-3.336-0.449-3.655
			c-0.491-0.32-3.458-0.855-3.817-0.612c-0.358,0.244-1.581,3.095-1.293,3.526C50.6,38.497,55.281,39.408,55.871,38.806z"/>
		<path fill="#C7C8CA" stroke="#000000" stroke-width="0.4252" d="M60.303,37.021c0.195-0.538,0.111-2.459-0.434-2.543
			c-0.546-0.084-3.538,0.325-3.753,0.673c-0.212,0.348-0.157,3.268,0.257,3.526C56.79,38.935,60.03,37.765,60.303,37.021z"/>
		<circle fill="#A7A9AC" stroke="#000000" stroke-width="0.4252" cx="65.656" cy="25.746" r="0.432"/>
		<circle fill="#A7A9AC" stroke="#000000" stroke-width="0.4252" cx="64.03" cy="20.857" r="0.433"/>
		<circle fill="#A7A9AC" stroke="#000000" stroke-width="0.4252" cx="60.302" cy="17.305" r="0.432"/>
		<circle fill="#A7A9AC" stroke="#000000" stroke-width="0.4252" cx="55.332" cy="15.96" r="0.433"/>
		<circle fill="#A7A9AC" stroke="#000000" stroke-width="0.4252" cx="50.323" cy="17.15" r="0.433"/>
		<circle fill="#A7A9AC" stroke="#000000" stroke-width="0.4252" cx="46.487" cy="20.585" r="0.433"/>
		<circle fill="#A7A9AC" stroke="#000000" stroke-width="0.4252" cx="44.754" cy="25.434" r="0.433"/>
		<circle fill="#A7A9AC" stroke="#000000" stroke-width="0.4252" cx="45.543" cy="30.521" r="0.432"/>
		<circle fill="#A7A9AC" stroke="#000000" stroke-width="0.4252" cx="48.664" cy="34.617" r="0.433"/>
		<circle fill="#A7A9AC" stroke="#000000" stroke-width="0.4252" cx="53.361" cy="36.727" r="0.433"/>
		<circle fill="#A7A9AC" stroke="#000000" stroke-width="0.4252" cx="58.931" cy="35.926" r="0.432"/>
	</g>
	<g property="ro:has_part" resource="fma:63877" id="fibroblast">
		<path fill="#808285" d="M13.213,39.047c0,0-2.633,5.676-0.768,8.724s0.05,7.933,0.05,7.933s3.187-6.471,1.705-9.983
			C12.72,42.209,13.213,39.047,13.213,39.047z"/>
		<path fill="#808285" d="M16.567,42.557c0,0-3.512,4.983-1.673,9.49c1.838,4.506,0.302,9.982,0.302,9.982s3.455-8.109,2.358-11.318
			S16.567,42.557,16.567,42.557z"/>
		<path fill="#808285" d="M15.588,68.355c0,0,0.987-4.854-0.822-7.483c-1.811-2.633,0-7.943,0-7.943s-3.204,6.614-1.657,10.405
			S15.588,68.355,15.588,68.355z"/>
		<path fill="#808285" d="M10.15,51.361c0,0-2.084,3.532,0,7.316c2.084,3.785-0.463,9.813-0.463,9.813s3.535-7.99,2.383-11.068
			C10.917,54.345,10.15,51.361,10.15,51.361z"/>
		<path fill="#808285" d="M8.394,63.436c0,0,2.633-5.676,0.768-8.724s-0.05-7.933-0.05-7.933s-3.187,6.47-1.705,9.983
			C8.887,60.273,8.394,63.436,8.394,63.436z"/>
		<path fill="#808285" d="M4.749,61.834c0,0,3.513-4.982,1.673-9.49c-1.837-4.506-0.302-9.982-0.302-9.982S2.665,50.471,3.762,53.68
			C4.859,56.889,4.749,61.834,4.749,61.834z"/>
		<path fill="#808285" d="M6.343,44.265c1.811,2.633,0,7.943,0,7.943S9.546,45.593,8,41.802C6.452,38.012,4.533,41.632,6.343,44.265
			z"/>
		<path fill="#808285" d="M11.136,52.749c0,0,2.084-3.532,0-7.316c-2.085-3.785,0.463-9.813,0.463-9.813s-3.535,7.99-2.384,11.068
			C10.368,49.766,11.136,52.749,11.136,52.749z"/>
		<path fill="#808285" d="M29.4,26.337c0,0-4.946,3.832-4.69,7.396s-3.6,7.069-3.6,7.069s5.802-4.284,6.101-8.084
			C27.51,28.918,29.4,26.337,29.4,26.337z"/>
		<path fill="#808285" d="M30.767,30.995c0,0-5.408,2.813-5.847,7.661c-0.438,4.846-4.317,9.005-4.317,9.005
			s6.794-5.615,7.294-8.969S30.767,30.995,30.767,30.995z"/>
		<path fill="#808285" d="M18.046,53.46c0,0,3.104-3.855,2.707-7.025s3.649-7.055,3.649-7.055s-5.885,4.403-6.251,8.48
			C17.783,51.938,18.046,53.46,18.046,53.46z"/>
		<path fill="#808285" d="M21.022,35.867c0,0-3.475,2.18-3.361,6.499c0.113,4.319-4.92,8.504-4.92,8.504s6.81-5.473,7.201-8.736
			C20.333,38.87,21.022,35.867,21.022,35.867z"/>
		<path fill="#808285" d="M13.915,45.786c0,0,4.946-3.832,4.689-7.396s3.6-7.07,3.6-7.07s-5.802,4.284-6.1,8.085
			C15.806,43.204,13.915,45.786,13.915,45.786z"/>
		<path fill="#808285" d="M23.607,20.789c0,0-3.105,3.855-2.707,7.026c0.397,3.17-3.649,7.055-3.649,7.055s5.884-4.403,6.252-8.481
			C23.87,22.311,23.607,20.789,23.607,20.789z"/>
		<path fill="#808285" d="M21.26,37.552c0,0,3.475-2.18,3.361-6.499c-0.113-4.32,4.92-8.504,4.92-8.504s-6.81,5.473-7.201,8.736
			C21.949,34.548,21.26,37.552,21.26,37.552z"/>
		<path fill="#808285" d="M14.242,64.085c0,0-1.317,6.117,1.173,8.679c2.491,2.563,1.796,7.729,1.796,7.729
			s1.683-7.015-0.536-10.114C14.457,67.279,14.242,64.085,14.242,64.085z"/>
		<path fill="#808285" d="M20.896,82.997c-2.645-1.794-2.89-7.397-2.89-7.397s-0.578,7.326,2.242,10.293
			C23.068,88.861,23.539,84.792,20.896,82.997z"/>
		<path fill="#808285" d="M14.919,76.832c0,0-1.254,3.904,1.612,7.137c2.867,3.232,3.397,1.102,1.596-1.646
			C16.325,79.574,14.919,76.832,14.919,76.832z"/>
		<path fill="#808285" d="M2.887,56.622c0,0-1.255,3.905,1.611,7.137c2.868,3.232,1.711,9.675,1.711,9.675s1.688-8.574-0.113-11.322
			C4.293,59.363,2.887,56.622,2.887,56.622z"/>
		<path fill="#808285" d="M14.914,88.938c0,0,1.318-6.117-1.173-8.679s-1.797-7.728-1.797-7.728s-1.681,7.014,0.538,10.113
			C14.699,85.745,14.914,88.938,14.914,88.938z"/>
		<path fill="#808285" d="M10.547,78.552c-2.784-3.989-2.493-9.671-2.493-9.671s-1.584,8.671,0.192,11.561
			C10.023,83.33,13.333,82.543,10.547,78.552z"/>
		<path fill="#808285" d="M7.981,62.109c0,0-0.521,4.924,1.531,7.373c2.052,2.449,0.754,7.908,0.754,7.908s2.561-6.893,0.66-10.52
			C9.026,63.248,7.981,62.109,7.981,62.109z"/>
		<path fill="#808285" d="M15.234,77.908c0,0,1.255-3.904-1.612-7.137s-1.71-9.674-1.71-9.674s-1.687,8.57,0.115,11.318
			C13.828,75.167,15.234,77.908,15.234,77.908z"/>
		<path fill="#808285" d="M6.062,80.005c0,0,2.328-5.635-0.458-9.625c-2.786-3.989-2.494-9.67-2.494-9.67s-1.583,8.671,0.193,11.56
			C5.08,75.157,6.062,80.005,6.062,80.005z"/>
		<path fill="#808285" d="M18.57,86.868c0,0,4.485,4.362,7.979,3.612c3.494-0.75,2.451-2.569-1.354-2.334
			C21.391,88.381,18.57,86.868,18.57,86.868z"/>
		<path fill="#808285" d="M22.404,84.438c0,0,4.303,4.318,9.059,3.285c4.755-1.033,9.886,1.424,9.886,1.424
			s-7.392-4.801-10.742-4.272C27.256,85.398,22.404,84.438,22.404,84.438z"/>
		<path fill="#808285" d="M44.019,89.951c0,0-4.608-1.809-7.514-0.481c-2.905,1.329-7.823-1.37-7.823-1.37s5.962,4.297,9.962,3.426
			C42.646,90.657,44.019,89.951,44.019,89.951z"/>
		<path fill="#808285" d="M34.15,92.484c0,0,3.12,2.662,7.207,1.262s2.326-2.71-0.905-2.107
			C37.222,92.243,34.15,92.484,34.15,92.484z"/>
		<path fill="#808285" d="M45.622,96.998c0,0-5.137-3.573-8.461-2.262s-7.823-1.317-7.823-1.317s5.825,4.253,9.541,3.399
			C42.592,95.967,45.622,96.998,45.622,96.998z"/>
		<path fill="#808285" d="M33.879,93.516c0,0-2.683-3.102-6.934-2.332c-4.252,0.771-9.155-3.564-9.155-3.564
			s6.447,5.896,9.732,5.783C30.807,93.293,33.879,93.516,33.879,93.516z"/>
		<path fill="#808285" d="M46.146,88.219c0,0-2.068-3.541-6.39-3.562c-4.32-0.024-3.089,1.793,0.16,2.286
			C43.167,87.438,46.146,88.219,46.146,88.219z"/>
		<path fill="#808285" d="M44.318,81.827c-2.333,2.708-7.539,2.474-7.539,2.474s7.135,1.055,10.027-1.429
			C49.698,80.389,46.65,79.12,44.318,81.827z"/>
		<path fill="#808285" d="M47.917,8.102c0,0,2.591,3.179,6.862,2.538c4.271-0.644,9.044,3.838,9.044,3.838s-6.268-6.087-9.554-6.075
			C50.981,8.417,47.917,8.102,47.917,8.102z"/>
		<path fill="#808285" d="M44.824,12.938c0,0-5.713,2.128-6.741,6.885c-1.028,4.755-5.39,8.407-5.39,8.407s7.432-4.739,8.339-8.006
			S44.824,12.938,44.824,12.938z"/>
		<path fill="#808285" d="M31.736,31.738c0,0,4.078,2.807,7.209,2.173c3.131-0.636,2.476-2.428-1.619-2.489
			C33.235,31.362,31.736,31.738,31.736,31.738z"/>
		<path fill="#808285" d="M29.146,37.582c0,0,5.713,2.55,8.733,0.642c3.022-1.909,7.933-0.165,7.933-0.165
			s-6.516-3.092-10.007-1.561C32.315,38.03,29.146,37.582,29.146,37.582z"/>
		<path fill="#808285" d="M33.967,36.285c4.613-1.545,9.981,0.336,9.981,0.336s-7.871-3.966-11.144-3.077
			C29.531,34.434,29.351,37.832,33.967,36.285z"/>
		<path fill="#808285" d="M51.852,47.944c0,0-2.619-4.201-5.743-4.868c-3.125-0.667-3.24,1.239,0.489,2.926
			C50.329,47.691,51.852,47.944,51.852,47.944z"/>
		<path fill="#808285" d="M36.619,40.021c0,0,3.562,2.032,7.316-0.105c3.754-2.139,9.819,0.321,9.819,0.321
			s-8.041-3.418-11.103-2.222C39.592,39.211,36.619,40.021,36.619,40.021z"/>
		<path fill="#808285" d="M53.286,41.191c0,0-5.713-2.551-8.735-0.642c-3.02,1.91-7.932,0.166-7.932,0.166s6.518,3.091,10.008,1.559
			C50.117,40.743,53.286,41.191,53.286,41.191z"/>
		<path fill="#808285" d="M42.875,39.462c0,0-3.562-2.033-7.313,0.105c-3.755,2.139-9.82-0.321-9.82-0.321s8.04,3.418,11.101,2.222
			C39.904,40.272,42.875,39.462,42.875,39.462z"/>
		<path fill="#808285" d="M36.307,42.792c0,0-5.225-3.144-9.586-0.984c-4.361,2.159-1.598,3.883,1.523,2.557
			C31.366,43.039,36.307,42.792,36.307,42.792z"/>
		<path fill="#808285" d="M39.541,13.121c0,0-4.908-0.634-7.403,1.362c-2.496,1.995-1.096,3.291,2.574,1.474
			C38.381,14.14,39.541,13.121,39.541,13.121z"/>
		<path fill="#808285" d="M38.341,7.563c0,0,3.674,1.823,7.298-0.527c3.624-2.353,9.819-0.248,9.819-0.248S47.234,3.84,44.247,5.211
			C41.26,6.583,38.341,7.563,38.341,7.563z"/>
		<path fill="#808285" d="M52.655,7.839c0,0-5.852-2.216-8.757-0.136c-2.906,2.08-7.909,0.622-7.909,0.622s6.684,2.711,10.081,0.98
			C49.465,7.575,52.655,7.839,52.655,7.839z"/>
		<path fill="#808285" d="M63.367,14.891c0,0-4.294-4.551-7.817-3.95c-3.522,0.601-2.559,2.462,1.254,2.391
			C60.614,13.259,63.367,14.891,63.367,14.891z"/>
		<path fill="#808285" d="M55.138,12.015c0,0-5.225-3.143-9.587-0.984c-4.36,2.158-9.935,1.021-9.935,1.021
			s8.338,2.861,11.459,1.536C50.196,12.263,55.138,12.015,55.138,12.015z"/>
		<path fill="#808285" d="M27.092,13.273c0,0,4.909,0.634,7.405-1.361c2.495-1.995,7.922-0.573,7.922-0.573
			S35.59,8.62,31.922,10.438C28.252,12.254,27.092,13.273,27.092,13.273z"/>
		<path fill="#808285" d="M39.764,6.589c0,0-3.674-1.824-7.297,0.528c-3.625,2.353-1.596,3.194,1.39,1.824
			C36.843,7.57,39.764,6.589,39.764,6.589z"/>
		<path fill="#808285" d="M25.439,28.183c0,0,4.01-0.861,5.382-4.957c1.371-4.098,7.532-6.309,7.532-6.309s-8.272,2.813-9.756,5.746
			S25.439,28.183,25.439,28.183z"/>
		<path fill="#808285" d="M24.864,31.779c0,0,5.958-1.908,6.937-5.346c0.979-3.437,5.802-5.412,5.802-5.412s-6.918,2.042-8.498,5.51
			C27.523,30,24.864,31.779,24.864,31.779z"/>
		<path fill="#808285" d="M33.06,11.243c0,0-4.236,2.56-4.945,5.676c-0.711,3.115,1.192,3.256,2.933-0.45
			C32.787,12.762,33.06,11.243,33.06,11.243z"/>
		<path fill="#808285" d="M31.724,23.214c0,0,4.01-0.86,5.382-4.956c1.37-4.098,7.53-6.308,7.53-6.308s-8.271,2.813-9.756,5.746
			C33.397,20.628,31.724,23.214,31.724,23.214z"/>
		<path fill="#808285" d="M44.636,35.158c0,0-0.436-2.878-2.761-6.518c-2.329-3.64-0.181-9.822-0.181-9.822
			s-3.004,8.204-1.654,11.201C41.392,33.014,44.636,35.158,44.636,35.158z"/>
		<path fill="#808285" d="M48.94,13.569c0,0-5.959,1.91-6.938,5.347s-5.802,5.411-5.802,5.411s6.918-2.041,8.499-5.51
			C46.28,15.348,48.94,13.569,48.94,13.569z"/>
		<path fill="#808285" d="M31.515,31.515c0,0,4.94-0.294,7.021-2.721c2.079-2.425,0.459-3.438-2.805-0.967
			C32.465,30.297,31.515,31.515,31.515,31.515z"/>
		<path fill="#808285" d="M23.433,25.948c0,0,4.235-2.561,4.946-5.676c0.71-3.114,5.843-5.381,5.843-5.381s-7.037,2.125-8.775,5.831
			C23.707,24.428,23.433,25.948,23.433,25.948z"/>
		<path fill="#808285" d="M39.93,20.289c0,0-4.011,0.86-5.382,4.956c-1.372,4.099-7.531,6.308-7.531,6.308s8.271-2.812,9.755-5.746
			C38.255,22.873,39.93,20.289,39.93,20.289z"/>
		<path fill="#808285" d="M48.999,78.73c0,0,1.7-2.601,2.194-4.02s3.119-4.352,3.119-4.352s-0.688,2.562-0.812,3.777
			c-0.124,1.217-0.562,1.426-0.812,1.54s-1.112,0.306-1.494,0.804S48.999,78.73,48.999,78.73z"/>
		<path fill="#808285" d="M54.312,76.134c0,0,6.394-3.12,7.457-2.403c1.062,0.718,0.499,2.504-0.563,2.307
			C60.144,75.839,54.312,76.134,54.312,76.134z"/>
		<path fill="#808285" d="M55.037,74.546c0,0-0.476-4.019,0.524-4.772c1-0.756,2.353-0.506,3.375-0.568
			c1.021-0.062,4.812-0.027,4.812-0.027s-5.276,1.246-6.69,2.025C55.87,71.855,55.037,74.546,55.037,74.546z"/>
		<path fill="#808285" d="M56.124,74.018c-0.94-0.677,0.941-2.412,2.252-2.537c1.312-0.125,4.498-1.119,4.498-1.119
			s-2.667,2.402-3.625,2.921C58.353,73.768,56.869,74.555,56.124,74.018z"/>
		<path fill="#808285" d="M43.737,97.869c0,0,3.838-0.939,5.443,0.311c1.604,1.25,2.06,1.488,3.307,1.676
			c1.247,0.188,5.946,0.312,5.946,0.312s-6.06,1.036-9.752,0.25C47.384,100.143,43.737,97.869,43.737,97.869z"/>
		<path fill="#808285" d="M51.646,102.295c0,0,3.908-1.752,6.787-0.814c2.879,0.938,2.379,1.662,1.879,2.676
			c-0.5,1.013-2.5,0.074-3.688-0.926C55.436,102.23,51.646,102.295,51.646,102.295z"/>
		<path fill="#808285" d="M56.499,104.591c0,0,1.5,0.747,2.438,1.037c0.938,0.29,1.854,1.478,1.989,2.04
			c0.136,0.562,1.572,3.812,1.572,3.812s-2.688-1.588-3-2.356C59.187,108.355,56.499,104.591,56.499,104.591z"/>
		<path fill="#808285" d="M54.873,103.854c0,0-3.625-0.065-5.625-1.5c-2-1.436-7.757-3.936-7.757-3.936s3.609,2.668,4.524,3.98
			c0.915,1.312,3.254,2.441,4.004,2.457C50.769,104.87,54.873,103.854,54.873,103.854z"/>
		<circle fill="#5F6062" cx="13.186" cy="46.227" r="0.499"/>
		<circle fill="#5F6062" cx="15.883" cy="50.242" r="0.499"/>
		<circle fill="#5F6062" cx="14.272" cy="62.926" r="0.499"/>
		<circle fill="#5F6062" cx="10.762" cy="56.565" r="0.499"/>
		<circle fill="#5F6062" cx="8.421" cy="56.257" r="0.499"/>
		<circle fill="#5F6062" cx="5.433" cy="54.148" r="0.499"/>
		<circle fill="#5F6062" cx="6.836" cy="42.21" r="0.499"/>
		<circle fill="#5F6062" cx="10.524" cy="47.544" r="0.499"/>
		<circle fill="#5F6062" cx="26.077" cy="32.701" r="0.499"/>
		<circle fill="#5F6062" cx="26.629" cy="37.507" r="0.499"/>
		<circle fill="#5F6062" cx="19.371" cy="48.033" r="0.499"/>
		<circle fill="#5F6062" cx="19.175" cy="40.771" r="0.499"/>
		<circle fill="#5F6062" cx="17.238" cy="39.422" r="0.499"/>
		<circle fill="#5F6062" cx="22.283" cy="26.217" r="0.499"/>
		<circle fill="#5F6062" cx="23.108" cy="32.649" r="0.499"/>
		<circle fill="#5F6062" cx="15.797" cy="71.095" r="0.499"/>
		<circle fill="#5F6062" cx="21.183" cy="85.09" r="0.499"/>
		<circle fill="#5F6062" cx="16.663" cy="81.773" r="0.5"/>
		<circle fill="#5F6062" cx="4.631" cy="61.563" r="0.499"/>
		<circle fill="#5F6062" cx="13.359" cy="81.928" r="0.499"/>
		<circle fill="#5F6062" cx="9.979" cy="80.53" r="0.499"/>
		<circle fill="#5F6062" cx="9.808" cy="67.392" r="0.499"/>
		<circle fill="#5F6062" cx="13.491" cy="72.967" r="0.499"/>
		<circle fill="#5F6062" cx="5.036" cy="72.358" r="0.499"/>
		<circle fill="#5F6062" cx="25.336" cy="89.271" r="0.499"/>
		<circle fill="#5F6062" cx="29.856" cy="86.437" r="0.499"/>
		<circle fill="#5F6062" cx="38.444" cy="90.312" r="0.499"/>
		<circle fill="#5F6062" cx="39.382" cy="92.779" r="0.499"/>
		<circle fill="#5F6062" cx="38.555" cy="95.731" r="0.499"/>
		<circle fill="#5F6062" cx="28.752" cy="92.438" r="0.499"/>
		<circle fill="#5F6062" cx="41.304" cy="86.218" r="0.499"/>
		<circle fill="#5F6062" cx="46.015" cy="82.06" r="0.499"/>
		<circle fill="#5F6062" cx="53.01" cy="9.332" r="0.499"/>
		<circle fill="#5F6062" cx="39.918" cy="18.893" r="0.498"/>
		<circle fill="#5F6062" cx="37.248" cy="32.652" r="0.499"/>
		<circle fill="#5F6062" cx="36.325" cy="37.506" r="0.499"/>
		<circle fill="#5F6062" cx="32.229" cy="35.182" r="0.499"/>
		<circle fill="#5F6062" cx="47.163" cy="44.908" r="0.499"/>
		<circle fill="#5F6062" cx="41.814" cy="39.334" r="0.499"/>
		<circle fill="#5F6062" cx="46.106" cy="41.267" r="0.499"/>
		<circle fill="#5F6062" cx="37.681" cy="40.148" r="0.5"/>
		<circle fill="#5F6062" cx="28.592" cy="42.665" r="0.499"/>
		<circle fill="#5F6062" cx="34.222" cy="14.826" r="0.499"/>
		<circle fill="#5F6062" cx="43.486" cy="6.578" r="0.499"/>
		<circle fill="#5F6062" cx="45.492" cy="8.33" r="0.499"/>
		<circle fill="#5F6062" cx="56.71" cy="12.201" r="0.499"/>
		<circle fill="#5F6062" cx="47.423" cy="11.888" r="0.499"/>
		<circle fill="#5F6062" cx="32.412" cy="11.568" r="0.499"/>
		<circle fill="#5F6062" cx="34.618" cy="7.575" r="0.499"/>
		<circle fill="#5F6062" cx="28.853" cy="24.206" r="0.499"/>
		<circle fill="#5F6062" cx="30.163" cy="26.936" r="0.499"/>
		<circle fill="#5F6062" cx="29.959" cy="15.889" r="0.499"/>
		<circle fill="#5F6062" cx="35.136" cy="19.239" r="0.499"/>
		<circle fill="#5F6062" cx="41.403" cy="30.788" r="0.499"/>
		<circle fill="#5F6062" cx="43.641" cy="18.413" r="0.499"/>
		<circle fill="#5F6062" cx="36.342" cy="29.113" r="0.499"/>
		<circle fill="#5F6062" cx="26.535" cy="21.301" r="0.499"/>
		<circle fill="#5F6062" cx="36.517" cy="24.264" r="0.499"/>
		<circle fill="#5F6062" cx="48.681" cy="99.056" r="0.499"/>
		<circle fill="#5F6062" cx="58.477" cy="103.103" r="0.499"/>
		<circle fill="#5F6062" cx="59.499" cy="107.207" r="0.499"/>
		<circle fill="#5F6062" cx="48.182" cy="102.897" r="0.499"/>
		<circle fill="#5F6062" cx="60.18" cy="74.971" r="0.499"/>
		<circle fill="#5F6062" cx="57.557" cy="72.763" r="0.499"/>
		<circle fill="#5F6062" cx="52.374" cy="74.712" r="0.499"/>
		<circle fill="#5F6062" cx="57.116" cy="70.312" r="0.499"/>
	</g>
	<g property="ro:has_part" resource="fma:14769" id="hepatic_artery">
		<path fill="#BCBEC0" d="M66.942,93.896c-5.258,0.438-4.702,4.36-12.269,3.94c-4.376-0.241-8.747-7.099-6.994-12.502
			c1.752-5.401,6.343-7.937,10.55-7.278c4.277,0.666,5.354,5.881,8.422,6.316c0,0,1.18,3.373,1.18,4.896
			S66.942,93.896,66.942,93.896z"/>
		<path fill="#737577" stroke="#000000" stroke-width="0.4252" d="M67.881,83.85c1.318,0.668,0.165,1.809-0.688,1.875
			c-0.932,0.076-2.32-0.177-3.064-0.766c-0.875-0.693-1.479-1.66-2.011-2.609c-0.317-0.566-0.463-0.91-0.673-1.5
			c-0.161-0.451-0.47-0.841-0.795-1.143c-0.367-0.339-0.615-0.527-1.081-0.671c-0.366-0.113-1.063-0.126-1.128-0.687
			c-0.155-1.34,1.913-0.75,2.378-0.518c0.931,0.467,1.805,1.521,2.312,2.402c0.576,0.996,1.021,2.146,1.977,2.863
			c0.364,0.273,0.813,0.443,1.254,0.553C66.919,83.792,67.368,83.589,67.881,83.85z"/>
		<path fill="#737577" stroke="#000000" stroke-width="0.4252" d="M57.331,78.837c-0.918-0.022-1.868-0.125-2.812,0.265
			c-0.787,0.324-1.715,0.777-2.376,1.438c-0.547,0.547-1.259,1.002-1.815,2.007s-0.715,1.859-1.512,2.253
			c-1.271,0.63-1.515-0.831-1.111-1.764c0.831-1.923,2.351-3.55,4.128-4.609c0.892-0.53,1.899-0.915,2.844-1.141
			c0.727-0.173,2.87-0.24,3.25-0.079C59.048,77.684,58.255,78.859,57.331,78.837z"/>
		<path fill="#737577" stroke="#000000" stroke-width="0.4252" d="M46.568,87.6c0,1.452-0.126,2.81,0.39,4.516
			c0.517,1.703,1.726,3.435,2.309,3.912c0.583,0.479,1.729,1.263,2.673,1.201c1.261-0.08,0.017-1.856-0.5-2.237
			c-0.882-0.65-1.187-1.06-1.715-1.982c-0.553-0.962-0.992-2.335-1.045-3.45c-0.059-1.207,0.39-2.718-0.099-3.836
			c-0.147-0.341-0.771-0.979-1.263-0.796c-0.505,0.188-0.566,1.294-0.688,1.739L46.568,87.6z"/>
		<path fill="#737577" stroke="#000000" stroke-width="0.4252" d="M64.193,93.538c-1.055,0.224-1.884,0.729-2.749,1.375
			c-1.744,1.302-3.272,2.019-5.501,1.685c-0.817-0.123-2.279-0.361-2.984,0.082c-0.998,0.625-0.604,1.572,0.312,1.965
			c1.891,0.812,4.256,0.254,6.173-0.273c1.003-0.277,1.913-0.688,2.809-1.207c0.99-0.573,1.853-1.329,2.99-1.622
			c1.068-0.272,2.129-0.13,3.201-0.252c0.885-0.103,2.077-0.883,1.387-1.825c-0.359-0.492-0.98-0.361-1.574-0.361
			C68.256,93.1,65.094,93.346,64.193,93.538z"/>
		<path fill="#4F4F51" stroke="#000000" stroke-width="0.4252" d="M64.559,94.438c0.291,0.381-0.959,1.191-1.241,0.771
			C63.036,94.787,64.269,94.055,64.559,94.438z"/>
		<path fill="#4F4F51" stroke="#000000" stroke-width="0.4252" d="M51.103,80.113c0.372,0.236-0.504,1.457-0.969,0.923
			C49.671,80.502,50.73,79.875,51.103,80.113z"/>
	</g>
	<g property="ro:has_part" resource="fma:50735" id="hepatic_portal_vein">
		<path fill="#BCBEC0" d="M53.001,68.491c-2.045,2.629-6.817,14.153-16.179,13.938c-9.697-0.227-17.578-4.535-17.952-17.402
			c-0.302-10.379,5.879-19.662,16.034-20.197c7.97-0.42,11.737,2.042,13.928,5.255c0.821,1.203,1.683,2.161,2.814,2.896
			c0,0,3.391,3.887,3.391,7.438S53.001,68.491,53.001,68.491z"/>
		<path fill="#737577" stroke="#000000" stroke-width="0.4252" d="M47.08,46.779c-0.957-0.694-2.521-1.8-3.637-2.194
			c-0.86-0.305-5.354-1.258-4.809,0.75c0.257,0.943,2.552,0.591,3.292,0.939c0.973,0.458,2.168,1.002,2.947,1.657
			c1.541,1.292,2.757,2.955,3.996,4.412c0.529,0.622,1.181,1.069,1.823,1.552c0.744,0.56,1.762,0.748,2.679,0.973
			c0.811,0.2,1.901,0.627,2.739,0.487c0.818-0.137,1.041-1.636,0.603-1.895c-0.438-0.259-1.997-0.716-3.136-0.988
			c-0.739-0.176-1.348-0.458-1.907-0.976C49.981,49.931,48.973,48.151,47.08,46.779z"/>
		<path fill="#737577" stroke="#000000" stroke-width="0.4252" d="M29.015,44.833c-2.294,0.864-4.354,2.232-6.22,3.902
			c-2.384,2.134-4.193,7.847-4.562,8.894c-0.378,1.075-0.604,2.208-0.773,3.344c-0.174,1.164-0.175,2.086,0.053,3.211
			c0.12,0.603,0.559,2.685,1.421,2.077c0.859-0.602,1.038-2.845,1.173-3.765c0.213-1.455,0.303-2.865,0.799-4.27
			c0.482-1.369,0.808-2.831,1.49-4.082c0.661-1.213,1.54-2.105,2.408-3.143c0.842-1.006,1.971-2.117,3.007-2.94
			c1.112-0.883,2.768-1.248,4.099-1.592c1.098-0.284,2.095-0.552,3.198-0.485c0.734,0.045,1.982,0.217,2.678,0.004
			c0.607-0.188,0.99-1.054,0.783-1.593c-0.273-0.71-1.617-0.848-3.281-0.729S31.239,43.995,29.015,44.833z"/>
		<path fill="#737577" stroke="#000000" stroke-width="0.4252" d="M18.249,70.004c0.046,1.132,0.614,2.438,1.003,3.598
			c0.367,1.094,0.735,2.183,1.423,3.146c0.692,0.971,3.92,4.597,5.151,2.962c0.594-0.789-2.182-3.615-2.561-4.167
			c-0.639-0.936-1.077-1.256-1.583-2.252c-0.271-0.531-0.702-1.327-0.825-1.945c-0.102-0.507-0.209-1.013-0.352-1.521
			c-0.258-0.928-0.354-2.035-1.036-2.773c-0.371-0.402-0.81-0.636-1.154-0.05C17.927,67.654,18.249,70.004,18.249,70.004z"/>
		<path fill="#737577" stroke="#000000" stroke-width="0.4252" d="M32.564,82.982c1.242,0.177,2.504,0.412,3.746,0.396
			c1.847-0.021,4.832,0.247,5.893-1.669c0.801-1.441-1.288-1.467-2.214-1.205c-1.095,0.312-2.084,0.751-3.276,0.751
			c-2.503,0-4.565-0.94-6.89-1.403c-0.735-0.146-1.317-0.207-1.994-0.5c-0.541-0.234-1.243-0.52-1.667,0.03
			C24.413,81.655,31.518,82.833,32.564,82.982z"/>
		<path fill="#737577" stroke="#000000" stroke-width="0.4252" d="M48.635,73.082c-0.613,0.98-1.217,1.896-1.943,2.809
			c-0.583,0.729-1.254,1.521-1.884,2.262c-0.651,0.77-1.312,0.971-2.035,1.625c-1.112,1.01,0.061,1.926,1.166,1.652
			c1.11-0.271,2.27-1.619,2.927-2.457c0.835-1.065,1.472-2.217,2.378-3.265c0.788-0.911,2.913-5.104,3.576-5.918
			c0.586-0.722,1.687-0.774,2.074-1.591c0.586-1.234-0.74-1.652-1.708-1.256C50.802,67.916,49.882,71.091,48.635,73.082z"/>
		<path fill="#4F4F51" stroke="#000000" stroke-width="0.4252" d="M35.307,82.273c-0.088,0.498-1.801,0.72-1.81-0.103
			C33.489,81.354,35.395,81.775,35.307,82.273z"/>
		<path fill="#4F4F51" stroke="#000000" stroke-width="0.4252" d="M22.642,51.361c0.519,0.424-0.399,1.914-0.96,1.568
			C21.121,52.583,22.124,50.937,22.642,51.361z"/>
		<path fill="#4F4F51" stroke="#000000" stroke-width="0.4252" d="M47.47,48.422c-0.416,0.348,0.796,1.717,1.12,1.321
			C48.916,49.347,47.885,48.074,47.47,48.422z"/>
	</g>
</g>
<g property="ro:has_part" resource="fma:17545" id="canal_hering">
	<path fill="#F2F2F2" d="M67.146,29.698c1.255,1.363,2.774,2.336,4.47,2.467c3.629,0.28,3.188,2.073,14.647,1.253
		c0,0-3.004,2.805-3.129,3.805s-0.006,2.656-0.006,2.656c-2.585-0.457-5.041-0.819-7.277-0.996
		c-7.088-0.561-11.556-1.775-14.923-2.39c0,0,3.315-1.762,4.584-3.309C66.78,31.637,67.146,29.698,67.146,29.698z"/>
	<path fill="#C7C8CA" stroke="#000000" stroke-width="0.4252" d="M68.068,28.319c0.328,0.091,1.5,1.985,1.388,2.474
		c-0.111,0.489-1.193,1.803-1.755,1.604c-0.561-0.199-2.341-2.383-2.178-2.963S67.643,28.201,68.068,28.319z"/>
	<path fill="#C7C8CA" stroke="#000000" stroke-width="0.4252" d="M60.369,34.83c-0.273,0.222,0.176,1.896,0.501,2.239
		c0.325,0.344,2.784,0.5,2.942,0.316c0.157-0.184,0.37-2.337,0-2.668C63.442,34.384,60.685,34.573,60.369,34.83z"/>
	<path fill="#C7C8CA" stroke="#000000" stroke-width="0.4252" d="M64.239,34.794c-0.235,0.242-0.333,2.44-0.04,2.711
		s2.915,0.834,3.174,0.567c0.26-0.267,0.3-2.044,0.098-2.36S64.46,34.567,64.239,34.794z"/>
	<path fill="#C7C8CA" stroke="#000000" stroke-width="0.4252" d="M68.494,32.739c0.097,0.451,2.989,1.273,3.242,0.968
		s0.37-1.333,0.181-1.874c-0.223-0.639-1.718-1.125-2.155-0.926C69.323,31.106,68.403,32.318,68.494,32.739z"/>
	<path fill="#C7C8CA" stroke="#000000" stroke-width="0.4252" d="M67.92,35.864c-0.187,0.207-0.349,1.993-0.116,2.278
		c0.23,0.285,3.507,0.792,3.701,0.503c0.196-0.29,0.038-1.979-0.233-2.208C70.999,36.208,68.178,35.578,67.92,35.864z"/>
	<path fill="#C7C8CA" stroke="#000000" stroke-width="0.4252" d="M71.687,36.449c-0.209,0.163-0.06,2.196,0.186,2.494
		c0.245,0.299,3.457,0.882,3.843,0.609c0.388-0.271,0.167-2.295-0.134-2.583C75.281,36.681,71.973,36.226,71.687,36.449z"/>
	<path fill="#C7C8CA" stroke="#000000" stroke-width="0.4252" d="M72.01,33.866c0.188,0.366,2.634,0.522,2.761,0.324
		c0.127-0.198,0.422-1.363,0.142-1.796s-2.432-0.76-2.687-0.559S71.858,33.569,72.01,33.866z"/>
	<path fill="#C7C8CA" stroke="#000000" stroke-width="0.4252" d="M75.35,32.318c-0.42,0.151-0.345,1.742-0.125,2.012
		c0.219,0.27,2.547,0.629,2.733,0.239c0.188-0.39,0.267-1.625,0.062-2S75.568,32.239,75.35,32.318z"/>
	<circle fill="#A7A9AC" stroke="#000000" stroke-width="0.4252" cx="62.515" cy="35.926" r="0.432"/>
	<circle fill="#A7A9AC" stroke="#000000" stroke-width="0.4252" cx="69.464" cy="37.261" r="0.432"/>
	<circle fill="#A7A9AC" stroke="#000000" stroke-width="0.4252" cx="65.656" cy="36.588" r="0.432"/>
	<circle fill="#A7A9AC" stroke="#000000" stroke-width="0.4252" cx="76.6" cy="33.418" r="0.432"/>
	<circle fill="#A7A9AC" stroke="#000000" stroke-width="0.4252" cx="73.918" cy="38.142" r="0.432"/>
	<circle fill="#A7A9AC" stroke="#000000" stroke-width="0.4252" cx="73.485" cy="33.025" r="0.432"/>
	<circle fill="#A7A9AC" stroke="#000000" stroke-width="0.4252" cx="70.575" cy="32.397" r="0.432"/>
	<circle fill="#A7A9AC" stroke="#000000" stroke-width="0.4252" cx="67.831" cy="30.2" r="0.432"/>
	<path fill="#D1D3D4" stroke="#000000" stroke-width="0.4252" d="M83.264,32.623c0.352,0.407,0.322,2.69,0.082,3.008
		c-0.241,0.318-5.075-0.246-5.205-0.724c-0.13-0.478-0.111-1.929,0.177-2.314C78.606,32.208,82.955,32.265,83.264,32.623z"/>
	<path fill="#D1D3D4" stroke="#000000" stroke-width="0.4252" d="M80.712,38.575c0.339,0.473,0.223,3.108-0.221,3.312
		c-0.443,0.204-4.353-0.831-4.568-1.348c-0.215-0.517-0.178-3.026,0.117-3.277C76.335,37.011,80.324,38.033,80.712,38.575z"/>
	<circle fill="#B1B3B6" stroke="#000000" stroke-width="0.4252" cx="80.891" cy="34.025" r="0.841"/>
	<circle fill="#B1B3B6" stroke="#000000" stroke-width="0.4252" cx="78.404" cy="39.57" r="0.828"/>
</g>
<path property="ro:has_part" resource="fma:17547" id="bile_canaliculus" fill="#F2F2F2" d="M82.945,36.829c0.716-1.335,2.063-2.043,2.658-2.088
	c13.435-1.022,50.913-8.417,60.339-8.563c9.428-0.146,35.242-0.076,39.77-0.368c4.528-0.292,4.168,13.364,4.169,15.56
	c0.001,2.921-18.947-1.665-27.855-1.081s-36.96,2.586-47.77,3.754c-8.628,0.933-20.887-2.354-31.127-4.164
	C83.129,39.879,82.861,39.235,82.945,36.829z"/>
<g property="ro:has_part" resource="fma:14515" id="hepatocyte">
	<path fill="#D1D3D4" stroke="#000000" stroke-width="0.4252" d="M211.541,21.967c1.358,1.409-0.629,9.902-1.898,11.237
		c-1.271,1.335-9.982,3.404-11.627,1.457c-1.643-1.947-1.14-8.189,0.104-10.191C199.36,22.468,209.385,19.73,211.541,21.967z"/>
	<path fill="#D1D3D4" stroke="#000000" stroke-width="0.4252" d="M209.235,33.847c1.695,1.703-2.354,7.432-4.354,8.6
		c-2.003,1.168-5.189,2.774-6.133,1.467c-0.942-1.307-1.359-8.219-0.979-8.829C198.215,34.373,207.998,32.534,209.235,33.847z"/>
	<path fill="#D1D3D4" stroke="#000000" stroke-width="0.4252" d="M196.649,25.987c1.355,2.07,2.229,7.54,1.061,8.931
		c-1.168,1.39-8.926,0.185-11.196-0.127c-3.102-0.426-2.768-7.691,0.016-9.805C189.308,22.872,195.481,24.207,196.649,25.987z"/>
	<path fill="#D1D3D4" stroke="#000000" stroke-width="0.4252" d="M197.267,35.464c0.778,0.703,1.442,7.88,0.363,9.144
		c-1.076,1.264-6.425,2.007-8.148-0.162c-1.727-2.169-5.688-5.405-5.035-7.963C185.099,33.924,196.558,34.823,197.267,35.464z"/>
	<path fill="#D1D3D4" stroke="#000000" stroke-width="0.4252" d="M182.681,33.755c2.119,0.905,1.729,4.943-1.104,5.692
		c-2.835,0.749-5.532,8.06-7.257,8.45c-0.545,0.123-3.859,0.957-5.166-0.026c-1.485-1.119-4.062-9.861-2.807-11.459
		C168.183,34.076,181.034,33.053,182.681,33.755z"/>
	<path fill="#D1D3D4" stroke="#000000" stroke-width="0.4252" d="M164.005,35.786c1.951,0.966,5.562,10.29,3.449,12.111
		c-2.114,1.821-16.073,2.966-17.242,1.22c-1.169-1.747-1.387-11.163,0.033-12.225C151.664,35.83,161.726,34.657,164.005,35.786z"/>
	<path fill="#D1D3D4" stroke="#000000" stroke-width="0.4252" d="M147.692,37.16c1.769,0.762,3.105,11.269,0.685,12.596
		c-2.423,1.327-11.637,2.417-13.403,1.058c-2.441-1.879,2.334-9.379,2.556-11.814C137.752,36.563,145.253,36.107,147.692,37.16z"/>
	<path fill="#D1D3D4" stroke="#000000" stroke-width="0.4252" d="M135.037,37.027c3.288,0.672,2.296,5.037,0.249,8.427
		c-2.037,3.373-0.688,5.576-2.6,5.859c-2.504,0.37-8.382,1.75-10.069,0.125c-0.979-0.943-1.6-12.581,0-13.433
		C124.012,37.264,132.145,36.437,135.037,37.027z"/>
	<path fill="#D1D3D4" stroke="#000000" stroke-width="0.4252" d="M120.213,38.143c1.483,0.662,2.188,12.286,0.967,13.546
		c-1.403,1.447-13.899,2.256-14.763,1.254c-0.861-1.001-0.521-12.915,0.356-13.555C107.651,38.748,118.177,37.234,120.213,38.143z"
		/>
	<path fill="#D1D3D4" stroke="#000000" stroke-width="0.4252" d="M105.215,39.623c1.452,0.955,2.155,12.716-1.182,13.884
		s-4.391-4.026-8.258-6.429c-3.867-2.403-2.956-7.269-1.042-7.36C96.646,39.626,104.397,39.085,105.215,39.623z"/>
	<path fill="#D1D3D4" stroke="#000000" stroke-width="0.4252" d="M74.599,40.852c2.604,0.726,1.778,10.229-0.334,10.822
		c-2.113,0.594-9.968,0.417-10.636-1.309c-0.667-1.725-0.262-9.813,1.885-10.743C67.749,38.654,72.986,40.402,74.599,40.852z"/>
	<path fill="#D1D3D4" stroke="#000000" stroke-width="0.4252" d="M62.867,39.02c1.643,0.929,1.243,11.21-0.871,11.731
		s-7.725,1.085-9.282-0.796c-1.557-1.881,0.834-10.534,3.448-11.439C58.777,37.609,61.532,38.265,62.867,39.02z"/>
	<path fill="#D1D3D4" stroke="#000000" stroke-width="0.4252" d="M182.31,18.389c1.297,0.707,3.699,7.661,2.246,10.184
		c-1.453,2.521-11.949,3.839-12.354,2.231c-0.404-1.608-1.011-10.647,0.739-11.655C174.694,18.142,181.185,17.777,182.31,18.389z"/>
	<path fill="#D1D3D4" stroke="#000000" stroke-width="0.4252" d="M170.224,19.016c1.938,1.035,2.67,11.462,0.405,12.589
		c-2.266,1.128-7.469,0.438-9.597,1.017c-2.13,0.579-5.53-1.288-5.118-4.449c0.414-3.161-1.229-8.543,2.277-8.677
		C161.702,19.362,167.808,17.725,170.224,19.016z"/>
	<path fill="#D1D3D4" stroke="#000000" stroke-width="0.4252" d="M154.513,19.698c1.604,1.564,2.536,11.904,0.786,12.867
		c-1.749,0.962-8.561,1.513-11.595,0.657c-3.034-0.855,1.004-6.393-0.033-9.506c-1.124-3.374,0.643-4.166,3.292-4.312
		C149.735,19.25,153.045,18.27,154.513,19.698z"/>
	<path fill="#D1D3D4" stroke="#000000" stroke-width="0.4252" d="M141.81,20.548c1.312,0.562,2.896,5.11,1.623,7.9
		c-1.301,2.849-0.053,4.227-4.121,4.569c-4.07,0.342-10.136,1.904-10.633-1.164c-0.499-3.068,0.101-6.971,2.229-9.743
		C133.036,19.339,140.983,20.193,141.81,20.548z"/>
	<path fill="#D1D3D4" stroke="#000000" stroke-width="0.4252" d="M128.972,20.514c2.698,1.436-0.697,8.337-0.495,10.457
		c0.202,2.12-1.464,3.237-5.579,3.133s-6.605,1.558-6.799-1.786c-0.194-3.344-1.736-9.391-0.233-10.522
		C117.369,20.666,127.215,19.579,128.972,20.514z"/>
	<path fill="#D1D3D4" stroke="#000000" stroke-width="0.4252" d="M97.941,71.955c1.738,0.648-1.033,5.059-1.774,6.014
		s-3.351,1.038-5.807,1.038s-2.405-0.94-2.175-2.978c0.263-2.332-1.367-3.846,0.761-4.526
		C91.074,70.823,96.549,71.436,97.941,71.955z"/>
	<path fill="#D1D3D4" stroke="#000000" stroke-width="0.4252" d="M87.053,71.508c1.256,0.932,1.475,6.33,0.212,7.653
		s-9.929,1.725-10.907,1.208c-0.979-0.518-1.411-8.748-0.433-9.169C76.905,70.779,85.524,70.375,87.053,71.508z"/>
	<path fill="#D1D3D4" stroke="#000000" stroke-width="0.4252" d="M73.886,70.827c1.555,0.774,2.594,8.834,1.098,9.758
		c-1.497,0.923-8.165,1.61-9.679,0.692c-1.514-0.916-2.104-9.543-0.948-10.291C65.512,70.24,72.489,70.13,73.886,70.827z"/>
	<path fill="#D1D3D4" stroke="#000000" stroke-width="0.4252" d="M209.998,72.923c2.307-0.317,5.953,6.4,5.864,8.702
		c-0.088,2.302-8.157,6.871-11.279,7.384s-3.846-4.168-3.584-7.399c0.262-3.229,2.09-2.348,4.162-4.183S208.724,73.1,209.998,72.923
		z"/>
	<path fill="#D1D3D4" stroke="#000000" stroke-width="0.4252" d="M199.978,80.502c1.883,0.746,1.301,6.752-0.537,8.484
		c-1.836,1.731-13.735,1.062-14.698-1.139c-0.964-2.201-3.015-13.582-1.61-14.234c1.476-0.684,7.685-1.521,8.957,1.104
		C193.362,77.344,198.209,79.802,199.978,80.502z"/>
	<path fill="#D1D3D4" stroke="#000000" stroke-width="0.4252" d="M180.952,73.666c2.354,1.214,4.541,13.544,2.708,15.277
		c-1.832,1.731-12.693,3.875-14.618,1.601s-3.76-12.56-2.051-14.668C168.699,73.766,178.677,72.492,180.952,73.666z"/>
	<path fill="#D1D3D4" stroke="#000000" stroke-width="0.4252" d="M164.479,75.916c2.49,0.833,4.896,12.721,3.541,14.559
		c-1.354,1.836-5.688,4.812-10.871,3.149c-5.186-1.662-6.496-14.666-3.607-16.215C156.431,75.861,161.769,75.007,164.479,75.916z"/>
	<path fill="#D1D3D4" stroke="#000000" stroke-width="0.4252" d="M149.972,78.002c3.678,1.165,2.582,7.506,3.562,11.006
		c0.98,3.5,0.024,6.366-3.562,6.454c-3.588,0.087-9.713,0.963-10.412-2.187c-0.701-3.15-1.699-13.563,1.207-14.875
		C143.673,77.088,147.606,77.254,149.972,78.002z"/>
	<path fill="#D1D3D4" stroke="#000000" stroke-width="0.4252" d="M137.969,78.409c2.336,0.702,0.449,7.508,0.888,10.308
		c0.438,2.801-0.209,5.954-1.46,7.09c-1.251,1.135-5.772,3.594-7.493,1.84s-2.627-5.047-1.14-6.443
		c1.486-1.4,3.546-7.721,3.37-10.176C131.959,78.574,134.685,77.42,137.969,78.409z"/>
	<path fill="#D1D3D4" stroke="#000000" stroke-width="0.4252" d="M126.542,91.645c1.455,0.213,2.966,6.004,1.099,7.229
		c-1.869,1.226-7.453,5.163-9.692,3.851c-2.239-1.312-6.264-9.289-5.126-11.558s4.225-4.964,6.047-3.229
		C120.691,89.668,123.853,91.252,126.542,91.645z"/>
	<path fill="#D1D3D4" stroke="#000000" stroke-width="0.4252" d="M110.93,92.066c1.838-0.051,3.995,5.537,4.783,6.849
		s0.444,3.76-1.309,5.946c-1.753,2.188-9.171,2.924-10.819,1.875c-1.647-1.051-6.196-9.938-1.734-11.159
		C106.312,94.352,108.601,92.131,110.93,92.066z"/>
	<path fill="#D1D3D4" stroke="#000000" stroke-width="0.4252" d="M98.799,96.184c2.128,0.988,1.911,5.381,2.618,7.969
		c0.707,2.593-2.727,5.218-6.435,4.953c-3.708-0.263-7.559-0.717-6.684-4.166c0.875-3.445-1.927-6.129,1.196-7.883
		C92.619,95.303,96.787,95.248,98.799,96.184z"/>
	<path fill="#D1D3D4" stroke="#000000" stroke-width="0.4252" d="M87.272,97.497c1.371,1.153,1.925,9.444-0.175,10.846
		c-2.101,1.4-8.575,3.273-10.15,0.718c-1.575-2.555-1.749-9.992,0.438-10.867C79.572,97.316,86.134,96.538,87.272,97.497z"/>
	<path fill="#D1D3D4" stroke="#000000" stroke-width="0.4252" d="M75.162,98.082c1.353,0.88,0.312,3.938,0.593,6.038
		c0.282,2.1,0.551,4.761-2.122,5.354c-2.671,0.594-9.584,2.991-10.634,0c-1.05-2.992-2.608-9.383,0.795-10.781
		C67.2,97.294,73.276,96.854,75.162,98.082z"/>
	<path fill="#D1D3D4" stroke="#000000" stroke-width="0.4252" d="M113.806,23.011c1.554,1.739,2.777,10.364,1.833,11.477
		c-0.945,1.113-11.695,2.245-12.884,0.679c-1.188-1.566-1.062-9.524,0-10.889C103.818,22.913,112.388,21.423,113.806,23.011z"/>
	<path fill="#D1D3D4" stroke="#000000" stroke-width="0.4252" d="M100.818,27.688c1.217,0.721,2.062,7.581,1.093,8.278
		c-0.969,0.697-9.052,0.997-9.854-0.184c-0.803-1.181-1.156-5.516-0.636-6.817C91.943,27.664,99.687,27.017,100.818,27.688z"/>
	<path fill="#D1D3D4" stroke="#000000" stroke-width="0.4252" d="M90.612,31.35c0.371,0.62,1.112,3.988,0.564,4.65
		c-0.547,0.662-6.858,1.023-7.233,0.155c-0.375-0.868-0.688-3.515,0-4.191C84.631,31.288,90.329,30.877,90.612,31.35z"/>
	<path fill="#D1D3D4" stroke="#000000" stroke-width="0.4252" d="M89.123,47.007c0.235,0.959-1.18,2.359-1.428,3.646
		c-0.248,1.287-0.438,3.782-1.195,3.83c-0.758,0.048-10.646-0.719-10.79-2.672c-0.143-1.953,0.47-9.608,1.27-10.175
		C77.779,41.069,88.271,43.529,89.123,47.007z"/>
	<path fill="#D1D3D4" stroke="#000000" stroke-width="0.4252" d="M93.021,40.077c0.417,0.567,0.423,4.61-0.202,5.153
		s-2.222,1.93-2.907,1.777c-0.685-0.153-3.308-2.498-3.363-3.237c-0.055-0.739-0.202-3.81,0.443-4.435
		C87.638,38.71,92.566,39.457,93.021,40.077z"/>
	<path fill="#D1D3D4" stroke="#000000" stroke-width="0.4252" d="M86.419,39.219c0.447,0.577,0.17,3.818-0.388,4.198
		s-4.931-1.05-5.023-1.567c-0.092-0.517-0.535-2.542,0.24-3.136C82.024,38.12,85.884,38.527,86.419,39.219z"/>
	<circle fill="#B1B3B6" stroke="#000000" stroke-width="0.4252" cx="160.513" cy="84.827" r="1.512"/>
	<circle fill="#B1B3B6" stroke="#000000" stroke-width="0.4252" cx="178.431" cy="83.436" r="1.512"/>
	<circle fill="#B1B3B6" stroke="#000000" stroke-width="0.4252" cx="173.084" cy="79.418" r="1.512"/>
	<circle fill="#B1B3B6" stroke="#000000" stroke-width="0.4252" cx="190.847" cy="82.168" r="1.512"/>
	<circle fill="#B1B3B6" stroke="#000000" stroke-width="0.4252" cx="208.289" cy="80.984" r="1.512"/>
	<circle fill="#B1B3B6" stroke="#000000" stroke-width="0.4252" cx="146.351" cy="87.299" r="1.512"/>
	<circle fill="#B1B3B6" stroke="#000000" stroke-width="0.4252" cx="134.363" cy="88.636" r="1.512"/>
	<circle fill="#B1B3B6" stroke="#000000" stroke-width="0.4252" cx="121.076" cy="95.577" r="1.512"/>
	<circle fill="#B1B3B6" stroke="#000000" stroke-width="0.4252" cx="107.575" cy="100.784" r="1.512"/>
	<circle fill="#B1B3B6" stroke="#000000" stroke-width="0.4252" cx="94.002" cy="102.295" r="1.512"/>
	<circle fill="#B1B3B6" stroke="#000000" stroke-width="0.4252" cx="83.127" cy="104.116" r="1.512"/>
	<circle fill="#B1B3B6" stroke="#000000" stroke-width="0.4252" cx="69.248" cy="103.854" r="1.512"/>
	<circle fill="#B1B3B6" stroke="#000000" stroke-width="0.4252" cx="70.226" cy="74.971" r="1.512"/>
	<circle fill="#B1B3B6" stroke="#000000" stroke-width="0.4252" cx="81.494" cy="76.224" r="1.512"/>
	<circle fill="#B1B3B6" stroke="#000000" stroke-width="0.4252" cx="94.033" cy="74.793" r="1.512"/>
	<circle fill="#B1B3B6" stroke="#000000" stroke-width="0.4252" cx="59.44" cy="42.881" r="1.512"/>
	<circle fill="#B1B3B6" stroke="#000000" stroke-width="0.4252" cx="69.761" cy="46.529" r="1.512"/>
	<circle fill="#B1B3B6" stroke="#000000" stroke-width="0.4252" cx="101.491" cy="44.928" r="1.512"/>
	<circle fill="#B1B3B6" stroke="#000000" stroke-width="0.4252" cx="112.996" cy="47.368" r="1.512"/>
	<circle fill="#B1B3B6" stroke="#000000" stroke-width="0.4252" cx="117.275" cy="41.861" r="1.512"/>
	<circle fill="#B1B3B6" stroke="#000000" stroke-width="0.4252" cx="156.526" cy="42.064" r="1.512"/>
	<circle fill="#B1B3B6" stroke="#000000" stroke-width="0.4252" cx="162.026" cy="43.602" r="1.512"/>
	<circle fill="#B1B3B6" stroke="#000000" stroke-width="0.4252" cx="127.969" cy="43.872" r="1.512"/>
	<circle fill="#B1B3B6" stroke="#000000" stroke-width="0.4252" cx="142.42" cy="44.742" r="1.512"/>
	<circle fill="#B1B3B6" stroke="#000000" stroke-width="0.4252" cx="174.274" cy="39.263" r="1.512"/>
	<circle fill="#B1B3B6" stroke="#000000" stroke-width="0.4252" cx="191.735" cy="39.76" r="1.512"/>
	<circle fill="#B1B3B6" stroke="#000000" stroke-width="0.4252" cx="203.319" cy="38.539" r="1.512"/>
	<circle fill="#B1B3B6" stroke="#000000" stroke-width="0.4252" cx="205.683" cy="28.846" r="1.512"/>
	<circle fill="#B1B3B6" stroke="#000000" stroke-width="0.4252" cx="191.667" cy="29.325" r="1.512"/>
	<circle fill="#B1B3B6" stroke="#000000" stroke-width="0.4252" cx="178.888" cy="24.436" r="1.513"/>
	<circle fill="#B1B3B6" stroke="#000000" stroke-width="0.4252" cx="165.21" cy="26.176" r="1.512"/>
	<circle fill="#B1B3B6" stroke="#000000" stroke-width="0.4252" cx="149.923" cy="25.79" r="1.513"/>
	<circle fill="#B1B3B6" stroke="#000000" stroke-width="0.4252" cx="137.702" cy="25.984" r="1.512"/>
	<circle fill="#B1B3B6" stroke="#000000" stroke-width="0.4252" cx="123.316" cy="27.453" r="1.512"/>
	<circle fill="#B1B3B6" stroke="#000000" stroke-width="0.4252" cx="109.292" cy="29.664" r="1.512"/>
	<circle fill="#B1B3B6" stroke="#000000" stroke-width="0.4252" cx="96.776" cy="32.349" r="1.512"/>
	<circle fill="#B1B3B6" stroke="#000000" stroke-width="0.4252" cx="87.483" cy="34.017" r="1.22"/>
	<circle fill="#B1B3B6" stroke="#000000" stroke-width="0.4252" cx="82.419" cy="48.422" r="1.512"/>
	<circle fill="#B1B3B6" stroke="#000000" stroke-width="0.4252" cx="90.206" cy="42.601" r="1.327"/>
	<circle fill="#B1B3B6" stroke="#000000" stroke-width="0.4252" cx="84.093" cy="40.651" r="0.958"/>
</g>
<path property="ro:has_part" resource="uberon:0006841" id="hepatic_central_vein" fill="#BCBEC0" d="M211.665,38.11c0.82-2.19,2.691-6.856,3.558-12.477
	c0.721-4.678-2.633-7.928-2.633-7.928s8.354-6.166,13.354-12.583c8.082,2.333,20.416,1.167,24.5,2.917c4.082,1.75,10.832,1,10.832,1
	s9.334,12.418,12.834,14.292c-3.834,4.624-3.916,10.687-3.166,13.697c0.75,3.01-1.584,17.927,5.582,19.594
	c-2.416,6.833-3.582,23.999-3.582,23.999s-10.666-1.841-15.584,2.247c-4.916,4.088-7.5,4.993-12.25,5.291
	c-4.75,0.297-7.084,2.464-8.416,4.714c-7.834-3.833-18.821-6.532-18.821-6.532s3.571-6.054-1.511-11.907
	c0,0-5.944-10.391-6.561-17.516C209.187,49.793,211.665,38.11,211.665,38.11z"/>
<g property="ro:has_part" resource="fma:14656" id="kupffer_cell">
	<path fill="#9D9FA2" stroke="#000000" stroke-width="0.4252" d="M160.526,51.455c0.768-0.115,1.314,0.415,1.272,1.102
		c-0.057,0.944-1.114,1.435-1.962,1.569c-1.488,0.237-3.332,0.156-4.814,0c-0.698-0.073-1.233-0.086-1.989,0.263
		c-0.458,0.211-1.979,1.073-1.658,1.738c0.35,0.723,1.764-0.05,2.151-0.168c0.834-0.253,1.236-0.131,1.916,0.31
		c1.304,0.845,2.117,1.418,3.752,0.913c0.516-0.158,4.133-2.325,4.086-0.475c-0.026,1.079-2.939,1.758-3.668,2.184
		c-1.211,0.707-2.403,1.827-3.731,0.717c-0.316-0.268-0.762-0.854-0.951-1.219c-1.354-0.527-2.479,0.575-3.818,0.318
		c-0.625-0.12-0.988-0.855-1.648-1.104c-0.604-0.229-1.431-0.117-1.998,0.289c-1.26,0.897-0.558,2.813-2.268,3.631
		c-0.828,0.396-1.641,0.422-2.336,0.02c-0.635-0.369-0.842-0.659-1.666-0.585c-1.676,0.147-2.27,1.625-4.232,1.17
		c-1.007-0.233-1.177-0.782-1.762-1.504c-0.479-0.592-1.479-1.297-2.261-0.897c-1.599,0.815-0.042,3.188-1.244,4.313
		c-0.542,0.508-1.176,0.86-1.898,0.644c-0.692-0.207-1.183-0.814-0.855-1.562c0.298-0.684,0.911-0.657,1.573-0.68
		c0.203-0.438,0.308-1.172,0.282-1.649c-0.032-0.651-0.301-0.796-0.615-1.317c-1.166-0.705-2.199,0.668-2.718,1.588
		c-0.645,1.143-2.234,2.01-3.602,1.896c-0.624-0.052-1.625-0.494-1.587-1.246c0.029-0.591,1.166-1.094,1.662-1.338
		c0.58-0.286,3.795-1.683,2.867-2.772c-0.683-0.806-3.119,0.799-4.092-0.158c-1.197-1.183,1.56-2.202,2.233-2.487
		c0.808-0.344,1.846-0.458,2.754-0.5c0.853-0.039,1.776-0.188,2.683-0.079c0.904,0.108,1.506,0.336,2.503,0.229
		c1.158-0.125,2.319-0.424,3.457-0.646c1.991-0.388,3.892-0.607,5.935-0.769c2.312-0.183,4.49-0.676,6.815-0.811
		c3.081-0.178,6.075-0.498,9.104-0.671c0.258-0.015,0.484-0.066,0.75-0.083L160.526,51.455z"/>
	<path fill="#9D9FA2" stroke="#000000" stroke-width="0.4252" d="M99.754,66.042c-0.737-1.59,1.714-2.296,2.75-1.649
		c1.314,0.82,1.469,2.273,1.171,3.709c-0.139,0.67-0.402,1.094,0.017,1.767c0.423,0.677,1.252,0.813,2.006,0.587
		c2.008-0.61,1.33-3.229,2.915-4.25c1.208-0.781,3.221-0.748,3.581,0.812c0.516,2.235-1.454,3.039-3.17,3.541
		c-0.951,0.278-3.761,2.308-1.579,2.812c1.354,0.312,3.85-1.438,4.337,0.75c0.551,2.477-3.314,1.061-4.402,1.579
		c-2.101,1.005,0.568,2.909-0.189,4.423c-1.034,2.062-2.503-0.71-4.079-0.337c-0.935,0.222-0.646,1.136-0.935,1.771
		c-0.442,0.971-1.01,0.31-1.737,0.068c-2.126-0.698-1.303,1.562-1.577,2.829c-0.366,1.685-2.778,2.319-3.835,1.002
		c-1.053-1.313,1.253-1.897,1.15-3.237c-0.532-0.387-1.433,0.273-1.653-0.513c-0.171-0.606,0.562-1.048,0.98-1.271
		c1.267-0.682,2.277-1.494,3.169-2.646c0.957-1.237,1.681-2.439,1.686-4.083c0.004-1.19-0.634-2.67-1.75-3.233
		c-0.606-0.306-1.358-0.207-1.981-0.369c-0.581-0.148-1.164-0.498-1.769-0.625c-1.271-0.265-2.818,0.508-3.812-0.604
		c-1.433-1.602,1.722-1.465,2.544-1.423c1.479,0.075,2.909,0.338,4.27,0.754c1.047,0.319,2.076,1.856,3.131,0.562
		C102.221,67.259,100.204,67.011,99.754,66.042z"/>
	<path fill="#6D6E71" stroke="#000000" stroke-width="0.4252" d="M104.216,73.22c1.201,0.277,0.64,2.439-0.493,2.236
		C102.589,75.253,103.461,73.045,104.216,73.22z"/>
	<path fill="#6D6E71" stroke="#000000" stroke-width="0.4252" d="M144.051,56.41c0.338,1.223-2.615,2.558-3.008,1.453
		C140.653,56.757,143.838,55.641,144.051,56.41z"/>
</g>
<g property="ro:has_part" resource="celda:00000373" id="hepatic_stellate_cell">
	<path fill="#77787B" stroke="#000000" stroke-width="0.4252" d="M92.36,45.73c2.541-0.47,8.417,5.308,7.583,7.475
		s-11.5,2.167-12.167-0.333S90.694,46.039,92.36,45.73z"/>
	<path fill="#636466" stroke="#000000" stroke-width="0.4252" d="M94.973,51.478c-0.078,0.984-3.292,0.844-2.879-0.728
		C92.507,49.178,95.056,50.436,94.973,51.478z"/>
	<path fill="#BCBEC0" d="M94.021,47.522c0-0.01,0-0.021,0-0.031c0-0.645-1-0.645-1,0c0,0.01,0,0.021,0,0.031
		C93.021,48.167,94.021,48.167,94.021,47.522L94.021,47.522z"/>
	<path fill="#BCBEC0" d="M95.443,48.303c-0.005,0-0.01,0-0.017,0c-0.645,0-0.645,1,0,1c0.006,0,0.011,0,0.017,0
		C96.088,49.303,96.088,48.303,95.443,48.303L95.443,48.303z"/>
	<path fill="#BCBEC0" d="M96.803,50.866c0.005,0,0.01,0,0.016,0c0.645,0,0.645-1,0-1c-0.005,0-0.01,0-0.016,0
		C96.158,49.866,96.158,50.866,96.803,50.866L96.803,50.866z"/>
	<path fill="#BCBEC0" d="M96.652,53c0.003,0.002,0.006,0.005,0.01,0.008c0.074-0.278,0.147-0.557,0.221-0.835
		c-0.009,0.002-0.017,0.005-0.024,0.008c-0.615,0.189-0.354,1.154,0.266,0.964c0.009-0.002,0.018-0.005,0.025-0.008
		c0.326-0.1,0.53-0.588,0.221-0.835c-0.003-0.002-0.006-0.005-0.01-0.008C96.861,51.895,96.149,52.598,96.652,53L96.652,53z"/>
	<path fill="#BCBEC0" d="M91.965,53.09c-0.01,0.01-0.021,0.021-0.03,0.031c-0.457,0.456,0.25,1.164,0.707,0.707
		c0.01-0.01,0.021-0.021,0.03-0.031C93.128,53.341,92.421,52.634,91.965,53.09L91.965,53.09z"/>
	<path fill="#BCBEC0" d="M89.131,51.709c-0.005,0-0.01,0-0.016,0c-0.645,0-0.645,1,0,1c0.005,0,0.01,0,0.016,0
		C89.776,52.709,89.776,51.709,89.131,51.709L89.131,51.709z"/>
	<path fill="#BCBEC0" d="M90.912,49.1c0-0.01,0-0.021,0-0.031c0-0.645-1-0.645-1,0c0,0.01,0,0.021,0,0.031
		C89.912,49.745,90.912,49.745,90.912,49.1L90.912,49.1z"/>
	<path fill="#BCBEC0" d="M90.764,51.645c0.016,0.005,0.03,0.011,0.047,0.016c0.612,0.205,0.875-0.761,0.266-0.964
		c-0.016-0.005-0.031-0.011-0.047-0.016C90.416,50.476,90.155,51.442,90.764,51.645L90.764,51.645z"/>
	<path fill="#BCBEC0" d="M92.191,47.811c-0.005-0.016-0.01-0.031-0.017-0.047c-0.202-0.609-1.168-0.348-0.964,0.266
		c0.005,0.016,0.011,0.031,0.017,0.047C91.43,48.686,92.396,48.424,92.191,47.811L92.191,47.811z"/>
	<path fill="#BCBEC0" d="M93.75,48.793c-0.005-0.005-0.01-0.01-0.016-0.016c-0.457-0.457-1.164,0.251-0.707,0.707
		c0.005,0.005,0.01,0.01,0.016,0.016C93.5,49.957,94.207,49.25,93.75,48.793L93.75,48.793z"/>
	<path fill="#BCBEC0" d="M95.031,53.938c0.01-0.01,0.021-0.021,0.031-0.031c0.457-0.456-0.25-1.164-0.707-0.707
		c-0.01,0.01-0.021,0.021-0.031,0.031C93.868,53.687,94.575,54.395,95.031,53.938L95.031,53.938z"/>
	<path fill="#BCBEC0" d="M98.812,52.188c0.006-0.005,0.013-0.01,0.02-0.016c0.137-0.11,0.168-0.327,0.128-0.486
		c-0.001-0.005-0.002-0.011-0.004-0.016c-0.156-0.625-1.121-0.36-0.964,0.266c0.001,0.005,0.002,0.011,0.004,0.016
		c0.042-0.162,0.085-0.324,0.128-0.486c-0.006,0.005-0.013,0.01-0.02,0.016C97.602,51.884,98.314,52.586,98.812,52.188
		L98.812,52.188z"/>
	<path fill="#77787B" stroke="#000000" stroke-width="0.4252" d="M189.459,45.101c-0.324,1.54-11.951,3.49-13.771,1.897
		c-1.82-1.593,1.439-4.857,3.035-6.299c1.594-1.442,4.521-1.585,5.614-1.138C186.01,40.244,189.804,43.464,189.459,45.101z"/>
	<path fill="#636466" stroke="#000000" stroke-width="0.4252" d="M183.844,42.967c0.879,1.255-2.347,2.482-2.75,0.872
		C180.69,42.229,183.375,42.296,183.844,42.967z"/>
	<path fill="#BCBEC0" d="M181.634,41.113c-0.043-0.119-0.092-0.205-0.17-0.304c-0.396-0.507-1.1,0.206-0.707,0.707
		c-0.028-0.046-0.059-0.091-0.088-0.137C180.885,41.981,181.853,41.722,181.634,41.113L181.634,41.113z"/>
	<path fill="#BCBEC0" d="M178.86,42.663c0.645,0,0.645-1,0-1C178.215,41.663,178.216,42.663,178.86,42.663L178.86,42.663z"/>
	<path fill="#BCBEC0" d="M179.714,44.308c-0.046,0.029-0.092,0.058-0.138,0.086c0.601-0.22,0.341-1.187-0.267-0.964
		c-0.117,0.043-0.205,0.09-0.306,0.17C178.507,44.009,179.219,44.712,179.714,44.308L179.714,44.308z"/>
	<path fill="#BCBEC0" d="M177.067,45.621c0.015,0,0.029,0,0.043,0c0.645,0,0.645-1,0-1c-0.014,0-0.028,0-0.043,0
		C176.424,44.621,176.424,45.621,177.067,45.621L177.067,45.621z"/>
	<path fill="#BCBEC0" d="M182.985,46.205c0.645,0,0.645-1,0-1C182.34,45.205,182.341,46.205,182.985,46.205L182.985,46.205z"/>
	<path fill="#BCBEC0" d="M186.026,41.455c-0.014,0-0.027,0-0.041,0c-0.646,0-0.646,1,0,1c0.014,0,0.027,0,0.041,0
		C186.671,42.455,186.671,41.455,186.026,41.455L186.026,41.455z"/>
	<path fill="#BCBEC0" d="M184.733,45.178c0.012,0.007,0.021,0.014,0.035,0.021c-0.076-0.1-0.153-0.199-0.229-0.299
		c0.002,0.007,0.004,0.014,0.005,0.021c0.155,0.626,1.119,0.36,0.965-0.266c-0.036-0.155-0.136-0.262-0.271-0.34
		C184.679,43.991,184.175,44.855,184.733,45.178L184.733,45.178z"/>
	<path fill="#BCBEC0" d="M183.692,40.663c0.043,0.009,0.086,0.018,0.127,0.027c-0.561-0.325-1.062,0.54-0.504,0.863
		c0.125,0.073,0.232,0.098,0.377,0.11C184.336,41.716,184.331,40.715,183.692,40.663L183.692,40.663z"/>
	<path fill="#BCBEC0" d="M187.692,45.246c0.646,0,0.646-1,0-1C187.048,44.246,187.049,45.246,187.692,45.246L187.692,45.246z"/>
	<path fill="#BCBEC0" d="M179.169,45.988c-0.001,0.012-0.003,0.024-0.005,0.036c0.116-0.116,0.231-0.233,0.352-0.349
		c-0.015,0.002-0.023,0.003-0.037,0.005c-0.638,0.092-0.365,1.055,0.268,0.964c0.012-0.001,0.023-0.003,0.035-0.005
		c0.15-0.022,0.328-0.198,0.35-0.349c0.002-0.012,0.004-0.024,0.007-0.037C180.224,45.624,179.259,45.352,179.169,45.988
		L179.169,45.988z"/>
	<path fill="#77787B" stroke="#000000" stroke-width="0.4252" d="M207.259,72.779c1.851,1.603-4.707,6.511-6.905,7.164
		c-2.201,0.65-7.973-3.791-8.119-5.856c-0.147-2.065,5.615-2.142,7.97-2.294C202.559,71.641,206.12,71.792,207.259,72.779z"/>
	<path fill="#BCBEC0" d="M206.229,73.951c0-0.006,0-0.014,0-0.02c0-0.646-1-0.646-1,0c0,0.006,0,0.012,0,0.02
		C205.229,74.596,206.229,74.596,206.229,73.951L206.229,73.951z"/>
	<path fill="#BCBEC0" d="M204.11,76.107c0.646,0,0.646-1,0-1C203.466,75.107,203.467,76.107,204.11,76.107L204.11,76.107z"/>
	<path fill="#BCBEC0" d="M202.751,73.8c0.646,0,0.646-1,0-1C202.106,72.8,202.106,73.8,202.751,73.8L202.751,73.8z"/>
	<path fill="#BCBEC0" d="M197.821,72.592c-0.014-0.013-0.026-0.025-0.04-0.04c-0.46-0.454-1.166,0.253-0.707,0.707
		c0.014,0.013,0.026,0.026,0.04,0.04C197.573,73.752,198.28,73.045,197.821,72.592L197.821,72.592z"/>
	<path fill="#BCBEC0" d="M195.69,75.445c0.082-0.131,0.092-0.279,0.051-0.426c-0.176-0.619-1.141-0.355-0.965,0.267
		c0.002,0.009,0.006,0.019,0.008,0.026c0.017-0.127,0.033-0.256,0.051-0.387c-0.003,0.006-0.005,0.01-0.008,0.014
		C194.483,75.489,195.349,75.99,195.69,75.445L195.69,75.445z"/>
	<path fill="#BCBEC0" d="M198,78.295c0.646,0,0.646-1,0-1C197.354,77.295,197.354,78.295,198,78.295L198,78.295z"/>
	<path fill="#BCBEC0" d="M202.101,77.566c0.008,0,0.015,0,0.021,0c0.646,0,0.646-1,0-1c-0.007,0-0.014,0-0.021,0
		C201.456,76.566,201.456,77.566,202.101,77.566L202.101,77.566z"/>
	<path fill="#BCBEC0" d="M197.19,76.62c0.646,0,0.646-1,0-1C196.546,75.62,196.547,76.62,197.19,76.62L197.19,76.62z"/>
	<path fill="#BCBEC0" d="M194.021,73.085c-0.015,0.006-0.024,0.013-0.039,0.021c-0.576,0.287-0.068,1.15,0.504,0.862
		c0.016-0.006,0.027-0.013,0.039-0.02C195.103,73.661,194.597,72.798,194.021,73.085L194.021,73.085z"/>
	<path fill="#BCBEC0" d="M201.122,72.886c0-0.007,0-0.013,0-0.02c0-0.646-1-0.646-1,0c0,0.007,0,0.013,0,0.02
		C200.122,73.531,201.122,73.531,201.122,72.886L201.122,72.886z"/>
	<path fill="#BCBEC0" d="M200.463,78.543c0.008-0.006,0.014-0.013,0.021-0.02c0.455-0.457-0.252-1.164-0.707-0.707
		c-0.008,0.006-0.014,0.013-0.021,0.02C199.3,78.292,200.007,79,200.463,78.543L200.463,78.543z"/>
	<path fill="#636466" stroke="#000000" stroke-width="0.4252" d="M201.819,74.93c0.098,1.762-3.219,1.399-3.286,0
		C198.466,73.529,201.752,73.712,201.819,74.93z"/>
	<path fill="#77787B" stroke="#000000" stroke-width="0.4252" d="M130.295,80.262c2.043,1.006,1.377,8.529-1.127,10.428
		c-2.504,1.897-8.729-0.558-9.752-3.01c-1.022-2.453,1.177-4.473,3.909-5.893S128.539,79.396,130.295,80.262z"/>
	<path fill="#BCBEC0" d="M129.277,80.744c-0.02-0.014-0.037-0.025-0.056-0.038c-0.536-0.362-1.036,0.505-0.506,0.862
		c0.02,0.014,0.037,0.023,0.057,0.039C129.308,81.97,129.808,81.104,129.277,80.744L129.277,80.744z"/>
	<path fill="#BCBEC0" d="M129.897,84.342c0-0.006,0-0.012,0-0.019c0-0.646-1-0.646-1,0c0,0.006,0,0.012,0,0.019
		C128.897,84.986,129.897,84.986,129.897,84.342L129.897,84.342z"/>
	<path fill="#BCBEC0" d="M126.185,81.917c-0.02-0.013-0.037-0.024-0.057-0.037c-0.539-0.358-1.039,0.509-0.505,0.863
		c0.02,0.013,0.037,0.024,0.057,0.037C126.218,83.141,126.718,82.273,126.185,81.917L126.185,81.917z"/>
	<path fill="#BCBEC0" d="M122.135,84.345c-0.019-0.006-0.036-0.013-0.056-0.019c-0.614-0.203-0.875,0.763-0.266,0.964
		c0.019,0.006,0.037,0.013,0.056,0.019C122.483,85.512,122.744,84.546,122.135,84.345L122.135,84.345z"/>
	<path fill="#BCBEC0" d="M121.108,87.568c-0.006,0-0.012,0-0.02,0c-0.645,0-0.645,1,0,1c0.007,0,0.013,0,0.02,0
		C121.753,88.568,121.753,87.568,121.108,87.568L121.108,87.568z"/>
	<path fill="#BCBEC0" d="M125.597,90.005c0.006-0.006,0.012-0.012,0.019-0.019c0.457-0.457-0.25-1.164-0.707-0.707
		c-0.006,0.006-0.012,0.012-0.019,0.019C124.433,89.754,125.14,90.461,125.597,90.005L125.597,90.005z"/>
	<path fill="#BCBEC0" d="M129.36,87.936c0.645,0,0.645-1,0-1C128.715,86.936,128.715,87.936,129.36,87.936L129.36,87.936z"/>
	<path fill="#BCBEC0" d="M127.128,88.208c0.006-0.013,0.014-0.024,0.02-0.037c0.288-0.575-0.575-1.082-0.863-0.505
		c-0.006,0.014-0.013,0.025-0.019,0.037C125.977,88.279,126.84,88.785,127.128,88.208L127.128,88.208z"/>
	<path fill="#BCBEC0" d="M123.157,87.305c-0.006,0.006-0.012,0.012-0.019,0.021c-0.457,0.457,0.25,1.164,0.707,0.707
		c0.006-0.008,0.012-0.014,0.019-0.021C124.321,87.555,123.614,86.848,123.157,87.305L123.157,87.305z"/>
	<path fill="#BCBEC0" d="M128.26,90.32c0.014-0.012,0.025-0.024,0.038-0.036c0.459-0.454-0.248-1.16-0.707-0.707
		c-0.013,0.012-0.024,0.024-0.038,0.037C127.094,90.068,127.801,90.773,128.26,90.32L128.26,90.32z"/>
	<path fill="#636466" stroke="#000000" stroke-width="0.4252" d="M127.097,84.529c0.945,0.865-1.542,2.744-2.951,1.539
		C122.737,84.865,124.75,82.383,127.097,84.529z"/>
</g>
<g property="ro:has_part" resource="celda:00000371" id="endothelial_cell">
	<path fill="#939598" stroke="#000000" stroke-width="0.4252" d="M88.693,69.204c-3.387,0-6.981-0.295-10.167-0.583
		c-2.125-0.191-4.192-0.182-6.313-0.167c-1.568,0.01-3.315,0.049-4.918-0.103c-1.612-0.151-3.052-0.271-4.745-0.187
		c-1.642,0.083-3.376,0.385-5.022,0.37c-0.457-0.004-1.625,0.049-1.984-0.248c-0.652-0.539-0.446-1.29,0.15-1.67
		c1.437-0.917,3.988-0.809,5.512-0.614c1.914,0.242,3.614-0.157,5.574,0.031c2.031,0.194,3.508,0.503,5.556,0.335
		c1.998-0.163,5.32,0.012,7.294,0.425c1.384,0.289,4.686,0.019,5.854,0.19c0.708,0.105,1.908,0.271,2.628,0.308
		c0.582,0.029,1.537,0.249,2.069,0.424c0.444,0.571,0.723,1.104-0.069,1.486L88.693,69.204L88.693,69.204z"/>
	<path fill="#939598" stroke="#000000" stroke-width="0.4252" d="M93.277,80.704c0.672-0.063,1.29,0.374,1,1.083
		c-0.229,0.559-0.913,0.6-1.421,0.746c-0.67,0.193-1.376,0.414-2.079,0.421c-0.759,0.008-1.991,0.31-2.745,0.427
		c-3.474,0.547-6.655,0.368-10.109,1.137c-1.778,0.396-3.58,0.51-5.396,0.623c-0.771,0.047-3.443,0.467-3.9-0.285
		c-0.869-1.433,2.923-1.602,3.508-1.651c1.74-0.154,3.544-0.28,5.288-0.498c2.494-0.312,5.042-0.353,7.521-0.667
		c1.103-0.143,2.185-0.521,3.25-0.729c0.994-0.199,1.991-0.181,3-0.354L93.277,80.704z"/>
	<path fill="#939598" stroke="#000000" stroke-width="0.4252" d="M200.088,68.665c0.089-0.702-0.474-0.896-0.988-1.019
		c-3.92,0.342-7.795,0.225-11.721,0.225c-5.812,0-11.412,1.428-17.162,1.996c-2.688,0.265-5.457,0.589-8.127,1.085
		c-2.256,0.419-4.598,0.162-6.876,0.396c-1.878,0.193-3.647,0.828-5.521,0.939c-0.936,0.056-4.041-0.12-4.334,1.082
		c-0.651,2.671,6.656,0.796,7.668,0.583c1.332-0.281,2.531-0.47,3.896-0.601c1.281-0.121,2.68-0.047,3.952-0.318
		c3.201-0.684,6.503-0.713,9.816-1.146c2.98-0.389,5.994-0.924,9.002-1.1c3.082-0.18,6.205-0.043,9.267-0.436
		c2.862-0.367,5.71-0.484,8.567-1.004c0.761-0.14,1.521-0.195,2.289-0.209C199.955,69.047,200.058,68.91,200.088,68.665z"/>
	<path fill="#939598" stroke="#000000" stroke-width="0.4252" d="M105.739,91.393c0.527-0.832,0.141-2.014-1.082-1.961
		s-4.195,0.811-6.195,1.108c-0.929,0.14-1.888,0.125-2.831,0.165c-1.279,0.054-2.364,0.531-3.581,0.835
		c-1.871,0.469-3.811,0.667-5.75,0.665c-2.315-0.002-4.579,0.583-6.921,0.583c-1.754,0-3.46,0.071-5.189,0.167
		c-0.859,0.047-3.483-0.225-3.936,0.585c-0.911,1.634,1.173,1.337,1.862,1.403c1.303,0.125,3.917,0.375,5.243,0.242
		c1.374-0.141,2.768-0.242,4.167-0.313c3.239-0.166,6.435-0.819,9.701-1.063c1.806-0.135,6.592-0.658,7.531-0.75
		c0.943-0.091,3.033-0.561,3.958-0.729c1.206-0.226,1.777-0.308,2.833-0.743C105.626,91.523,105.695,91.462,105.739,91.393z"/>
	<path fill="#939598" stroke="#000000" stroke-width="0.4252" d="M144.077,72.93c-2.01-0.425-5.119,0.243-7.106,0.592
		c-2.432,0.428-4.838,0.982-7.279,1.352c-1.717,0.258-3.051,0.441-4.684,0.104c-1.331-0.278-2.721-0.17-4.063-0.438
		c-1.71-0.344-3.279,0.316-4.5,1.566c-1.411,1.443-2.036,2.504-2.353,4.5c-0.134,0.846-0.161,1.655-0.729,2.354
		c-0.499,0.609-1.192,1-1.71,1.581c-0.981,1.103-2.521,2.021-3.812,2.817c-0.458,0.283-0.938,0.539-1.424,0.785
		c-0.37,0.479-0.537,1.297-0.305,1.678c0.177,0.291,0.62,0.604,0.972,0.684c0.163,0.036,0.392-0.006,0.603-0.015
		c0.604-0.281,1.217-0.548,1.84-0.863c2.919-1.483,5.401-4.085,7.647-6.504c1.361-1.467,3.307-2.753,5.039-3.825
		c1.993-1.23,3.963-1.506,6.167-2.027c1.706-0.401,3.292-1.082,4.998-1.328c0.914-0.133,4.211-0.401,4.986-0.481
		c1.272-0.13,2.513-0.476,3.784-0.604c0.709-0.072,2.229,0.25,2.822-0.211C146.071,73.775,144.722,73.064,144.077,72.93z"/>
	<path fill="#58595B" stroke="#000000" stroke-width="0.4252" d="M119.781,76.594c0.723,0.998-1.121,2.26-1.841,1.361
		C117.219,77.059,119.327,75.967,119.781,76.594z"/>
	<path fill="#939598" stroke="#000000" stroke-width="0.4252" d="M91.642,59.561c0.125-0.041,0.25-0.088,0.364-0.162
		c0.498-0.322,0.495-1.039,0.308-1.549c-0.271-0.733-0.989-0.791-1.688-0.789c-0.24,0-10.689-1.067-15.416-2.352
		c-2.597-0.706-5.233-0.088-7.833-0.338c-1.822-0.175-3.32-0.894-5.125-1.102c-1.154-0.133-3.768-0.333-4.729,0.519
		c-1.606,1.423,1.132,2.032,2.002,2.264c1.787,0.476,3.54,0.348,5.435,0.486c1.769,0.128,3.43,0.299,5.211,0.148
		c2.792-0.236,5.313,0.992,8.101,1.271c1.433,0.143,2.933,0.052,4.337,0.327c1.351,0.264,2.469,0.896,3.832,1.09
		c1.262,0.179,2.526,0.545,3.833,0.353C90.741,59.655,91.194,59.602,91.642,59.561z"/>
	<path fill="#939598" stroke="#000000" stroke-width="0.4252" d="M121.193,55.788l-1.333-0.167
		c-2.256-0.322-4.565,0.141-6.833,0.167c-1.442,0.017-3.026,0.114-4.496,0.248c-1.738,0.159-3.476,0-5.256,0.085
		c-1.999,0.097-4.001,0.582-5.998,0.77c-1.167,0.108-2.324,0.125-3.486,0.115c-0.311,0.092-0.596,0.25-0.825,0.529
		c-0.458,0.557-0.164,1.12,0.352,1.454c0.383,0.249,1.564,0.663,1.71,0.692c1.46,0.285,2.987,0.723,4.517,0.588
		c0.828-0.074,1.584-0.408,2.404-0.481c0.79-0.071,1.59,0.062,2.348,0.166c0.802,0.11,1.444,0.514,2.213,0.69
		c0.894,0.203,1.924,0.226,2.851,0.227c2.346,0.002,4.021-0.602,5.919-1.835c1.646-1.071,3.188-0.826,5.019-1.078
		c0.574-0.079,1.879-0.396,2.071-1.004C122.618,56.154,121.761,55.701,121.193,55.788z"/>
	<path fill="#58595B" stroke="#000000" stroke-width="0.4252" d="M110.797,57.925c0.15,1.224-2.072,1.437-2.27,0.302
		C108.33,57.093,110.703,57.157,110.797,57.925z"/>
	<path fill="#939598" stroke="#000000" stroke-width="0.4252" d="M182.702,51.452c0.521-0.539,0.072-1.186-0.396-1.308
		c-0.472-0.122-3.322,0.16-4.634,0.293c-2.862,0.292-5.774,0.286-8.645,0.452c-1.688,0.098-3.938-0.048-5.521,0.483
		c-0.556,0.187-1.436,0.414-1.479,1.082c-0.062,0.937,1.002,0.868,1.666,0.835c3.578-0.178,7.16-0.754,10.73-1.088
		c1.953-0.182,3.569,0.071,5.518-0.117C180.744,52.007,182.181,51.991,182.702,51.452z"/>
	<path fill="#939598" stroke="#000000" stroke-width="0.4252" d="M207.243,43.749c-0.562,0.062-2.083,1.196-3.053,1.706
		c-1.748,0.92-4.256,1.996-6.248,2.083c-4.364,0.192-8.687,0.792-12.916,1.85c-0.521,0.13-1.031,0.285-1.543,0.436
		c-0.4,0.279-0.623,1.197-0.018,1.617c0.451,0.312,1.896-0.016,2.537-0.001c0.854,0.02,3.479-0.208,5.729-0.591
		c2.252-0.383,4.854-0.925,7.08-1.032c0.74-0.036,2.74-0.707,3.461-0.878c0.894-0.212,1.793-0.806,2.582-1.256
		c1.299-0.74,3.867-2.093,3.834-3.128C208.661,43.52,207.806,43.686,207.243,43.749z"/>
	<path fill="#939598" stroke="#000000" stroke-width="0.4252" d="M254.862,7.713c-0.617-0.181-1.25-0.297-1.887-0.451
		c-1.679-0.406-3.188-1.096-4.944-1.283c-3.19-0.339-6.386,0.215-9.558,0.215c-1.722,0-3.375-0.097-5.015-0.405
		c-1.317-0.249-2.504-0.775-3.796-1.051c-1.062-0.228-2.438-0.672-3.548-0.366c-1.045,0.288-1.942,1.576-0.801,2.274
		c0.521,0.317,1.231,0.259,1.828,0.429c0.672,0.192,1.278,0.423,1.965,0.587c0.904,0.217,1.766,0.224,2.691,0.265
		c0.993,0.044,1.954,0.259,2.938,0.337c3.173,0.254,6.438,0.285,9.642,0.138c1.71-0.079,3.193-0.104,4.798,0.399
		c1.466,0.459,3.007,0.724,4.479,1.135c1.34,0.374,2.938,0.402,4.348,0.401c1.147-0.001,2.608,0.31,3.657-0.219
		c0.688-0.346,1.458-1.219,0.604-1.769c-0.601-0.385-2.014-0.438-2.729-0.351C259.541,7.999,255.485,7.896,254.862,7.713z"/>
	<path fill="#939598" stroke="#000000" stroke-width="0.4252" d="M271.942,23.569c-1.008,1.275-1.819,3.286-2.176,4.48
		c-0.334,1.118-0.603,2.133-0.535,3.342c0.062,1.171,0.234,2.274,0.387,3.424c0.167,1.281,0.449,2.529,0.615,3.796
		c0.098,0.74-0.021,3.022,1.457,2.461c1.215-0.461,0.912-2.366,0.729-3.265c-0.248-1.235-0.631-2.561-0.771-3.81
		c-0.228-2.048-0.123-4.559,1.054-6.283c0.364-0.537,0.674-1.109,1.01-1.665c0.354-0.583,0.661-1.169,0.854-1.826
		c0.283-0.966-0.056-1.902-1.077-1.816C272.733,22.473,272.431,22.953,271.942,23.569z"/>
	<path fill="#939598" stroke="#000000" stroke-width="0.4252" d="M270.502,44.024c0,1.207-0.205,2.349-0.269,3.542
		c-0.062,1.131,0.173,2.367,0.334,3.476c0.339,2.313,1.437,4.294,3.613,5.397c0.727,0.368,1.719,1.225,2.469,0.551
		c1.018-0.912-0.147-1.722-0.782-2.354c-1.605-1.598-2.69-3.433-3.024-5.667c-0.339-2.258-0.237-6.229-0.348-6.938
		c-0.109-0.709-0.534-1.007-1.377-0.798c-0.744,0.184-0.68,0.948-0.684,1.589L270.502,44.024z"/>
	<path fill="#939598" stroke="#000000" stroke-width="0.4252" d="M264.619,79.514c-1.257,0-2.529-0.049-3.742,0.133
		c-2.16,0.326-4.536,1.106-5.896,2.946c-0.438,0.593-0.836,1.224-1.305,1.816c-0.462,0.585-1.214,1.25-1.072,2.11
		c0.396,0.17,0.703,0.479,1.189,0.479c0.571,0.002,1.149-0.419,1.604-0.671c1.017-0.563,1.936-1.181,2.873-1.853
		c0.861-0.619,1.856-1.483,2.875-1.891c0.957-0.382,2.359-0.648,3.422-0.788c2.295-0.301,4.607-0.053,6.938-0.081
		c0.857-0.01,2.58-0.236,2.056-1.404c-0.422-0.936-1.672-0.936-2.588-0.935C270.97,79.38,265.793,79.514,264.619,79.514z"/>
	<path fill="#939598" stroke="#000000" stroke-width="0.4252" d="M244.172,87.2c-1.188,0.059-2.228,0.096-3.346,0.33
		c-1.951,0.407-3.582,2.312-4.341,4.083c-0.325,0.761-0.764,2.713,0.799,1.941c1.167-0.578,1.65-2.246,2.654-3.031
		c1.812-1.42,4.795-1.576,7.039-1.791c1.58-0.149,4.099,0.14,5.189-1.213c0.74-0.916,0.024-1.533-0.917-1.645
		c-1.22-0.143-2.026,0.529-3.12,0.828C246.938,87.032,245.412,87.137,244.172,87.2z"/>
	<path fill="#939598" stroke="#000000" stroke-width="0.4252" d="M200.44,68.473c0.648,0.887,2.791,0.93,3.764,0.881
		c1.229-0.061,2.918,0.293,4.085,0.605c1.932,0.516,3.522,1.029,4.918,2.486c0.594,0.621,1.836,1.705,2.544,0.584
		c0.66-1.045,0.191-2.036-0.602-2.405c-1.121-0.521-1.873-0.878-2.914-1.599c-0.504-0.35-2.426-0.875-3.006-1.09
		C208.608,67.707,199.031,66.553,200.44,68.473z"/>
	<path fill="#939598" stroke="#000000" stroke-width="0.4252" d="M217.353,77.457c0.32,0.982,0.36,2.059,0.414,3.126
		c0.055,1.067,0.295,2.222,0.021,3.272c-0.243,0.922-1.232,2.023-0.554,2.959c0.941,1.291,2.162-0.693,2.457-1.559
		c0.789-2.32,0.404-4.956-0.25-7.218c-0.572-1.979-0.828-4.461-3.209-4.822c-0.627-0.095-1.312,0.517-1.006,1.189
		c0.215,0.47,0.89,0.917,1.207,1.354C216.808,76.281,217.151,76.845,217.353,77.457z"/>
	<path fill="#939598" stroke="#000000" stroke-width="0.4252" d="M211.276,37.155c-0.312,0.891-0.652,1.835-1.223,2.621
		c-0.49,0.677-0.729,1.439-1.226,2.098c-0.356,0.477-0.951,1.082-0.71,1.625c0.342,0.77,1,0.631,1.673,0.304
		c1.747-0.849,2.306-3.129,2.836-4.867c0.604-1.967,1.501-3.825,1.97-5.799c0.147-0.632,0.978-4.286-0.701-3.328
		c-0.68,0.388-0.807,1.382-1.088,2.02c-0.312,0.693-0.521,1.397-0.777,2.094c-0.17,0.462-0.272,0.888-0.403,1.354L211.276,37.155z"
		/>
	<path fill="#939598" stroke="#000000" stroke-width="0.4252" d="M214.642,24.794c-0.084,0.911-0.205,1.915-0.308,2.839
		c-0.041,0.379-0.186,0.724-0.218,1.092c-0.042,0.47,0.175,0.536,0.442,0.866c1.672,0.708,1.83-3.536,1.828-4.308
		c-0.005-0.949,0.213-1.975,0-2.88c-0.166-0.697-0.354-1.733-0.777-2.325c-0.418-0.583-1.09-1.926-1.625-2.459
		c-0.428-0.425-1.213-0.413-1.604,0.328c-0.341,0.644,0.348,1.256,0.738,1.778c0.473,0.63,0.747,1.458,1.03,2.185
		C214.437,22.648,214.642,24.794,214.642,24.794z"/>
	<path fill="#58595B" stroke="#000000" stroke-width="0.4252" d="M204.381,46.834c0.309,0.307-0.99,1.042-1.188,0.638
		C202.997,47.068,204.192,46.647,204.381,46.834z"/>
	<path fill="#58595B" stroke="#000000" stroke-width="0.4252" d="M211.499,39.053c0.515,0.114-0.25,1.938-0.682,1.812
		C210.388,40.741,211.147,38.975,211.499,39.053z"/>
	<path fill="#58595B" stroke="#000000" stroke-width="0.4252" d="M249.881,7.678c-0.179,0.379,1.643,1.141,1.812,0.688
		C251.864,7.913,250.006,7.413,249.881,7.678z"/>
	<path fill="#58595B" stroke="#000000" stroke-width="0.4252" d="M271.786,50.381c0.332-0.209,1.216,1.873,0.607,2.093
		C271.786,52.694,271.19,50.756,271.786,50.381z"/>
	<path fill="#58595B" stroke="#000000" stroke-width="0.4252" d="M258.628,82.004c0.273,0.451-1.221,1.713-1.661,1.186
		C256.526,82.663,258.354,81.553,258.628,82.004z"/>
	<path fill="#58595B" stroke="#000000" stroke-width="0.4252" d="M218.013,76.874c0.411-0.206,1.016,1.248,0.588,1.422
		C218.171,78.47,217.601,77.079,218.013,76.874z"/>
	<path fill="#58595B" stroke="#000000" stroke-width="0.4252" d="M182.427,69.547c-0.021,0.537,2.337,0.535,2.364,0
		C184.819,69.012,182.446,69.009,182.427,69.547z"/>
	<path fill="#58595B" stroke="#000000" stroke-width="0.4252" d="M87.417,93.412c0.038,0.415-2.071,0.695-2.039,0.098
		C85.411,92.913,87.359,92.786,87.417,93.412z"/>
	<path fill="#58595B" stroke="#000000" stroke-width="0.4252" d="M76.873,67.538c-0.022,0.489-1.896,0.483-1.863,0
		C75.043,67.055,76.889,67.195,76.873,67.538z"/>
</g>
</svg>
