<?xml version="1.0" encoding="utf-8"?>
<!--
 Semantic Body Illustrations - v1.0.0 - 2014-08-22
 http://sbb.cellfinder.org
-->
<!DOCTYPE svg PUBLIC "-//W3C//DTD SVG 1.1//EN" "http://www.w3.org/Graphics/SVG/1.1/DTD/svg11.dtd">
<svg version="1.1" id="pretubular_aggregate" xmlns="http://www.w3.org/2000/svg" xmlns:xlink="http://www.w3.org/1999/xlink"
	 x="0px" y="0px" width="160.694px" height="175.724px" viewBox="0 0 160.694 175.724" enable-background="new 0 0 160.694 175.724" xml:space="preserve"
	 prefix="uberon: http://purl.obolibrary.org/obo/UBERON_ ro: http://www.obofoundry.org/ro/ro.owl# go: http://purl.org/obo/owl/GO#GO_ fma: http://purl.org/obo/owl/FMA#FMA_ cl: http://purl.org/obo/owl/CL# celda: http://ontology.cellfinder.org/CELDA.owl#CELDA_ ncbitaxon: http://purl.obolibrary.org/obo/NCBITaxon_ biotop: http://purl.org/biotop/biotop.owl#"
	 about="celda:000001474"
	 typeof="ncbitaxon:9606">
<title>Human Pretubular Aggregate</title>
<desc>Copyright (C) Lekschas et al. Licensed under Creative Commons BY-SA 4.0</desc>
<desc>Homepage: http://sbb.cellfinder.org</desc>
<desc>Repository: https://github.com/flekschas/sbi</desc>
<path property="ro:has_part" resource="uberon:0002015" id="renal_capsule" fill="#B3B5B8" d="M14.515,32.312c0,0,16.25,3.5,21,5.25s22.75,1,31-3.25s28-7.25,36.5-4.25
	s21.5,10.5,27.75,12.25s22.75,0.5,22.75,0.5l-0.75-14c0,0-30.75-16.5-82-16c-40,0.39-57.25,9.25-57.25,9.25L14.515,32.312z"/>
<path property="ro:has_part" resource="uberon:0005211" id="medullary_interstitium" fill="#DADBDC" d="M14.265,32.562l135-2l-8.5,120.54c0,0-19.5,16.5-44.503,14.752
	c-18.952-1.324-34.997-11.752-34.997-11.752l-7.625-9.625l-9.375,10.875c0,0-6.72,5.895-12,7.5c-4.121,1.254-11,1-11,1l0.5-12.75
	L14.265,32.562z"/>
<path property="ro:has_part" resource="uberon:0005270" id="cortical_interstitium" fill="#E9E9EA" d="M149.515,82.864l0.125-53.178c0,0-27.125-11.875-87.875-11.875
	c-19.105,0-45.75,5.25-45.75,5.25l-5,49.553c0,0,10.112-1.396,16.62-1.626c10.505-0.374,21.326,1.394,33.633,1.119
	c13.006-0.288,25.497,4.757,37.247,6.257c10.921,1.395,20.663,0.784,29.246,5.831C143.14,93.24,149.515,82.864,149.515,82.864"/>
<path property="ro:has_part" resource="celda:000001431" id="nephorgenic_interstitium" fill="#E0E1E2" d="M9.765,36.062c0,0,14.375-0.875,25,1.75c4.915,1.214,23.5,2.75,31.75-1.5
	s28-7.25,36.5-4.25s21.5,10.5,27.75,12.25s22.75,0.5,22.75,0.5l-0.75-14c0,0-30.75-16.5-82-16c-40,0.39-57.25,9.25-57.25,9.25
	L9.765,36.062z"/>
<path property="ro:has_part" resource="uberon:0005107" id="cap_mesenchyme" fill="none" d="M42.539,67.476c-13.126,0-16.751-7.622-16.751-11.468c0-4.5,4.594-5.688,15.348-5.688
	c8.859,0,14.256,0.935,14.251,4.967S52.464,67.476,42.539,67.476z"/>
<g roperty="ro:has_part" resource="celda:00000346" id="pelvic_smooth_muscles">
	<path fill="#E9E9EA" d="M141.39,151.601c0,0-19.625,12.625-39.75,14.125s-40.5-12.125-40.5-12.125l-0.875-0.25l0.625-2.75
		c0,0,20.625,11.875,40.75,10.375s39.75-13.125,39.75-13.125l1.375,3.875L141.39,151.601z"/>
	<path fill="#E9E9EA" d="M20.265,163.226c0,0,4.313,0.75,10.375-0.312c7.003-1.229,14.313-8.75,14.313-8.75l0.437-1.812
		c0,0-8.747,5.521-15.75,6.75c-6.062,1.062-9.5,0.125-9.5,0.125L20.265,163.226z"/>
</g>
<g property="ro:has_part" resource="uberon:0000365" id="urothelium">
	<path fill="#919396" d="M98.532,166.34c-19.012,0-37.476-12.193-37.67-12.323l0.556-0.831c0.202,0.135,20.469,13.515,40.185,12.042
		c19.762-1.473,39.321-13.921,39.517-14.047l0.541,0.841c-0.197,0.127-19.963,12.711-39.983,14.203
		C100.63,166.303,99.579,166.34,98.532,166.34z"/>
	<path fill="#919396" d="M24.174,163.986c-2.41,0-3.892-0.25-3.996-0.268l0.171-0.985c0.042,0.008,4.308,0.721,10.203-0.312
		c6.761-1.186,13.969-8.532,14.041-8.606l0.717,0.697c-0.303,0.312-7.503,7.652-14.585,8.894
		C28.167,163.854,25.926,163.986,24.174,163.986z"/>
</g>
<g iproperty="ro:has_part" resource="uberon:0006373" d="perihilar_interstitium">
	<path fill="#B3B5B8" d="M61.265,152.101c0,0,20.125,12.625,40.25,11.125s40.25-13.5,40.25-13.5l0.095-0.553l-0.47-1.322
		c0,0-19.625,11.625-39.75,13.125s-40.75-10.375-40.75-10.375l-0.109,0.754L61.265,152.101z"/>
	<path fill="#B3B5B8" d="M20.14,159.226c0,0,3.438,0.938,9.5-0.125c7.003-1.229,15.75-6.75,15.75-6.75l0.125,0.625
		c0,0-8.497,6.771-15.5,8c-6.062,1.062-11,0.375-11,0.375L20.14,159.226z"/>
</g>
<g property="ro:has_part" resource="uberon:0005080" id="ureteric_bud">
	<path property="ro:has_part" resource="uberon:0012238" id="ureteric_trunk" fill="#FFFFFF" stroke="#000000" stroke-width="0.4252" d="M39.593,67.476
		c0.477,2.142,0.71,4.076,0.814,4.913c0.229,1.837,0.674,5.792,0.674,5.792c0.904,6.683,4.317,32.585,6.183,56.42
		c0.75,13.25-3.125,20.875-3.125,20.875s5.195-4.711,9.249-4.746c3.667-0.031,8.626,3.746,8.626,3.746s-2.95-10.361-4.629-15.877
		c-4.871-15.998-11.657-62.479-11.657-62.479c-0.127-1.042-0.333-2.901-0.534-5.501c-0.108-1.396-0.073-2.62,0.061-3.691"/>
	<path property="ro:has_part" resource="uberon:0006364" id="ureteric_tip" fill="#FFFFFF" stroke="#000000" stroke-width="0.4252" d="M45.255,66.928
		c0.32-2.558,1.207-4.245,2.065-5.322c1.218-1.527,1.625-3.526,0.595-5.411c-1.291-2.361-4.975-1.562-7.449-1.031
		c-2.33-1.836-7.011-1.721-8.226,0.061c-1.213,1.781,1.697,2.181,4.393,5.188c1.469,1.637,2.389,4.499,2.96,7.062"/>
</g>
<g property="ro:has_part" resource="celda:00000199" id="ureteric_bud_cell">
	<path fill="#D1D3D4" stroke="#000000" stroke-width="0.2" d="M40.38,61.518c-0.141,0.25,0.443,1.507,0.639,1.492
		c0.052,0.267,1.051,0.998,1.38,0.851c0.238,0.213,1.52,0.082,1.55-0.185c0.4-0.005,1.428-0.651,1.448-0.822
		c0.342,0.031,1.243-0.697,1.24-0.885c0.308,0.017,1.02-0.597,0.993-0.786c0.317-0.041,1.068-1.042,0.938-1.237
		c0.471-0.195,0.629-1.302,0.496-1.433c0.256-0.233,0.175-1.816-0.097-1.792c0.046-0.555-0.537-1.337-0.786-1.348
		c-0.054-0.479-0.979-1.039-1.292-0.852c-0.333-0.296-1.16-0.415-1.415-0.256c-0.229-0.14-1.097-0.084-1.173,0.073
		c-0.217-0.216-1.004,0.155-1.081,0.304c-0.24-0.149-0.954,0.049-0.974,0.229c-0.167,0.02-1,0.44-0.994,0.745
		c-0.224-0.025-0.658,0.727-0.581,0.927c-0.179,0.086-0.351,1.078-0.244,1.265c-0.245,0.231-0.217,1.124-0.111,1.216
		c-0.255,0.232-0.165,0.959-0.071,1.033C40.072,60.258,40.186,61.447,40.38,61.518z"/>
	<path fill="none" stroke="#000000" stroke-width="0.2" d="M45.475,54.265c0,0-0.073,1.399-0.099,1.743"/>
	<path fill="none" stroke="#000000" stroke-width="0.2" d="M44.302,54.338c0,0,0.341,1.415,0.335,1.667"/>
	<path fill="none" stroke="#000000" stroke-width="0.2" d="M43.221,54.642c0,0,0.528,1.244,0.594,1.539"/>
	<path fill="none" stroke="#000000" stroke-width="0.2" d="M42.248,54.871c0,0,0.917,1.325,1.025,1.622"/>
	<path fill="none" stroke="#000000" stroke-width="0.2" d="M41.253,55.616c0,0,1.198,0.766,1.6,1.235"/>
	<path fill="none" stroke="#000000" stroke-width="0.2" d="M40.673,56.542c0,0,0.858,0.682,1.705,0.979"/>
	<path fill="none" stroke="#000000" stroke-width="0.2" d="M40.429,57.808c0,0,1.248,0.37,1.662,0.457"/>
	<path fill="none" stroke="#000000" stroke-width="0.2" d="M40.318,59.024c0,0,1.328,0.162,1.633,0.229"/>
	<path fill="none" stroke="#000000" stroke-width="0.2" d="M40.247,60.057c0.446,0.232,1.686,0.148,1.686,0.148"/>
	<path fill="none" stroke="#000000" stroke-width="0.2" d="M40.38,61.518c-0.312,0.052,1.583-0.557,1.583-0.557"/>
	<path fill="none" stroke="#000000" stroke-width="0.2" d="M41.019,63.01c0.336-0.387,1.151-1.326,1.151-1.326"/>
	<path fill="none" stroke="#000000" stroke-width="0.2" d="M42.678,62.031c0,0-0.135,1.62-0.278,1.829"/>
	<path fill="none" stroke="#000000" stroke-width="0.2" d="M43.654,61.91c0,0,0.207,1.59,0.295,1.766"/>
	<path fill="none" stroke="#000000" stroke-width="0.2" d="M44.583,61.488c0,0,0.674,1.148,0.814,1.365"/>
	<path fill="none" stroke="#000000" stroke-width="0.2" d="M45.474,60.596c0,0,0.882,1.183,1.163,1.372"/>
	<path fill="none" stroke="#000000" stroke-width="0.2" d="M46.313,59.795c0,0,1.16,1.188,1.317,1.387"/>
	<path fill="none" stroke="#000000" stroke-width="0.2" d="M47.012,59.138c0,0,1.307,0.714,1.557,0.807"/>
	<path fill="none" stroke="#000000" stroke-width="0.2" d="M47.333,58.338c0,0,1.477,0.179,1.731,0.174"/>
	<path fill="none" stroke="#000000" stroke-width="0.2" d="M47.279,57.395c0,0,1.399-0.493,1.688-0.674"/>
	<path fill="none" stroke="#000000" stroke-width="0.2" d="M46.919,56.796c0,0,0.968-1.09,1.262-1.424"/>
	<path fill="none" stroke="#000000" stroke-width="0.2" d="M46.283,56.264c0.197-0.566,0.606-1.743,0.606-1.743"/>
	<path fill="#939598" d="M41.499,56.584c-0.036,0.162,0.287,0.245,0.296,0.045C41.807,56.428,41.535,56.421,41.499,56.584z"/>
	<path fill="#939598" d="M41.175,57.511c-0.036,0.164,0.286,0.247,0.296,0.045C41.481,57.356,41.21,57.35,41.175,57.511z"/>
	<path fill="#939598" d="M41.037,58.56c-0.036,0.163,0.286,0.245,0.297,0.044C41.345,58.403,41.073,58.396,41.037,58.56z"/>
	<path fill="#939598" d="M40.929,59.608c-0.036,0.164,0.287,0.247,0.298,0.045C41.236,59.454,40.965,59.446,40.929,59.608z"/>
	<path fill="#939598" d="M40.893,60.799c-0.036,0.163,0.287,0.245,0.296,0.044C41.2,60.643,40.929,60.636,40.893,60.799z"/>
	<path fill="#939598" d="M41.215,61.769c-0.036,0.163,0.286,0.245,0.297,0.044C41.522,61.613,41.25,61.606,41.215,61.769z"/>
	<path fill="#939598" d="M41.835,62.692c-0.036,0.163,0.287,0.245,0.297,0.044C42.143,62.536,41.871,62.529,41.835,62.692z"/>
	<path fill="#939598" d="M42.899,62.88c-0.037,0.163,0.286,0.245,0.297,0.045C43.207,62.725,42.935,62.718,42.899,62.88z"/>
	<path fill="#939598" d="M44.231,62.44c-0.036,0.164,0.287,0.245,0.297,0.045C44.538,62.284,44.268,62.277,44.231,62.44z"/>
	<path fill="#939598" d="M45.421,61.624c-0.035,0.164,0.286,0.246,0.297,0.045C45.729,61.469,45.457,61.461,45.421,61.624z"/>
	<path fill="#939598" d="M46.284,60.874c-0.036,0.162,0.286,0.245,0.297,0.044C46.592,60.718,46.32,60.71,46.284,60.874z"/>
	<path fill="#939598" d="M47.191,60.026c-0.036,0.163,0.286,0.245,0.296,0.044C47.498,59.87,47.227,59.863,47.191,60.026z"/>
	<path fill="#939598" d="M47.688,58.934c-0.036,0.163,0.285,0.245,0.296,0.044C47.995,58.777,47.724,58.771,47.688,58.934z"/>
	<path fill="#939598" d="M48.134,57.632c-0.036,0.164,0.286,0.246,0.296,0.045C48.442,57.477,48.17,57.47,48.134,57.632z"/>
	<path fill="#939598" d="M47.881,56.539c-0.035,0.163,0.286,0.245,0.297,0.045S47.917,56.376,47.881,56.539z"/>
	<path fill="#939598" d="M46.98,55.715c-0.036,0.163,0.287,0.245,0.297,0.045C47.289,55.56,47.017,55.552,46.98,55.715z"/>
	<path fill="#939598" d="M45.821,55.248c-0.036,0.163,0.287,0.245,0.297,0.044C46.128,55.091,45.856,55.085,45.821,55.248z"/>
	<path fill="#939598" d="M44.675,55.039c-0.036,0.163,0.286,0.246,0.296,0.045C44.982,54.883,44.711,54.876,44.675,55.039z"/>
	<path fill="#939598" d="M43.852,55.263c-0.036,0.163,0.287,0.246,0.296,0.044C44.159,55.107,43.887,55.101,43.852,55.263z"/>
	<path fill="#939598" d="M42.906,55.418c-0.036,0.163,0.286,0.245,0.297,0.044C43.213,55.262,42.942,55.255,42.906,55.418z"/>
	<path fill="#939598" d="M42.031,55.819c-0.035,0.162,0.286,0.245,0.297,0.045C42.338,55.663,42.067,55.656,42.031,55.819z"/>
</g>
<g property="ro:has_part" resource="celda:00000267" id="metanephric_mesenchymal_stem_cell">
	<path fill="#D1D3D4" stroke="#000000" stroke-width="0.2" d="M47.961,60.434c-0.605,0.668,0.726,1.831,1.416,1.048
		C50.068,60.701,48.544,59.79,47.961,60.434z"/>
	<path fill="#939598" d="M48.525,60.977c-0.036,0.162,0.286,0.245,0.297,0.044S48.561,60.813,48.525,60.977z"/>
	<path fill="#D1D3D4" stroke="#000000" stroke-width="0.2" d="M51.678,60.19c-0.252-0.072-1.3,0.47-1.226,0.769
		c0.073,0.299,0.972,1.4,1.362,1.188c0.39-0.211,0.67-0.582,0.574-0.909C52.293,60.911,51.941,60.267,51.678,60.19z"/>
	<path fill="#939598" d="M51.41,61.14c-0.036,0.162,0.286,0.245,0.296,0.044S51.446,60.976,51.41,61.14z"/>
	<path fill="#D1D3D4" stroke="#000000" stroke-width="0.2" d="M48.941,61.729c-0.261,0.174,0.205,1.785,0.802,1.783
		c0.598-0.003,0.943-1.005,0.714-1.393C50.228,61.731,49.276,61.507,48.941,61.729z"/>
	<path fill="#939598" d="M49.6,62.541c-0.035,0.164,0.286,0.246,0.297,0.045C49.907,62.385,49.635,62.378,49.6,62.541z"/>
	<path fill="#D1D3D4" stroke="#000000" stroke-width="0.2" d="M48.892,58.712c-0.214,0.127-0.583,1.124-0.305,1.469
		c0.279,0.345,1.354,0.537,1.496,0.229c0.143-0.307,0.397-1.024,0.217-1.311C50.119,58.812,49.162,58.552,48.892,58.712z"/>
	<path fill="#939598" d="M49.328,59.544c-0.036,0.163,0.286,0.245,0.296,0.044C49.636,59.388,49.365,59.381,49.328,59.544z"/>
	<path fill="#D1D3D4" stroke="#000000" stroke-width="0.2" d="M50.291,60.305c-0.39,0.023-0.855,1.132-0.584,1.634
		c0.271,0.501,1.564,0.257,1.569-0.409C51.283,60.865,50.749,60.277,50.291,60.305z"/>
	<path fill="#939598" d="M50.148,61.263c-0.036,0.163,0.287,0.245,0.297,0.044C50.457,61.106,50.185,61.1,50.148,61.263z"/>
	<path fill="#D1D3D4" stroke="#000000" stroke-width="0.2" d="M51.908,59.328c-0.901-0.033-0.936,1.733,0.107,1.759
		C53.058,61.113,52.776,59.361,51.908,59.328z"/>
	<path fill="#939598" d="M51.855,60.109c-0.148,0.077-0.004,0.376,0.156,0.255C52.172,60.244,52.003,60.032,51.855,60.109z"/>
	<path fill="#D1D3D4" stroke="#000000" stroke-width="0.2" d="M51.733,58.546c-0.106-0.24-1.196-0.693-1.377-0.445
		c-0.182,0.248-0.447,1.644-0.035,1.808c0.413,0.162,0.877,0.138,1.066-0.146C51.577,59.479,51.844,58.796,51.733,58.546z"/>
	<path fill="#939598" d="M50.834,58.951c-0.147,0.077-0.003,0.377,0.157,0.256S50.981,58.873,50.834,58.951z"/>
	<path fill="#D1D3D4" stroke="#000000" stroke-width="0.2" d="M50.113,63.596c-0.302-0.088-1.237,1.305-0.851,1.761
		c0.386,0.456,1.376,0.076,1.526-0.349C50.937,64.583,50.498,63.709,50.113,63.596z"/>
	<path fill="#939598" d="M49.914,64.623c-0.148,0.077-0.004,0.376,0.156,0.255C50.23,64.757,50.061,64.545,49.914,64.623z"/>
	<path fill="#D1D3D4" stroke="#000000" stroke-width="0.2" d="M52.227,64.323c-0.236-0.083-1.237,0.274-1.323,0.71
		c-0.085,0.435,0.459,1.382,0.786,1.293c0.327-0.088,1.04-0.354,1.143-0.677C52.938,65.326,52.523,64.426,52.227,64.323z"/>
	<path fill="#939598" d="M51.87,65.19c-0.148,0.078-0.004,0.376,0.156,0.257C52.187,65.326,52.017,65.114,51.87,65.19z"/>
	<path fill="#D1D3D4" stroke="#000000" stroke-width="0.2" d="M53.381,63.193c-0.268-0.284-1.418,0.073-1.627,0.603
		c-0.21,0.53,0.808,1.365,1.322,0.94C53.589,64.312,53.697,63.525,53.381,63.193z"/>
	<path fill="#939598" d="M52.556,63.699c-0.147,0.078-0.004,0.377,0.157,0.257C52.873,63.835,52.703,63.623,52.556,63.699z"/>
	<path fill="#D1D3D4" stroke="#000000" stroke-width="0.2" d="M50.968,65.586c-0.554-0.712-1.929,0.397-1.279,1.212
		C50.34,67.613,51.501,66.271,50.968,65.586z"/>
	<path fill="#939598" d="M50.337,66.047c-0.155-0.063-0.292,0.239-0.097,0.285C50.437,66.377,50.49,66.11,50.337,66.047z"/>
	<path fill="#D1D3D4" stroke="#000000" stroke-width="0.2" d="M53.403,62.371c0.115-0.236-0.238-1.362-0.544-1.341
		c-0.307,0.021-1.547,0.714-1.407,1.135c0.141,0.42,0.457,0.76,0.796,0.723C52.587,62.852,53.282,62.617,53.403,62.371z"/>
	<path fill="#939598" d="M52.515,61.942c-0.153-0.063-0.291,0.24-0.095,0.285C52.615,62.272,52.669,62.006,52.515,61.942z"/>
	<path fill="#D1D3D4" stroke="#000000" stroke-width="0.2" d="M55.194,61.64c-0.126-0.289-1.793-0.109-1.896,0.48
		c-0.102,0.588,0.827,1.104,1.248,0.945C54.968,62.906,55.355,62.008,55.194,61.64z"/>
	<path fill="#939598" d="M54.28,62.146c-0.154-0.063-0.291,0.24-0.096,0.285C54.38,62.476,54.434,62.21,54.28,62.146z"/>
	<path fill="#D1D3D4" stroke="#000000" stroke-width="0.2" d="M53.531,57.86c-0.088-0.233-1.004-0.77-1.393-0.556
		c-0.389,0.214-0.765,1.239-0.485,1.433c0.278,0.194,0.939,0.569,1.253,0.441C53.219,59.05,53.642,58.153,53.531,57.86z"/>
	<path fill="#939598" d="M52.636,58.146c-0.153-0.064-0.291,0.238-0.095,0.285C52.737,58.475,52.791,58.208,52.636,58.146z"/>
	<path fill="#D1D3D4" stroke="#000000" stroke-width="0.2" d="M49.639,65.858c0.045-0.389-0.967-1.04-1.508-0.859
		c-0.541,0.18-0.525,1.495,0.13,1.617C48.915,66.738,49.586,66.313,49.639,65.858z"/>
	<path fill="#939598" d="M48.72,65.552c-0.153-0.063-0.291,0.239-0.095,0.285C48.82,65.882,48.875,65.615,48.72,65.552z"/>
	<path fill="#D1D3D4" stroke="#000000" stroke-width="0.2" d="M55.371,63.982c0.19-0.881-1.543-1.222-1.75-0.2
		C53.415,64.805,55.188,64.832,55.371,63.982z"/>
	<path fill="#939598" d="M54.612,63.795c-0.05-0.159-0.37-0.07-0.279,0.109C54.423,64.084,54.662,63.954,54.612,63.795z"/>
	<path fill="#D1D3D4" stroke="#000000" stroke-width="0.2" d="M50.1,57.741c0.254-0.062,0.89-1.057,0.678-1.278
		c-0.213-0.223-1.542-0.727-1.774-0.348c-0.232,0.378-0.289,0.838-0.042,1.074C49.207,57.424,49.835,57.807,50.1,57.741z"/>
	<path fill="#939598" d="M49.858,56.786c-0.051-0.159-0.371-0.07-0.281,0.109C49.67,57.074,49.908,56.944,49.858,56.786z"/>
	<path fill="#D1D3D4" stroke="#000000" stroke-width="0.2" d="M54.985,59.443c0.139-0.282-1.071-1.444-1.587-1.144
		s-0.314,1.342,0.079,1.563C53.87,60.083,54.807,59.803,54.985,59.443z"/>
	<path fill="#939598" d="M54.009,59.069c-0.051-0.159-0.371-0.069-0.28,0.109C53.82,59.357,54.059,59.228,54.009,59.069z"/>
	<path fill="#D1D3D4" stroke="#000000" stroke-width="0.2" d="M59.737,59.533c0.122-0.218-0.055-1.265-0.47-1.425
		c-0.415-0.159-1.44,0.212-1.411,0.549c0.031,0.338,0.168,1.085,0.469,1.244C58.625,60.059,59.583,59.808,59.737,59.533z"/>
	<path fill="#939598" d="M58.944,59.031c-0.051-0.159-0.37-0.069-0.279,0.109C58.756,59.319,58.994,59.189,58.944,59.031z"/>
	<path fill="#D1D3D4" stroke="#000000" stroke-width="0.2" d="M53.974,61.405c0.326-0.215,0.173-1.409-0.311-1.708
		c-0.486-0.298-1.483,0.56-1.156,1.14C52.834,61.416,53.591,61.657,53.974,61.405z"/>
	<path fill="#939598" d="M53.618,60.504c-0.051-0.159-0.371-0.069-0.28,0.11C53.429,60.793,53.667,60.664,53.618,60.504z"/>
	<path fill="#D1D3D4" stroke="#000000" stroke-width="0.2" d="M59.208,62.239c0.212,0.154,1.382,0.003,1.415-0.303
		c0.033-0.306-0.435-1.647-0.874-1.583c-0.438,0.065-0.828,0.317-0.851,0.658C58.876,61.352,58.986,62.078,59.208,62.239z"/>
	<path fill="#939598" d="M59.784,61.439c0.088-0.141-0.185-0.328-0.264-0.144C59.442,61.479,59.695,61.58,59.784,61.439z"/>
	<path fill="#D1D3D4" stroke="#000000" stroke-width="0.2" d="M56.703,61.17c0.305-0.074,0.417-1.748-0.145-1.951
		c-0.562-0.202-1.23,0.623-1.146,1.066S56.312,61.266,56.703,61.17z"/>
	<path fill="#939598" d="M56.362,60.182c0.089-0.141-0.185-0.328-0.263-0.144C56.019,60.223,56.271,60.323,56.362,60.182z"/>
	<path fill="#D1D3D4" stroke="#000000" stroke-width="0.2" d="M53.876,66.594c0.245-0.046,0.933-0.855,0.79-1.276
		s-1.088-0.967-1.328-0.728c-0.239,0.241-0.723,0.827-0.651,1.159C52.758,66.081,53.567,66.653,53.876,66.594z"/>
	<path fill="#939598" d="M53.751,65.664c0.089-0.14-0.185-0.328-0.264-0.143C53.409,65.706,53.662,65.805,53.751,65.664z"/>
	<path fill="#D1D3D4" stroke="#000000" stroke-width="0.2" d="M50.963,57.754c0.835,0.34,1.472-1.309,0.501-1.689
		C50.493,55.685,50.159,57.427,50.963,57.754z"/>
	<path fill="#939598" d="M51.279,57.039c0.165-0.022,0.133-0.353-0.059-0.294C51.027,56.803,51.114,57.062,51.279,57.039z"/>
	<path fill="#D1D3D4" stroke="#000000" stroke-width="0.2" d="M51.278,68.006c0.193,0.158,1.254,0.166,1.484-0.215
		c0.229-0.379,0.042-1.455-0.296-1.484c-0.337-0.028-1.098-0.022-1.306,0.245C50.953,66.821,51.035,67.808,51.278,68.006z"/>
	<path fill="#939598" d="M51.91,67.313c0.165-0.022,0.132-0.353-0.061-0.294C51.658,67.077,51.744,67.335,51.91,67.313z"/>
	<path fill="#D1D3D4" stroke="#000000" stroke-width="0.2" d="M58.929,64.248c0.156,0.358,1.357,0.415,1.736-0.011
		c0.378-0.426-0.293-1.558-0.92-1.336C59.116,63.124,58.747,63.826,58.929,64.248z"/>
	<path fill="#939598" d="M59.878,64.053c0.165-0.022,0.132-0.352-0.06-0.293S59.712,64.075,59.878,64.053z"/>
	<path fill="#D1D3D4" stroke="#000000" stroke-width="0.2" d="M48.929,58.396c0.277,0.858,1.949,0.287,1.616-0.701
		C50.213,56.706,48.663,57.57,48.929,58.396z"/>
	<path fill="#939598" d="M49.681,58.179c0.124,0.112,0.355-0.125,0.187-0.235C49.7,57.835,49.557,58.066,49.681,58.179z"/>
	<path fill="#D1D3D4" stroke="#000000" stroke-width="0.2" d="M56.959,60.934c-0.189,0.182-0.243,1.36,0.053,1.447
		c0.295,0.085,1.698-0.142,1.71-0.586c0.012-0.443-0.169-0.871-0.501-0.952C57.89,60.761,57.157,60.744,56.959,60.934z"/>
	<path fill="#939598" d="M57.647,61.641c0.123,0.111,0.355-0.126,0.187-0.235C57.665,61.296,57.523,61.528,57.647,61.641z"/>
	<path fill="#D1D3D4" stroke="#000000" stroke-width="0.2" d="M56.766,64.305c0.02,0.313,1.648,0.715,1.945,0.196
		c0.296-0.518-0.399-1.319-0.85-1.314C57.41,63.192,56.74,63.904,56.766,64.305z"/>
	<path fill="#939598" d="M57.797,64.141c0.124,0.112,0.356-0.125,0.187-0.234C57.816,63.796,57.674,64.028,57.797,64.141z"/>
	<path fill="#D1D3D4" stroke="#000000" stroke-width="0.2" d="M47.951,63.546c0.003,0.25,0.681,1.068,1.119,1
		c0.439-0.069,1.142-0.904,0.947-1.181c-0.195-0.277-0.688-0.856-1.027-0.843C48.651,62.535,47.947,63.233,47.951,63.546z"/>
	<path fill="#939598" d="M48.889,63.585c0.123,0.112,0.355-0.125,0.188-0.235C48.907,63.241,48.766,63.473,48.889,63.585z"/>
	<path fill="#D1D3D4" stroke="#000000" stroke-width="0.2" d="M50.328,62.817c-0.173,0.349,0.554,1.307,1.124,1.323
		c0.571,0.016,1.006-1.225,0.432-1.563C51.31,62.238,50.534,62.406,50.328,62.817z"/>
	<path fill="#939598" d="M51.087,63.418c0.124,0.113,0.355-0.125,0.187-0.234C51.106,63.074,50.964,63.306,51.087,63.418z"/>
</g>
<path fill="#FFFFFF" stroke="#000000" stroke-width="0.2" d="M47.279,57.395c-0.209,0.016-0.355-0.483-0.36-0.598
	c-0.177,0.012-0.618-0.387-0.636-0.533c-0.244,0.073-0.83-0.139-0.908-0.256c-0.225,0.144-0.664,0.094-0.739-0.003
	c-0.127,0.164-0.715,0.277-0.822,0.176c-0.12,0.227-0.458,0.396-0.542,0.312c-0.061,0.187-0.303,0.439-0.419,0.358
	c-0.073,0.263-0.293,0.691-0.476,0.671c0.042,0.248-0.11,0.72-0.287,0.742c0.045,0.111,0.045,0.956-0.14,0.989
	c0.085,0.178,0.205,0.881-0.019,0.952c0.047,0.121,0.165,0.645,0.03,0.756c0.136,0.068,0.308,0.605,0.207,0.723
	c0.279-0.129,0.473,0.237,0.508,0.348c0.156-0.187,0.895-0.185,0.977-0.122c0.136-0.27,0.822-0.514,0.928-0.422
	c0.078-0.305,0.707-0.932,0.892-0.892c0.037-0.29,0.647-0.82,0.839-0.801c0.044-0.238,0.52-0.741,0.699-0.657
	c0.025-0.215,0.183-0.73,0.322-0.8C47.287,58.133,47.189,57.521,47.279,57.395z"/>
<path fill="#CCCCCC" d="M47.012,59.138c0.025-0.215,0.183-0.73,0.322-0.8c-0.046-0.205-0.144-0.816-0.054-0.943
	c-0.209,0.016-0.355-0.483-0.36-0.598c-0.177,0.012-0.618-0.387-0.636-0.533c-0.244,0.073-0.83-0.139-0.908-0.256
	c-0.225,0.144-0.664,0.094-0.739-0.003c-0.127,0.164-0.715,0.277-0.822,0.176c-0.12,0.227-0.458,0.396-0.542,0.312
	c-0.061,0.187-0.303,0.439-0.419,0.358c-0.073,0.263-0.293,0.691-0.476,0.671c0.042,0.248-0.11,0.72-0.287,0.742
	c0.037,0.091,1.925-1.323,3.129-1.012C47.12,57.743,46.833,59.055,47.012,59.138z"/>
<path fill="none" stroke="#000000" stroke-width="0.2" d="M47.279,57.395c-0.209,0.016-0.355-0.483-0.36-0.598
	c-0.177,0.012-0.618-0.387-0.636-0.533c-0.244,0.073-0.83-0.139-0.908-0.256c-0.225,0.144-0.664,0.094-0.739-0.003
	c-0.127,0.164-0.715,0.277-0.822,0.176c-0.12,0.227-0.458,0.396-0.542,0.312c-0.061,0.187-0.303,0.439-0.419,0.358
	c-0.073,0.263-0.293,0.691-0.476,0.671c0.042,0.248-0.11,0.72-0.287,0.742c0.045,0.111,0.045,0.956-0.14,0.989
	c0.085,0.178,0.205,0.881-0.019,0.952c0.047,0.121,0.165,0.645,0.03,0.756c0.136,0.068,0.308,0.605,0.207,0.723
	c0.279-0.129,0.473,0.237,0.508,0.348c0.156-0.187,0.895-0.185,0.977-0.122c0.136-0.27,0.822-0.514,0.928-0.422
	c0.078-0.305,0.707-0.932,0.892-0.892c0.037-0.29,0.647-0.82,0.839-0.801c0.044-0.238,0.52-0.741,0.699-0.657
	c0.025-0.215,0.183-0.73,0.322-0.8C47.287,58.133,47.189,57.521,47.279,57.395z"/>
<path fill="#FFFFFF" d="M152.765-5.438l4.5,6.5c0,0-2.167,80.788-2.134,82.165s2.134,87.875,2.134,87.875l-26,5L152.765-5.438z"/>
<path fill="#FFFFFF" d="M0.515,7.062l13-4l13.5,167.29l-19.25,0.75c0,0-3.388-104.481-3.509-106.35S0.515,7.062,0.515,7.062z"/>
<path fill="#FFFFFF" d="M62.36,159.268c0,0,1.774-0.834,1.729-1c-0.199-0.748-2.155-4.229-2.667-4.792
	c-0.625-0.688-5.445-3.297-9.083-3.083c-2.833,0.167-6.907,3.479-7.542,4.208c-0.517,0.594-3.441,3.309-3.667,4.375L62.36,159.268z"
	/>
</svg>
